<svg xmlns="http://www.w3.org/2000/svg" width="300" height="70" viewBox="0 0 79.37 18.52">
  <path d="M65.7 18.5l.2-.8a5433.82 5433.82 0 0 0 3.15-12.86l.11-.44h1.81c1.66 0 1.8 0 1.8.03s-.07.38-.18.8a10 10 0 0 0-.17.75c.01 0 .08-.06.15-.14a4.74 4.74 0 0 1 2.64-1.6c.3-.05.95-.06 1.29-.01.75.1 1.45.45 1.88.93.5.53.8 1.24.95 2.18a8.46 8.46 0 0 1-.99 5.08 5.38 5.38 0 0 1-3.56 2.82c-.25.05-.37.06-.87.05a3.2 3.2 0 0 1-2.37-.85 3.3 3.3 0 0 1-.76-1.27c-.09-.26-.08-.28-.21.28a866.1 866.1 0 0 1-1.23 5.03c-.01.04-.12.04-1.83.04l-1.81-.01zm7.51-5.19c.3-.1.5-.23.77-.5.73-.74 1.25-2 1.53-3.68.07-.4.07-.51.07-1.07 0-.57 0-.64-.05-.84-.2-.73-.67-1.1-1.38-1.1-.87 0-1.62.76-2.22 2.24-.32.8-.57 1.93-.6 2.8-.07 1.45.5 2.29 1.5 2.23.11-.01.28-.04.38-.08zM6.57 15.3a7.33 7.33 0 0 1-4.8-2.1A6.54 6.54 0 0 1 .07 9.58a8.75 8.75 0 0 1 0-2.1 8.3 8.3 0 0 1 1.97-4.3c.27-.32.88-.9 1.2-1.16C3.9 1.48 4.75.97 5.5.66 6.33.3 7.37.04 8.28-.05c.42-.04 1.41-.04 1.8 0 1.3.13 2.45.57 3.36 1.27.23.18.68.61.87.84a5.56 5.56 0 0 1 1.17 2.81c.04.34.06 1.02.04 1.2l-.02.15h-1.15L13.2 6.2v-.45a5.1 5.1 0 0 0-.25-1.58 3.22 3.22 0 0 0-2.58-2.3 5.8 5.8 0 0 0-1.2-.02c-2.22.21-3.99 2.01-4.65 4.73-.05.2-.12.6-.16.86-.06.44-.07.55-.07 1.28 0 .86.03 1.25.18 1.84.41 1.66 1.34 2.68 2.73 2.99.86.2 2.08.04 2.85-.34.1-.06.1-.03.23-.6A319.46 319.46 0 0 1 11 9.54c0-.02-.34-.03-1.27-.03H8.48l.05-.22a1106.7 1106.7 0 0 0 .42-1.68c.03-.03.7-.03 3.2-.03h3.17v.05l-.03.15-.19.8a2435.33 2435.33 0 0 1-1.53 6.3l-.11.43h-1.51l-.41-.28-.64-.44-.22-.15-.25.12c-.74.35-1.32.54-2.08.67a16.77 16.77 0 0 1-1.78.06zm14.94 0a5.19 5.19 0 0 1-4.58-5c0-.54.03-.82.16-1.31a6.59 6.59 0 0 1 4.74-4.59 5.54 5.54 0 0 1 3.97.37 5.3 5.3 0 0 1 2.1 1.96c.27.48.48 1.07.59 1.62.08.45.08 1.22 0 1.68a6.03 6.03 0 0 1-1.69 3.22 6.66 6.66 0 0 1-5.29 2.05zm.78-1.51c.3-.07.5-.2.82-.5.4-.4.7-.88 1-1.59.38-.92.64-1.93.8-3.07.05-.34.06-.56.06-1.04 0-.56 0-.64-.06-.82-.2-.73-.64-1.06-1.38-1.07-.34 0-.56.07-.84.25-.9.61-1.67 2.25-2.03 4.38a7.9 7.9 0 0 0-.08 2.38c.14.6.52 1 1.07 1.1.21.03.46.02.64-.02zm10.86 1.51a6.69 6.69 0 0 1-.82-.18 2.62 2.62 0 0 1-1.86-2.2c-.05-.31-.02-1 .05-1.31a596.63 596.63 0 0 1 1.36-5.46c0-.02-.34-.02-.76-.02-.7 0-.76 0-.76-.05l.2-.86.21-.8.78-.01h.78l.9-.89a834.94 834.94 0 0 0 1.8-1.75l.15-.14h.77c.42 0 .76.01.76.02a95.88 95.88 0 0 1-.65 2.71c0 .04.17.04 1.51.04 1.05 0 1.52.01 1.52.03l-.4 1.6-.02.1H35.6l-.77 3.08a258.7 258.7 0 0 0-.8 3.29c-.06.27-.05.53.02.66.12.19.44.27.73.19.13-.04.18-.07.32-.2.31-.33.55-.92 1-2.46l.06-.2h.8c.45 0 .81 0 .82.02a11.3 11.3 0 0 1-.86 2.58c-.52 1.09-1.18 1.77-1.99 2.05-.37.13-.57.16-1.15.17h-.64zm25.17-.04a5.17 5.17 0 0 1-4.22-4.04 5.99 5.99 0 0 1-.05-1.46 6.28 6.28 0 0 1 3.43-4.8 6.9 6.9 0 0 1 2.28-.72 5.23 5.23 0 0 1 5.12 2.3 5.03 5.03 0 0 1 .38 4.65 6.8 6.8 0 0 1-6.01 4.12c-.53 0-.62 0-.93-.05zm1.02-1.46c1.02-.18 1.97-1.75 2.5-4.12.18-.87.3-1.98.23-2.5a2.1 2.1 0 0 0-.2-.78c-.2-.4-.55-.64-1.05-.7-.54-.05-.95.12-1.39.55-.78.8-1.44 2.48-1.71 4.4a9.85 9.85 0 0 0-.1 1.61c.04.52.19.94.44 1.2.3.3.8.43 1.28.34zm-20.1 1.28l.22-.92A52578.62 52578.62 0 0 1 42.94.17l.02-.06h3.28c2.88.01 3.33.02 3.67.06 1.53.17 2.67.63 3.45 1.38.54.52.86 1.14.96 1.87.06.37.06.6 0 .94a3.9 3.9 0 0 1-1.42 2.46c-.75.66-2 1.22-3.34 1.52-.99.21-1.93.28-3.7.28h-1.18l-.02.08-.08.31a2776.65 2776.65 0 0 0-1.15 4.66l-.35 1.43h-1.92c-1.5 0-1.92 0-1.92-.03zm8.24-8.42c1.2-.15 2.16-.76 2.54-1.62.16-.36.2-.52.21-.94.02-.45-.02-.68-.18-1a1.73 1.73 0 0 0-.75-.72c-.54-.26-.81-.3-2.01-.32l-.96-.01-.24.96-.9 3.64c0 .05.05.05 1 .05.71 0 1.07-.01 1.3-.04z"/>
</svg>
