<?xml version="1.0" encoding="UTF-8" standalone="no"?>
<svg
   xmlns:dc="http://purl.org/dc/elements/1.1/"
   xmlns:cc="http://creativecommons.org/ns#"
   xmlns:rdf="http://www.w3.org/1999/02/22-rdf-syntax-ns#"
   xmlns:svg="http://www.w3.org/2000/svg"
   xmlns="http://www.w3.org/2000/svg"
   xmlns:sodipodi="http://sodipodi.sourceforge.net/DTD/sodipodi-0.dtd"
   xmlns:inkscape="http://www.inkscape.org/namespaces/inkscape"
   width="300"
   height="70"
   viewBox="0 0 79.37 18.52"
   version="1.1"
   id="svg3725"
   sodipodi:docname="gotpop.svg"
   inkscape:version="0.92.4 (5da689c313, 2019-01-14)">
  <metadata
     id="metadata3731">
    <rdf:RDF>
      <cc:Work
         rdf:about="">
        <dc:format>image/svg+xml</dc:format>
        <dc:type
           rdf:resource="http://purl.org/dc/dcmitype/StillImage" />
        <dc:title></dc:title>
      </cc:Work>
    </rdf:RDF>
  </metadata>
  <defs
     id="defs3729" />
  <sodipodi:namedview
     pagecolor="#ffffff"
     bordercolor="#666666"
     borderopacity="1"
     objecttolerance="10"
     gridtolerance="10"
     guidetolerance="10"
     inkscape:pageopacity="0"
     inkscape:pageshadow="2"
     inkscape:window-width="1280"
     inkscape:window-height="697"
     id="namedview3727"
     showgrid="false"
     inkscape:zoom="10.606602"
     inkscape:cx="48.25467"
     inkscape:cy="24.495643"
     inkscape:window-x="-8"
     inkscape:window-y="-8"
     inkscape:window-maximized="1"
     inkscape:current-layer="svg3725" />
  <path
     d="m 65.035057,18.47379 0.197497,-0.789978 A 5365.6955,5365.6955 0 0 0 68.34306,4.9850469 l 0.108623,-0.434483 h 1.787306 c 1.639189,0 1.777436,0 1.777436,0.029622 0,0.029622 -0.06916,0.3752355 -0.177743,0.7899703 a 9.8746284,9.8746284 0 0 0 -0.167875,0.7405975 c 0.01,0 0.07898,-0.05925 0.148121,-0.1382446 a 4.6805739,4.6805739 0 0 1 2.606904,-1.5799406 c 0.296237,-0.04937 0.938091,-0.05925 1.273827,-0.00995 0.740597,0.098752 1.431819,0.4443585 1.856431,0.9183403 0.493733,0.5233553 0.78997,1.224454 0.938091,2.152669 a 8.3539361,8.3539361 0 0 1 -0.977588,5.0163142 5.3125499,5.3125499 0 0 1 -3.515368,2.784645 c -0.246869,0.04934 -0.365363,0.05922 -0.859095,0.04934 A 3.1598812,3.1598812 0 0 1 70.801842,14.464645 3.2586275,3.2586275 0 0 1 70.051368,13.21056 c -0.08886,-0.256734 -0.07898,-0.276493 -0.207365,0.276495 a 855.24161,855.24161 0 0 1 -1.214577,4.966937 c -0.0099,0.03955 -0.1185,0.03955 -1.807056,0.03955 l -1.787313,-0.01 z m 7.41585,-5.124937 c 0.296237,-0.0988 0.493731,-0.227114 0.760345,-0.493729 0.720848,-0.730716 1.234325,-1.974921 1.510817,-3.6338612 0.06916,-0.3949849 0.06916,-0.5036062 0.06916,-1.0565852 0,-0.5628538 0,-0.6319764 -0.04934,-0.829469 -0.197502,-0.7208478 -0.661606,-1.086209 -1.362704,-1.086209 -0.859096,0 -1.599692,0.750472 -2.192174,2.2119172 -0.315982,0.7899698 -0.562852,1.9058052 -0.592473,2.7648942 -0.06916,1.431828 0.49373,2.261294 1.481192,2.202045 0.108624,-0.01 0.276489,-0.03952 0.375238,-0.07898 z M 6.6463807,15.313905 A 7.2381027,7.2381027 0 0 1 1.9065585,13.240233 6.458007,6.458007 0 0 1 0.22787231,9.6656212 a 8.6403003,8.6403003 0 0 1 0,-2.0736719 A 8.1959419,8.1959419 0 0 1 2.1731742,3.3458589 C 2.4397892,3.0298707 3.0421412,2.4571422 3.3581296,2.2004017 4.0098549,1.6671724 4.8491984,1.163566 5.5897956,0.85745241 6.4093897,0.50196588 7.4363509,0.24522554 8.3349421,0.15635389 c 0.4147345,-0.0394989 1.3923228,-0.0394989 1.7774389,0 1.283689,0.12837017 2.419279,0.56285382 3.31787,1.25407771 0.227115,0.1777432 0.671473,0.6023523 0.859095,0.8294689 a 5.4902932,5.4902932 0 0 1 1.155326,2.7747702 c 0.03952,0.3357377 0.05923,1.0072129 0.03952,1.1849558 l -0.01971,0.1481199 h -1.135624 l -1.135584,-0.01975 V 5.8836383 A 5.0360604,5.0360604 0 0 0 12.946392,4.3234467 3.1796304,3.1796304 0 0 0 10.398738,2.0522824 5.7272843,5.7272843 0 0 0 9.2137843,2.0325335 C 7.0216167,2.2399005 5.2738074,4.0173337 4.6220821,6.7032327 4.5727089,6.9007252 4.5035867,7.29571 4.4640878,7.5524508 4.4048398,7.986934 4.3949628,8.0955555 4.3949628,8.8164032 c 0,0.849218 0.029622,1.2343328 0.1777437,1.8169338 0.4048596,1.639186 1.3231997,2.646397 2.6957737,2.952503 0.8492179,0.197503 2.0539225,0.03952 2.8142728,-0.335728 0.0988,-0.05925 0.0988,-0.02964 0.227115,-0.592473 a 315.4549,315.4549 0 0 1 0.710973,-3.0315164 c 0,-0.019748 -0.335738,-0.029622 -1.2540791,-0.029622 H 8.532435 L 8.5818079,9.3792569 A 1092.8252,1092.8252 0 0 0 8.9965427,7.7203191 c 0.029622,-0.029622 0.6912242,-0.029622 3.1598823,-0.029622 h 3.130253 v 0.04937 l -0.02962,0.1481196 -0.187613,0.7899699 a 2404.7974,2404.7974 0 0 1 -1.510822,6.2210184 l -0.108622,0.42461 h -1.491072 l -0.40486,-0.276494 -0.631981,-0.434478 -0.217235,-0.148117 -0.246867,0.118494 c -0.7307231,0.345607 -1.3034514,0.53323 -2.0539228,0.661601 a 16.559755,16.559755 0 0 1 -1.7576842,0.05923 z m 14.7526923,0 a 5.1249322,5.1249322 0 0 1 -4.522574,-4.93731 c 0,-0.5332275 0.02964,-0.8097203 0.157985,-1.2935771 a 6.5073801,6.5073801 0 0 1 4.680581,-4.532454 5.4705447,5.4705447 0 0 1 3.920225,0.3653612 5.2335529,5.2335529 0 0 1 2.073673,1.9354267 c 0.266616,0.4739824 0.473982,1.0565853 0.582607,1.5996902 0.07898,0.4443582 0.07898,1.2047043 0,1.658938 a 5.9544014,5.9544014 0 0 1 -1.668815,3.179623 6.5765024,6.5765024 0 0 1 -5.223682,2.024302 z m 0.770223,-1.491072 c 0.296237,-0.06916 0.493739,-0.197485 0.809719,-0.493728 0.394987,-0.394988 0.691231,-0.868969 0.987468,-1.570063 0.37523,-0.90846 0.631971,-1.9058079 0.789966,-3.0315105 0.04934,-0.3357375 0.05925,-0.5529791 0.05925,-1.0269615 0,-0.5529792 0,-0.6319759 -0.05925,-0.8097194 -0.197492,-0.7208478 -0.631981,-1.0467105 -1.362697,-1.0565855 -0.335738,0 -0.552979,0.069125 -0.829467,0.246866 -0.888718,0.6023521 -1.649066,2.2217914 -2.004555,4.3250909 a 7.8009564,7.8009564 0 0 0 -0.07898,2.35015 c 0.138246,0.592481 0.513481,0.987469 1.056587,1.086221 0.207365,0.02964 0.454231,0.0197 0.631975,-0.0197 z m 10.72385,1.491072 a 6.6061267,6.6061267 0 0 1 -0.80972,-0.177744 2.5871526,2.5871526 0 0 1 -1.836684,-2.172416 c -0.04934,-0.306106 -0.0197,-0.987459 0.04934,-1.293575 a 589.14998,589.14998 0 0 1 1.34296,-5.3915467 c 0,-0.019744 -0.335743,-0.019744 -0.750475,-0.019744 -0.691221,0 -0.750466,0 -0.750466,-0.04937 l 0.197488,-0.8492179 0.207371,-0.7899709 0.770217,-0.00995 h 0.770224 L 32.972118,3.6815607 A 824.47225,824.47225 0 0 0 34.74955,1.9535013 l 0.148121,-0.1382449 h 0.760345 c 0.414737,0 0.750468,0.00995 0.750468,0.019748 A 94.677941,94.677941 0 0 1 35.76664,4.5110347 c 0,0.039502 0.167863,0.039502 1.491068,0.039502 1.036839,0 1.500942,0.00995 1.500942,0.029622 l -0.394985,1.5799405 -0.0197,0.098751 H 35.312448 L 34.552101,9.3002426 A 255.45667,255.45667 0 0 0 33.762128,12.54899 c -0.05922,0.266615 -0.04934,0.523362 0.0197,0.651725 0.118494,0.187623 0.434479,0.266614 0.720849,0.187623 0.128367,-0.03952 0.177742,-0.06916 0.315987,-0.197493 0.306114,-0.325859 0.543102,-0.908471 0.987461,-2.429154 l 0.05924,-0.197501 h 0.789971 c 0.444358,0 0.799845,0 0.809716,0.0197 a 11.158335,11.158335 0 0 1 -0.849216,2.547663 c -0.51348,1.076323 -1.165205,1.747806 -1.965052,2.024298 -0.365354,0.128366 -0.562851,0.157988 -1.135578,0.167866 h -0.631978 z m 24.854441,-0.03953 a 5.1051832,5.1051832 0 0 1 -4.167098,-3.989348 5.9149027,5.9149027 0 0 1 -0.04934,-1.4416936 6.201267,6.201267 0 0 1 3.387,-4.7398241 6.8134938,6.8134938 0 0 1 2.251414,-0.7109736 5.1644307,5.1644307 0 0 1 5.055813,2.2711646 4.9669382,4.9669382 0 0 1 0.375235,4.5916987 6.7147474,6.7147474 0 0 1 -5.934651,4.06835 c -0.523357,0 -0.612228,0 -0.918339,-0.04934 z m 1.007211,-1.441696 C 59.762008,13.654933 60.7001,12.104612 61.223456,9.7643299 61.4012,8.905238 61.519693,7.8091542 61.450571,7.2956737 A 2.0736721,2.0736721 0 0 0 61.253078,6.5254731 C 61.055587,6.1305001 60.709969,5.8935092 60.216244,5.8342611 59.683013,5.7848885 59.278151,5.9527566 58.843669,6.377366 58.073446,7.1673362 57.421722,8.8262739 57.155107,10.722205 a 9.7265092,9.7265092 0 0 0 -0.0988,1.589805 c 0.03952,0.513488 0.187622,0.928219 0.434489,1.184957 0.296238,0.29624 0.789973,0.424613 1.263953,0.335742 z m -19.848004,1.263963 0.217245,-0.908467 a 51919.434,51919.434 0 0 1 3.43637,-13.81456732 l 0.0197,-0.0592479 h 3.238883 c 2.84389,0.00988 3.288248,0.0197491 3.623986,0.0592479 1.510821,0.16786869 2.636526,0.62210128 3.406749,1.36269882 0.533231,0.5134803 0.849219,1.1257074 0.947961,1.8465553 0.05922,0.3653614 0.05922,0.5924777 0,0.9282153 a 3.8511052,3.8511052 0 0 1 -1.40218,2.4291554 c -0.740596,0.6517258 -1.974923,1.2047046 -3.298125,1.5009436 -0.97759,0.2073673 -1.905802,0.2764895 -3.653611,0.2764895 h -1.165203 l -0.0197,0.078992 -0.07898,0.3061136 a 2741.8389,2741.8389 0 0 0 -1.135586,4.6015738 l -0.345619,1.412079 h -1.895937 c -1.481193,0 -1.895924,0 -1.895924,-0.02964 z m 8.136697,-8.3144213 c 1.184954,-0.1481221 2.132915,-0.7504746 2.508151,-1.5996928 0.157993,-0.3554866 0.197489,-0.5134805 0.207365,-0.928215 0.01974,-0.4443585 -0.01974,-0.6714747 -0.177743,-0.987463 A 1.7083106,1.7083106 0 0 0 48.840668,2.5558917 C 48.307437,2.2991513 48.040822,2.2596526 46.855868,2.2399034 l -0.947962,-0.00995 -0.236994,0.9479641 -0.888717,3.594365 c 0,0.04937 0.04934,0.04937 0.987467,0.04937 0.701097,0 1.056585,-0.00995 1.283702,-0.039502 z"
     id="path3723"
     inkscape:connector-curvature="0"
     style="stroke-width:0.98746282" />
</svg>
