<?xml version="1.0" encoding="utf-8"?>
<!-- Generator: Adobe Illustrator 22.1.0, SVG Export Plug-In . SVG Version: 6.00 Build 0)  -->
<svg version="1.1" id="Layer_1" xmlns="http://www.w3.org/2000/svg" xmlns:xlink="http://www.w3.org/1999/xlink" x="0px" y="0px"
	 viewBox="0 0 715.1 170.5" style="enable-background:new 0 0 715.1 170.5;" xml:space="preserve">
<style type="text/css">
	.st0{fill:#152F4E;}
	.st1{fill:none;stroke:#152F4E;stroke-miterlimit:10;}
	.st2{fill:#0BBBEF;}
	.st3{fill:url(#SVGID_1_);}
</style>
<g>
	<path class="st0" d="M642.9,75.6v-6.5l-4.3-6.9c-0.1-0.2-0.2-0.4-0.2-0.5c0-0.3,0.5-0.4,1.4-0.4h0.9c0.7,0,1.1,0.1,1.3,0.4l2.6,4.6
		l2.6-4.6c0.2-0.3,0.6-0.4,1.3-0.4h0.8c0.9,0,1.3,0.1,1.3,0.4c0,0.1-0.1,0.3-0.2,0.5l-4.3,6.9v6.5c0,0.5-0.4,0.7-1.3,0.7h-0.7
		C643.3,76.2,642.9,76,642.9,75.6z"/>
	<path class="st0" d="M654.6,75.3V62c0-0.6,0.3-0.9,0.9-0.9h7.8c0.4,0,0.6,0.4,0.6,1.1v0.7c0,0.7-0.2,1.1-0.6,1.1h-5.4v3.1h4.8
		c0.4,0,0.6,0.4,0.6,1.1v0.7c0,0.7-0.2,1.1-0.6,1.1h-4.8v3.5h5.4c0.4,0,0.6,0.4,0.6,1.1v0.7c0,0.7-0.2,1.1-0.6,1.1h-7.9
		C654.9,76.2,654.6,75.9,654.6,75.3z"/>
	<path class="st0" d="M667.7,75.8c0-0.1,0-0.2,0.1-0.4l4.7-13.8c0.1-0.3,0.5-0.4,1.2-0.4h1.1c0.7,0,1.1,0.2,1.2,0.4l4.7,13.8
		c0,0.1,0.1,0.3,0.1,0.4c0,0.3-0.4,0.5-1.1,0.5h-0.9c-0.7,0-1.1-0.1-1.2-0.4l-0.9-2.6h-5l-0.9,2.6c-0.1,0.3-0.4,0.4-1,0.4h-0.9
		C668.1,76.2,667.7,76.1,667.7,75.8z M672.6,70.4h3.2l-1.2-3.8l-0.3-1.4h-0.1c-0.1,0.7-0.2,1.1-0.3,1.4L672.6,70.4z"/>
	<path class="st0" d="M684.9,75.6V62.1c0-0.6,0.3-0.9,0.9-0.9h4.2c3.6,0,5.3,1.3,5.3,4c0,0.8-0.2,1.5-0.7,2.1
		c-0.4,0.6-1.1,1-1.8,1.3v0.1c0.3,0.1,0.5,0.3,0.8,0.7c0.3,0.4,0.5,0.8,0.7,1.3l1.9,4.7c0.1,0.2,0.1,0.3,0.1,0.4
		c0,0.3-0.4,0.4-1.3,0.4h-0.9c-0.7,0-1.1-0.1-1.2-0.4l-1.7-4.2c-0.2-0.5-0.5-0.8-0.8-1s-0.7-0.3-1.4-0.3h-0.8v5.2
		c0,0.5-0.4,0.7-1.3,0.7h-0.7C685.3,76.2,684.9,76,684.9,75.6z M688.2,67.5h2c0.4,0,0.8-0.2,1.2-0.5c0.3-0.4,0.5-0.8,0.5-1.3
		s-0.2-0.9-0.5-1.2c-0.3-0.3-0.8-0.4-1.3-0.4h-1.9V67.5z"/>
	<path class="st0" d="M699.8,74.5c0-0.3,0.2-0.7,0.5-1.2s0.6-0.7,0.8-0.7c0.1,0,0.3,0.1,0.6,0.2c0.9,0.5,1.7,0.7,2.6,0.7
		c1.3,0,2-0.5,2-1.6c0-0.5-0.2-0.8-0.6-1.2c-0.4-0.3-0.9-0.6-1.6-0.8c-0.6-0.2-1.2-0.5-1.8-0.8s-1.1-0.8-1.5-1.4s-0.6-1.4-0.6-2.4
		s0.3-1.8,0.8-2.5c0.9-1.2,2.4-1.9,4.3-1.9c1.1,0,2,0.2,2.7,0.5s1.1,0.7,1.1,1s-0.1,0.7-0.4,1.2c-0.3,0.5-0.5,0.7-0.8,0.7
		c-0.1,0-0.2,0-0.4-0.1c-0.6-0.3-1.2-0.4-2-0.4s-1.3,0.1-1.6,0.4s-0.4,0.6-0.4,1s0.2,0.7,0.6,1s0.9,0.6,1.5,0.8
		c0.6,0.2,1.2,0.5,1.8,0.8s1.1,0.8,1.6,1.4c0.4,0.6,0.6,1.4,0.6,2.3s-0.1,1.7-0.4,2.3c-0.3,0.6-0.7,1.1-1.1,1.5
		c-0.9,0.7-2.1,1-3.5,1s-2.5-0.2-3.4-0.6C700.3,75.3,699.8,74.9,699.8,74.5z"/>
</g>
<path class="st0" d="M709.7,128.2c0,0,0,1.2,0,1.8c-0.5,8.2-3.3,15.4-8.6,21.6c-4.4,5.2-9.9,8.8-16.4,10.9c-2.7,0.8-5.5,1.4-8.3,1.5
	c-5.2,0.4-10.3-0.2-15.2-2.2c-4.6-1.8-8.5-4.5-12-7.9c-3.8-3.9-7-8.2-9.7-13c-3-5.2-5.9-10.4-8.8-15.6c-2.4-4.4-5-8.7-8.2-12.6
	s-7-7.1-11.9-8.8c-3.3-1.2-6.6-1.4-10-1.3c-0.6,0-1.3,0.1-1.9,0.2c-2.2,0.4-5.3,1.4-6.7,1.8c-0.5,0.2-1-0.2-1-0.7v-7
	c0-0.2,0.1-0.3,0.2-0.5L613,70.8h-37.2c-0.4,0-0.8-0.3-0.8-0.7V62c0-0.4,0.3-0.8,0.8-0.8h52.7c0.4,0,0.7,0.3,0.7,0.7v7.5l-4.1,4.7
	l-16.6,18.8c2.1,0.4,4.1,1,6.1,1.7c3.8,1.4,7.1,3.5,10.2,6.1c3.7,3.2,6.7,6.9,9.4,10.9c3.7,5.5,6.8,11.5,10,17.3
	c2.3,4.3,4.7,8.5,7.6,12.4c2.5,3.4,5.3,6.5,8.8,8.8s7.2,3.4,11.3,3.7c4.8,0.3,9.2-0.5,13.4-2.8c7-3.7,11.6-9.5,13.3-17.3
	c2.2-9.5-1.4-19-8.4-25c2.1-2.7,4-5.5,6.1-8.2c5.6,4.6,9.3,9.9,11.5,16.6c1,2.8,1.5,5.7,1.7,8.6
	C709.6,126.6,709.6,127.4,709.7,128.2z"/>
<line class="st1" x1="507.9" y1="61.5" x2="507.9" y2="164.6"/>
<path class="st2" d="M398.9,99.5c2.8-40.7-25.2-57.2-25.2-57.2s45.7,3.6,70.8,21.8l-43.9,34L398.9,99.5z"/>
<g>
	<path class="st0" d="M386,94.5V78.3h-2.5l-2.8,3.1c-2.2-1.7-3.3-2.1-5.4-2.8c-2-0.6-4.8-1-6.8-1c-7.9,0-14.1,6.2-14.1,13.9
		c0,6.8,4.5,11.6,12.7,13.7l6.5,1.7c4.9,1.2,7.3,3.6,7.3,7.2c0,3.9-3.7,7-8.4,7c-3.6,0-7.4-1.6-10.3-4.4c-2.6-2.5-3.9-4.9-6-10.9
		h-2.7V123h2.7l3.8-3.6c1.7,1.2,2.5,1.7,3.9,2.3c2.7,1.3,6,2,8.9,2c8.5,0,14.7-6.1,14.7-14.5c0-4.2-1.3-7.6-3.8-9.7
		c-0.9-0.8-2.2-1.5-3.6-2.2c-2.8-1.2-6.5-2.3-10.6-3.4c-2-0.5-3.5-1-4.7-1.5c-2.2-1-3.7-3.1-3.7-5.4c0-3.8,3.8-6.8,8.7-6.8
		c6.3,0,10.2,4,14,14.3L386,94.5L386,94.5z"/>
	<path class="st0" d="M336.3,81.1h0.4c1.4,0,3.3,0.2,4.2,0.5c2.4,0.7,3.2,2.8,3.2,8.3v18c0,4-0.9,7-2.6,9.1c-2,2.3-5.8,3.9-9.6,3.9
		c-3.4,0-6.5-1.2-8.5-3.3c-2.5-2.5-3.6-6.5-3.6-13.1V87.6c0-5.9,0.5-6.4,5.5-6.4h0.8v-2.8h-22.5v2.8h0.8c5,0,5.5,0.6,5.5,6.4v18.6
		c0,5.2,0.9,8.7,2.9,11.3c2.9,3.8,9.3,6.2,16.6,6.2c7.5,0,13.2-2.5,15.9-6.9c1.5-2.5,2.1-5.2,2.1-10.1V89.9c0-7.1,1-8.7,5.7-8.7h0.5
		v-2.8h-17v2.7H336.3z"/>
	<path class="st0" d="M258.5,78.3v2.8h0.7l1.7,0.1c3.4,0.1,4,0.9,4,6.4v26.1c0,5.4-0.6,6.3-4,6.3l-1.7,0.1h-0.7v2.8h26.6
		c5.8,0,9.3-0.8,12.9-2.7c3.7-2,5.9-5.5,5.9-9.3c0-3.2-1.7-6.3-4.6-8c-2.7-1.6-5.6-2.5-10.8-3.1v-0.1c8.4-1.4,12.4-4.9,12.4-10.9
		c0-7.2-5.2-10.4-16.9-10.4L258.5,78.3L258.5,78.3z M275.1,98.2V84.4c0-3,0.2-3.3,3.3-3.3h4.1c3.3,0,5.2,0.7,6.6,2.3
		c1.4,1.6,2.1,3.8,2.1,6c0,4.4-2.6,7.8-6.3,8.5c-0.9,0.2-1.9,0.2-3.1,0.2L275.1,98.2L275.1,98.2z M275.1,101.2h6.8
		c7,0,10.9,3.3,10.9,9.3c0,5.8-3.7,9.4-9.7,9.4h-4.7c-2.8,0-3.3-0.6-3.3-3.7L275.1,101.2L275.1,101.2z"/>
	<path class="st0" d="M206.2,81.7h0.1l16.1,41h2l14-41h0.1v31.8c0,5.7-0.5,6.4-5,6.4h-1.3v2.8h22.3v-2.8h-0.7l-1.7-0.1
		c-3.4-0.1-4-0.9-4-6.4V87.3c0-6,0.2-6.3,5.6-6.4h0.9v-2.8h-18.4l-9.8,28.6l-11.2-28.6H197v2.8h1.2c4.8,0.1,5.1,0.5,5.1,6.4v23.8
		c0,6.1-1.8,8.6-6.1,8.7v2.8h16.4v-2.8c-1.9-0.1-2.6-0.2-3.8-0.8c-2.5-1.2-3.4-3.3-3.4-8V81.7H206.2L206.2,81.7z"/>
	<path class="st0" d="M176.5,81.1h0.4c1.4,0,3.3,0.2,4.2,0.5c2.4,0.7,3.2,2.8,3.2,8.3v18c0,4-0.9,7-2.6,9.1c-2,2.3-5.8,3.9-9.6,3.9
		c-3.4,0-6.5-1.2-8.6-3.3c-2.5-2.5-3.6-6.5-3.6-13.1V87.6c0-5.9,0.5-6.4,5.5-6.4h0.8v-2.8h-22.5v2.8h0.8c5,0,5.5,0.6,5.5,6.4v18.6
		c0,5.2,0.9,8.7,2.9,11.3c3,3.8,9.4,6.2,16.6,6.2c7.5,0,13.2-2.5,15.9-6.9c1.5-2.5,2.1-5.2,2.1-10.1V89.9c0-7.1,1-8.7,5.7-8.7h0.5
		v-2.8h-17v2.7H176.5z"/>
	<path class="st0" d="M144.8,122.8l1-16.4h-2.5c-1,4.1-2.2,6.8-3.9,9.1c-2.1,2.8-5.7,4.6-9.7,4.6h-4.5c-5.7,0-6.6-0.6-6.6-4.3V87.6
		c0-5.4,0.6-6.3,4.1-6.3l1.8-0.1h0.7v-2.8h-23v2.8h0.7l1.8,0.1c3.4,0.1,4,0.9,4,6.3v26.1c0,5.4-0.6,6.3-4,6.4l-1.8,0.1h-0.7v2.8
		h42.6L144.8,122.8L144.8,122.8z"/>
	<path class="st0" d="M76.7,77.6c-12.6,0-23.4,10.9-23.4,23.5c0,4.2,1.2,8.5,3.6,12.2c4.4,6.9,10.9,10.3,19.8,10.3
		c4.2,0,8.1-0.8,11.2-2.4c7.3-3.7,12.2-11.8,12.2-20.1C100,88.4,89.2,77.6,76.7,77.6L76.7,77.6z M76.8,80.1
		c8.1,0,12.2,6.9,12.2,20.5c0,7.4-1,13-3.1,16.1c-1.8,2.6-5.2,4.2-9.2,4.2c-8.4,0-12.4-6.3-12.4-19.4C64.3,87.2,68.4,80.1,76.8,80.1
		L76.8,80.1z"/>
	<path class="st0" d="M46,107.8c-1.1,4.1-1.8,5.6-3.8,7.9c-2.9,3.4-7.1,5.4-11.5,5.4c-2.6,0-5.1-0.7-7.2-2c-4.5-3-6.5-8.7-6.5-18.7
		c0-12.7,4.9-20.1,13-20.1c3.6,0,6.6,1.4,9.2,4.1c1.2,1.3,2.2,2.6,3,4.2c1.2,2.2,1.6,3.3,2.8,7h2.6l-0.9-17.8h-2.5l-3.4,3.1
		c-3.6-2.2-6.9-3.1-11.7-3.1c-13.5,0-23.7,10-23.7,23.2c0,6.3,2.5,12.9,6.5,16.7c3.9,3.8,10.3,6,17,6c6.9,0,12.4-2.4,15.9-6.9
		c2-2.6,2.6-4.2,3.8-8.9L46,107.8L46,107.8L46,107.8z"/>
</g>
<path class="st0" d="M444.5,64.1l-45.8,35.4c0,0,26.1-39.9,18.4-93.6C417.1,5.9,439.5,35.4,444.5,64.1z"/>
<path class="st2" d="M247.8,161.2v-28.1c0-0.9,0.4-1.3,1.3-1.3h8.9c4.1,0,7.4,1.2,9.9,3.7c2.5,2.4,3.7,6.4,3.7,11.7
	c0,5.4-1.2,9.3-3.7,11.7s-5.8,3.7-9.9,3.7h-8.9C248.2,162.5,247.8,162.1,247.8,161.2z M251.6,159.2h6c3,0,5.3-1,7.2-2.9
	c1.8-1.9,2.7-5,2.7-9.1s-0.9-7.2-2.7-9.1c-1.8-1.9-4.2-2.9-7.2-2.9h-6V159.2z"/>
<path class="st2" d="M277.9,161.7v-29c0-0.6,0.6-1,1.8-1h0.4c1.2,0,1.8,0.3,1.8,1v29c0,0.6-0.6,1-1.8,1h-0.4
	C278.5,162.6,277.9,162.3,277.9,161.7z"/>
<path class="st2" d="M289.7,161.7v-28.6c0-0.9,0.4-1.3,1.3-1.3h7.4c3.5,0,6.2,0.6,7.9,1.9c1.8,1.2,2.7,3.2,2.7,5.9
	c0,3.6-1.7,6.1-5.1,7.4v0.2c0.8,0.3,1.6,0.9,2.1,1.7c0.6,0.9,1.2,2.1,1.8,3.8l3.4,8.7c0.1,0.3,0.1,0.5,0.1,0.6
	c0,0.5-0.6,0.7-1.8,0.7h-0.4c-1,0-1.6-0.2-1.8-0.7l-3.3-8.6c-0.6-1.7-1.5-2.8-2.4-3.4c-1-0.6-2.3-0.9-4.1-0.9h-4v12.7
	c0,0.6-0.6,1-1.8,1h-0.4C290.3,162.6,289.7,162.3,289.7,161.7z M293.6,145.7h5.8c1.6,0,2.9-0.5,4-1.6s1.6-2.4,1.6-4
	s-0.5-2.8-1.6-3.7s-2.5-1.3-4.4-1.3h-5.5v10.6H293.6z"/>
<path class="st2" d="M316.4,161.2v-28.1c0-0.9,0.4-1.3,1.3-1.3H333c0.6,0,0.9,0.4,0.9,1.3v0.7c0,0.9-0.3,1.3-0.9,1.3h-12.8v10h11.5
	c0.6,0,0.9,0.4,0.9,1.3v0.7c0,0.9-0.3,1.3-0.9,1.3h-11.5v10.7h12.9c0.6,0,0.9,0.4,0.9,1.3v0.7c0,0.9-0.3,1.3-0.9,1.3h-15.4
	C316.8,162.5,316.4,162.1,316.4,161.2z"/>
<path class="st2" d="M338,147.2c0-10.4,4.7-15.6,14.2-15.6c2.1,0,4,0.3,5.8,0.9c1.7,0.6,2.6,1.2,2.6,1.8c0,0.4-0.2,0.9-0.5,1.6
	c-0.4,0.6-0.7,1-0.9,1c-0.1,0-0.4-0.2-0.9-0.5c-0.6-0.3-1.4-0.6-2.4-1c-1.1-0.3-2.2-0.5-3.4-0.5c-3.5,0-6.1,1-7.8,2.9
	c-1.7,2-2.5,5.1-2.5,9.3c0,4.3,0.8,7.4,2.5,9.4s4.2,3,7.7,3c1.3,0,2.6-0.2,3.7-0.5c1.2-0.4,2.1-0.7,2.7-1.1c0.6-0.4,1-0.5,1.1-0.5
	c0.3,0,0.6,0.3,1,1c0.4,0.6,0.6,1.1,0.6,1.4c0,0.7-0.9,1.4-2.7,2.1s-3.9,1.1-6.4,1.1c-4.8,0-8.4-1.3-10.7-3.8
	C339.1,156.5,338,152.5,338,147.2z"/>
<path class="st2" d="M373.8,161.7v-26.5h-8.4c-0.6,0-0.9-0.4-0.9-1.3v-0.7c0-0.9,0.3-1.3,0.9-1.3H386c0.6,0,0.9,0.4,0.9,1.3v0.7
	c0,0.9-0.3,1.3-0.9,1.3h-8.3v26.5c0,0.6-0.6,1-1.8,1h-0.4C374.4,162.6,373.8,162.3,373.8,161.7z"/>
<linearGradient id="SVGID_1_" gradientUnits="userSpaceOnUse" x1="566.4807" y1="60.2674" x2="696.5" y2="60.2674" gradientTransform="matrix(1 0 0 1 0 68.0001)">
	<stop  offset="0" style="stop-color:#36A9E1"/>
	<stop  offset="0.9254" style="stop-color:#152F4E"/>
</linearGradient>
<path class="st3" d="M696.5,100.7c-1.9,2.5-4.9,6.5-6.2,8.1c-2.8-2.3-6.8-4.5-10.5-5.4c-3.2-0.8-6.5-0.9-9.8-0.5
	c-5.7,0.7-10.3,3.5-14.4,7.4c-3.6,3.4-7.3,9.4-7.5,9.7c-0.1-0.2-5.8-9.7-5.8-9.7l0.6-0.8c2.4-3.2,12.3-18.3,33.2-17
	C687.8,93.1,695.8,100.1,696.5,100.7z M627.6,136.3c-0.1-0.2-0.2-0.3-0.3-0.5c-0.2,0.3-0.3,0.5-0.4,0.7c-2.4,3.9-5,7.6-8.4,10.8
	c-2,1.9-4.3,3.5-6.9,4.6c-4.1,1.8-8.3,2.3-12.8,1.8c-5-0.6-9.6-2.4-13.4-5.7c-4.3-3.7-7.2-8.1-8.5-12.9c-0.1-0.3-0.4-0.5-0.7-0.5h-9
	c-0.5,0-0.8,0.4-0.7,0.9c0.6,2.7,1.4,5.3,2.6,7.8c3.2,6.8,8,12.1,14.4,15.9c4.8,2.8,10.1,4.5,15.7,4.8c3.7,0.3,7.3,0,10.8-0.8
	c5.5-1.3,10.2-3.9,14.4-7.5c3.2-2.7,5.8-5.9,8.2-9.3l0.4-0.6C633.1,145.8,629.3,139.3,627.6,136.3z"/>
</svg>
