<?xml version="1.0" encoding="UTF-8" standalone="no"?>
<!-- Created with Inkscape (http://www.inkscape.org/) -->

<svg
   xmlns:dc="http://purl.org/dc/elements/1.1/"
   xmlns:cc="http://creativecommons.org/ns#"
   xmlns:rdf="http://www.w3.org/1999/02/22-rdf-syntax-ns#"
   xmlns:svg="http://www.w3.org/2000/svg"
   xmlns="http://www.w3.org/2000/svg"
   xmlns:sodipodi="http://sodipodi.sourceforge.net/DTD/sodipodi-0.dtd"
   xmlns:inkscape="http://www.inkscape.org/namespaces/inkscape"
   width="100"
   height="21"
   viewBox="0 0 100 21.000001"
   id="svg2"
   version="1.1"
   inkscape:version="0.91 r13725"
   sodipodi:docname="99.svg">
  <title
     id="title4161">Discovery Channel logo</title>
  <defs
     id="defs4">
    <pattern
       y="0"
       x="0"
       height="6"
       width="6"
       patternUnits="userSpaceOnUse"
       id="EMFhbasepattern" />
  </defs>
  <sodipodi:namedview
     id="base"
     pagecolor="#ffffff"
     bordercolor="#666666"
     borderopacity="1.0"
     inkscape:pageopacity="0.0"
     inkscape:pageshadow="2"
     inkscape:zoom="8.0115198"
     inkscape:cx="39.251081"
     inkscape:cy="-4.7968224"
     inkscape:document-units="px"
     inkscape:current-layer="layer1"
     showgrid="false"
     units="px"
     inkscape:showpageshadow="false"
     inkscape:window-width="1366"
     inkscape:window-height="705"
     inkscape:window-x="-8"
     inkscape:window-y="-8"
     inkscape:window-maximized="1" />
  <metadata
     id="metadata7">
    <rdf:RDF>
      <cc:Work
         rdf:about="">
        <dc:format>image/svg+xml</dc:format>
        <dc:type
           rdf:resource="http://purl.org/dc/dcmitype/StillImage" />
        <dc:title>Discovery Channel logo</dc:title>
        <cc:license
           rdf:resource="http://scripts.sil.org/OFL" />
      </cc:Work>
      <cc:License
         rdf:about="http://scripts.sil.org/OFL">
        <cc:permits
           rdf:resource="http://scripts.sil.org/pub/OFL/Reproduction" />
        <cc:permits
           rdf:resource="http://scripts.sil.org/pub/OFL/Distribution" />
        <cc:permits
           rdf:resource="http://scripts.sil.org/pub/OFL/Embedding" />
        <cc:permits
           rdf:resource="http://scripts.sil.org/pub/OFL/DerivativeWorks" />
        <cc:requires
           rdf:resource="http://scripts.sil.org/pub/OFL/Notice" />
        <cc:requires
           rdf:resource="http://scripts.sil.org/pub/OFL/Attribution" />
        <cc:requires
           rdf:resource="http://scripts.sil.org/pub/OFL/ShareAlike" />
        <cc:requires
           rdf:resource="http://scripts.sil.org/pub/OFL/DerivativeRenaming" />
        <cc:requires
           rdf:resource="http://scripts.sil.org/pub/OFL/BundlingWhenSelling" />
      </cc:License>
    </rdf:RDF>
  </metadata>
  <g
     inkscape:label="Capa 1"
     inkscape:groupmode="layer"
     id="layer1"
     transform="translate(0,-1031.3622)">
    <path
       inkscape:connector-curvature="0"
       id="path4143"
       d="m 12.550983,1041.1488 c 0,3.3103 -2.6863119,6 -5.9695349,6 -3.183759,0 -5.87007104,-2.6897 -5.87007104,-6 0,-3.3109 2.68631204,-6.0004 5.87007104,-6.0004 3.283223,0 5.9695349,2.6895 5.9695349,6.0004 z"
       style="fill:#80e5ff;fill-opacity:1;fill-rule:nonzero;stroke:none" />
    <path
       inkscape:connector-curvature="0"
       id="path4145"
       d="m 12.550983,1041.1488 c 0,3.3103 -2.6863119,6 -5.9695349,6 -3.183759,0 -5.87007104,-2.6897 -5.87007104,-6 0,-3.3109 2.68631204,-6.0004 5.87007104,-6.0004 3.283223,0 5.9695349,2.6895 5.9695349,6.0004 z"
       style="fill:none;stroke:none" />
    <path
       inkscape:connector-curvature="0"
       id="path4147"
       d="m 8.0737971,1035.8727 c -0.09965,0 -0.19883,0 -0.298479,0 -0.09965,0.1027 -0.09965,0.1027 -0.09965,0.3079 0,0 0,0.1027 0,0.1027 0,0 0,0 -0.09965,0 0,-0.1027 -0.09964,-0.1027 -0.298479,-0.1027 -0.09965,0 -0.198829,0 -0.198829,0 -0.198829,0 -0.398129,0 -0.596958,0 -0.298479,0.1027 -0.696467,0.2053 -0.696467,0.308 -0.09965,0.1026 -0.09965,0.2052 -0.09965,0.3128 l 0,0.1026 -0.09965,0 c -0.09965,0.1027 -0.19883,0.1027 -0.19883,0.1027 0,0.1027 0,0.1027 0,0.1027 0,0 0.09965,0.1026 0.19883,0.1026 0.198829,0.1027 0.596957,0.2052 0.596957,0.3079 0,0 0,0 -0.09965,0 0,0 0,0.1027 0.09965,0.2053 0.09965,0.1027 0.09965,0.1027 0.49745,0.1027 0.198829,0.1027 0.298479,0.1027 0.398129,0.2053 0.09965,0 0.09965,0 0.298479,0 0.29848,0 0.398129,0 0.596959,-0.1026 0.09964,0 0.198829,0 0.198829,0 0,0 0,0 0,0 0,0 0,0 0,0 0,0 0,0 0,0 0,-0.1027 0,-0.1027 0,-0.1027 0.09965,0.1027 0.09965,0 0.09965,0 0,0 0,0 0,0 0,0 0.09964,-0.1027 0.198829,-0.2052 0,0 0,-0.1027 0,-0.2053 0,-0.1027 0,-0.2053 0,-0.2053 -0.09965,-0.1026 -0.09965,-0.1026 -0.09965,-0.1026 0.09965,0 0.298479,0.1026 0.298479,0.1026 0.09965,0.2053 0,0.4155 -0.09964,0.5171 0,0 -0.19883,0.1027 -0.298479,0.1027 -0.09965,0.1026 -0.09965,0.1026 -0.19883,0.2053 -0.09965,0.2052 -0.09965,0.2052 -0.398129,0.2052 -0.497496,0 -0.497496,0 -0.895437,-0.1027 -0.19883,0 -0.398129,0 -0.398129,0 -0.09965,0 -0.09965,0 -0.09965,0 0,0.1027 0.09965,0.1027 0.09965,0.2054 0.09965,0 0.09965,0.1026 0.09965,0.1026 0,0 -0.298479,-0.1026 -0.49745,-0.2053 -0.198829,-0.1027 -0.298479,-0.2052 -0.398128,-0.2052 -0.398129,-0.2053 -0.696421,-0.2053 -1.094408,0 -0.198829,0.1026 -0.198829,0.1026 -0.198829,-0.1027 l 0,-0.1026 -0.09965,0 c -0.09965,0 -0.09965,0 -0.198829,0 0,0.1026 -0.09965,0.1026 0,0.1026 0,-0.1026 0,-0.1026 0,-0.1026 0,0 0,0 0,-0.1027 0,-0.1027 0,-0.2052 -0.09965,-0.2052 -0.09964,0 -0.198829,0 -0.198829,0 0,-0.1027 0,-0.1027 -0.09965,-0.1027 0,-0.1027 0,-0.1027 -0.198829,-0.1027 -0.198829,0 -0.298479,0 -0.398129,0.1027 -0.29848,0.1027 -0.497449,0.4155 -0.596959,0.6207 0,0.1026 0,0.1026 0.09965,0.2053 0.09965,0 0.09965,0 0.198829,0 l 0.19883,0 -0.09965,0.1027 c -0.09965,0.1026 -0.09965,0.1026 -0.298479,0 -0.298479,0 -0.298479,0 -0.398129,0.1026 0,0 -0.09965,0.1027 0,0.2054 0,0.1026 0,0.1026 -0.09965,0.1026 -0.09965,0 -0.09965,0 -0.09965,0.1027 -0.09965,0.1026 -0.09965,0.2053 -0.09965,0.4154 0,0.1027 0,0.2054 0,0.2054 -0.09964,0 -0.09964,-0.3079 -0.09964,-0.4155 0,-0.2053 0,-0.2053 -0.09965,-0.2053 -0.09965,0 -0.09965,0 -0.09965,0.1026 -0.09965,0.2054 -0.19883,0.6208 -0.09965,0.9312 0,0.1026 0,0.2052 0,0.2052 0,0 -0.09965,0 -0.09965,-0.1027 0,0 -0.09965,0 -0.09965,0 0,0.1027 -0.09965,0.5176 -0.09965,0.931 0,0.2054 0,0.3079 0,0.5176 0,0.1027 0,0.2054 0,0.3079 0,0 0,0.2053 0,0.308 0.198829,0.8274 0.596958,1.8621 1.193917,2.6895 0.198829,0.2054 0.696419,0.7239 0.895437,0.9312 0.895389,0.6206 1.790826,1.0342 2.785773,1.1378 1.691365,0.2052 3.183714,-0.308 4.3776309,-1.4482 0.596958,-0.5176 1.094407,-1.2414 1.392886,-1.8621 0.198829,-0.3128 0.298479,-0.8275 0.398129,-1.4482 0.09964,-0.308 0.09964,-1.3451 0,-1.6554 -0.09965,-0.7243 -0.298479,-1.4482 -0.596958,-2.0689 -0.09965,-0.2053 -0.298479,-0.4154 -0.49745,-0.7244 -0.09964,-0.1027 -0.298479,-0.3128 -0.398128,-0.517 -0.298479,-0.3079 -0.298479,-0.4155 -0.49745,-0.4155 -0.2984789,-0.1027 -0.6964669,-0.2052 -0.7959289,-0.1027 0,0.1027 0,0.1027 0.09965,0.2054 0.298479,0.2052 0.497496,0.4154 0.497496,0.517 0.09965,0.1027 0.09965,0.1027 -0.09965,0 -0.09964,-0.1027 -0.398128,-0.4153 -0.596958,-0.517 -0.09964,-0.1027 -0.198829,-0.1027 -0.198829,-0.2054 0,-0.1026 -0.09965,-0.2052 -0.398129,-0.3079 -0.09964,-0.1026 -0.198829,-0.1026 -0.09964,-0.1026 0,0 0,0 0,-0.1027 0,0 -0.09965,-0.1026 -0.298479,-0.2053 -0.09965,0 -0.09965,0 -0.19883,0 z m -1.392887,0.6207 c 0,0 0.09965,0.1027 0.198829,0.1027 0,0 0,0 0,0 0,0.1026 -0.09964,0.1026 -0.198829,0.1026 -0.09965,0.1027 -0.198829,0.1027 -0.198829,0.2053 -0.19883,0.1027 -0.19883,0.1027 -0.298479,0.1027 -0.09965,-0.1027 -0.09965,-0.1027 -0.09965,-0.2052 0,0 0.19883,-0.1027 0.298479,-0.1027 0,0 0,0 0.09965,0 0.09965,0 0.09965,0 0.09965,-0.1026 0,0 0,0 0,0 0,-0.1027 0.09965,-0.1027 0.09965,-0.1027 z m 0.795929,0.6208 c 0,0 0,0 0,0 0.09964,0 0.198829,0 0.198829,0 0.09965,0.1026 0.198829,0.2052 0.198829,0.3079 0,0 0,0 -0.09965,0 -0.09965,-0.1027 -0.09965,-0.1027 -0.19883,-0.1027 -0.09964,0 -0.198829,0 -0.298479,0 0,0 -0.09965,0 -0.09965,0 0,-0.1027 0,-0.1027 0.09965,-0.2052 0.09965,0 0.09965,0 0.19883,0 z m 1.691412,0.2052 c 0,0 0,0 0.09965,0 0,0 0.09965,0.1027 0.09965,0.1027 0.09965,0.1026 0.19883,0.1026 0.19883,0.2053 0,0 0.09964,0.1026 0.09964,0.1026 0,0.1027 -0.198829,0.2054 -0.298479,0.308 -0.09965,0.1027 -0.298478,0.1027 -0.298478,0.1027 0,0 0,0 0.09964,-0.1027 0.09965,-0.2053 0.198829,-0.308 0.09965,-0.5176 0,-0.1026 -0.09965,-0.1026 -0.09965,-0.1026 0,-0.1027 0,-0.1027 0,-0.1027 z m -7.063987,0.308 c -0.09965,0 -0.09965,0 -0.19883,0 -0.198829,0.1026 -0.298479,0.2052 -0.298479,0.4153 0,0 0,0 0.19883,-0.1026 0.198829,-0.1027 0.298479,-0.2054 0.298479,-0.2054 0,-0.1026 0,-0.1026 0,-0.1026 z m 1.293425,1.0346 c 0,0 0,0 0.09965,0 0,0 -0.398129,0.4155 -0.596912,0.5171 -0.09965,0.1026 -0.19883,0.2053 -0.19883,0.4154 0,0.1027 0,0.1027 0,0.1027 0,0.1027 -0.09964,-0.1027 -0.09964,-0.1027 0,-0.1026 0.09964,-0.3128 0.19883,-0.4154 0,-0.1027 0.09965,-0.1027 0.09965,-0.2052 0,0 0.09965,0 0.198829,-0.1027 0.09965,-0.2052 0.198829,-0.2052 0.298479,-0.2052 z m 2.188814,0.3079 c 0.09965,0 0.198829,0 0.298479,0 0.09964,0.1027 0.198829,0.1027 0.198829,0.2053 l 0.09965,0.1027 -0.09965,0 c -0.09965,-0.1027 -0.09965,0 -0.09965,0 0,0.1027 0,0.1027 -0.198829,0 -0.09965,-0.1027 -0.398129,-0.2053 -0.398129,-0.308 0,0 0,0 0.09965,0 0,0 0.09965,-0.1027 0.09965,0 z m 3.183761,0 c 0,0 0.09965,0 0.198829,0.1027 0.09965,0 0.19883,0.1026 0.19883,0.1026 0.09964,0.1027 0.09964,0.1027 0.09964,0.2052 0,0.1027 0,0.1027 0,0.1027 0,0.1027 0,0.1027 -0.09964,0.1027 -0.09965,0 -0.09965,0 -0.09965,0 0,-0.1027 0,-0.1027 0,-0.2054 0,-0.2052 0,-0.2052 -0.198829,-0.2052 -0.19883,0 -0.19883,0 -0.19883,0.1027 -0.09964,0 -0.09964,0.1027 -0.09964,0.1027 0,0 -0.09965,-0.1027 -0.19883,-0.1027 l -0.198829,-0.1027 0.09965,0 c 0,0 0.09964,-0.1026 0.09964,-0.1026 0,0 0,0 0.09965,-0.1027 0.09965,0 0.198829,0 0.298479,0 0,0 0,0 0,0 z m -4.377678,0.4155 c 0,0 0.09964,0 0.09964,0 0,0 0.09965,0 0.198831,0 0.09965,0.1026 0.398128,0.3078 0.398128,0.4154 0.19883,0.1027 0.19883,0.4155 0.19883,0.6207 -0.09965,0 -0.09965,0 -0.09965,0 0,0 0,-0.1027 0,-0.2052 -0.09965,-0.2053 -0.09965,-0.2053 -0.298479,-0.4155 -0.09965,-0.1026 -0.39813,-0.1026 -0.39813,-0.1026 -0.09964,0.1026 -0.198829,0.1026 -0.398128,0.2053 -0.09965,0 -0.298479,0 -0.298479,0 -0.09965,0.1026 -0.298479,0.3079 -0.298479,0.4154 0,0.1027 0,0.1027 0.09965,0.2053 0.09965,0.1026 0.09965,0.1026 0.298479,0.1026 0.198829,0 0.198829,0 0.198829,-0.2053 0,-0.1027 0,-0.1027 -0.09965,-0.1027 0,0 0,0 0,0 -0.09964,0 -0.09964,-0.1026 0,-0.1026 0.09965,-0.1027 0.09965,-0.1027 0.19883,-0.1027 0.09965,0 0.198829,0 0.298479,0.1027 0.09965,0 0.19883,0.1026 0.19883,0.1026 0,0.1027 0,0.2053 0,0.2053 0.09964,0.1026 0,0.1026 0,0.1026 -0.19883,0.1027 -0.29848,0.2052 -0.497448,0.3079 0,0 -0.09965,0 -0.09965,0.1027 -0.09965,0 -0.09965,0.1026 -0.298479,0.1026 -0.09965,0 -0.198829,0 -0.39813,0 -0.398128,-0.1026 -0.596958,-0.1026 -0.596958,-0.308 -0.09965,-0.2052 -0.09965,-0.2052 0.09965,-0.1026 0.09965,0.2052 0.298479,0.2052 0.49745,0.2052 l 0.09965,0 0,0 c 0,-0.1027 0,-0.1027 0,-0.2052 -0.298479,-0.2053 -0.398128,-0.308 -0.398128,-0.6208 0,-0.1027 0,-0.2052 0.09964,-0.2052 0.09965,-0.2054 0.19883,-0.4155 0.298479,-0.4155 0,0 0,0 0,0 0,0.1027 0,0.1027 0,0.1027 0,0 0.09965,0 0.298479,0 0.19883,-0.1027 0.298479,-0.1027 0.398129,0 0.09965,0 0.198829,-0.1027 0.198829,-0.1027 0,0 0,-0.1027 0,-0.1027 0,0 0,0 0,0 z m 3.48224,0 0.09965,0.1026 c 0.09965,0 0.09965,0.1027 0.198829,0.1027 0,0 0,0 0,0 -0.09965,0.1026 -0.398129,0.1026 -0.49745,0 -0.09965,0 -0.09965,0 0,0 0,-0.1027 0.09965,-0.1027 0.09965,-0.2053 l 0.09965,0 z m 3.5817499,0.2053 c 0,0 0.09964,0 0.09964,0.1026 0.09966,0.2054 0.198831,0.5172 0.198831,0.7239 0,0.2053 0,0.3128 -0.09966,0.2053 0,-0.1026 -0.09965,-0.2053 -0.198829,-0.2053 -0.09965,0 -0.09965,0.1027 -0.19883,0.1027 0,0 -0.198829,0.1026 -0.298479,0.2052 -0.09965,0 -0.198829,0 -0.198829,0 l -0.09965,-0.1027 0.09965,0 c 0,0 0.09965,-0.1026 0.09965,-0.1026 0.09964,0 0.298479,-0.3079 0.298479,-0.5171 0,0 0,-0.1026 0,0 0.09964,0 0.09964,0 0.198829,0 0,0 0,0 0.09966,-0.1026 0,0 0,-0.1027 0,-0.2054 0,-0.1026 0,-0.1026 0,-0.1026 z m -9.0538329,0.2052 c 0,0 0,0 0,0 0,0.1027 0.09965,0.2053 0.09965,0.308 0,0.1027 0,0.2052 0,0.2052 0,0.1027 0,0.2053 0,0.3079 0,0 -0.09965,-0.1027 -0.198829,-0.3079 -0.09965,-0.1027 -0.09965,-0.1027 -0.09965,-0.2052 0.09965,-0.1027 0.09965,-0.308 0.19883,-0.308 z m -0.596958,0.9311 c 0,0 0,0 0.09965,0.1027 0.09965,0.1027 0.398129,0.2052 0.696468,0.3079 0.09964,0.1026 0.198829,0.1026 0.198829,0.1026 0,0 -0.29848,0.1027 -0.39813,0.1027 -0.198829,-0.1027 -0.298479,-0.1027 -0.298479,-0.2052 0,0 -0.09964,-0.1027 -0.198829,-0.2053 -0.09965,-0.1027 -0.09965,-0.2053 -0.09965,-0.2053 0,0 -0.09965,0 0,0 z m 3.283268,0.1027 c 0,0 0,0 0,0 0.09965,0.1027 0.09965,0.517 0,0.6207 0,0.2052 -0.198829,0.517 -0.398129,0.7238 0,0.1027 -0.298479,0.3079 -0.398128,0.3079 0,0 -0.09965,0 -0.09965,0 0,0 0.09965,-0.1026 0.298479,-0.3079 0.09965,0 0.198829,-0.1026 0.298479,-0.2053 0,-0.1026 0.09965,-0.2053 0,-0.3079 0,-0.1026 0,-0.1026 -0.09965,-0.1026 0,0.1026 -0.09965,0.1026 -0.198829,0.1026 0,0.1027 -0.09964,0.1027 -0.09964,0.1027 0,0 0,-0.1027 0.09964,-0.2052 0.198829,-0.2053 0.398129,-0.4155 0.49745,-0.6207 0.09965,-0.1027 0.09965,-0.1027 0.09965,-0.1027 z m 1.392887,0 0,0 c 0.09964,0.1027 0.09964,0.1027 0.198829,0.2052 0.09965,0.2053 0.09965,0.6207 0,0.8275 -0.09965,0.1027 -0.09965,0.1027 -0.09965,0 0,0 0,-0.1027 0,-0.2053 -0.09964,0 -0.09964,-0.1027 -0.09964,-0.2052 0.09964,-0.1027 0,-0.2054 -0.19883,0 0,0 0,0 0,0 -0.09965,-0.1027 0,-0.4155 0.09965,-0.5172 l 0.09965,-0.1027 z m -5.074096,0 c 0,0 0,0.1027 0.09965,0.2052 0,0.1027 0.09965,0.2053 0.19883,0.3079 0.09965,0.1027 0.198829,0.1027 0.198829,0.2053 0.09965,0 0.09965,0 0.09965,0 0,0.1027 0,0.1027 0,0.2053 0.09964,0 0.09964,0 0.198829,0 0.09965,0 0.198829,0 0.198829,0 0.09965,0 0.09965,0 0.298479,0 0.09965,0.1027 0.298479,0.1027 0.398129,0.1027 0,0 0.09964,0.1027 0.09964,0.1027 0,0 -0.198829,0.1026 -0.497495,0.1026 0,0.1027 -0.198831,0.1027 -0.29848,0.1027 -0.298479,0 -0.398129,0 -0.696419,-0.1027 -0.19883,-0.1026 -0.29848,-0.3079 -0.39813,-0.7243 0,-0.2053 0,-0.308 0.09965,-0.5171 0,0 0,0 0,0 z m 8.257857,0.2052 c 0,0 0.09964,0 0.198829,0.1027 0,0 0.1988289,0.2052 0.2984789,0.3079 0.198829,0.1026 0.298479,0.2053 0.298479,0.2053 0,0 0.09965,0 0.09965,0 0.09964,-0.1027 0,-0.308 -0.09965,-0.4155 0,-0.1026 0,-0.1026 0,-0.1026 0,0 0.09965,0 0.09965,0.1026 0,0 0,0 0,0 0,0 0.09964,0.2052 0.198829,0.4155 0,0.1026 0,0.2052 0,0.4154 0.09966,0.1027 0.09966,0.2053 0.09966,0.3079 0.09965,0.2052 -0.198831,0.6207 -0.596959,0.8274 -0.19883,0.2053 -0.19883,0.2053 -0.4974499,0.2053 -0.398128,0.1027 -0.596958,0 -0.795976,-0.1026 -0.198829,-0.1027 -0.198829,-0.2052 -0.09964,-0.2052 l 0,-0.1027 0,0.1027 c 0.09964,0 0.398129,0.1026 0.69642,0 0.198829,0 0.398129,-0.1027 0.398129,-0.2054 0.09965,-0.1026 0.09965,-0.2052 0.09965,-0.2052 -0.09965,0 -0.09965,0 0,-0.1027 0.198831,-0.2053 0.198831,-0.2053 0.198831,-0.4154 -0.09966,-0.3079 -0.198831,-0.5176 -0.3981299,-0.6207 -0.198829,0 -0.198829,-0.1027 -0.09965,-0.1027 0.09965,0 0.09965,0 0.09965,-0.1026 0,0 0,-0.1027 -0.09965,-0.2052 -0.09964,0 -0.09964,-0.1027 -0.09964,-0.1027 z m 1.5918569,1.3446 c 0,0 0,0 0.09964,0 0,0.1026 0,0.1026 0,0.2053 0,0.1026 -0.09964,0.1026 -0.09964,0.2052 -0.09965,0.1027 -0.198829,0.1027 -0.198829,0.1027 0,0 0.09964,-0.3079 0.09964,-0.4155 0.09965,-0.1027 0.09965,-0.1027 0.09965,-0.1027 z m -7.6608979,0.3078 c 0,0 0.09964,0 0.09964,0 0,0 0,0.1027 0,0.1027 0,0 0,0.1027 -0.198829,0.1027 l -0.19883,0.1026 -0.09965,-0.1026 c 0,0 -0.09965,0 -0.09965,-0.1027 -0.09964,0 -0.09964,0 0.19883,-0.1027 0.09965,0 0.198829,0 0.29848,0 z m 3.880179,0.7245 c 0,0 0.09964,0.1026 0.198829,0.1026 0.198829,0.1027 0.198829,0.1027 0,0.1027 -0.298479,0 -0.398129,0 -0.398129,0.2053 0,0 -0.09965,0 -0.09965,0 0,0 0.09965,-0.3128 0.09965,-0.3128 0,-0.1027 0.09965,-0.1027 0.19883,-0.1027 z m -4.875079,0.1026 c 0,0 0.09965,0.1027 0.09965,0.1027 0,0 0,0.1026 -0.09965,0.1026 -0.198829,0.1027 -0.198829,0.2054 -0.298479,0.3079 l 0,0 -0.09965,0 c 0,-0.1026 -0.09965,-0.1026 -0.09965,-0.2052 0,-0.1027 0,-0.1027 0,-0.1027 0,0 0.09965,0 0.09965,0 0.09965,0 0.198829,-0.1026 0.298479,-0.1026 0.09964,0 0.09964,-0.1027 0.09964,-0.1027 z m 2.089306,0.4155 c 0,0 0,0 0,0 0,0 -0.09965,0.1026 -0.29848,0.2053 -0.497447,0.3079 -0.696418,0.4155 -0.795926,0.7243 -0.09965,0.1027 -0.09965,0.2053 0,0.3079 0.09964,0.1026 0.09964,0.1026 0,0.1026 -0.09965,-0.1026 -0.198831,-0.2052 -0.198831,-0.3078 0,-0.1027 0,-0.3079 0.09965,-0.4155 0.19883,-0.3079 0.09965,-0.5176 -0.298479,-0.5176 -0.09965,0 -0.09965,0 0,0 0.09965,-0.1026 0.39813,-0.1026 0.69642,0 0.298479,0 0.596957,0 0.696465,-0.1026 0,0 0.09965,0 0.09965,0 z m 3.880227,0.1026 c 0,0 0.09965,0 0.19883,0 0.09964,0 0.298479,0 0.497449,0 0.298479,0 0.398129,0 0.298479,0.1027 -0.09965,0 -0.298479,0 -0.398128,0 -0.19883,0 -0.596912,-0.1027 -0.596912,-0.1027 0,0 0,0 0,0 z"
       style="fill:#37abc8;fill-opacity:1;fill-rule:nonzero;stroke:none" />
    <path
       inkscape:connector-curvature="0"
       id="path4149"
       d="m 2.9997011,1037.3209 c -0.09965,0.1027 -0.09965,0.1027 0,0.1027 0.198829,0 0.398128,0 0.497449,0 0,0 0,-0.1027 0,-0.1027 -0.09965,0 -0.398128,0 -0.497449,0 z"
       style="fill:#37abc8;fill-opacity:1;fill-rule:nonzero;stroke:none" />
    <g
       id="g10625"
       clip-path="url(#id140)"
       transform="matrix(0.54649274,0,0,-0.56501681,-7.5112599,1464.4958)"
       style="fill:#000000">
      <g
         id="g10627"
         transform="translate(190.725,758.806)"
         style="fill:#000000">
        <path
           id="path10629"
           d="M 0,0 -4.924,-14.087 -9.522,0 l -4.695,0 7.14,-19.082 -0.057,-0.132 c 0,0 -1.438,-3.892 -2.74,-4.835 -1.002,-0.512 -3.347,-0.474 -4.235,-0.413 l 0,-3.597 c 1.55,0.002 5.196,-0.098 6.37,0.646 1.473,0.931 1.802,1.333 2.809,3.375 C -3.833,-21.815 4.585,0 4.585,0 L 0,0 Z m -23,-3.177 0,3.176 -4.401,0 0,-19.217 4.401,0 0,7.316 c 0,1.285 0.121,2.414 0.475,3.346 1.325,3.496 5.022,4.49 6.934,4.773 l -1.51,3.673 c -1.535,-0.265 -4.24,-1.006 -5.899,-3.067 z m -75.808,-12.646 c -3.384,0 -5.748,2.763 -5.748,6.22 0,3.384 2.328,6.15 5.53,6.15 2.218,0 3.638,-0.982 4.984,-2.402 l 2.729,2.947 c -1.783,1.964 -4.039,3.31 -7.677,3.31 -5.748,0 -9.968,-4.583 -9.968,-10.077 0,-5.493 4.22,-9.968 9.932,-9.968 3.745,0 5.966,1.492 7.858,3.602 l -2.657,2.618 c -1.382,-1.418 -2.909,-2.4 -4.983,-2.4 z m 63.748,8.02 c -0.073,0.704 -0.231,0.904 -0.475,1.523 -0.241,0.618 -0.571,1.158 -0.98,1.618 -0.414,0.461 -0.906,0.82 -1.475,1.076 -0.569,0.253 -1.219,0.381 -1.948,0.381 -1.358,0 -2.48,-0.467 -3.366,-1.402 -0.884,-0.934 -1.426,-1.691 -1.62,-3.196 l 9.864,0 z m 3.784,1.813 c 0.388,-1.249 0.583,-2.566 0.583,-3.948 0,-0.194 -0.006,-0.395 -0.016,-0.601 -0.014,-0.206 -0.033,-0.418 -0.057,-0.637 l -14.121,0 c 0.244,-1.576 0.868,-2.784 1.874,-3.619 1.008,-0.839 2.227,-1.258 3.659,-1.258 1.091,0 2.038,0.195 2.839,0.583 0.801,0.388 1.588,0.957 2.363,1.711 l 2.587,-2.294 c -0.924,-1.091 -2.021,-1.965 -3.297,-2.62 -1.272,-0.655 -2.794,-0.984 -4.565,-0.984 -1.384,0 -2.676,0.246 -3.877,0.729 -1.2,0.485 -2.243,1.165 -3.13,2.039 -0.885,0.873 -1.583,1.921 -2.091,3.146 -0.51,1.226 -0.765,2.58 -0.765,4.06 l 0,0.074 c 0,1.381 0.23,2.679 0.691,3.893 0.461,1.213 1.11,2.275 1.947,3.183 0.838,0.912 1.825,1.626 2.966,2.149 1.14,0.521 2.402,0.782 3.786,0.782 1.527,0 2.869,-0.28 4.021,-0.837 1.152,-0.559 2.111,-1.311 2.876,-2.256 0.765,-0.947 1.341,-2.045 1.727,-3.295 z m -28.264,-8.136 -5.168,14.125 -4.732,0 7.899,-19.364 3.966,0 7.86,19.364 -4.623,0 -5.202,-14.125 z m -14.484,4.479 c 0,0.85 -0.145,1.65 -0.437,2.401 -0.291,0.753 -0.698,1.407 -1.219,1.966 -0.522,0.558 -1.14,1.001 -1.856,1.329 -0.715,0.328 -1.511,0.491 -2.385,0.491 -0.873,0 -1.668,-0.163 -2.382,-0.491 -0.716,-0.328 -1.329,-0.764 -1.84,-1.31 -0.508,-0.547 -0.898,-1.189 -1.163,-1.929 -0.269,-0.74 -0.401,-1.535 -0.401,-2.385 l 0,-0.072 c 0,-0.825 0.146,-1.614 0.437,-2.365 0.29,-0.754 0.696,-1.413 1.219,-1.984 0.521,-0.57 1.14,-1.018 1.857,-1.345 0.715,-0.328 1.497,-0.493 2.347,-0.493 0.897,0 1.704,0.165 2.419,0.493 0.718,0.327 1.33,0.769 1.839,1.327 0.509,0.558 0.896,1.206 1.165,1.948 0.266,0.739 0.4,1.522 0.4,2.345 l 0,0.074 z m 3.639,3.951 c 0.509,-1.203 0.764,-2.496 0.764,-3.879 l 0,-0.072 c 0,-1.359 -0.262,-2.644 -0.782,-3.857 -0.523,-1.213 -1.238,-2.275 -2.148,-3.185 -0.909,-0.912 -1.997,-1.631 -3.255,-2.166 -1.263,-0.533 -2.634,-0.802 -4.115,-0.802 -1.455,0 -2.808,0.261 -4.056,0.784 -1.251,0.521 -2.331,1.232 -3.24,2.129 -0.911,0.898 -1.619,1.954 -2.13,3.165 -0.51,1.214 -0.764,2.5 -0.764,3.858 l 0,0.074 c 0,1.383 0.26,2.682 0.783,3.894 0.521,1.213 1.238,2.275 2.147,3.184 0.91,0.911 1.991,1.633 3.239,2.165 1.25,0.535 2.615,0.802 4.095,0.802 1.48,0 2.845,-0.261 4.094,-0.782 1.249,-0.523 2.329,-1.237 3.239,-2.149 0.909,-0.908 1.62,-1.964 2.129,-3.163 z m -42.501,-4.005 c -0.569,0.423 -1.206,0.782 -1.911,1.074 -0.704,0.29 -1.406,0.545 -2.11,0.764 -0.558,0.194 -1.097,0.376 -1.619,0.547 -0.522,0.168 -0.983,0.357 -1.383,0.562 -0.401,0.207 -0.723,0.437 -0.964,0.693 -0.244,0.253 -0.364,0.551 -0.364,0.892 l 0,0.071 c 0,0.558 0.235,1.02 0.709,1.383 0.473,0.363 1.135,0.546 1.984,0.546 0.802,0 1.673,-0.164 2.62,-0.491 0.946,-0.327 1.88,-0.77 2.803,-1.328 l 1.746,3.13 c -1.018,0.679 -2.146,1.213 -3.385,1.601 -1.236,0.388 -2.463,0.583 -3.675,0.583 -0.947,0 -1.838,-0.134 -2.675,-0.401 -0.837,-0.268 -1.565,-0.656 -2.184,-1.165 -0.619,-0.51 -1.104,-1.121 -1.455,-1.837 -0.353,-0.718 -0.529,-1.536 -0.529,-2.456 l 0,-0.073 c 0,-0.924 0.183,-1.699 0.547,-2.332 0.363,-0.629 0.831,-1.157 1.401,-1.58 0.57,-0.427 1.213,-0.773 1.928,-1.039 0.716,-0.267 1.426,-0.498 2.13,-0.692 0.558,-0.17 1.098,-0.333 1.62,-0.491 0.521,-0.158 0.981,-0.339 1.382,-0.546 0.401,-0.206 0.715,-0.443 0.947,-0.709 0.229,-0.268 0.345,-0.584 0.345,-0.947 l 0,-0.072 c 0,-0.632 -0.261,-1.134 -0.783,-1.51 -0.521,-0.377 -1.254,-0.564 -2.201,-0.564 -0.995,0 -2.032,0.199 -3.111,0.601 -1.081,0.4 -2.143,0.989 -3.186,1.764 l -1.965,-2.985 c 1.214,-0.945 2.529,-1.662 3.95,-2.147 1.418,-0.486 2.819,-0.727 4.203,-0.727 0.994,0 1.929,0.125 2.803,0.382 0.872,0.255 1.63,0.629 2.273,1.129 0.644,0.497 1.147,1.12 1.512,1.874 0.364,0.75 0.545,1.638 0.545,2.657 l 0,0.071 c 0,0.874 -0.181,1.615 -0.545,2.22 -0.365,0.608 -0.833,1.123 -1.403,1.548 z m -20.74,-9.517 4.4043,0 0,19.217 -4.4043,0 0,-19.217 z m -2.55,12.917 c 0,-7.203 -5.53,-12.767 -13.533,-12.767 l -7.743,0 c 1.563,1.043 2.867,2.436 3.802,4.075 l 3.941,0 c 5.348,0 8.84,3.6 8.84,8.62 0,5.019 -3.492,8.694 -8.84,8.694 l -5.02,0 0,-3.745 c -0.737,0.917 -1.596,1.731 -2.568,2.401 -0.597,0.411 -1.237,0.764 -1.906,1.064 l 0,4.353 9.494,0 c 8.003,0 13.533,-5.492 13.533,-12.695"
           style="fill:#000000;fill-rule:nonzero;stroke:none"
           inkscape:connector-curvature="0" />
      </g>
    </g>
  </g>
</svg>
