<svg xmlns="http://www.w3.org/2000/svg" height="257.3" width="257.3">
  <path d="M0 257.3h257V.3H0z" fill="#fff" fill-rule="evenodd"/>
  <path d="M39.6 95.4a3967 3967 0 0 1-13.3 75.7c-1.5 6-2 7.2 2.9 5.6 4.8-1.5 8.8 3.2 8.5 7.2-2.4 17.1 19.3 29.9 45.9 29.4 22.3-.7 46-3.8 99.3-39.2 2.4-1.8 6-3.4 8.5-2 1.3.5 1.7.4 3.5-5.2 3.6-10 6.6-16.2 8.1-20.4 4.4-10.2 7.3-8 11.5-8 6.4.2 7.4-3.5 8.3-9.5 1.1-5.7 5-13.4-1.8-19.6-3.6-4.3-4.7-13 2.8-15 7-.6 6-.4 6-5 0-5.7-1.8-4.8-2.6-8-1.3-1.9-1.3-4.9-1.3-9.7.3-9.2-8-25.5-48.8-27.3-38.3-.9-71.8 21-78.5 25.1-2.1 1.5-6.7 4.8-8.7 2.6-1.8-1.6-1.6-1.3-2.8 1.6-2.5 5.7-9.5 15.9-11.2 19.7-11.2 13.5-14.4 9.2-16 1.2-1.8-4.8 3-10.1-9-7.8-6.2 1.4-9.2-2.2-11.3 8.6" fill="#244ba6" fill-rule="evenodd"/>
  <path d="M226 67.2l2.4 4.7c9.6 24.8-22.6 69-73.7 100.7-52.9 32.6-106 39.4-118.7 15-12.7-24.1 19.8-70.3 72.7-103 51-31.5 102.5-39 117.3-17.4" fill="#244ba6" fill-rule="evenodd"/>
  <path d="M38.4 164.7s-22 32.6 15 48.2c56.8 24.2 136.3-36 136.3-36l5.2 6.7 12.8-32.8-38.9 5.4 4.6 5.4S99 214.9 54 201.4c-28.5-8.6-15.7-36.7-15.7-36.7" fill="#fff" fill-rule="evenodd"/>
  <path d="M53.4 213c56.8 24.1 136.3-36 136.3-36l5.2 6.6 12.8-32.8-38.9 5.4 4.6 5.4S99 214.9 54 201.4l-.7 11.5" fill="#ef2c30" fill-rule="evenodd"/>
  <path d="M78.7 218.6V203l-1.4.1.1 15.3h1.3" fill="#ef2c30" fill-rule="evenodd"/>
  <path d="M77.1 203.3v15.2h1.4v-15.4l-1.4.2" fill="#ee2c30" fill-rule="evenodd"/>
  <path d="M77 203.3v15.1l1.3.1v-15.3H77" fill="#ef2e31" fill-rule="evenodd"/>
  <path d="M76.8 203.3v15.1l1.3.1v-15.3l-1.3.1" fill="#ef2e31" fill-rule="evenodd"/>
  <path d="M76.6 203.3v15.1l1.2.1.1-15.3-1.3.1" fill="#ef3032" fill-rule="evenodd"/>
  <path d="M76.4 203.3l-.1 15.1h1.3l.1-15.2-1.3.1" fill="#ef3032" fill-rule="evenodd"/>
  <path d="M76.2 203.3l-.1 15 1.3.2.1-15.3-1.3.1" fill="#ef3032" fill-rule="evenodd"/>
  <path d="M76 203.4l-.2 15h1.3l.2-15.2-1.3.2" fill="#ef3233" fill-rule="evenodd"/>
  <path d="M75.8 203.4l-.2 15H77l.3-15.1h-1.4" fill="#ef3233" fill-rule="evenodd"/>
  <path d="M75.7 203.4l-.3 15h1.3l.3-15.1h-1.3" fill="#ef3433" fill-rule="evenodd"/>
  <path d="M75.5 203.4l-.3 14.9 1.3.1.3-15.1h-1.3" fill="#ef3434" fill-rule="evenodd"/>
  <path d="M75.3 203.4l-.4 14.9h1.3l.4-15-1.3.1" fill="#ef3434" fill-rule="evenodd"/>
  <path d="M75 203.4l-.3 14.9H76l.4-15-1.3.1" fill="#ef3635" fill-rule="evenodd"/>
  <path d="M74.9 203.4l-.4 14.8 1.3.2.4-15h-1.3" fill="#ef3635" fill-rule="evenodd"/>
  <path d="M74.7 203.4l-.4 14.8 1.2.1.5-15-1.3.1" fill="#f03835" fill-rule="evenodd"/>
  <path d="M74.5 203.5l-.5 14.7 1.3.1.5-15-1.3.2" fill="#f03837" fill-rule="evenodd"/>
  <path d="M74.3 203.5l-.5 14.7H75l.6-14.8h-1.3" fill="#f03837" fill-rule="evenodd"/>
  <path d="M74.1 203.5l-.6 14.6 1.3.2.6-14.9h-1.3" fill="#f03a37" fill-rule="evenodd"/>
  <path d="M74 203.5l-.7 14.6 1.3.1.6-14.8h-1.3" fill="#f03a38" fill-rule="evenodd"/>
  <path d="M73.7 203.5l-.6 14.6 1.2.1.7-14.8-1.3.1" fill="#f03a38" fill-rule="evenodd"/>
  <path d="M73.6 203.5l-.7 14.6H74l.7-14.7-1.2.1" fill="#f03c38" fill-rule="evenodd"/>
  <path d="M73.3 203.5l-.7 14.5 1.2.2.8-14.7h-1.3" fill="#f03c39" fill-rule="evenodd"/>
  <path d="M73.1 203.5l-.7 14.5 1.2.1.8-14.6H73" fill="#f03e39" fill-rule="evenodd"/>
  <path d="M73 203.5L72 218l1.3.1.8-14.6h-1.3" fill="#f03e3a" fill-rule="evenodd"/>
  <path d="M72.7 203.5L72 218l1.3.2.8-14.6h-1.3" fill="#f03e3a" fill-rule="evenodd"/>
  <path d="M72.6 203.5l-1 14.4 1.3.2.9-14.6h-1.2" fill="#f0403a" fill-rule="evenodd"/>
  <path d="M72.4 203.6l-1 14.3 1.2.1 1-14.5h-1.2" fill="#f0403c" fill-rule="evenodd"/>
  <path d="M72.1 203.6l-1 14.2 1.3.2 1-14.5H72" fill="#f0423c" fill-rule="evenodd"/>
  <path d="M72 203.6l-1 14.2 1.2.2 1-14.5h-1.3" fill="#f0423d" fill-rule="evenodd"/>
  <path d="M71.7 203.6l-1 14.2 1.2.1 1-14.4h-1.2" fill="#f0423d" fill-rule="evenodd"/>
  <path d="M71.6 203.6l-1 14.1 1 .2 1.2-14.4h-1.2" fill="#f1443d" fill-rule="evenodd"/>
  <path d="M71.3 203.6l-1 14c.3.2.7.2 1.1.3l1.1-14.4h-1.2" fill="#f1443e" fill-rule="evenodd"/>
  <path d="M71.2 203.6l-1.2 14 1.2.2 1.1-14.2h-1.1" fill="#f1463e" fill-rule="evenodd"/>
  <path d="M71 203.6l-1.3 14 1.2.2 1.2-14.2H71" fill="#f1463e" fill-rule="evenodd"/>
  <path d="M70.7 203.6l-1.2 14 1.2.2 1.2-14.2h-1.2" fill="#f14640" fill-rule="evenodd"/>
  <path d="M70.6 203.6l-1.3 14 1.1.1 1.3-14.1h-1.1" fill="#f14940" fill-rule="evenodd"/>
  <path d="M70.4 203.6L69 217.5l1.1.2 1.3-14.1h-1.1" fill="#f14841" fill-rule="evenodd"/>
  <path d="M70.1 203.6l-1.3 13.8 1.1.3 1.4-14.1h-1.2" fill="#f14b41" fill-rule="evenodd"/>
  <path d="M70 203.6l-1.4 13.8 1 .2 1.5-14h-1.2" fill="#f14b41" fill-rule="evenodd"/>
  <path d="M69.7 203.6l-1.4 13.8 1.1.2 1.5-14h-1.2" fill="#f14b41" fill-rule="evenodd"/>
  <path d="M69.5 203.6l-1.4 13.7 1 .2 1.6-14h-1.2" fill="#f14d43" fill-rule="evenodd"/>
  <path d="M69.3 203.6l-1.5 13.7 1.1.2 1.6-14h-1.2" fill="#f14d43" fill-rule="evenodd"/>
  <path d="M69.1 203.6l-1.5 13.6 1 .2 1.6-13.8h-1" fill="#f14c44" fill-rule="evenodd"/>
  <path d="M68.9 203.6l-1.6 13.6 1.1.2 1.6-13.8H69" fill="#f14f44" fill-rule="evenodd"/>
  <path d="M68.7 203.6L67 217l1 .2 1.7-13.7h-1.1" fill="#f14f44" fill-rule="evenodd"/>
  <path d="M68.5 203.6L66.8 217l1 .2 1.8-13.7h-1.1" fill="#f25146" fill-rule="evenodd"/>
  <path d="M68.3 203.5L66.6 217l1 .2 1.8-13.6h-1.1" fill="#f25146" fill-rule="evenodd"/>
  <path d="M68 203.5L66.4 217l1 .2 1.9-13.6H68" fill="#f25047" fill-rule="evenodd"/>
  <path d="M67.9 203.5L66 217l1 .3 1.9-13.6h-1.1" fill="#f25347" fill-rule="evenodd"/>
  <path d="M67.6 203.5L65.8 217l1 .2 2-13.5h-1.2" fill="#f25347" fill-rule="evenodd"/>
  <path d="M67.4 203.5l-1.9 13.3 1 .2 2-13.4h-1" fill="#f25549" fill-rule="evenodd"/>
  <path d="M67.2 203.5l-2 13.2 1.2.3 1.9-13.5h-1" fill="#f25549" fill-rule="evenodd"/>
  <path d="M67 203.5l-2 13.2 1 .2 2-13.4h-1" fill="#f2554a" fill-rule="evenodd"/>
  <path d="M66.8 203.5l-2 13.1 1 .3 2.1-13.4h-1.1" fill="#f2574a" fill-rule="evenodd"/>
  <path d="M66.6 203.5l-2 13c.3.2.6.2 1 .3l2-13.3h-1" fill="#f2574a" fill-rule="evenodd"/>
  <path d="M66.3 203.5l-2 13 1 .3 2.2-13.3h-1.2" fill="#f2594c" fill-rule="evenodd"/>
  <path d="M66.2 203.5l-2.2 13 1 .2 2.2-13.2h-1" fill="#f2594c" fill-rule="evenodd"/>
  <path d="M66 203.4l-2.3 13 1 .2 2.3-13.1h-1" fill="#f2594e" fill-rule="evenodd"/>
  <path d="M65.7 203.4l-2.2 13 1 .2 2.3-13.1h-1" fill="#f35b4e" fill-rule="evenodd"/>
  <path d="M65.5 203.4l-2.3 12.8 1 .3 2.3-13h-1" fill="#f35b4e" fill-rule="evenodd"/>
  <path d="M65.3 203.4L63 216.2l1 .2 2.3-13h-1" fill="#f35d4f" fill-rule="evenodd"/>
  <path d="M65 203.4L62.7 216l1 .3 2.4-13h-1" fill="#f35d4f" fill-rule="evenodd"/>
  <path d="M64.9 203.4L62.4 216l1 .3 2.5-12.9h-1" fill="#f35d4f" fill-rule="evenodd"/>
  <path d="M64.6 203.3L62.2 216l1 .2 2.5-12.8h-1" fill="#f36050" fill-rule="evenodd"/>
  <path d="M64.4 203.3L61.9 216l1 .3 2.5-12.8h-1" fill="#f36051" fill-rule="evenodd"/>
  <path d="M64.2 203.3l-2.6 12.5 1 .3 2.6-12.7-1-.1" fill="#f36251" fill-rule="evenodd"/>
  <path d="M64 203.3l-2.6 12.5 1 .2 2.6-12.6-1-.1" fill="#f36253" fill-rule="evenodd"/>
  <path d="M63.7 203.3l-2.6 12.4 1 .3 2.7-12.6-1-.1" fill="#f36253" fill-rule="evenodd"/>
  <path d="M63.5 203.2L61 215.6l1 .3 2.6-12.6h-1" fill="#f36453" fill-rule="evenodd"/>
  <path d="M63.3 203.2l-2.7 12.3 1 .3 2.7-12.5h-1" fill="#f36455" fill-rule="evenodd"/>
  <path d="M63 203.2l-2.7 12.2 1 .3 2.8-12.4-1-.1" fill="#f36455" fill-rule="evenodd"/>
  <path d="M62.8 203.2L60 215.3l1 .3 2.8-12.3-1-.1" fill="#f36657" fill-rule="evenodd"/>
  <path d="M62.6 203.1l-2.8 12.2 1 .3 2.8-12.4h-1" fill="#f36657" fill-rule="evenodd"/>
  <path d="M62.4 203.1l-3 12 1 .4 3-12.3h-1" fill="#f46957" fill-rule="evenodd"/>
  <path d="M62.2 203l-3 12.1 1 .3 3-12.2-1-.1" fill="#f46859" fill-rule="evenodd"/>
  <path d="M62 203l-3 12 .9.3 3-12.1-1-.2" fill="#f46859" fill-rule="evenodd"/>
  <path d="M61.7 203l-3 12 .9.2 3-12-.9-.2" fill="#f46b5a" fill-rule="evenodd"/>
  <path d="M61.4 203l-3 11.8 1 .3 3-12-1-.1" fill="#f46b5a" fill-rule="evenodd"/>
  <path d="M61.3 203L58 214.7l1 .3 3-12h-.8" fill="#f46d5b" fill-rule="evenodd"/>
  <path d="M61 203l-3.2 11.6 1 .4 3.2-12h-1" fill="#f46d5c" fill-rule="evenodd"/>
  <path d="M60.8 202.9l-3.2 11.6.9.4 3.3-11.9-1-.1" fill="#f46d5c" fill-rule="evenodd"/>
  <path d="M60.5 202.8l-3.2 11.6 1 .4 3.2-11.8-1-.2" fill="#f46f5e" fill-rule="evenodd"/>
  <path d="M60.3 202.8L57 214.4l1 .3 3.3-11.7-1-.2" fill="#f46f5e" fill-rule="evenodd"/>
  <path d="M60 202.8l-3.3 11.4 1 .4 3.3-11.7-1-.1" fill="#f4715e" fill-rule="evenodd"/>
  <path d="M59.9 202.7l-3.4 11.5.9.3 3.4-11.6-1-.2" fill="#f4715e" fill-rule="evenodd"/>
  <path d="M59.6 202.7L56.2 214l.9.3 3.5-11.5-1-.2" fill="#f47160" fill-rule="evenodd"/>
  <path d="M59.4 202.6L55.9 214l1 .3 3.4-11.5-1-.2" fill="#f47360" fill-rule="evenodd"/>
  <path d="M59.1 202.6l-3.5 11.2 1 .4 3.5-11.4-1-.2" fill="#f47360" fill-rule="evenodd"/>
  <path d="M59 202.6l-3.6 11.1.8.4 3.7-11.4-1-.1" fill="#f57563" fill-rule="evenodd"/>
  <path d="M58.7 202.5L55 213.6l.9.4 3.6-11.3-1-.2" fill="#f57563" fill-rule="evenodd"/>
  <path d="M58.5 202.5l-3.7 11 .8.3 3.8-11.2-1-.1" fill="#f57564" fill-rule="evenodd"/>
  <path d="M58.2 202.4l-3.7 11 .9.3 3.8-11.1-1-.2" fill="#f57865" fill-rule="evenodd"/>
  <path d="M58 202.4l-3.8 10.9.9.3 3.8-11-1-.2" fill="#f57865" fill-rule="evenodd"/>
  <path d="M57.8 202.3l-3.9 10.9 1 .3 3.8-11-1-.2" fill="#f57866" fill-rule="evenodd"/>
  <path d="M57.5 202.3L53.7 213l.8.3 4-11-1-.1" fill="#f57a67" fill-rule="evenodd"/>
  <path d="M57.3 202.2l-4 10.7h.1l.8.4 4-10.9-1-.2" fill="#f57a69" fill-rule="evenodd"/>
  <path d="M57 202.2l-4 10.6.4.1.5.3 4-10.8-.9-.2" fill="#f57c69" fill-rule="evenodd"/>
  <path d="M56.8 202l-4 10.7.6.2.2.1 4-10.7-.8-.2" fill="#f57c69" fill-rule="evenodd"/>
  <path d="M56.5 202l-4 10.6.9.3 4-10.6-.9-.3" fill="#f57c6b" fill-rule="evenodd"/>
  <path d="M56.3 202l-4 10.4.8.4 4.1-10.6-.9-.2" fill="#f57f6b" fill-rule="evenodd"/>
  <path d="M56 202l-4 10.3.8.4L57 202c-.3 0-.6 0-1-.2" fill="#f57f6d" fill-rule="evenodd"/>
  <path d="M55.8 201.9l-4.2 10.3.9.3 4.2-10.4-.9-.2" fill="#f6816d" fill-rule="evenodd"/>
  <path d="M55.6 201.8L51.4 212l.8.4 4.3-10.4-1-.2" fill="#f6816d" fill-rule="evenodd"/>
  <path d="M55.3 201.7L51.1 212l.8.4 4.3-10.3-.9-.3" fill="#f6816f" fill-rule="evenodd"/>
  <path d="M55 201.7l-4.3 10 .9.4L56 202l-1-.2" fill="#f6836f" fill-rule="evenodd"/>
  <path d="M54.8 201.6l-4.3 10 .8.4 4.4-10.2-.9-.2" fill="#f68371" fill-rule="evenodd"/>
  <path d="M54.6 201.5l-4.4 10 .8.4 4.5-10.1-1-.3" fill="#f68572" fill-rule="evenodd"/>
  <path d="M54.4 201.5l-4.5 9.8.8.4 4.5-10-.8-.2" fill="#f68572" fill-rule="evenodd"/>
  <path d="M54 201.4l-4.4 9.8.9.4 4.5-10-.9-.2" fill="#f68572" fill-rule="evenodd"/>
  <path d="M53.9 201.3l-4.5 9.7.7.4 4.7-9.8-.7-.2h-.2" fill="#f68874" fill-rule="evenodd"/>
  <path d="M53.6 201.2L49 211l.9.4 4.6-9.8-.4-.1-.5-.2" fill="#f68874" fill-rule="evenodd"/>
  <path d="M53.4 201.2l-4.6 9.5.8.4 4.7-9.7H54l-.7-.2" fill="#f68a76" fill-rule="evenodd"/>
  <path d="M53.1 201l-4.7 9.6 1 .4 4.6-9.6-.9-.3" fill="#f68a76" fill-rule="evenodd"/>
  <path d="M52.9 201l-4.7 9.4.8.5 4.8-9.6-1-.3" fill="#f68a76" fill-rule="evenodd"/>
  <path d="M52.6 200.9l-4.7 9.3.8.5 4.8-9.5-.9-.3" fill="#f68c78" fill-rule="evenodd"/>
  <path d="M52.4 200.8l-4.8 9.3.8.5 4.9-9.5-.9-.3" fill="#f68c78" fill-rule="evenodd"/>
  <path d="M52.1 200.7l-4.8 9.2.8.5 5-9.4c-.4 0-.7-.2-1-.3" fill="#f78f79" fill-rule="evenodd"/>
  <path d="M52 200.7l-5 9 .8.5 5-9.2-.9-.3" fill="#f78f7b" fill-rule="evenodd"/>
  <path d="M51.6 200.5l-4.9 9 .8.5 5-9.1-.9-.4" fill="#f78f7b" fill-rule="evenodd"/>
  <path d="M51.4 200.5l-5 8.9.9.5 5-9.1-.9-.3" fill="#f7917d" fill-rule="evenodd"/>
  <path d="M51.2 200.4l-5 8.8.8.5 5-9-.8-.3" fill="#f7917d" fill-rule="evenodd"/>
  <path d="M51 200.3l-5.1 8.8.7.4 5.2-8.9-.9-.3" fill="#f7917d" fill-rule="evenodd"/>
  <path d="M50.7 200.2l-5.1 8.7.8.5 5.1-8.9c-.3 0-.5-.2-.8-.3" fill="#f79380" fill-rule="evenodd"/>
  <path d="M50.4 200l-5 8.7.7.5 5.2-8.8-.9-.3" fill="#f79380" fill-rule="evenodd"/>
  <path d="M50.2 200l-5.2 8.5.8.5 5.3-8.7-1-.3" fill="#f79682" fill-rule="evenodd"/>
  <path d="M50 199.9l-5.2 8.4.7.5 5.3-8.6c-.3 0-.5-.2-.8-.3" fill="#f79682" fill-rule="evenodd"/>
  <path d="M49.7 199.8l-5.2 8.3.7.5 5.3-8.5-.8-.3" fill="#f79682" fill-rule="evenodd"/>
  <path d="M49.5 199.7l-5.3 8.2.8.6 5.3-8.5c-.3 0-.6-.2-.8-.3" fill="#f79885" fill-rule="evenodd"/>
  <path d="M49.2 199.5l-5.3 8.2.8.6 5.4-8.4a33 33 0 0 1-.9-.4" fill="#f79885" fill-rule="evenodd"/>
  <path d="M49 199.4l-5.3 8.1.7.6 5.4-8.3-.8-.4" fill="#f89a87" fill-rule="evenodd"/>
  <path d="M48.7 199.3l-5.3 8 .7.6 5.5-8.2-.9-.4" fill="#f89a87" fill-rule="evenodd"/>
  <path d="M48.5 199.2l-5.4 8 .8.5 5.5-8-.9-.5" fill="#f89a87" fill-rule="evenodd"/>
  <path d="M48.3 199l-5.5 8 .8.5 5.5-8-.8-.4" fill="#f89d88" fill-rule="evenodd"/>
  <path d="M48 199l-5.4 7.7.7.6 5.6-8-.9-.3" fill="#f89d8a" fill-rule="evenodd"/>
  <path d="M47.8 198.8l-5.5 7.7.7.6 5.7-7.8-1-.5" fill="#f89f8a" fill-rule="evenodd"/>
  <path d="M47.6 198.7l-5.6 7.6.8.5 5.6-7.6-.8-.5" fill="#f89f8c" fill-rule="evenodd"/>
  <path d="M47.3 198.6l-5.6 7.4.8.6L48 199l-.8-.4" fill="#f89f8c" fill-rule="evenodd"/>
  <path d="M47.1 198.5l-5.6 7.3.7.6 5.7-7.5a32 32 0 0 1-.8-.4" fill="#f8a18d" fill-rule="evenodd"/>
  <path d="M46.8 198.3l-5.6 7.3.8.6 5.7-7.4-.9-.5" fill="#f8a18f" fill-rule="evenodd"/>
  <path d="M46.6 198.2l-5.6 7.2.7.6 5.7-7.4-.8-.4" fill="#f8a48f" fill-rule="evenodd"/>
  <path d="M46.4 198l-5.7 7.1.7.6 5.8-7.2-.8-.4" fill="#f8a48f" fill-rule="evenodd"/>
  <path d="M46.2 198l-5.7 7 .7.5 5.8-7.1-.8-.5" fill="#f8a491" fill-rule="evenodd"/>
  <path d="M46 197.8l-5.8 6.9.7.6 5.8-7-.8-.5" fill="#f8a692" fill-rule="evenodd"/>
  <path d="M45.7 197.6l-5.7 6.8.7.7 5.8-7a28 28 0 0 1-.8-.5" fill="#f8a694" fill-rule="evenodd"/>
  <path d="M45.5 197.5l-5.8 6.7.7.6 5.9-6.8-.8-.5" fill="#f8a694" fill-rule="evenodd"/>
  <path d="M45.3 197.3l-5.8 6.7.6.6 6-6.8-.8-.5" fill="#f9a995" fill-rule="evenodd"/>
  <path d="M45 197.2l-5.8 6.5.7.7 6-6.7a26 26 0 0 1-.9-.5" fill="#f9a997" fill-rule="evenodd"/>
  <path d="M44.8 197l-5.8 6.5.7.6 6-6.5-.9-.5" fill="#f9ab97" fill-rule="evenodd"/>
  <path d="M44.6 196.9l-5.8 6.3.6.7 6-6.5-.8-.5" fill="#f9ab99" fill-rule="evenodd"/>
  <path d="M44.4 196.7l-5.8 6.3.6.6 6-6.3-.8-.6" fill="#f9ab99" fill-rule="evenodd"/>
  <path d="M44.2 196.6l-6 6 .8.8 6-6.3-.8-.5" fill="#f9ad9a" fill-rule="evenodd"/>
  <path d="M44 196.4l-6 6 .7.8 6-6.2-.7-.6" fill="#f9ad9c" fill-rule="evenodd"/>
  <path d="M43.8 196.3l-6 5.9.7.7 6-6-.7-.6" fill="#f9b09d" fill-rule="evenodd"/>
  <path d="M43.6 196.1l-6 5.8.7.8 6-6-.7-.6" fill="#f9b09d" fill-rule="evenodd"/>
  <path d="M43.4 196l-6 5.6.7.8 6-5.9-.7-.6" fill="#f9b09f" fill-rule="evenodd"/>
  <path d="M43.2 195.8l-6 5.6.7.8 6-5.8-.7-.6" fill="#f9b2a0" fill-rule="evenodd"/>
  <path d="M43 195.6l-6 5.5.6.8 6.1-5.7-.7-.6" fill="#f9b2a0" fill-rule="evenodd"/>
  <path d="M42.8 195.5l-6 5.4.6.7 6.1-5.5a25 25 0 0 1-.7-.6" fill="#fab5a3" fill-rule="evenodd"/>
  <path d="M42.6 195.3l-6 5.2.6.8 6.1-5.4-.7-.6" fill="#fab5a3" fill-rule="evenodd"/>
  <path d="M42.4 195l-6 5.3.6.8 6.1-5.4-.7-.6" fill="#fab5a5" fill-rule="evenodd"/>
  <path d="M42.2 195l-6 5 .6.8 6.1-5.2-.7-.7" fill="#fab7a5" fill-rule="evenodd"/>
  <path d="M42 194.7l-6 5 .6.8 6.1-5a22 22 0 0 1-.7-.8" fill="#fab7a5" fill-rule="evenodd"/>
  <path d="M41.8 194.6l-6 4.9c.3.2.4.5.6.8l6.2-5-.8-.7" fill="#fabaa8" fill-rule="evenodd"/>
  <path d="M41.7 194.4l-6 4.8.5.8 6.2-5c-.3-.1-.5-.4-.7-.6" fill="#fabaa8" fill-rule="evenodd"/>
  <path d="M41.5 194.2l-6 4.7.6.8 6-4.8-.6-.7" fill="#fabaaa" fill-rule="evenodd"/>
  <path d="M41.3 194l-6 4.7c.3.2.4.5.6.8l6.1-4.8-.7-.6" fill="#fabcab" fill-rule="evenodd"/>
  <path d="M41.1 193.8l-5.9 4.5.5 1 6.1-4.7a21 21 0 0 1-.7-.8" fill="#fabcab" fill-rule="evenodd"/>
  <path d="M41 193.7l-6 4.4.6.9 6-4.6-.6-.7" fill="#fabfae" fill-rule="evenodd"/>
  <path d="M40.8 193.5l-6 4.3.6.9 6.1-4.4-.7-.8" fill="#fabfae" fill-rule="evenodd"/>
  <path d="M40.7 193.3l-6 4.2.6 1 6-4.4-.6-.8" fill="#fabfae" fill-rule="evenodd"/>
  <path d="M40.5 193.1l-5.9 4.1.5 1 6.1-4.3-.7-.8" fill="#fac1b1" fill-rule="evenodd"/>
  <path d="M40.4 193l-6 4 .5.9 6.1-4.2-.6-.7" fill="#fac1b1" fill-rule="evenodd"/>
  <path d="M40.2 192.8l-5.9 3.9.5 1 6-4.1a22 22 0 0 1-.6-.8" fill="#fac1b3" fill-rule="evenodd"/>
  <path d="M40 192.6l-5.8 3.8.5 1 6-4-.6-.8" fill="#fbc4b4" fill-rule="evenodd"/>
  <path d="M40 192.4l-6 3.7.5 1 6-3.9a21 21 0 0 1-.6-.8" fill="#fbc4b4" fill-rule="evenodd"/>
  <path d="M39.8 192.2l-5.8 3.6.4 1 6-3.7-.6-.9" fill="#fbc6b7" fill-rule="evenodd"/>
  <path d="M39.6 192l-5.8 3.5.5 1 6-3.6-.7-.9" fill="#fbc6b7" fill-rule="evenodd"/>
  <path d="M39.5 191.8l-5.8 3.5.4 1 6-3.6a20 20 0 0 1-.6-.9" fill="#fbc6b7" fill-rule="evenodd"/>
  <path d="M39.4 191.7l-5.8 3.3.4 1 6-3.5a21 21 0 0 1-.6-.8" fill="#fbc9ba" fill-rule="evenodd"/>
  <path d="M39.3 191.5l-5.8 3.3.4 1 6-3.5a21 21 0 0 1-.6-.8" fill="#fbc9ba" fill-rule="evenodd"/>
  <path d="M39.1 191.3l-5.7 3.2.4 1 6-3.3-.7-.9" fill="#fbcbbb" fill-rule="evenodd"/>
  <path d="M39 191.1l-5.7 3 .4 1 6-3.1-.7-.9" fill="#fbcbbd" fill-rule="evenodd"/>
  <path d="M38.9 191l-5.7 2.9.4 1 6-3-.7-1" fill="#fbcbbd" fill-rule="evenodd"/>
  <path d="M38.8 190.8l-5.7 2.9.4 1 5.9-3-.6-1" fill="#fbcec0" fill-rule="evenodd"/>
  <path d="M38.7 190.6l-5.6 2.8.3 1 5.9-2.9-.6-.9" fill="#fbcec0" fill-rule="evenodd"/>
  <path d="M38.6 190.4l-5.6 2.7c0 .4.2.7.3 1l5.8-2.8-.5-.9" fill="#fcd0c1" fill-rule="evenodd"/>
  <path d="M38.5 190.2l-5.6 2.7.3 1 5.9-2.7c-.3-.3-.4-.6-.6-1" fill="#fcd0c4" fill-rule="evenodd"/>
  <path d="M38.4 190l-5.6 2.6.4 1 5.7-2.6a19 19 0 0 1-.5-1" fill="#fcd0c4" fill-rule="evenodd"/>
  <path d="M38.3 189.9l-5.5 2.5.3 1 5.7-2.6-.5-1" fill="#fcd3c7" fill-rule="evenodd"/>
  <path d="M38.2 189.7l-5.5 2.4.3 1.1 5.7-2.5-.5-1" fill="#fcd3c7" fill-rule="evenodd"/>
  <path d="M38 189.5l-5.4 2.3.3 1.2 5.7-2.5-.5-1" fill="#fcd5c8" fill-rule="evenodd"/>
  <path d="M38 189.4l-5.4 2.2c0 .4.2.7.3 1.1l5.7-2.3-.6-1" fill="#fcd5ca" fill-rule="evenodd"/>
  <path d="M38 189.2l-5.5 2.2.3 1 5.7-2.2-.6-1" fill="#fcd5ca" fill-rule="evenodd"/>
  <path d="M37.8 189l-5.3 2.1.2 1.2 5.7-2.2-.6-1" fill="#fcd8cb" fill-rule="evenodd"/>
  <path d="M37.8 189l-5.4 2 .3 1 5.6-2.1-.5-1" fill="#fcd8cd" fill-rule="evenodd"/>
  <path d="M37.7 188.8l-5.3 1.9.2 1.1 5.6-2-.5-1" fill="#fcd8cd" fill-rule="evenodd"/>
  <path d="M37.6 188.6l-5.2 1.9.2 1 5.5-1.9-.5-1" fill="#fcdad1" fill-rule="evenodd"/>
  <path d="M37.5 188.4l-5.2 1.8.2 1.1 5.5-1.9-.5-1" fill="#fcdad1" fill-rule="evenodd"/>
  <path d="M37.5 188.2l-5.2 1.8.2 1.1 5.5-1.8-.5-1" fill="#fdddd1" fill-rule="evenodd"/>
  <path d="M37.4 188.1l-5.2 1.7.2 1 5.5-1.7a20 20 0 0 1-.5-1" fill="#fdddd1" fill-rule="evenodd"/>
  <path d="M37.3 188l-5 1.5.1 1.2 5.4-1.7-.5-1" fill="#fdddd4" fill-rule="evenodd"/>
  <path d="M37.3 187.8l-5.1 1.5c0 .4 0 .8.2 1.2l5.3-1.6-.4-1" fill="#fddfd5" fill-rule="evenodd"/>
  <path d="M37.2 187.7l-5 1.4.1 1.2 5.4-1.6-.5-1" fill="#fddfd7" fill-rule="evenodd"/>
  <path d="M37.2 187.5l-5 1.4v1.2l5.4-1.5a21 21 0 0 1-.4-1" fill="#fde2d8" fill-rule="evenodd"/>
  <path d="M37.1 187.4l-5 1.3.2 1.2 5.3-1.4-.5-1.1" fill="#fde2d8" fill-rule="evenodd"/>
  <path d="M37 187.2l-5 1.3.2 1.2 5.3-1.3-.5-1.2" fill="#fde2da" fill-rule="evenodd"/>
  <path d="M37 187l-5 1.3.2 1.2 5.3-1.3a21 21 0 0 1-.5-1.1" fill="#fde5db" fill-rule="evenodd"/>
  <path d="M37 187l-5 1.1.2 1.2 5.2-1.2-.5-1.2" fill="#fde5de" fill-rule="evenodd"/>
  <path d="M37 186.9l-5 1 .2 1.2 5.1-1.1-.4-1.1" fill="#fde7df" fill-rule="evenodd"/>
  <path d="M36.9 186.7l-4.9 1 .1 1.3 5.2-1.1a21 21 0 0 1-.4-1.2" fill="#fde7df" fill-rule="evenodd"/>
  <path d="M36.8 186.6l-4.8 1 .1 1.2 5.2-1-.5-1.2" fill="#fde7e1" fill-rule="evenodd"/>
  <path d="M36.8 186.5l-4.8 1v1.1l5.2-1-.4-1.1" fill="#fdeae2" fill-rule="evenodd"/>
  <path d="M36.7 186.4l-4.7.8v1.3l5.2-1-.5-1.1" fill="#fdeae5" fill-rule="evenodd"/>
  <path d="M36.7 186.2l-4.7.8v1.3l5.1-.9-.4-1.2" fill="#feece6" fill-rule="evenodd"/>
  <path d="M36.7 186.1l-4.7.8v1.2l5-.8-.3-1.2" fill="#feece6" fill-rule="evenodd"/>
  <path d="M36.6 186l-4.6.7v1.3l5-.8-.4-1.2" fill="#feede8" fill-rule="evenodd"/>
  <path d="M36.6 185.9l-4.6.7v1.2l5-.7-.4-1.2" fill="#feefe9" fill-rule="evenodd"/>
  <path d="M36.6 185.8l-4.7.6.1 1.3 5-.7-.4-1.2" fill="#feefec" fill-rule="evenodd"/>
  <path d="M36.5 185.7l-4.6.6.1 1.2 5-.6-.5-1.2" fill="#fef2ed" fill-rule="evenodd"/>
  <path d="M36.5 185.6l-4.6.5v1.3l5-.6-.4-1.2" fill="#fef2ed" fill-rule="evenodd"/>
  <path d="M36.5 185.5l-4.6.5v1.2l5-.5a21 21 0 0 1-.4-1.2" fill="#fef2ef" fill-rule="evenodd"/>
  <path d="M36.4 185.3l-4.5.5v1.3l5-.5-.5-1.3" fill="#fef4f0" fill-rule="evenodd"/>
  <path d="M36.4 185.3l-4.5.4v1.3l4.9-.5-.4-1.2" fill="#fef4f0" fill-rule="evenodd"/>
  <path d="M36.4 185.2l-4.5.4v1.3l4.9-.4-.4-1.3" fill="#fef4f0" fill-rule="evenodd"/>
  <path d="M36.4 185.1l-4.5.3v1.3l4.9-.3-.4-1.3" fill="#fef7f4" fill-rule="evenodd"/>
  <path d="M36.4 185l-4.5.3v1.3l4.8-.3-.3-1.3" fill="#fef7f4" fill-rule="evenodd"/>
  <path d="M36.3 185l-4.4.2v1.3l4.8-.3-.4-1.2" fill="#fffaf8" fill-rule="evenodd"/>
  <path d="M36.3 184.9l-4.4.2v1.3l4.8-.3-.4-1.2" fill="#fffaf8" fill-rule="evenodd"/>
  <path d="M36.3 184.8l-4.4.2v1.3l4.7-.2c0-.5-.2-.9-.3-1.3" fill="#fffaf8" fill-rule="evenodd"/>
  <path d="M36.3 184.7l-4.4.1v1.4l4.7-.2-.3-1.3" fill="#fffcfb" fill-rule="evenodd"/>
  <path d="M36.2 184.6l-4.3.1v1.4l4.7-.1-.4-1.4" fill="#fffcfb" fill-rule="evenodd"/>
  <path d="M36.2 184.6H32v1.4h4.6l-.4-1.4" fill="#fff" fill-rule="evenodd"/>
  <path d="M36.2 184.5H32v1.4h4.6l-.4-1.4M224.1 95.5s24.8-30.9-9.4-48.6C164.4 21 92 67.1 92 67.1l-4.2-7-15.6 31.4 37.5-1.6L106 84s71.4-42.6 108-26.6c26 11.4 10.1 38 10.1 38" fill="#fff" fill-rule="evenodd"/>
  <path d="M187.3 54.2V39.3l-2.9-.2v15.4c1 0 2-.2 2.9-.3" fill="#19b5f1" fill-rule="evenodd"/>
  <path d="M186.9 54.3v-15l-2.9-.2v15.5l2.9-.3" fill="#19b5f1" fill-rule="evenodd"/>
  <path d="M186.4 54.3v-15l-2.8-.2v15.5c1 0 2-.2 2.8-.3" fill="#1cb6f1" fill-rule="evenodd"/>
  <path d="M186 54.4V39.2l-2.9-.1.1 15.6 2.8-.3" fill="#1cb6f1" fill-rule="evenodd"/>
  <path d="M185.7 54.4l-.2-15.2-2.8-.1.2 15.6c1 0 1.8-.2 2.8-.3" fill="#1eb7f1" fill-rule="evenodd"/>
  <path d="M185.2 54.4l-.1-15.2-2.8-.2.2 15.8 2.7-.4" fill="#1eb7f1" fill-rule="evenodd"/>
  <path d="M184.8 54.5l-.2-15.4h-2.8l.2 15.7c1 0 2-.2 2.8-.3" fill="#1eb7f1" fill-rule="evenodd"/>
  <path d="M184.4 54.5l-.2-15.4h-2.8l.2 15.8 2.8-.4" fill="#21b8f1" fill-rule="evenodd"/>
  <path d="M184 54.6l-.2-15.5h-3l.4 15.9 2.9-.4" fill="#21b8f1" fill-rule="evenodd"/>
  <path d="M183.6 54.6l-.3-15.5h-2.9l.4 16 2.8-.5" fill="#21b8f1" fill-rule="evenodd"/>
  <path d="M183.2 54.7l-.4-15.6H180l.4 16 2.8-.4" fill="#24b9f1" fill-rule="evenodd"/>
  <path d="M182.8 54.7l-.4-15.7h-2.9l.5 16.2 2.8-.5" fill="#24b9f1" fill-rule="evenodd"/>
  <path d="M182.4 54.8L182 39H179l.5 16.2 2.8-.4" fill="#26b9f1" fill-rule="evenodd"/>
  <path d="M182 54.9l-.5-15.9h-2.8l.5 16.3 2.8-.4" fill="#26b9f1" fill-rule="evenodd"/>
  <path d="M181.6 55l-.5-16h-2.9l.6 16.4 2.8-.5" fill="#26b9f1" fill-rule="evenodd"/>
  <path d="M181.2 55l-.6-16h-2.8l.6 16.4 2.8-.4" fill="#29baf2" fill-rule="evenodd"/>
  <path d="M180.8 55l-.7-16h-2.8l.7 16.5 2.8-.5" fill="#29baf2" fill-rule="evenodd"/>
  <path d="M180.4 55.1l-.7-16.1h-2.9l.8 16.6 2.8-.5" fill="#29baf2" fill-rule="evenodd"/>
  <path d="M180 55.2l-.8-16.2h-2.8l.8 16.7 2.8-.5" fill="#2bbbf2" fill-rule="evenodd"/>
  <path d="M179.5 55.2l-.7-16.2h-2.9l.9 16.7 2.7-.5" fill="#2bbbf2" fill-rule="evenodd"/>
  <path d="M179.2 55.3l-.8-16.3h-3l1 16.8 2.8-.5" fill="#2ebcf2" fill-rule="evenodd"/>
  <path d="M178.8 55.4l-.9-16.4H175l1 16.9 2.8-.5" fill="#2ebcf2" fill-rule="evenodd"/>
  <path d="M178.3 55.4l-.8-16.4-2.9.1 1 16.9 2.7-.6" fill="#2ebcf2" fill-rule="evenodd"/>
  <path d="M178 55.5L177 39l-2.8.1 1 17 2.7-.6" fill="#30bdf2" fill-rule="evenodd"/>
  <path d="M177.5 55.6l-1-16.6-2.8.2 1 17 2.8-.6" fill="#30bdf2" fill-rule="evenodd"/>
  <path d="M177.1 55.7l-1-16.6h-2.9l1.1 17.1 2.8-.5" fill="#33bdf2" fill-rule="evenodd"/>
  <path d="M176.7 55.7l-1-16.6-3 .1 1.2 17.1 2.8-.6" fill="#33bdf2" fill-rule="evenodd"/>
  <path d="M176.3 55.8l-1.1-16.7-3 .1 1.3 17.2 2.8-.6" fill="#33bdf2" fill-rule="evenodd"/>
  <path d="M176 55.9l-1.3-16.8-2.9.2 1.3 17.2 2.8-.6" fill="#36bef2" fill-rule="evenodd"/>
  <path d="M175.5 56L174.3 39l-3 .2 1.4 17.3 2.8-.6" fill="#36bef2" fill-rule="evenodd"/>
  <path d="M175 56l-1.2-16.8-2.9.1 1.4 17.4 2.7-.6" fill="#38bff3" fill-rule="evenodd"/>
  <path d="M174.6 56.2l-1.3-17-2.8.2 1.4 17.4 2.7-.6" fill="#38bff3" fill-rule="evenodd"/>
  <path d="M174.3 56.2l-1.4-17-2.9.2 1.5 17.5 2.8-.7" fill="#38bff3" fill-rule="evenodd"/>
  <path d="M173.8 56.3l-1.4-17c-1 0-1.9 0-2.8.2l1.5 17.4 2.7-.6" fill="#3bc0f3" fill-rule="evenodd"/>
  <path d="M173.4 56.4L172 39.3l-2.8.2 1.6 17.5 2.7-.6" fill="#3bc0f3" fill-rule="evenodd"/>
  <path d="M173 56.5l-1.5-17.2-3 .3 1.7 17.5 2.8-.6" fill="#3dc1f3" fill-rule="evenodd"/>
  <path d="M172.6 56.6l-1.5-17.3-3 .3 1.7 17.7 2.8-.7" fill="#3dc1f3" fill-rule="evenodd"/>
  <path d="M172.2 56.7l-1.7-17.3-2.8.2 1.8 17.7 2.7-.6" fill="#3dc1f3" fill-rule="evenodd"/>
  <path d="M171.8 56.8L170 39.4l-2.9.3 1.8 17.7 2.8-.6" fill="#40c1f3" fill-rule="evenodd"/>
  <path d="M171.3 56.9l-1.7-17.4-2.8.2 1.8 17.9 2.7-.7" fill="#40c1f3" fill-rule="evenodd"/>
  <path d="M171 57l-1.8-17.5c-1 0-2 .2-2.9.3l2 17.8 2.7-.6" fill="#40c1f3" fill-rule="evenodd"/>
  <path d="M170.6 57l-1.9-17.5-2.8.4 2 17.9 2.7-.7" fill="#42c2f3" fill-rule="evenodd"/>
  <path d="M170.1 57.2l-1.8-17.6-3 .3 2.1 18 2.7-.7" fill="#42c2f3" fill-rule="evenodd"/>
  <path d="M169.7 57.3l-1.9-17.7-2.9.4 2 18 2.8-.7" fill="#45c3f3" fill-rule="evenodd"/>
  <path d="M169.3 57.4l-2-17.7-2.9.3 2.2 18 2.7-.6" fill="#45c3f3" fill-rule="evenodd"/>
  <path d="M168.9 57.5l-2-17.8-3 .4 2.3 18 2.7-.6" fill="#45c3f3" fill-rule="evenodd"/>
  <path d="M168.5 57.6l-2.1-17.8-3 .4 2.3 18.1 2.8-.7" fill="#47c4f3" fill-rule="evenodd"/>
  <path d="M168 57.7l-2-17.9-3 .4 2.4 18.2 2.7-.7" fill="#47c4f3" fill-rule="evenodd"/>
  <path d="M167.7 57.8l-2.2-17.9-3 .4 2.4 18.2 2.8-.7" fill="#4ac5f4" fill-rule="evenodd"/>
  <path d="M167.3 57.9l-2.3-18-2.9.5 2.4 18.2 2.8-.7" fill="#4ac5f4" fill-rule="evenodd"/>
  <path d="M166.8 58l-2.3-18-2.8.4 2.4 18.4 2.7-.8" fill="#4ac5f4" fill-rule="evenodd"/>
  <path d="M166.4 58.1l-2.4-18-2.8.4 2.5 18.4 2.7-.8" fill="#4dc6f4" fill-rule="evenodd"/>
  <path d="M166 58.2l-2.4-18c-1 0-2 .2-2.9.4l2.6 18.4 2.7-.8" fill="#4dc6f4" fill-rule="evenodd"/>
  <path d="M165.6 58.3l-2.5-18c-1 0-2 .2-2.9.4l2.7 18.4 2.7-.8" fill="#4fc6f4" fill-rule="evenodd"/>
  <path d="M165.2 58.5l-2.6-18.2-2.9.5 2.8 18.4 2.7-.7" fill="#4fc6f4" fill-rule="evenodd"/>
  <path d="M164.8 58.6l-2.6-18.2-3 .4 2.9 18.6 2.7-.8" fill="#4fc6f4" fill-rule="evenodd"/>
  <path d="M164.4 58.7l-2.7-18.3-2.9.5 2.8 18.6 2.8-.8" fill="#52c7f4" fill-rule="evenodd"/>
  <path d="M164 58.8l-2.7-18.3-3 .5 3 18.6 2.7-.8" fill="#52c7f4" fill-rule="evenodd"/>
  <path d="M163.5 59l-2.8-18.4-2.8.5 3 18.6 2.6-.8" fill="#54c8f4" fill-rule="evenodd"/>
  <path d="M163.1 59l-2.8-18.3-2.9.5 3 18.7 2.7-.8" fill="#54c8f4" fill-rule="evenodd"/>
  <path d="M162.7 59.2l-2.9-18.5-2.8.6 3 18.7 2.7-.8" fill="#54c8f4" fill-rule="evenodd"/>
  <path d="M162.3 59.3l-3-18.5-2.8.5 3.1 18.8 2.7-.8" fill="#57c9f4" fill-rule="evenodd"/>
  <path d="M161.9 59.4l-3-18.5-3 .5 3.3 18.8 2.7-.8" fill="#57c9f4" fill-rule="evenodd"/>
  <path d="M161.5 59.5l-3-18.5-3 .5 3.3 18.9 2.7-.9" fill="#59caf5" fill-rule="evenodd"/>
  <path d="M161.1 59.6L158 41.1l-3 .5 3.4 18.9 2.7-.9" fill="#59caf5" fill-rule="evenodd"/>
  <path d="M160.7 59.8l-3.2-18.6-3 .5 3.5 19 2.7-1" fill="#59caf5" fill-rule="evenodd"/>
  <path d="M160.2 60L157 41.2l-2.9.5 3.5 19 2.6-.9" fill="#5ccaf5" fill-rule="evenodd"/>
  <path d="M159.8 60l-3.3-18.7-2.8.6 3.4 19 2.7-.9" fill="#5ccaf5" fill-rule="evenodd"/>
  <path d="M159.4 60.2l-3.3-18.8-2.9.6 3.5 19 2.7-.8" fill="#5ccaf5" fill-rule="evenodd"/>
  <path d="M159 60.3l-3.4-18.8-2.9.6 3.7 19 2.6-.8" fill="#5ecbf5" fill-rule="evenodd"/>
  <path d="M158.6 60.4l-3.5-18.8-2.8.6 3.6 19.1 2.7-.9" fill="#5ecbf5" fill-rule="evenodd"/>
  <path d="M158.2 60.6l-3.5-18.9-3 .7 3.8 19 2.7-.8" fill="#61ccf5" fill-rule="evenodd"/>
  <path d="M157.8 60.7l-3.6-18.9-3 .7 4 19 2.6-.8" fill="#61ccf5" fill-rule="evenodd"/>
  <path d="M157.4 60.8L153.7 42l-2.9.7 3.9 19.1 2.7-.9" fill="#61ccf5" fill-rule="evenodd"/>
  <path d="M157 61l-3.8-19-2.8.7 3.9 19.2 2.6-1" fill="#64cdf5" fill-rule="evenodd"/>
  <path d="M156.5 61l-3.7-18.9-2.9.7 4 19.2 2.6-1" fill="#64cdf5" fill-rule="evenodd"/>
  <path d="M156.2 61.2l-3.9-19-2.9.7 4 19.2 2.8-.9" fill="#66cef5" fill-rule="evenodd"/>
  <path d="M155.8 61.4l-4-19c-1 .1-1.9.4-2.8.6l4 19.3 2.8-1" fill="#66cef5" fill-rule="evenodd"/>
  <path d="M155.3 61.5l-4-19-2.8.6 4.2 19.3 2.6-.9" fill="#66cef5" fill-rule="evenodd"/>
  <path d="M154.9 61.6l-4-19-2.9.6 4.3 19.4 2.6-1" fill="#69cff6" fill-rule="evenodd"/>
  <path d="M154.5 61.8l-4.1-19.1-2.9.7 4.3 19.3 2.7-1" fill="#69cff6" fill-rule="evenodd"/>
  <path d="M154 62l-4-19.2-3 .7 4.4 19.4 2.7-1" fill="#6bcff6" fill-rule="evenodd"/>
  <path d="M153.7 62L149.5 43l-3 .7L151 63l2.7-1" fill="#6bcff6" fill-rule="evenodd"/>
  <path d="M153.3 62.2L149 43l-2.9.7 4.5 19.4 2.7-.9" fill="#6bcff6" fill-rule="evenodd"/>
  <path d="M152.9 62.3l-4.4-19.2-2.8.8 4.5 19.4 2.7-1" fill="#6ed0f6" fill-rule="evenodd"/>
  <path d="M152.5 62.5L148 43.2l-2.9.8 4.6 19.4 2.7-1" fill="#6ed0f6" fill-rule="evenodd"/>
  <path d="M152 62.6l-4.4-19.2-2.9.7 4.7 19.5 2.6-1" fill="#70d1f6" fill-rule="evenodd"/>
  <path d="M151.6 62.8l-4.5-19.3-2.8.8 4.7 19.4 2.6-1" fill="#70d1f6" fill-rule="evenodd"/>
  <path d="M151.3 63l-4.6-19.4-2.9.8 4.8 19.5 2.7-1" fill="#70d1f6" fill-rule="evenodd"/>
  <path d="M150.8 63l-4.6-19.3-3 .8 5 19.6 2.6-1" fill="#73d2f6" fill-rule="evenodd"/>
  <path d="M150.4 63.2L145.7 44l-2.9.8 5 19.5 2.6-1" fill="#73d2f6" fill-rule="evenodd"/>
  <path d="M150 63.4L145.3 44l-3 .8 5 19.6 2.7-1" fill="#73d2f6" fill-rule="evenodd"/>
  <path d="M149.6 63.5l-4.8-19.4-2.9.8 5 19.6 2.7-1" fill="#76d3f6" fill-rule="evenodd"/>
  <path d="M149.2 63.7l-5-19.4-2.8.8 5.1 19.6 2.7-1" fill="#76d3f6" fill-rule="evenodd"/>
  <path d="M148.8 63.8l-5-19.4-2.8.8 5.2 19.6 2.6-1" fill="#78d4f7" fill-rule="evenodd"/>
  <path d="M148.4 64l-5-19.5-2.9.9 5.3 19.6 2.6-1" fill="#78d4f7" fill-rule="evenodd"/>
  <path d="M148 64.1l-5.1-19.5-2.8.9 5.2 19.6 2.7-1" fill="#78d4f7" fill-rule="evenodd"/>
  <path d="M147.6 64.3l-5.2-19.5-2.8.8 5.4 19.7 2.6-1" fill="#7bd4f7" fill-rule="evenodd"/>
  <path d="M147.2 64.4L142 45l-3 .9 5.5 19.6 2.7-1" fill="#7bd4f7" fill-rule="evenodd"/>
  <path d="M146.8 64.6L141.5 45l-2.9 1 5.5 19.6 2.7-1" fill="#7dd5f7" fill-rule="evenodd"/>
  <path d="M146.4 64.7L141 45.2l-2.8.9 5.5 19.7 2.7-1" fill="#7dd5f7" fill-rule="evenodd"/>
  <path d="M146 64.9l-5.5-19.6-2.8 1 5.6 19.6 2.7-1" fill="#7dd5f7" fill-rule="evenodd"/>
  <path d="M145.5 65l-5.4-19.5-2.9.9L143 66l2.6-1" fill="#80d6f7" fill-rule="evenodd"/>
  <path d="M145.1 65.2l-5.5-19.6-2.8 1 5.7 19.7 2.6-1" fill="#80d6f7" fill-rule="evenodd"/>
  <path d="M144.8 65.4l-5.6-19.6-2.9.9 5.8 19.7 2.7-1" fill="#82d7f7" fill-rule="evenodd"/>
  <path d="M144.3 65.5L138.7 46l-2.8 1 5.9 19.7 2.5-1" fill="#82d7f7" fill-rule="evenodd"/>
  <path d="M144 65.7L138.1 46l-2.9.9 6 19.7 2.6-1" fill="#82d7f7" fill-rule="evenodd"/>
  <path d="M143.5 65.9l-5.8-19.7-2.8 1 6 19.7 2.6-1" fill="#85d8f7" fill-rule="evenodd"/>
  <path d="M143.1 66l-5.8-19.6-2.9 1 6.1 19.7 2.6-1.1" fill="#85d8f7" fill-rule="evenodd"/>
  <path d="M142.7 66.2l-5.9-19.7-2.8 1 6.1 19.7 2.6-1" fill="#87d8f7" fill-rule="evenodd"/>
  <path d="M142.3 66.3l-6-19.6-2.8 1 6.2 19.7 2.6-1" fill="#87d8f7" fill-rule="evenodd"/>
  <path d="M142 66.5l-6.1-19.7-2.8 1 6.2 19.8 2.6-1.1" fill="#87d8f7" fill-rule="evenodd"/>
  <path d="M141.6 66.7L135.4 47l-2.8 1 6.4 19.7 2.6-1" fill="#8ad9f8" fill-rule="evenodd"/>
  <path d="M141.2 66.8L135 47.1l-2.8 1 6.3 19.8 2.7-1" fill="#8ad9f8" fill-rule="evenodd"/>
  <path d="M140.7 67l-6.2-19.7-2.8 1 6.4 19.8 2.6-1.1" fill="#8cdaf8" fill-rule="evenodd"/>
  <path d="M140.3 67.2L134 47.5l-2.8 1 6.5 19.7 2.6-1" fill="#8cdaf8" fill-rule="evenodd"/>
  <path d="M140 67.3l-6.4-19.7-2.9 1 6.6 19.8 2.6-1" fill="#8cdaf8" fill-rule="evenodd"/>
  <path d="M139.5 67.5l-6.4-19.7-2.8 1 6.6 19.8 2.6-1.1" fill="#8fdbf8" fill-rule="evenodd"/>
  <path d="M139.1 67.7l-6.5-19.8-2.8 1 6.7 19.9 2.6-1.1" fill="#8fdbf8" fill-rule="evenodd"/>
  <path d="M138.7 67.8l-6.5-19.7-2.8 1 6.8 19.8 2.5-1" fill="#8fdbf8" fill-rule="evenodd"/>
  <path d="M138.4 68l-6.7-19.7-2.8 1 6.9 19.8 2.6-1.1" fill="#91dcf8" fill-rule="evenodd"/>
  <path d="M138 68.2l-6.8-19.8-2.7 1 6.8 19.9 2.6-1.1" fill="#91dcf8" fill-rule="evenodd"/>
  <path d="M137.5 68.3l-6.7-19.7-2.8 1 7 19.8 2.5-1" fill="#94ddf8" fill-rule="evenodd"/>
  <path d="M137.1 68.5l-6.8-19.7-2.7 1 7 19.8 2.5-1" fill="#94ddf8" fill-rule="evenodd"/>
  <path d="M136.8 68.7l-7-19.8-2.8 1 7.2 19.9 2.6-1.1" fill="#94ddf8" fill-rule="evenodd"/>
  <path d="M136.4 68.8l-7-19.7-2.8 1 7.2 19.9 2.6-1.2" fill="#96ddf8" fill-rule="evenodd"/>
  <path d="M136 69l-7-19.7-2.8 1 7.2 19.8 2.6-1" fill="#96ddf8" fill-rule="evenodd"/>
  <path d="M135.6 69.2l-7-19.8-3 1.1 7.4 19.8 2.6-1.1" fill="#99def9" fill-rule="evenodd"/>
  <path d="M135.2 69.4L128 49.6l-2.8 1 7.4 19.9 2.6-1.1" fill="#99def9" fill-rule="evenodd"/>
  <path d="M134.8 69.5l-7.2-19.7-2.8 1 7.4 19.9 2.6-1.2" fill="#99def9" fill-rule="evenodd"/>
  <path d="M134.4 69.7L127 50l-2.7 1 7.4 19.8 2.6-1" fill="#9cdff9" fill-rule="evenodd"/>
  <path d="M134 69.9L126.6 50l-2.7 1.1 7.5 19.8L134 70" fill="#9cdff9" fill-rule="evenodd"/>
  <path d="M133.6 70l-7.4-19.7-2.7 1.1 7.5 19.8 2.6-1.2" fill="#9ee0f9" fill-rule="evenodd"/>
  <path d="M133.2 70.2l-7.4-19.7-2.8 1.1 7.7 19.8 2.5-1.2" fill="#9ee0f9" fill-rule="evenodd"/>
  <path d="M132.8 70.4l-7.5-19.7-2.8 1.1 7.7 19.8 2.6-1.2" fill="#9ee0f9" fill-rule="evenodd"/>
  <path d="M132.4 70.6l-7.6-19.7-2.7 1 7.8 19.8 2.5-1.1" fill="#a1e1f9" fill-rule="evenodd"/>
  <path d="M132 70.8L124.4 51l-2.8 1.2 7.9 19.7 2.5-1.1" fill="#a1e1f9" fill-rule="evenodd"/>
  <path d="M131.6 71L124 51.1l-2.7 1.1 7.9 19.8 2.5-1.2" fill="#a3e1f9" fill-rule="evenodd"/>
  <path d="M131.2 71.1l-7.7-19.7-2.8 1.1 8 19.8 2.5-1.2" fill="#a3e1f9" fill-rule="evenodd"/>
  <path d="M130.8 71.3L123 51.6l-2.7 1.1 8 19.8 2.5-1.2" fill="#a3e1f9" fill-rule="evenodd"/>
  <path d="M130.5 71.5l-8-19.7-2.7 1.1 8.1 19.7 2.6-1.1" fill="#a6e2f9" fill-rule="evenodd"/>
  <path d="M130 71.6L122.2 52l-2.7 1.1 8.1 19.7 2.6-1.2" fill="#a6e2f9" fill-rule="evenodd"/>
  <path d="M129.7 71.8l-8-19.6-2.8 1.1L127 73l2.6-1.2" fill="#a6e2f9" fill-rule="evenodd"/>
  <path d="M129.3 72l-8.1-19.7-2.7 1.2 8.2 19.7 2.6-1.2" fill="#a8e3fa" fill-rule="evenodd"/>
  <path d="M129 72.2l-8.2-19.7-2.8 1.2 8.4 19.7 2.5-1.2" fill="#a8e3fa" fill-rule="evenodd"/>
  <path d="M128.5 72.4l-8.2-19.7-2.7 1.2 8.4 19.7 2.5-1.2" fill="#abe4fa" fill-rule="evenodd"/>
  <path d="M128.1 72.5L120 53l-2.8 1.2 8.5 19.6c.8-.3 1.7-.7 2.5-1.2" fill="#abe4fa" fill-rule="evenodd"/>
  <path d="M127.7 72.7l-8.3-19.6-2.7 1.2 8.5 19.6 2.5-1.2" fill="#abe4fa" fill-rule="evenodd"/>
  <path d="M127.4 72.9L119 53.3l-2.7 1.2 8.5 19.6 2.6-1.2" fill="#ade5fa" fill-rule="evenodd"/>
  <path d="M127 73l-8.5-19.5-2.7 1.2 8.7 19.6L127 73" fill="#ade5fa" fill-rule="evenodd"/>
  <path d="M126.6 73.3L118 53.7l-2.6 1.2 8.7 19.6 2.5-1.2" fill="#b0e6fa" fill-rule="evenodd"/>
  <path d="M126.2 73.5l-8.6-19.6-2.7 1.2 8.8 19.6 2.5-1.2" fill="#b0e6fa" fill-rule="evenodd"/>
  <path d="M125.8 73.6l-8.6-19.5-2.7 1.2 8.8 19.6 2.5-1.3" fill="#b0e6fa" fill-rule="evenodd"/>
  <path d="M125.4 73.8l-8.7-19.5-2.7 1.2 9 19.6c.7-.5 1.6-.9 2.4-1.3" fill="#b2e6fa" fill-rule="evenodd"/>
  <path d="M125 74l-8.7-19.5-2.7 1.2 9 19.5L125 74" fill="#b2e6fa" fill-rule="evenodd"/>
  <path d="M124.7 74.2l-8.9-19.5-2.6 1.2 9 19.5 2.5-1.2" fill="#b5e7fa" fill-rule="evenodd"/>
  <path d="M124.3 74.4l-9-19.5-2.6 1.2 9 19.5 2.6-1.2" fill="#b5e7fa" fill-rule="evenodd"/>
  <path d="M124 74.6L115 55l-2.7 1.2 9.1 19.5 2.5-1.2" fill="#b5e7fa" fill-rule="evenodd"/>
  <path d="M123.5 74.8l-9-19.5-2.6 1.2L121 76l2.5-1.2" fill="#b8e8fb" fill-rule="evenodd"/>
  <path d="M123.1 75l-9-19.5-2.7 1.2 9.3 19.5 2.4-1.3" fill="#b8e8fb" fill-rule="evenodd"/>
  <path d="M122.8 75.1l-9.2-19.4-2.7 1.2 9.4 19.5 2.5-1.3" fill="#bae9fb" fill-rule="evenodd"/>
  <path d="M122.4 75.3L113.2 56l-2.7 1.2 9.4 19.5 2.5-1.3" fill="#bae9fb" fill-rule="evenodd"/>
  <path d="M122 75.5L112.8 56l-2.7 1.2 9.4 19.4 2.5-1.2" fill="#bae9fb" fill-rule="evenodd"/>
  <path d="M121.6 75.7l-9.3-19.4-2.6 1.2L119 77l2.5-1.2" fill="#bdeafb" fill-rule="evenodd"/>
  <path d="M121.2 75.9L112 56.5l-2.7 1.3 9.6 19.3 2.4-1.2" fill="#bdeafb" fill-rule="evenodd"/>
  <path d="M120.9 76l-9.5-19.3-2.6 1.3 9.6 19.3 2.5-1.2" fill="#bfeafb" fill-rule="evenodd"/>
  <path d="M120.5 76.3L111 56.9l-2.6 1.3 9.6 19.3 2.5-1.2" fill="#bfeafb" fill-rule="evenodd"/>
  <path d="M120 76.5L110.7 57l-2.7 1.3 9.7 19.3 2.5-1.2" fill="#bfeafb" fill-rule="evenodd"/>
  <path d="M119.8 76.6L110 57.3l-2.6 1.3 9.7 19.3 2.6-1.3" fill="#c2ebfb" fill-rule="evenodd"/>
  <path d="M119.4 76.8l-9.7-19.3-2.6 1.3 9.8 19.3 2.5-1.3" fill="#c2ebfb" fill-rule="evenodd"/>
  <path d="M119 77l-9.8-19.2-2.6 1.2 10 19.3L119 77" fill="#c2ebfb" fill-rule="evenodd"/>
  <path d="M118.6 77.2L108.8 58l-2.6 1.3 10 19.2 2.4-1.3" fill="#c4ecfb" fill-rule="evenodd"/>
  <path d="M118.2 77.4l-9.8-19.2-2.6 1.3 10 19.2 2.4-1.3" fill="#c4ecfb" fill-rule="evenodd"/>
  <path d="M117.9 77.6l-10-19.2-2.5 1.3 10 19.2 2.5-1.3" fill="#c7edfb" fill-rule="evenodd"/>
  <path d="M117.5 77.8l-10-19.2-2.6 1.3L115 79.1l2.5-1.3" fill="#c7edfb" fill-rule="evenodd"/>
  <path d="M117.1 78l-10-19.2-2.6 1.3 10.1 19.2 2.5-1.3" fill="#c7edfb" fill-rule="evenodd"/>
  <path d="M116.8 78.2L106.7 59l-2.6 1.3 10.2 19.1 2.5-1.2" fill="#c9eefc" fill-rule="evenodd"/>
  <path d="M116.4 78.4l-10.1-19.2-2.6 1.4 10.2 19 2.5-1.2" fill="#c9eefc" fill-rule="evenodd"/>
  <path d="M116 78.6l-10.2-19.1-2.6 1.3 10.3 19 2.5-1.2" fill="#cceffc" fill-rule="evenodd"/>
  <path d="M115.6 78.8l-10.2-19.1-2.6 1.3L113 80l2.5-1.2" fill="#cceffc" fill-rule="evenodd"/>
  <path d="M115.3 79L105 59.8l-2.6 1.3 10.4 19 2.5-1.3" fill="#cceffc" fill-rule="evenodd"/>
  <path d="M115 79.1l-10.5-19-2.5 1.4 10.4 19L115 79" fill="#cfeffc" fill-rule="evenodd"/>
  <path d="M114.5 79.3l-10.4-19-2.6 1.4 10.6 19 2.4-1.4" fill="#cfeffc" fill-rule="evenodd"/>
  <path d="M114.2 79.5l-10.5-19-2.5 1.4 10.6 19c.7-.5 1.5-1 2.4-1.4" fill="#d1f0fc" fill-rule="evenodd"/>
  <path d="M113.8 79.7l-10.5-19-2.6 1.4 10.7 19c.7-.5 1.5-1 2.4-1.4" fill="#d1f0fc" fill-rule="evenodd"/>
  <path d="M113.4 80l-10.6-19-2.5 1.4L111 81.2l2.4-1.3" fill="#d1f0fc" fill-rule="evenodd"/>
  <path d="M113 80.1l-10.6-18.9-2.5 1.4 10.7 18.8 2.5-1.3" fill="#d4f1fc" fill-rule="evenodd"/>
  <path d="M112.7 80.3L102 61.4l-2.6 1.4 10.9 18.8 2.4-1.3" fill="#d4f1fc" fill-rule="evenodd"/>
  <path d="M112.4 80.5l-10.8-18.8L99 63 110 81.8l2.5-1.3" fill="#d6f2fc" fill-rule="evenodd"/>
  <path d="M112 80.7l-10.8-18.8-2.6 1.4 11 18.7 2.4-1.3" fill="#d6f2fc" fill-rule="evenodd"/>
  <path d="M111.6 81L100.8 62l-2.6 1.4 11 18.7 2.4-1.3" fill="#d6f2fc" fill-rule="evenodd"/>
  <path d="M111.2 81.1l-10.9-18.8-2.5 1.4 11 18.7 2.4-1.3" fill="#d9f3fd" fill-rule="evenodd"/>
  <path d="M110.9 81.3l-11-18.7-2.5 1.4 11 18.6 2.5-1.3" fill="#d9f3fd" fill-rule="evenodd"/>
  <path d="M110.5 81.5l-11-18.7-2.5 1.4 11.1 18.6 2.4-1.3" fill="#d9f3fd" fill-rule="evenodd"/>
  <path d="M110.2 81.7L99 63l-2.5 1.4L107.8 83l2.4-1.3" fill="#dbf4fd" fill-rule="evenodd"/>
  <path d="M109.8 81.9L98.7 63.3l-2.5 1.3 11.2 18.6 2.4-1.3" fill="#dbf4fd" fill-rule="evenodd"/>
  <path d="M109.5 82L98.3 63.6l-2.5 1.4L107 83.5l2.5-1.4" fill="#def4fd" fill-rule="evenodd"/>
  <path d="M109.1 82.3L97.9 63.7l-2.6 1.4 11.4 18.6 2.4-1.4" fill="#def4fd" fill-rule="evenodd"/>
  <path d="M108.7 82.5L97.5 63.9l-2.6 1.5 11.4 18.5 2.4-1.4" fill="#def4fd" fill-rule="evenodd"/>
  <path d="M108.4 82.7L97 64.2l-2.5 1.4 15 24.3h.3L106 84l2.4-1.4" fill="#e0f5fd" fill-rule="evenodd"/>
  <path d="M108 82.9L96.6 64.4l-2.4 1.4 14.9 24h.7l-3.8-5.7 2-1.2" fill="#e0f5fd" fill-rule="evenodd"/>
  <path d="M107.7 83L96.2 64.7c-1 .6-1.8 1-2.4 1.5l14.9 23.8h1L106 84l1.7-1" fill="#e3f6fd" fill-rule="evenodd"/>
  <path d="M107.3 83.3L95.8 64.9l-2.4 1.4L108.2 90h1.6L106 84l1.3-.8" fill="#e3f6fd" fill-rule="evenodd"/>
  <path d="M107 83.5L95.3 65.1 93 66.6l14.8 23.3h2L106 84l1-.6" fill="#e3f6fd" fill-rule="evenodd"/>
  <path d="M106.6 83.7L95 65.3l-2.5 1.5L107.3 90l2.5-.1L106 84l.6-.4" fill="#e5f7fd" fill-rule="evenodd"/>
  <path d="M106.3 83.9L94.6 65.6 92.2 67 106.9 90l2.9-.1L106 84l.3-.2zM87.8 60.3l3.2 5-3-5.3-.2.3" fill="#e5f7fd" fill-rule="evenodd"/>
  <path d="M109.6 89.9l-15.4-24L92 67l-4.2-7-.4.7L106.4 90l3.2-.1" fill="#e8f8fe" fill-rule="evenodd"/>
  <path d="M109.1 89.9L93.8 66 92 67l-4.2-7-.6 1.2L106 90l3.2-.1" fill="#e8f8fe" fill-rule="evenodd"/>
  <path d="M108.7 89.9L93.4 66.3l-1.3.8-4.2-7-.8 1.6L105.5 90l3.2-.1" fill="#e8f8fe" fill-rule="evenodd"/>
  <path d="M108.3 90L93 66.4l-1 .6-4-7-1.2 2.1L105 90.1l3.3-.2" fill="#ebf8fe" fill-rule="evenodd"/>
  <path d="M107.8 90L92.6 66.7l-.5.3-4.2-7-1.3 2.7 18 27.3 3.2-.2" fill="#ebf8fe" fill-rule="evenodd"/>
  <path d="M107.3 90l-15-23-.2.1-1.7-2.8-2.6-4-1.5 3L104.1 90l3.2-.1" fill="#edf9fe" fill-rule="evenodd"/>
  <path d="M107 90L87.4 60.8l-1.4 3L103.7 90l3.2-.1" fill="#edf9fe" fill-rule="evenodd"/>
  <path d="M106.4 90L87.3 61.3l-1.5 3L103.2 90l3.2-.1" fill="#edf9fe" fill-rule="evenodd"/>
  <path d="M106 90L87 61.8l-1.4 3 17.2 25.4 3.2-.2" fill="#f0fafe" fill-rule="evenodd"/>
  <path d="M105.5 90L86.8 62.3l-1.4 3 17 24.9 3.1-.2" fill="#f0fafe" fill-rule="evenodd"/>
  <path d="M105.1 90L86.5 62.9l-1.4 3 16.7 24.4 3.3-.1" fill="#f2fbfe" fill-rule="evenodd"/>
  <path d="M104.7 90L86.3 63.4 85 66.2l16.5 24 3.3-.1" fill="#f2fbfe" fill-rule="evenodd"/>
  <path d="M104.2 90.1L86 63.7l-1.5 3L101 90.3l3.3-.2" fill="#f2fbfe" fill-rule="evenodd"/>
  <path d="M103.7 90.1L85.8 64.2l-1.4 3 16 23h3.3" fill="#f5fcfe" fill-rule="evenodd"/>
  <path d="M103.3 90.1L85.6 64.7l-1.4 2.9L100 90.3l3.3-.2" fill="#f5fcfe" fill-rule="evenodd"/>
  <path d="M102.8 90.2l-17.5-25-1.4 2.9 15.6 22.2 3.3-.1" fill="#f5fcfe" fill-rule="evenodd"/>
  <path d="M102.4 90.2L85 65.7l-1.4 2.9L99 90.3l3.3-.1" fill="#f7fdff" fill-rule="evenodd"/>
  <path d="M101.9 90.2l-17-24-1.5 2.9 15.2 21.3 3.3-.2" fill="#f7fdff" fill-rule="evenodd"/>
  <path d="M101.5 90.2L84.7 66.6l-1.5 3 15 20.8 3.3-.2" fill="#fafdff" fill-rule="evenodd"/>
  <path d="M101 90.2L84.4 67.1 83 70l14.6 20.4 3.4-.2" fill="#fafdff" fill-rule="evenodd"/>
  <path d="M100.5 90.3L84.2 67.6l-1.4 2.8 14.4 20 3.3-.1" fill="#fafdff" fill-rule="evenodd"/>
  <path d="M100 90.3L84 68l-1.4 2.8 14.1 19.5 3.3-.1" fill="#fcfeff" fill-rule="evenodd"/>
  <path d="M99.6 90.3L83.7 68.5l-1.4 2.8 14 19.2 3.3-.2" fill="#fcfeff" fill-rule="evenodd"/>
  <path d="M99.1 90.3L83.5 69 82 71.8l13.6 18.7 3.4-.2" fill="#fff" fill-rule="evenodd"/>
  <path d="M98.7 90.4l-15.4-21-1.4 2.8 13.4 18.3 3.4-.1" fill="#fff" fill-rule="evenodd"/>
  <path d="M227.6 86.9h1.6c-1.5 3.4-3.3 6-4.3 7.4h-.2c.8-1.4 2-4 3-7.4" fill="#244ba6" fill-rule="evenodd"/>
  <path d="M187.5 54.2V39.4l-2.7-.2v15.3l2.7-.3" fill="#19b5f1" fill-rule="evenodd"/>
  <path d="M187.7 54.2l.2-14.8-2.8-.2-.1 15.3 2.7-.3" fill="#1ab4f0" fill-rule="evenodd"/>
  <path d="M188 54.2l.3-14.8-2.8-.2-.2 15.2 2.7-.2" fill="#1ab4f0" fill-rule="evenodd"/>
  <path d="M188.3 54.2l.3-14.7-2.7-.3-.4 15.2 2.8-.2" fill="#1ab2ef" fill-rule="evenodd"/>
  <path d="M188.5 54.1l.4-14.6-2.7-.2-.4 15c.9 0 1.8 0 2.7-.2" fill="#1ab2ef" fill-rule="evenodd"/>
  <path d="M188.7 54.1l.5-14.6-2.6-.2-.5 15 2.6-.2" fill="#1ab2ef" fill-rule="evenodd"/>
  <path d="M189 54.1l.6-14.5-2.6-.3-.7 15 2.7-.2" fill="#1bb1ee" fill-rule="evenodd"/>
  <path d="M189.3 54l.6-14.4-2.6-.3-.7 15 2.7-.2" fill="#18b0ee" fill-rule="evenodd"/>
  <path d="M189.5 54l.7-14.4-2.5-.2-.8 14.9 2.6-.2" fill="#19afed" fill-rule="evenodd"/>
  <path d="M189.8 54l.9-14.3-2.7-.3-.9 14.9 2.7-.2" fill="#19afed" fill-rule="evenodd"/>
  <path d="M190 54l1-14.3c-.9 0-1.7-.2-2.5-.3l-1 14.8 2.6-.2" fill="#19afed" fill-rule="evenodd"/>
  <path d="M190.3 54l1-14.2-2.5-.3-1 14.7 2.5-.2" fill="#19aeec" fill-rule="evenodd"/>
  <path d="M190.6 54l1.1-14.2-2.5-.3-1.2 14.7 2.6-.2" fill="#19aeec" fill-rule="evenodd"/>
  <path d="M190.9 54l1.1-14.1-2.4-.3-1.3 14.5 2.6-.1" fill="#19aeec" fill-rule="evenodd"/>
  <path d="M191.2 54l1.2-14-2.4-.4-1.4 14.5 2.6-.1" fill="#19aceb" fill-rule="evenodd"/>
  <path d="M191.4 54l1.3-14-2.4-.3L189 54l2.5-.1" fill="#19aceb" fill-rule="evenodd"/>
  <path d="M191.7 54l1.4-14a83 83 0 0 0-2.3-.3l-1.6 14.4 2.5-.1" fill="#1aabea" fill-rule="evenodd"/>
  <path d="M192 54l1.5-13.9-2.4-.3-1.6 14.3 2.5-.1" fill="#1aabea" fill-rule="evenodd"/>
  <path d="M192.3 54l1.5-13.8-2.3-.4-1.7 14.3 2.5-.2" fill="#1aabea" fill-rule="evenodd"/>
  <path d="M192.6 54l1.7-13.8-2.4-.3-1.8 14.1h2.5" fill="#1aa9e9" fill-rule="evenodd"/>
  <path d="M192.9 54l1.7-13.7a80 80 0 0 0-2.3-.4l-2 14.1h2.6" fill="#1aa9e9" fill-rule="evenodd"/>
  <path d="M193.1 54l1.9-13.7c-.8 0-1.5-.2-2.3-.3l-2 14h2.4" fill="#1ba8e8" fill-rule="evenodd"/>
  <path d="M193.4 54l2-13.6-2.3-.4-2 14h2.3" fill="#1ba8e8" fill-rule="evenodd"/>
  <path d="M193.7 54l2-13.5-2.2-.4-2.2 13.9h2.4" fill="#1ba8e8" fill-rule="evenodd"/>
  <path d="M194 54l2.1-13.4-2.2-.4-2.2 13.8h2.4" fill="#1ba7e7" fill-rule="evenodd"/>
  <path d="M194.3 54l2.2-13.4-2.1-.4L192 54h2.3" fill="#1ba7e7" fill-rule="evenodd"/>
  <path d="M194.7 54l2.2-13.3-2.2-.4-2.4 13.6h2.4" fill="#1ba5e6" fill-rule="evenodd"/>
  <path d="M195 54l2.3-13.2-2.1-.4-2.6 13.5h2.3" fill="#1ba5e6" fill-rule="evenodd"/>
  <path d="M195.2 54l2.5-13.1-2.1-.4-2.7 13.4h2.3" fill="#1ba5e6" fill-rule="evenodd"/>
  <path d="M195.6 54l2.5-13-2-.4-2.8 13.3h2.3" fill="#1ca4e5" fill-rule="evenodd"/>
  <path d="M196 54l2.5-13a82 82 0 0 0-2-.4L193.5 54h2.3" fill="#1ca4e5" fill-rule="evenodd"/>
  <path d="M196.2 54l2.7-12.8-2-.5-3 13.2h2.3" fill="#1aa2e4" fill-rule="evenodd"/>
  <path d="M196.5 54l2.8-12.7-2-.5-3 13.1h2.2" fill="#1aa2e4" fill-rule="evenodd"/>
  <path d="M196.8 54l2.9-12.6-2-.5-3 13h2.1" fill="#1aa2e4" fill-rule="evenodd"/>
  <path d="M197.2 54l2.9-12.6-2-.4-3.1 13h2.2" fill="#1aa1e3" fill-rule="evenodd"/>
  <path d="M197.5 54l3-12.5a75 75 0 0 0-1.9-.4l-3.3 12.8h2.2" fill="#1aa1e3" fill-rule="evenodd"/>
  <path d="M197.9 54l3-12.3a73 73 0 0 0-1.9-.5l-3.3 12.7 2.2.1" fill="#1b9fe2" fill-rule="evenodd"/>
  <path d="M198.2 54l3.1-12.2-1.8-.5L196 54l2 .1" fill="#1b9fe2" fill-rule="evenodd"/>
  <path d="M198.5 54l3.2-12.1-1.8-.5-3.5 12.5 2 .1" fill="#1b9fe2" fill-rule="evenodd"/>
  <path d="M198.9 54l3.3-12-2-.5-3.5 12.4 2.2.2" fill="#1b9ee1" fill-rule="evenodd"/>
  <path d="M199.2 54l3.4-11.9-1.8-.5L197 54h2.1" fill="#1b9ee1" fill-rule="evenodd"/>
  <path d="M199.5 54.1l3.5-11.9-1.8-.5-3.8 12.3 2.1.1" fill="#1b9ee1" fill-rule="evenodd"/>
  <path d="M199.8 54.1l3.6-11.7-1.7-.5-3.9 12.1 2 .1" fill="#1b9de0" fill-rule="evenodd"/>
  <path d="M200.2 54.2l3.6-11.7-1.7-.5-4 12 2.1.2" fill="#1b9de0" fill-rule="evenodd"/>
  <path d="M200.6 54.2l3.6-11.6-1.6-.5-4 12 2 .1" fill="#1c9bdf" fill-rule="evenodd"/>
  <path d="M201 54.2l3.6-11.4-1.6-.5-4 11.8 2 .1" fill="#1c9bdf" fill-rule="evenodd"/>
  <path d="M201.3 54.3l3.8-11.4-1.6-.5-4.2 11.7 2 .2" fill="#1c9bdf" fill-rule="evenodd"/>
  <path d="M201.6 54.3l4-11.2-1.7-.6-4.2 11.6 2 .2" fill="#1a99de" fill-rule="evenodd"/>
  <path d="M202 54.4l4-11.2-1.6-.5-4.3 11.5c.6 0 1.3 0 1.9.2" fill="#1a99de" fill-rule="evenodd"/>
  <path d="M202.4 54.4l4-11-1.6-.6-4.4 11.4 2 .2" fill="#1a98dd" fill-rule="evenodd"/>
  <path d="M202.7 54.5l4.1-11-1.5-.5-4.4 11.2 1.8.3" fill="#1a98dd" fill-rule="evenodd"/>
  <path d="M203 54.5l4.2-10.8-1.5-.6-4.5 11.2 1.9.2" fill="#1a98dd" fill-rule="evenodd"/>
  <path d="M203.4 54.6l4.2-10.8-1.4-.5-4.6 11 1.8.3" fill="#1b97dc" fill-rule="evenodd"/>
  <path d="M203.8 54.6l4.3-10.6-1.5-.5-4.6 10.9 1.8.2" fill="#1b97dc" fill-rule="evenodd"/>
  <path d="M204.2 54.7l4.3-10.5-1.4-.6-4.7 10.8 1.8.3" fill="#1b95db" fill-rule="evenodd"/>
  <path d="M204.6 54.7l4.3-10.4-1.3-.5-4.8 10.7 1.8.2" fill="#1b95db" fill-rule="evenodd"/>
  <path d="M205 54.8l4.5-10.3-1.5-.5-4.8 10.5 1.8.3" fill="#1b95db" fill-rule="evenodd"/>
  <path d="M205.3 54.9l4.6-10.2-1.4-.6-5 10.5 1.8.3" fill="#1b94da" fill-rule="evenodd"/>
  <path d="M205.7 55l4.6-10.1-1.4-.6-5 10.3 1.8.4" fill="#1b94da" fill-rule="evenodd"/>
  <path d="M206 55l4.7-10-1.3-.5-5 10.2 1.7.3" fill="#1c93d9" fill-rule="evenodd"/>
  <path d="M206.5 55.1l4.7-9.8-1.4-.6-5 10 1.7.4" fill="#1c93d9" fill-rule="evenodd"/>
  <path d="M206.9 55.2l4.7-9.7-1.3-.6-5.1 10 1.7.3" fill="#1c93d9" fill-rule="evenodd"/>
  <path d="M207.2 55.3l4.8-9.6-1.3-.6-5.1 9.8 1.6.4" fill="#1c91d8" fill-rule="evenodd"/>
  <path d="M207.6 55.4l5-9.5-1.4-.6L206 55l1.6.4" fill="#1c91d8" fill-rule="evenodd"/>
  <path d="M208 55.5l5-9.4-1.3-.6-5.3 9.6 1.6.4" fill="#1c91d8" fill-rule="evenodd"/>
  <path d="M208.4 55.6l5-9.3-1.2-.6-5.4 9.5 1.6.4" fill="#1d90d8" fill-rule="evenodd"/>
  <path d="M208.8 55.7l5-9.2-1.2-.6-5.4 9.4 1.6.4" fill="#1d90d8" fill-rule="evenodd"/>
  <path d="M209.2 55.8l5-9c-.3-.3-.7-.4-1.1-.6l-5.5 9.2 1.6.4" fill="#1d8fd7" fill-rule="evenodd"/>
  <path d="M209.6 56l5.1-9-1.2-.6-5.5 9 1.6.5" fill="#1d8fd7" fill-rule="evenodd"/>
  <path d="M210 56l5.1-8.8-.4-.3-.7-.3-5.6 9 1.5.4" fill="#1d8fd7" fill-rule="evenodd"/>
  <path d="M210.4 56.2l5.2-8.8-1-.5h-.2l-5.6 8.8 1.6.5" fill="#1e8dd6" fill-rule="evenodd"/>
  <path d="M210.7 56.3l5.3-8.6a72 72 0 0 0-1-.6l-5.7 8.7 1.4.5" fill="#1b8dd6" fill-rule="evenodd"/>
  <path d="M211.1 56.4l5.3-8.5-1-.5h-.1l-5.6 8.5 1.4.5" fill="#1c8cd5" fill-rule="evenodd"/>
  <path d="M211.5 56.6l5.4-8.4a70 70 0 0 0-1-.6h-.1l-5.7 8.5 1.4.5" fill="#1c8cd5" fill-rule="evenodd"/>
  <path d="M212 56.7l5.3-8.3-1-.5h-.2l-5.6 8.3 1.4.5" fill="#1c8cd5" fill-rule="evenodd"/>
  <path d="M212.3 56.8l5.4-8.1-.8-.5h-.3l-5.7 8.1 1.4.5" fill="#1c8ad4" fill-rule="evenodd"/>
  <path d="M212.7 57l5.5-8a59 59 0 0 0-.8-.5h-.4l-5.7 8 1.4.5" fill="#1c8ad4" fill-rule="evenodd"/>
  <path d="M213.1 57.2l5.5-8-.8-.5h-.3l-5.8 8c.5 0 1 .3 1.4.5" fill="#1c89d3" fill-rule="evenodd"/>
  <path d="M213.5 57.3l5.5-7.8-.7-.5h-.5l-5.7 7.8 1.4.5" fill="#1c89d3" fill-rule="evenodd"/>
  <path d="M213.8 57.5l5.6-7.8a42 42 0 0 0-.6-.4h-.6l-5.7 7.6 1.3.6" fill="#1c89d3" fill-rule="evenodd"/>
  <path d="M214.3 57.7l5.6-7.7-.7-.4h-.5l-5.8 7.5 1 .4.4.2" fill="#1d88d2" fill-rule="evenodd"/>
  <path d="M214.6 57.8l5.7-7.5-.7-.5-.5.1-5.8 7.3.7.3.6.3" fill="#1d88d2" fill-rule="evenodd"/>
  <path d="M215 58l5.7-7.4-.7-.5-.5.1-5.8 7.2.3.1 1 .5" fill="#1d86d1" fill-rule="evenodd"/>
  <path d="M215.4 58.2l5.7-7.3-.6-.5-.6.1-5.8 7 1.3.7" fill="#1d86d1" fill-rule="evenodd"/>
  <path d="M215.8 58.4l5.7-7.2-.6-.4h-.5l-5.9 7 1.3.6" fill="#1d86d1" fill-rule="evenodd"/>
  <path d="M216.2 58.6l5.7-7-.6-.5h-.5l-6 6.8 1.4.7" fill="#1e85d0" fill-rule="evenodd"/>
  <path d="M216.5 58.7l5.8-6.9-.6-.5h-.5l-6 6.8 1.3.6" fill="#1e85d0" fill-rule="evenodd"/>
  <path d="M217 59l5.7-6.8-.6-.6h-.5l-6 6.7c.5.2 1 .4 1.3.7" fill="#1c83cf" fill-rule="evenodd"/>
  <path d="M217.3 59.2l5.8-6.7a39 39 0 0 0-.6-.6h-.4l-6 6.6 1.2.7" fill="#1c83cf" fill-rule="evenodd"/>
  <path d="M217.6 59.4l5.9-6.6-.7-.5h-.3l-6 6.4 1.1.7" fill="#1c83cf" fill-rule="evenodd"/>
  <path d="M218 59.6l5.9-6.4-.8-.7h-.2l-6 6.4 1.1.7" fill="#1c82ce" fill-rule="evenodd"/>
  <path d="M218.4 59.8l5.8-6.3-.7-.7h-.2l-6.1 6.3 1.2.7" fill="#1c82ce" fill-rule="evenodd"/>
  <path d="M218.7 60l5.9-6.2-.8-.7-6.2 6.2 1.1.7" fill="#1c82ce" fill-rule="evenodd"/>
  <path d="M219.1 60.3l5.9-6.1-.8-.8-6.3 6.2 1.2.7" fill="#1d81cd" fill-rule="evenodd"/>
  <path d="M219.4 60.5l6-6a31 31 0 0 0-.9-.8l-6.2 6 1.1.8" fill="#1d81cd" fill-rule="evenodd"/>
  <path d="M219.8 60.7l5.9-5.8-.8-.8-6.2 5.9 1 .7" fill="#1d80cc" fill-rule="evenodd"/>
  <path d="M220.1 61l5.9-5.8-.7-.7-6.3 5.7 1.1.8" fill="#1d80cc" fill-rule="evenodd"/>
  <path d="M220.5 61.3l5.9-5.7a34 34 0 0 0-.8-.8l-6.2 5.7 1.1.8" fill="#1d80cc" fill-rule="evenodd"/>
  <path d="M220.8 61.5l5.9-5.5-.7-.8-6.3 5.5 1.1.8" fill="#1e7ecb" fill-rule="evenodd"/>
  <path d="M221.1 61.8l5.9-5.4-.8-.9L220 61l1.1.9" fill="#1e7ecb" fill-rule="evenodd"/>
  <path d="M221.5 62l5.8-5.2-.7-1-6.2 5.4 1 .9" fill="#1e7dca" fill-rule="evenodd"/>
  <path d="M221.8 62.3l5.8-5.2-.7-.8-6.2 5.1 1 1" fill="#1e7dca" fill-rule="evenodd"/>
  <path d="M222 62.6l5.9-5.1-.7-.9-6.2 5.1 1 .9" fill="#1e7dca" fill-rule="evenodd"/>
  <path d="M222.4 62.9l5.8-5-.7-1-6.1 5 1 1" fill="#1e7cc9" fill-rule="evenodd"/>
  <path d="M222.7 63.1l5.8-4.8-.7-1-6.1 5 1 .8" fill="#1e7cc9" fill-rule="evenodd"/>
  <path d="M223 63.4l5.7-4.7-.6-1-6.1 4.8 1 1" fill="#1f7ac8" fill-rule="evenodd"/>
  <path d="M223.2 63.7L229 59l-.6-1-6.1 4.7 1 .9" fill="#1f7ac8" fill-rule="evenodd"/>
  <path d="M223.5 64l5.8-4.5-.7-1-6 4.5 1 1" fill="#1f7ac8" fill-rule="evenodd"/>
  <path d="M223.8 64.3l5.7-4.4-.6-1-6 4.4 1 1" fill="#1f79c7" fill-rule="evenodd"/>
  <path d="M224 64.6l5.7-4.3-.6-1-6 4.3 1 1" fill="#1f79c7" fill-rule="evenodd"/>
  <path d="M224.3 65l5.7-4.3-.6-1-6 4.2 1 1" fill="#2078c6" fill-rule="evenodd"/>
  <path d="M224.6 65.2l5.6-4-.6-1-6 4 1 1" fill="#1d77c6" fill-rule="evenodd"/>
  <path d="M224.8 65.5l5.6-4-.6-1-5.9 4 .9 1" fill="#1d77c6" fill-rule="evenodd"/>
  <path d="M225 65.8l5.6-3.8a24 24 0 0 0-.6-1.1l-5.8 3.8.8 1.1" fill="#1e76c5" fill-rule="evenodd"/>
  <path d="M225.3 66.1l5.5-3.7-.6-1.1-5.8 3.7.9 1.1" fill="#1e76c5" fill-rule="evenodd"/>
  <path d="M225.5 66.5l5.4-3.7a23 23 0 0 0-.5-1.1l-5.7 3.6.8 1.2" fill="#1e76c5" fill-rule="evenodd"/>
  <path d="M225.7 66.8l5.4-3.6-.5-1.2-5.7 3.6.8 1.2" fill="#1e75c4" fill-rule="evenodd"/>
  <path d="M226 67.1l5.3-3.4-.5-1.2-5.7 3.4.8 1.2" fill="#1e75c4" fill-rule="evenodd"/>
  <path d="M226 67.4l5.4-3.3a23 23 0 0 0-.4-1.3l-5.7 3.4.8 1.2" fill="#1e74c4" fill-rule="evenodd"/>
  <path d="M226.3 67.7l5.3-3.2a24 24 0 0 0-.5-1.2l-5.6 3.2.8 1.2" fill="#1e74c4" fill-rule="evenodd"/>
  <path d="M226.5 68.1l5.2-3.2-.4-1.3-5.6 3.2.8 1.3" fill="#1e74c4" fill-rule="evenodd"/>
  <path d="M226.6 68.4l5.2-3-.4-1.4-5.5 3 .7 1.4" fill="#1f72c3" fill-rule="evenodd"/>
  <path d="M226.8 68.7l5.1-3c0-.4-.2-.8-.4-1.3l-5.4 3 .7 1.3" fill="#1f72c3" fill-rule="evenodd"/>
  <path d="M227 69l5-2.9-.3-1.3-5.4 3 .6 1.2" fill="#1f71c2" fill-rule="evenodd"/>
  <path d="M227.1 69.4l5-2.8c0-.5-.2-1-.3-1.4l-5.4 2.8.7 1.4" fill="#1f71c2" fill-rule="evenodd"/>
  <path d="M227.2 69.7l5-2.7-.3-1.5-5.3 2.8.6 1.4" fill="#1f71c2" fill-rule="evenodd"/>
  <path d="M227.4 70l5-2.6-.4-1.4-5.3 2.6.7 1.4" fill="#2070c1" fill-rule="evenodd"/>
  <path d="M227.5 70.4l4.9-2.6-.3-1.5-5.2 2.6.6 1.5" fill="#2070c1" fill-rule="evenodd"/>
  <path d="M227.6 70.7l4.9-2.5-.3-1.5-5.2 2.5.6 1.5" fill="#206ec0" fill-rule="evenodd"/>
  <path d="M227.7 71l4.8-2.4-.2-1.5-5.2 2.4.6 1.5" fill="#206ec0" fill-rule="evenodd"/>
  <path d="M227.9 71.3l4.7-2.3-.3-1.5-5 2.3.6 1.5" fill="#206ec0" fill-rule="evenodd"/>
  <path d="M228 71.7l4.6-2.3-.2-1.5-5 2.2.6 1.6" fill="#216dbf" fill-rule="evenodd"/>
  <path d="M228 72l4.7-2.2-.2-1.6-5 2.2.6 1.6" fill="#216dbf" fill-rule="evenodd"/>
  <path d="M228.1 72.3l4.6-2.1-.2-1.6-4.9 2.1.5 1.6" fill="#216cbe" fill-rule="evenodd"/>
  <path d="M228.2 72.6l4.5-2-.1-1.6-4.9 2 .5 1.6" fill="#1f6cbe" fill-rule="evenodd"/>
  <path d="M228.3 72.9l4.4-2v-1.6l-4.9 2 .5 1.6" fill="#1f6cbe" fill-rule="evenodd"/>
  <path d="M228.4 73.2l4.4-1.9-.1-1.6-4.8 2 .5 1.5" fill="#1f6abd" fill-rule="evenodd"/>
  <path d="M228.4 73.6l4.4-1.8-.1-1.8-4.7 1.9.4 1.7" fill="#1f6abd" fill-rule="evenodd"/>
  <path d="M228.5 73.9l4.3-1.8v-1.7l-4.7 1.8.4 1.7" fill="#2069bc" fill-rule="evenodd"/>
  <path d="M228.6 74.2l4.2-1.7v-1.8l-4.6 1.7.4 1.8" fill="#2069bc" fill-rule="evenodd"/>
  <path d="M228.6 74.5l4.2-1.7v-1.7l-4.5 1.6.3 1.8" fill="#2069bc" fill-rule="evenodd"/>
  <path d="M228.7 74.8l4-1.6v-1.8l-4.4 1.6.4 1.8" fill="#2068bb" fill-rule="evenodd"/>
  <path d="M228.7 75l4-1.4v-2l-4.3 1.6.3 1.9" fill="#2068bb" fill-rule="evenodd"/>
  <path d="M228.7 75.3l4-1.4V72l-4.3 1.5.3 1.8" fill="#2068bb" fill-rule="evenodd"/>
  <path d="M228.8 75.7l3.9-1.4v-1.9l-4.2 1.4.3 1.9" fill="#2166ba" fill-rule="evenodd"/>
  <path d="M228.8 76l3.9-1.4v-1.9l-4.2 1.4.3 1.8" fill="#2166ba" fill-rule="evenodd"/>
  <path d="M228.8 76.2l3.8-1.3.2-1.9-4.2 1.4.2 1.8" fill="#2165b9" fill-rule="evenodd"/>
  <path d="M228.8 76.5l3.8-1.2.1-2-4 1.3.1 2" fill="#2165b9" fill-rule="evenodd"/>
  <path d="M228.9 76.8l3.7-1.2.1-2-4 1.3.2 2" fill="#2165b9" fill-rule="evenodd"/>
  <path d="M228.9 77l3.6-1 .2-2-4 1.2.2 1.9" fill="#2164b8" fill-rule="evenodd"/>
  <path d="M228.9 77.3l3.6-1 .2-2-4 1 .2 2" fill="#1f64b8" fill-rule="evenodd"/>
  <path d="M228.9 77.6l3.5-1 .3-2-4 1 .2 2" fill="#2063b7" fill-rule="evenodd"/>
  <path d="M229 78l3.4-1.1.2-2-3.8 1 .1 2" fill="#2063b7" fill-rule="evenodd"/>
  <path d="M229 78.2l3.3-1 .3-2-3.8 1 .1 2" fill="#2063b7" fill-rule="evenodd"/>
  <path d="M229 78.4l3.3-1 .3-2-3.8 1 .1 2" fill="#2061b6" fill-rule="evenodd"/>
  <path d="M229 78.6l3.2-.8.4-2.1-3.7.9v2" fill="#2061b6" fill-rule="evenodd"/>
  <path d="M228.9 79l3.3-1 .3-2-3.6.8V79" fill="#2160b5" fill-rule="evenodd"/>
  <path d="M228.9 79.2l3.2-.8.4-2.2-3.6.9v2.1" fill="#2160b5" fill-rule="evenodd"/>
  <path d="M228.9 79.4l3.1-.7.4-2.2-3.5.8v2.1" fill="#2160b5" fill-rule="evenodd"/>
  <path d="M228.9 79.7l3-.8.5-2.2-3.5.8v2.2" fill="#215fb4" fill-rule="evenodd"/>
  <path d="M228.9 80l3-.8.5-2.2-3.5.8v2.1" fill="#215fb4" fill-rule="evenodd"/>
  <path d="M228.8 80.2l3-.7.5-2.2-3.4.7v2.2" fill="#225eb3" fill-rule="evenodd"/>
  <path d="M228.8 80.4l3-.7.5-2.2-3.4.7v2.2" fill="#225eb3" fill-rule="evenodd"/>
  <path d="M228.8 80.6l3-.6.4-2.3-3.3.7v2.2" fill="#225eb3" fill-rule="evenodd"/>
  <path d="M228.8 80.8l2.8-.5.6-2.3-3.3.6-.1 2.2" fill="#225cb3" fill-rule="evenodd"/>
  <path d="M228.8 81l2.8-.5.5-2.3-3.2.6-.1 2.3" fill="#225cb3" fill-rule="evenodd"/>
  <path d="M228.7 81.3l2.8-.6.6-2.3-3.2.6c0 .8 0 1.5-.2 2.3" fill="#225cb3" fill-rule="evenodd"/>
  <path d="M228.7 81.5l2.7-.5.6-2.4-3.1.6c0 .8 0 1.5-.2 2.3" fill="#235bb2" fill-rule="evenodd"/>
  <path d="M228.7 81.7l2.7-.4.6-2.4-3.1.5-.2 2.3" fill="#235bb2" fill-rule="evenodd"/>
  <path d="M228.7 82l2.6-.5.6-2.4-3 .5-.2 2.3" fill="#235ab1" fill-rule="evenodd"/>
  <path d="M228.6 82.1l2.6-.4.7-2.4-3 .5c0 .8-.2 1.6-.3 2.3" fill="#235ab1" fill-rule="evenodd"/>
  <path d="M228.6 82.3l2.6-.4.6-2.4-3 .5c0 .8 0 1.5-.2 2.3" fill="#235ab1" fill-rule="evenodd"/>
  <path d="M228.6 82.6l2.5-.4.7-2.4-3 .4-.2 2.4" fill="#2359b0" fill-rule="evenodd"/>
  <path d="M228.6 82.7l2.4-.3.7-2.4-2.9.4-.2 2.3" fill="#2359b0" fill-rule="evenodd"/>
  <path d="M228.5 83l2.5-.4.7-2.4-2.9.3-.3 2.4" fill="#2257af" fill-rule="evenodd"/>
  <path d="M228.5 83l2.4-.2.7-2.4-2.8.3-.3 2.4" fill="#2257af" fill-rule="evenodd"/>
  <path d="M228.5 83.3l2.3-.3.8-2.5-2.8.4-.3 2.4" fill="#2257af" fill-rule="evenodd"/>
  <path d="M228.4 83.5l2.3-.3.8-2.5-2.7.3-.4 2.5" fill="#2256ae" fill-rule="evenodd"/>
  <path d="M228.4 83.7l2.3-.3.8-2.5-2.7.3-.4 2.5" fill="#2256ae" fill-rule="evenodd"/>
  <path d="M228.4 83.8l2.2-.2.8-2.5-2.7.3-.3 2.4" fill="#2256ae" fill-rule="evenodd"/>
  <path d="M228.3 84l2.2-.2.9-2.5-2.7.2c0 .9-.2 1.7-.4 2.5" fill="#2355ad" fill-rule="evenodd"/>
  <path d="M228.3 84.2l2.1-.2 1-2.6-2.7.3-.4 2.5" fill="#2355ad" fill-rule="evenodd"/>
  <path d="M228.3 84.4l2-.2 1-2.6-2.6.2-.4 2.6" fill="#2354ac" fill-rule="evenodd"/>
  <path d="M228.2 84.5l2.1-.2 1-2.5-2.6.2-.5 2.5" fill="#2354ac" fill-rule="evenodd"/>
  <path d="M228.2 84.7l2-.2 1-2.6-2.6.2a33 33 0 0 1-.4 2.6" fill="#2354ac" fill-rule="evenodd"/>
  <path d="M228.2 84.9l2-.2 1-2.6-2.6.2-.4 2.6" fill="#2452ab" fill-rule="evenodd"/>
  <path d="M228.1 85l2-.1 1-2.6-2.5.2-.5 2.5" fill="#2452ab" fill-rule="evenodd"/>
  <path d="M228 85.2l2-.2 1-2.5-2.4.1-.5 2.6" fill="#2452ab" fill-rule="evenodd"/>
  <path d="M228 85.4l2-.2 1-2.6-2.5.2c0 .9-.3 1.7-.5 2.6" fill="#2451aa" fill-rule="evenodd"/>
  <path d="M228 85.5l1.9-.1 1-2.7-2.4.2-.5 2.6" fill="#2451aa" fill-rule="evenodd"/>
  <path d="M228 85.6h1.8l1-2.7-2.3.1-.5 2.6" fill="#2350a9" fill-rule="evenodd"/>
  <path d="M228 85.8l1.8-.1 1-2.7-2.3.1a35 35 0 0 1-.6 2.7" fill="#2350a9" fill-rule="evenodd"/>
  <path d="M227.9 86l1.8-.1 1-2.7h-2.2l-.6 2.7" fill="#2350a9" fill-rule="evenodd"/>
  <path d="M227.9 86h1.7c.4-.9.8-1.8 1-2.7h-2.2l-.5 2.8" fill="#234fa8" fill-rule="evenodd"/>
  <path d="M227.8 86.2h1.8l1-2.8-2.2.1c-.1 1-.3 1.8-.6 2.7" fill="#234fa8" fill-rule="evenodd"/>
  <path d="M227.8 86.3h1.7c.4-.9.8-1.8 1-2.7h-2.1a35 35 0 0 1-.6 2.7" fill="#234fa8" fill-rule="evenodd"/>
  <path d="M227.8 86.5h1.6l1.1-2.8h-2.1l-.6 2.8" fill="#234ea7" fill-rule="evenodd"/>
  <path d="M227.7 86.6h1.7l1.1-2.8h-2.1l-.7 2.8" fill="#234ea7" fill-rule="evenodd"/>
  <path d="M227.7 86.7h1.6l1.2-2.7h-2.2l-.6 2.7" fill="#244ca7" fill-rule="evenodd"/>
  <path d="M227.7 86.8h1.6l1.1-2.7h-2l-.7 2.7" fill="#244ca7" fill-rule="evenodd"/>
  <path d="M227.6 87h1.6l1.1-2.7h-2l-.7 2.7" fill="#244ca7" fill-rule="evenodd"/>
  <path d="M228.3 84.4h2L229 87h-1.5l.7-2.7M216.5 90.2l-18.5-.6-35.5 6.6-34 4.8-36 11.3-21-.4-17-7-.7-11h-8.3l-16.3 72.6h13.7l7.3-18 10.5 1.5 6.5 10.6 53-17.2 28.6-2.8 23.8-2.7 12.7-9.6 23.2-.3 10.5 7.2 4.3-11.3.8-11-7.6-22.7" fill="#244ba6" fill-rule="evenodd"/>
  <path d="M1611.6 1263l-137.4 4.7-264.4-50-253.5-36.8-267.2-85.1-156.4 2.9-127 52.9-5.2 83.9-62-.6L217 686.6l102.4-.6 54 135.6 78.2-10.9 48.8-79.9 393.8 130 213.2 21.2 177.6 20.7L1380 975l172.4 1.7 78.2-54 32.2 85 5.7 83.4z" fill="none" stroke="#244ba6" stroke-width="11.7" stroke-miterlimit="2.6" transform="matrix(.13431 0 0 -.13236 0 257.3)"/>
  <path d="M188.7 97.8l1.7-9.5-3.3.4c.6-4.5 1.6-9 2.3-13.4l-9.2 1.5-2.3 13.1v.3l-3.3.6c-.5 3.2-1 6.5-1.7 9.6l3.3-.5-9 51.5c0 .2-.2.4 0 .6l9.1-1.7 9-51.8 3.4-.7" fill="#244ba6" fill-rule="evenodd"/>
  <path d="M1404.7 1205c4 24.2 8.6 47.7 12.6 71.9l-24.1-3c4.6 34 11.5 68 16.7 101.2 0 0-46-7.4-68.4-11.4l-16.7-99-.6-2.2-24.1-4c-4-24.2-8-49.5-12.7-73l24.2 4-67.3-389.1c0-1.8-.6-3 0-4.6l68.4 12.6 67.3 392z" fill="none" stroke="#244ba6" stroke-width="11.7" stroke-miterlimit="2.6" transform="matrix(.13431 0 0 -.13236 0 257.3)"/>
  <path d="M85.6 107.4a5 5 0 0 0-3.8-1.8l-7.6 1.2c-2.6.2-5.1 2.5-6.6 5.3-1.3 3-1.5 6.5-2.2 9.8L59 158.6l-.3 2.4c.2 3 1.3 5.7 3.4 6.8 1.5 1.1 3.7.2 5.6.2 1.7-.4 3.6-.4 5.4-1 2.8-1.4 5.3-4.6 6.2-8.3l.5-2 7.2-41.2c.7-3.2.1-6.3-1.4-8zm-8.1 12.3l-6.2 35.7c-.1.7-.2 1.6-.8 2-.4.5-1 .6-1.4.5-.4-.1-.7-.6-.8-1.1l.2-1.2 6.4-37c.1-.6.7-1.4 1.3-1.5.4 0 1-.2 1.3.2.4.6 0 1.5 0 2.4" fill="#244ba6" fill-rule="evenodd"/>
  <path d="M637.3 1132.6a37.1 37.1 0 0 1-28.1 13.8h-.6a1930 1930 0 0 0-56.3-9.2c-19-1.7-38-18.4-49-40.3-9.7-23-10.8-48.8-16-73.5L439 745.8c-1.1-5.8-1.1-11.5-1.7-17.9 1.1-23 9.2-43 24.7-51.7 11.5-8 28.2-1.2 42-1.2 12.6 3 27 3 40.2 8.1 20.7 9.8 39.7 34.5 46 62 1.7 4.7 2.3 11 4 15.6l53.5 311c5.1 24.1 1.1 47.7-10.4 60.9z" fill="none" stroke="#244ba6" stroke-width="11.7" stroke-miterlimit="2.6" transform="matrix(.13431 0 0 -.13236 0 257.3)"/>
  <path d="M577 1040L531 770c-1.2-5.2-1.7-12-6.3-15.5-3-2.9-7-4-10.4-2.9-2.9.6-5.2 4.6-5.7 8l1.1 9.2 47.7 278.8c1.2 5.2 5.2 11 9.8 12 3.4.7 6.9 1.2 9.8-1.6 2.8-4.6.5-11.5 0-17.8z" fill="none" stroke="#244ba6" stroke-width="11.7" stroke-miterlimit="2.6" transform="matrix(.13431 0 0 -.13236 0 257.3)"/>
  <path d="M209.3 87.3a4.9 4.9 0 0 0-3.8-1.8l-7.6 1.2c-2.6.2-5.1 2.4-6.5 5.4-1.4 3-1.6 6.4-2.3 9.7l-6.5 36.7-.2 2.4c.2 3 1.2 5.7 3.4 6.8 1.5 1 3.8.2 5.6.1 1.7-.4 3.7-.3 5.4-1 2.7-1.3 5.3-4.5 6.1-8.2.3-.6.4-1.4.6-2.1l7.2-41c.7-3.4.1-6.4-1.4-8.2zm-8 12.3l-6.3 35.7c0 .7-.2 1.6-.9 2.1-.3.4-.9.5-1.3.4-.4-.2-.7-.6-.7-1v-1.4l6.4-36.8c.3-.7.7-1.4 1.4-1.6.4 0 1-.1 1.3.2.4.6.1 1.5 0 2.4" fill="#244ba6" fill-rule="evenodd"/>
  <path d="M1558.2 1284.3a36.2 36.2 0 0 1-28.2 13.8c-20.1-2.8-37.4-5.7-57-9.2-18.9-1.1-37.9-17.8-48.2-40.2-10.3-22.4-11.5-48.9-16.7-73.6l-48.3-277c-1.1-5.8-1.1-12.1-1.7-18.4 1.2-23 9.2-43.1 25.3-51.7 11-7.5 28.2-1.2 41.4-.6 13.2 2.8 27.6 2.3 40.2 8 20.7 9.8 39.7 34 46 61.5 1.7 4.6 2.9 11 4 16.1l53.5 310.4c5.2 24.7 1.1 47.7-10.3 61z" fill="none" stroke="#244ba6" stroke-width="11.7" stroke-miterlimit="2.6" transform="matrix(.13431 0 0 -.13236 0 257.3)"/>
  <path d="M1498.4 1191.8l-46.6-269.6c-.6-5.7-1.7-12.6-6.3-16a11.7 11.7 0 0 0-10.4-3c-2.8 1.2-4.6 4.6-5.1 8l.5 9.9 47.7 278.2c1.8 5.1 5.2 10.9 9.8 12 3.5.6 7.5 1.2 9.8-1.7 2.9-4.6 1.1-11 .6-17.8z" fill="none" stroke="#244ba6" stroke-width="11.7" stroke-miterlimit="2.6" transform="matrix(.13431 0 0 -.13236 0 257.3)"/>
  <path d="M65 88.9a6 6 0 0 0-5.7-3.4l-14.8 2.3-.7.2c-1.3.2-2.8.3-4 .6L23.4 182l14.6-2.4c2.3-.5 4.7-.5 6.8-1.6 4.3-2 7.9-7.3 8.9-12.9l12-68.3c.7-3 .4-5.9-.7-8zm-21.6 72c-.8 4.3-3 4.4-3 4.4l-2.8.5.1-.9L49 100.5c1.2-.2 2.5-.5 3.6-.5.6.3 1 .7 1 1.6L43.4 161" fill="#244ba6" fill-rule="evenodd"/>
  <path d="M484.4 1272.8a44.1 44.1 0 0 1-43 25.3L331.4 1281l-5.7-1.2c-9.2-1.7-20.7-2.8-30-5.1L174.7 569.3 283.8 587c16.7 4 34.5 4 50.6 12 32.2 15 58.6 55.3 66.1 97.8l89.7 516.2c4.6 21.8 2.8 44.2-5.8 59.7z" fill="none" stroke="#244ba6" stroke-width="11.7" stroke-miterlimit="2.6" transform="matrix(.13431 0 0 -.13236 0 257.3)"/>
  <path d="M323 728c-5.8-32.3-22-32.8-22-32.8-2.2 0-21.2-3.5-21.2-3.5l1.1 6.3 84 486.9c8.6 1.7 18.4 3.4 27 3.4 4-1.7 6.9-5.1 6.9-12z" fill="none" stroke="#244ba6" stroke-width="11.7" stroke-miterlimit="2.6" transform="matrix(.13431 0 0 -.13236 0 257.3)"/>
  <path d="M123.5 102.3c-.8-2-2.2-3.2-4-3-1.2 0-2.2.4-3.3.9-1.9 1-3.3 2.9-4.9 4.5-.3-1-.8-1.7-1.5-2.3-1.3-1.2-3.5-1.2-5.2 0-1.3 1-2.7 2.2-3.7 3.7l.5-3.7-9.2 1.5-10.8 61.8 2-.2 7.1-1.2 8.8-49.3s.4-1.6 1.2-1.8c.8-.3 1.2 0 1.3.2 0 .2.5.3.2 1.9l-.3 1.6-8.3 46.8 9-1.3 8.6-49.5s.2-1.1.7-1.5c.7-.5 1-.5 1.3-.5.4 0 .9 0 .9 1.3l-8.7 49.7 9-1.4 9.6-55.2c0-1.1-.1-2.2-.3-3" fill="#244ba6" fill-rule="evenodd"/>
  <path d="M919.5 1171.7c-5.7 14.4-16.6 23.5-30.4 23-8 0-16.1-4-23.6-7.5-14.4-8-25.3-21.9-36.8-34a44.4 44.4 0 0 1-10.9 17.3c-9.8 9.2-26.4 9.2-39-.6-9.8-7.4-20.2-16-27.7-27 1.2 9.2 3 17.9 4 27.6l-68.3-11.5-80.5-466.7 14.4 1.7 53.4 8.6 65 373s2.8 11.6 9.2 13.3c6.3 2.3 9.2 0 9.7-1.1.6-1.8 3.5-3 1.2-14.4-2.3-11-2.3-12.7-2.3-12.7l-61.5-353.5c23 3 45.4 7 67.2 10.4l63.8 373.6s1.2 8.6 5.2 11.5c5.2 3.5 6.9 3.5 9.8 3.5 2.8 0 6.3.5 6.3-9.8L783.3 721c23 3.5 44.9 7 67.3 11l71.2 416.7c.6 8.6-1.1 16.7-2.3 23z" fill="none" stroke="#244ba6" stroke-width="11.7" stroke-miterlimit="2.6" transform="matrix(.13431 0 0 -.13236 0 257.3)"/>
  <path d="M147.6 103c0-1.4-.3-2.6-.7-3.5-.8-1.7-2-3-3.7-3.4-2.5-.2-5.3.6-7.8.8l-2.2.4a7.1 7.1 0 0 0-3.4 2.1c-2 2.2-2.8 5.7-3.3 8.9l-6.4 36-1 5.7a11 11 0 0 0 .3 4c.8 3 2.9 4.9 5.5 4.8l6.8-1c.8-.2 1.5-.4 2.3-.8 2.2-1.3 4.2-3.8 5.2-6.5v-.2s.7-2.2 1.7-7.3l1.2-7.2v-1l-8.7 1.4v.3l-1.8 9.7s-.5 1.5-1 2c-.5.2-1 .2-1.5-.1-.6-.4-.4-2-.4-2l2.7-15.4 11.6-2c.2.1.3-.1.4 0l3.8-21.9c.2-1.3.4-2.5.4-3.8zm-9.7 7.7c-.7 3.2-1.1 6.4-1.7 9.6l-3.1.4 2.2-12.4c.2-.8.8-1.3 1.3-1.6.6-.2 1.2.1 1.5.7.3 1 0 2.2-.2 3.3" fill="#244ba6" fill-rule="evenodd"/>
  <path d="M1098.9 1166a60 60 0 0 1-5.2 26.4c-5.7 13.2-15.5 23-27.6 25.8-18.4 1.8-39-4.6-58-6.3L992 1209a52.9 52.9 0 0 1-25.3-16c-15.5-16.7-21.3-42.6-24.7-66.7l-47.7-272.5c-2.3-14.4-5.2-28.2-7-43.1a84.9 84.9 0 0 1 1.8-29.9c5.7-22.4 21.3-36.8 40.8-36.2l50.6 8c5.7.6 11.5 2.4 17.2 5.2 16.1 9.8 31 28.8 38.5 49.5l.6 1.1s4.6 16.7 12 55.2c5.8 31.6 9.3 54.6 9.3 54.6l.6 7.5-65.6-10.4-.6-2.3-12.6-73.6s-3.4-11.4-7.5-14.3c-4-2.3-7.4-1.8-11.5.5-4 2.4-2.8 14.4-2.8 14.4l20 116.7 86.9 15c1.1-.6 2.3 1 2.8.5l28.2 165c1.7 9.8 2.9 19 2.9 28.7z" fill="none" stroke="#244ba6" stroke-width="11.7" stroke-miterlimit="2.6" transform="matrix(.13431 0 0 -.13236 0 257.3)"/>
  <path d="M1026.5 1107.9c-4.6-24.2-8-48.3-12.7-72.5l-23-3.4 16.7 94.3c1.7 5.7 5.7 9.2 9.8 11.5 4.6 1.7 8.6-.6 10.9-4.6 2.3-7.5-.6-16.7-1.7-25.3z" fill="none" stroke="#244ba6" stroke-width="11.7" stroke-miterlimit="2.6" transform="matrix(.13431 0 0 -.13236 0 257.3)"/>
  <path d="M159 114.7c-.8-1.6-.5-2.4-.5-2.4l1.2-7c.2-.8.5-1.7 1.2-2.2 0 0 .5-.3 1-.2.6.2.7.6.7 1 0 .3.2.6 0 1.2l-1 5.8 8.8-1.4 1.6-8.8c.4-2.7-.2-5-1.3-6.7a4.8 4.8 0 0 0-4.8-1.9c-2.4.4-4.6.6-7 1.2l-1.3.4c-2 .5-3.7 2.3-4.8 4.4-.7 1.3-1.1 2.9-1.4 4.4l-2.2 12.2a9 9 0 0 0 0 4c.4 1 .8 2 1.4 2.8l5 7 1.8 2.4s.4.5.3 1.7l-1.8 10a2 2 0 0 1-1.2 1.6c-.5.3-.9 0-1.2-.3-.2-.3-.3-.8-.3-1.2.5-3.4 1.2-6.9 1.6-10.2l-9 1.5-.3 1.7c-.6 4-1.6 8-1.8 11.8a7 7 0 0 0 2.8 6.4c1 1 2.7 1 4.2.7 2-.3 3.8-.4 5.6-1 2-.2 3.9-1.8 5.3-3.6a15 15 0 0 0 2.5-5.6l.2-1c1-4.9 1.6-9.3 2.6-14.3.3-1.8.1-3.6-.8-4.7l-7.2-9.7" fill="#244ba6" fill-rule="evenodd"/>
  <path d="M1183.4 1078c-5.2 11.5-3.5 17.8-3.5 17.8l9.2 52.3c1.2 6.3 3.5 13.2 9.2 17.2 0 0 3.5 2.3 7.5 1.2 4-1.1 4.6-4.6 5.2-6.9 0-2.3 1.1-4.6 0-9.2-1.2-4.6-8-44.3-8-44.3l65.5 11c2.8 15.5 9.7 50 12 66.7a70 70 0 0 1-9.7 50 35.7 35.7 0 0 1-35.7 14.3c-17.8-2.9-33.9-4.6-51.7-8.6l-10.4-2.9c-14.3-4-27-17.8-35.6-33.3a132 132 0 0 1-10.3-33.3l-16.1-92.6c-1.8-10.3-3.5-21.8-.6-30.5 3.4-6.8 6.3-14.3 10.9-20.6l37.4-53 13.2-17.7s2.9-4 2.3-13.3c-4.6-25.3-8.6-50-13.2-75.3-.6-5.7-4.6-10.9-9.2-12.6-3.5-1.7-6.4.6-8.7 2.3-1.7 2.3-2.3 6.3-2.3 9.8 3.5 25.2 8.7 51.7 12.1 76.4l-67.2-11-2.3-13.1c-4.6-29.4-12.1-59.8-13.8-89.1a53.3 53.3 0 0 1 21.2-48.3c8-7 20.2-8 31-5.2 14.4 2.3 28.2 2.9 42 7 15 2.2 28.8 14.3 39.7 28 8.6 12.1 15.5 27.7 18.4 42l1.7 7.5c7 36.8 11.5 70.7 19 108 2.3 13.9 1.1 27.7-5.8 35.7z" fill="none" stroke="#244ba6" stroke-width="11.7" stroke-miterlimit="2.6" transform="matrix(.13431 0 0 -.13236 0 257.3)"/>
  <path d="M233.9 83.8a5 5 0 0 0-4.9-2l-6.8 1.2-1.5.3c-1.9.6-3.5 2.4-4.7 4.5-.7 1.4-1 2.9-1.4 4.4l-2.2 12.3a9 9 0 0 0 0 4c.4 1 .8 1.9 1.4 2.7l5 7 1.7 2.4s.5.5.4 1.7l-1.7 10c-.2.8-.7 1.4-1.3 1.7-.4.2-.8-.1-1.1-.3-.3-.3-.3-.9-.3-1.3.4-3.4 1.1-6.9 1.6-10.1l-9 1.4-.4 1.7c-.6 4-1.6 7.9-1.8 11.8a7 7 0 0 0 2.8 6.4c1.1 1 2.7 1.1 4.2.7 2-.4 3.8-.4 5.6-.9 2-.3 4-1.9 5.4-3.7 1.1-1.6 2-3.7 2.4-5.6l.2-1c1-4.8 1.6-9.3 2.6-14.3.3-1.8.2-3.7-.8-4.7l-7.1-9.7c-.7-1.5-.5-2.4-.5-2.4l1.2-6.9c.2-.8.5-1.8 1.2-2.3 0 0 .5-.3 1-.1.5.1.7.6.7.9 0 .2.2.6 0 1.2 0 .6-1 5.9-1 5.9l8.8-1.5 1.6-8.8c.4-2.7-.2-5-1.3-6.6" fill="#244ba6" fill-rule="evenodd"/>
  <path d="M1741.5 1311.3a36.7 36.7 0 0 1-36.2 14.4c-17.2-2.9-33.3-4.6-51.2-8.6l-10.9-2.3c-13.8-4.6-26.4-18.4-35-34-5.2-10.3-8-21.8-10.4-33.3l-16-92.5c-1.8-10.3-3.5-21.8-.7-30.5 3.5-6.9 6.4-14.3 11-20l37.3-53.5 12.7-17.8s3.4-4 2.3-13.3c-4-24.7-8-50-12.7-75.3a17.8 17.8 0 0 0-9.2-12.6c-3.4-1.7-6.3.6-8.6 2.3-1.7 2.3-2.3 6.3-2.3 9.8 3.5 25.2 8.6 51.7 12 76.4l-67.2-11-2.3-12.6c-4.6-29.8-12-59.7-13.8-89a53.7 53.7 0 0 1 21.3-49c8-6.8 19.5-8 31-5 14.4 2.8 28.2 2.8 42 6.8 14.4 2.3 28.7 14.4 39.7 28.2 8.6 12 14.9 27.6 18.4 42.5l1.1 7c7.5 36.7 12 70.6 19.5 108 2.3 13.8 1.2 28.1-5.7 35.6l-53.5 73.6c-5.1 11.5-3.4 17.8-3.4 17.8l9.2 52.3c1.1 6.3 3.4 13.8 8.6 17.2 0 0 4 2.3 7.5 1.2a7 7 0 0 0 5.2-6.9c.5-1.7 1.7-4.6.5-9.2-1.1-4.6-8-44.3-8-44.3l65.5 11c2.9 15.5 9.2 50 12 66.6a73.2 73.2 0 0 1-9.7 50z" fill="none" stroke="#244ba6" stroke-width="11.7" stroke-miterlimit="2.6" transform="matrix(.13431 0 0 -.13236 0 257.3)"/>
  <path d="M186.8 94.4l1.7-9.5-3.2.4 2.2-13.4-9.2 1.4-2.2 13.2-.1.2-3.2.6L171 97l3.2-.5-9 51.5v.5l9.2-1.6 9-51.9 3.3-.6" fill="#fff" fill-rule="evenodd"/>
  <path d="M1390.9 1230.9c4 24.1 8.6 47.7 12.6 71.8l-24.1-2.8c5.2 33.9 11.5 67.8 16.7 101.1l-68.4-10.9-16.7-99.4-.6-1.8-24.1-4c-3.5-24.7-8-49.4-12.1-73.6l23.6 4-66.7-389c0-1.8-1.2-3-.6-4.1l68.4 12 67.8 392z" fill="none" stroke="#244ba6" stroke-width="29.1" stroke-miterlimit="2.6" transform="matrix(.13431 0 0 -.13236 0 257.3)"/>
  <path d="M83.7 104a4.9 4.9 0 0 0-3.7-1.8l-7.7 1.2c-2.5.2-5 2.4-6.5 5.3-1.4 3-1.5 6.5-2.2 9.8L57.1 155l-.2 2.5c.1 3 1.2 5.7 3.4 6.8 1.4 1 3.8.2 5.5 0 1.8-.3 3.7-.2 5.4-1 2.8-1.2 5.4-4.5 6.2-8.1l.6-2.1L85 112c.7-3.3.2-6.3-1.4-8zm-8 12.3l-6.2 35.6c-.1.8-.3 1.7-.9 2.2-.4.3-1 .4-1.4.3-.3-.1-.6-.6-.7-1l.1-1.3 6.4-36.8c.2-.7.7-1.5 1.3-1.6.5-.1 1-.2 1.3.2.4.6.2 1.4.1 2.4" fill="#fff" fill-rule="evenodd"/>
  <path d="M623.5 1158.5a36.2 36.2 0 0 1-28.1 13.8c-20.2-3-37.4-6.4-57-9.2-19-1.8-37.9-17.9-48.2-40.3-10.4-22.4-11.5-48.8-16.7-73.6l-48.3-277c-1.1-6.3-1.1-12-1.7-18.4 1.1-23 9.2-43.1 25.3-51.7 11-7.5 28.2-1.2 41.4-.6 13.2 2.9 27.6 2.3 40.2 8 20.7 9.2 39.7 34 46 61.5 1.7 4.6 2.9 11 4 16.1l53.5 310.4c5.1 24.7 1.1 47.7-10.4 61z" fill="none" stroke="#244ba6" stroke-width="29.1" stroke-miterlimit="2.6" transform="matrix(.13431 0 0 -.13236 0 257.3)"/>
  <path d="M563.7 1066l-46.5-269.7c-.6-5.7-1.7-12.6-6.3-16-3-3-7-3.5-10.4-3-2.3 1.2-4.6 4.7-5.2 8.1l.6 9.8 47.7 278.2c1.8 5.2 5.2 11 9.8 12 3.5.6 7.5 1.2 9.8-1.7 2.8-4.6 1.1-10.9.5-17.8z" fill="none" stroke="#244ba6" stroke-width="29.1" stroke-miterlimit="2.6" transform="matrix(.13431 0 0 -.13236 0 257.3)"/>
  <path d="M207.5 83.8a4.9 4.9 0 0 0-3.9-1.7l-7.5 1.2c-2.6.2-5.2 2.4-6.6 5.3-1.4 3-1.5 6.5-2.1 9.7l-6.6 36.7-.2 2.4c.1 3.1 1.2 5.8 3.4 6.8 1.5 1.1 3.7.3 5.5.2 1.8-.4 3.7-.4 5.5-1 2.8-1.4 5.2-4.6 6.2-8.3l.4-2 7.3-41.2c.6-3.2.1-6.3-1.4-8zm-8.1 12.3l-6.3 35.7c0 .8-.2 1.7-.7 2.1-.4.4-1 .5-1.5.4-.3 0-.6-.6-.7-1V132l6.6-36.8c.1-.8.6-1.5 1.2-1.6.5-.2 1-.2 1.4.1.4.6 0 1.6 0 2.4" fill="#fff" fill-rule="evenodd"/>
  <path d="M1545 1310.8a35.9 35.9 0 0 1-28.8 13.2c-19.6-2.9-36.8-5.8-56.3-9.2-19.6-1.1-38.6-17.8-48.9-40.2-10.3-22.4-11-48.9-16.1-73l-48.8-277.7c-.6-5.7-1.2-12-1.2-17.8.6-23.5 8.6-43.7 24.7-51.7 11.5-8 28.2-1.7 41.4-1.2 13.2 3 27.6 3 40.8 8 20.7 9.9 39 34.6 46 62.2 1.7 4.6 2.3 10.3 3.4 15.5l54 311c4.7 24 1.2 47.7-10.3 60.9z" fill="none" stroke="#244ba6" stroke-width="29.1" stroke-miterlimit="2.6" transform="matrix(.13431 0 0 -.13236 0 257.3)"/>
  <path d="M1484.6 1218.2L1438 948.1c-.6-5.8-1.7-12.7-5.7-15.5-3-3-7.5-4-11-3-2.3.7-4.6 4.7-5.1 7.6l.5 9.7 48.3 278.2c1.2 5.8 4.6 11 9.2 12.1 4 1.1 7.5 1.7 10.4-1.2 2.8-4.6.5-11.4 0-17.8z" fill="none" stroke="#244ba6" stroke-width="29.1" stroke-miterlimit="2.6" transform="matrix(.13431 0 0 -.13236 0 257.3)"/>
  <path d="M63.3 85.4c-1.4-2.5-3.4-3.5-5.9-3.3l-14.7 2.3-.8.1a40 40 0 0 0-4 .7l-16.2 93.4 14.6-2.5c2.2-.4 4.6-.5 6.8-1.6 4.3-1.9 7.8-7.2 8.8-12.8l12.2-68.3c.5-3 .3-6-.8-8zm-21.8 72.2c-.8 4.1-3 4.2-3 4.2l-2.8.5.2-.9 11.3-64.3 3.6-.6c.5.4 1 .8 1 1.7l-10.3 59.4" fill="#fff" fill-rule="evenodd"/>
  <path d="M471.2 1298.7c-10.3 19-25.3 26.4-43.7 25.3l-109.8-17.3-5.7-1.1c-9.2-1.1-20.1-2.9-29.9-5.2L161.4 595.2 270 613.5c16.7 3.5 34.5 4 51.2 12.1 31.6 14.4 58 54.6 65.5 97.2l90.3 516.1c4 22.4 2.3 44.9-5.8 59.8z" fill="none" stroke="#244ba6" stroke-width="29.1" stroke-miterlimit="2.6" transform="matrix(.13431 0 0 -.13236 0 257.3)"/>
  <path d="M309.1 753.8c-5.7-31.6-21.8-32.2-21.8-32.2a529 529 0 0 0-21.3-3.4l1.2 6.3 83.9 486.3a234 234 0 0 0 27 4c4-2.3 6.9-5.8 7.5-12.7z" fill="none" stroke="#244ba6" stroke-width="29.1" stroke-miterlimit="2.6" transform="matrix(.13431 0 0 -.13236 0 257.3)"/>
  <path d="M121.7 98.8c-.8-2-2.3-3.2-4-3-1.2 0-2.3.5-3.3 1-2 1-3.4 2.8-5 4.5-.3-1-.7-1.8-1.3-2.3-1.3-1.3-3.7-1.2-5.4 0-1.3 1-2.6 2.1-3.7 3.6l.7-3.6-9.3 1.5-10.8 61.8 2-.3 7.2-1.2 8.6-49.3s.4-1.5 1.2-1.7c.9-.3 1.3 0 1.4.1 0 .2.4.4.1 1.9l-.3 1.7-8.2 46.8 9-1.4 8.5-49.4s.2-1.2.8-1.5c.7-.5.9-.6 1.3-.6.3 0 .8 0 .9 1.4l-8.7 49.7 9-1.5L122 102c0-1.2-.2-2.3-.3-3" fill="#fff" fill-rule="evenodd"/>
  <path d="M906.3 1197.5c-6.3 15-17.2 24.2-30.4 23-8.7 0-16.7-4-24.2-7.4-14.3-7.5-25.3-21.3-36.8-34a39.5 39.5 0 0 1-10.3 17.3c-9.8 9.8-27 9.2-39.7 0-9.7-8-19.5-16.1-27.6-27.6 1.8 9.8 3.5 17.8 4.6 27.6l-69-11.5-80.4-466.7 14.4 2.3 54 8.6 64.4 372.4s2.8 11.5 9.2 13.3c6.3 2.3 9.2 0 9.7-1.2.6-1.1 3.5-2.9 1.2-13.8-2.3-11.5-2.3-13.2-2.3-13.2l-61-353.5c23 2.9 44.9 6.9 66.7 10.4l63.8 373.6s1.2 9.2 5.8 11.5c5.2 3.4 6.3 4 9.2 4 2.9 0 6.3 0 6.9-10.4L770 747c23 3.5 44.3 7.5 66.7 11l71.3 416.6c.5 8.7-1.2 17.3-1.8 23z" fill="none" stroke="#244ba6" stroke-width="29.1" stroke-miterlimit="2.6" transform="matrix(.13431 0 0 -.13236 0 257.3)"/>
  <path d="M145.7 99.6a8 8 0 0 0-.6-3.5c-.8-1.8-2.1-3-3.7-3.4-2.5-.3-5.3.5-7.9.8l-2 .4c-1.3.2-2.4 1-3.4 2.1-2.2 2.2-3 5.6-3.4 8.8l-6.4 36-1 5.7c-.1 1.5 0 2.8.3 4 .7 3 2.9 5 5.5 4.8l6.7-1c.9 0 1.7-.4 2.4-.7 2.2-1.3 4.1-3.9 5.2-6.6 0 0 .6-2.3 1.6-7.4l1.3-7.2.1-1-8.9 1.4v.3l-1.7 9.6s-.4 1.6-1 2c-.6.3-1 .2-1.6 0-.5-.4-.4-2-.4-2l2.7-15.4 11.7-2 .4-.1 3.8-21.9c.2-1.2.3-2.5.3-3.7zm-9.7 7.7l-1.6 9.6-3.2.4 2.3-12.5c.2-.7.7-1.2 1.3-1.5.6-.2 1.1.1 1.4.6.4 1 0 2.2-.2 3.4" fill="#fff" fill-rule="evenodd"/>
  <path d="M1085 1191.8a60.8 60.8 0 0 1-4.5 26.4c-6.3 13.2-16.1 23-27.6 25.9-19 2.3-39.7-4-58.6-6.3l-15.5-2.9a49 49 0 0 1-25.3-16c-16.1-16.8-21.9-42-25.3-66.8L881 880.3c-2.8-14.4-5.7-28.8-7.4-43.2-1.2-10.9-.6-21.2 1.7-30.4 5.7-21.9 21.8-36.8 41.4-35.7l50 7.5c6.3.6 12 2.9 17.2 5.2 16.7 9.8 31 29.3 39.1 50v.6s4.6 16.6 12 55.1c5.8 32.2 9.3 54.7 9.3 54.7l1.1 7.4-66-10.3v-2.3l-12.7-73s-3.5-12-8-14.4c-4-2.9-7.5-2.3-11.6 0-3.4 2.3-2.8 14.4-2.8 14.4l20 116.7 86.9 15.5c1.1-.6 2.3.6 2.9.6l28.1 165c1.7 9.1 2.9 18.9 2.9 28z" fill="none" stroke="#244ba6" stroke-width="29.1" stroke-miterlimit="2.6" transform="matrix(.13431 0 0 -.13236 0 257.3)"/>
  <path d="M1012.7 1133.7c-4-24.1-7.5-47.7-12.1-72.4L977 1058v.5l17.3 93.7c1.1 5.8 5.1 9.2 9.2 11.5 4.6 1.7 8.6-.6 10.9-4.6 2.3-7.4-.6-16.6-1.7-25.3z" fill="none" stroke="#244ba6" stroke-width="29.1" stroke-miterlimit="2.6" transform="matrix(.13431 0 0 -.13236 0 257.3)"/>
  <path d="M157 111.2c-.5-1.5-.3-2.3-.3-2.3l1.2-7c.2-.9.5-1.8 1.2-2.2 0 0 .5-.3 1-.2.5.2.7.6.7 1v1.1c0 .6-1 5.8-1 5.8l8.7-1.4 1.6-8.8c.5-2.6-.1-5-1.3-6.6a4.7 4.7 0 0 0-4.8-1.9c-2.4.4-4.4.6-6.8 1.2l-1.5.3c-2 .6-3.6 2.3-4.7 4.4-.8 1.4-1.2 3-1.4 4.5l-2.2 12.1c-.2 1.5-.5 3 0 4.1.3 1 .8 2 1.4 2.7l5 7 1.7 2.4s.5.6.4 1.8c-.7 3.3-1.1 6.6-1.7 10-.2.7-.7 1.3-1.3 1.6-.4.3-.8 0-1.2-.3-.2-.3-.2-.8-.2-1.3.3-3.3 1-6.8 1.6-10l-9 1.4-.4 1.6c-.7 4-1.6 8-1.9 11.8a7 7 0 0 0 2.9 6.5c1.1.9 2.7 1 4.1.7 2-.4 3.8-.4 5.7-1 2-.2 3.8-1.8 5.3-3.7 1.1-1.6 2-3.6 2.5-5.6l.2-1c1-4.8 1.6-9.3 2.6-14.2.2-1.8.2-3.7-.8-4.7l-7.2-9.8" fill="#fff" fill-rule="evenodd"/>
  <path d="M1169.6 1103.8c-4.6 11.5-2.9 17.9-2.9 17.9l8.6 52.3c1.8 6.9 4 13.8 9.2 17.2 0 0 3.5 2.3 7.5 1.2a7 7 0 0 0 5.2-7c0-1.7 1.1-4.5 0-9.1l-7.5-43.7 65 11c2.8 14.9 9.7 49.3 12 66a67.3 67.3 0 0 1-9.8 50 34.7 34.7 0 0 1-35.6 14.4c-17.8-2.9-33.3-4.6-51.1-8.6l-11-2.3c-14.3-4.6-26.4-17.9-35-34a97.8 97.8 0 0 1-10.4-33.3l-16-92c-1.8-10.9-4-22.4-.6-31 2.8-6.9 6.3-14.4 10.3-20.1l37.4-53.5 13.2-17.8s3.4-4 2.3-13.2c-4.6-24.7-8-50-12.7-75.3a17 17 0 0 0-9.2-12c-3.4-2.4-6.3 0-9.2 1.7-1.7 2.2-1.7 6.3-1.7 9.7 2.9 25.3 8 51.8 12.1 76.5l-67.3-11-2.8-12.6c-4.6-29.9-11.5-59.8-13.8-89a53.7 53.7 0 0 1 21.2-49c8.7-6.8 20.2-7.4 31-5.1 14.4 2.9 28.2 2.9 42 6.9 15 2.3 28.8 14.3 39.7 28.7 8.6 11.5 15.5 27 19 42l1.1 6.9c7.5 36.8 12 70.7 19.6 108 1.7 13.8 1.1 28.2-5.8 35.7z" fill="none" stroke="#244ba6" stroke-width="29.1" stroke-miterlimit="2.6" transform="matrix(.13431 0 0 -.13236 0 257.3)"/>
  <path d="M232 80.3a4.9 4.9 0 0 0-4.7-2l-7 1.3-1.4.3a9 9 0 0 0-4.8 4.5c-.7 1.3-1 2.9-1.3 4.4l-2.1 12.2c-.3 1.4-.6 3-.1 4 .4 1 .8 2 1.4 2.7l5 7.1 1.8 2.4s.4.5.3 1.6l-1.8 10a2 2 0 0 1-1.2 1.7c-.5.3-.9 0-1.2-.2-.2-.4-.3-.9-.3-1.4l1.7-10-9.1 1.4-.3 1.7c-.6 4-1.6 7.9-1.9 11.8a7 7 0 0 0 2.9 6.4c1 1 2.7 1 4.2.7 1.9-.4 3.7-.4 5.6-1 2-.2 3.9-1.8 5.3-3.7 1.2-1.5 2.1-3.6 2.6-5.6l.1-.9c1-4.8 1.6-9.3 2.6-14.3.3-1.8.1-3.7-.8-4.7l-7.2-9.7c-.6-1.6-.4-2.5-.4-2.5l1.2-6.8c.1-1 .5-1.8 1.2-2.3 0 0 .5-.4 1-.2.6.2.6.7.7 1 0 .2.2.6 0 1.2l-1 5.8 8.7-1.5c.4-2 1.4-6.5 1.7-8.7.4-2.7-.2-5-1.3-6.7" fill="#fff" fill-rule="evenodd"/>
  <path d="M1727.7 1337.2a36.1 36.1 0 0 1-35.6 15c-17.8-3.5-33.4-5.2-51.2-9.2l-11-2.3c-14.3-4.6-27-17.8-35.5-34-5.2-10.3-8-21.8-10.4-33.3l-15.5-92c-1.7-10.9-4-22.4-.6-31 2.9-6.9 6.3-14.4 10.4-20.1l37.3-53.5 13.2-17.8s3-4 2.3-12.6c-4.6-25.3-8.6-50.6-13.2-75.3-.6-6.4-4.6-11-9.2-12.7-3.4-2.3-6.3 0-8.6 1.7-1.7 2.4-2.3 6.4-2.3 10.4 3.5 24.7 8.6 51.2 12.6 75.9l-67.8-11-2.3-12.6c-4.6-29.9-11.5-59.8-13.8-89a53.8 53.8 0 0 1 21.3-49c8-6.8 20.1-7.4 31-5.1 14.4 2.9 28.2 2.9 42 7.5 15 1.7 28.7 13.7 39.7 28.1 8.6 11.5 15.5 27 19 42l1 6.9c7 36.8 11.6 70.7 19.6 108 1.7 13.8.6 28.2-6.3 35.7l-53.5 73.6c-4.5 11.4-2.8 18.3-2.8 18.3l8.6 51.8c1.1 6.9 4 13.8 9.2 17.2 0 0 3.4 2.9 7.5 1.2 4-1.2 4.6-4.6 5.1-7 0-1.7 1.2-4.5 0-9.1-.5-4-7.4-43.7-7.4-43.7l65 11c2.8 14.9 9.7 49.3 12 66a67.3 67.3 0 0 1-9.8 50z" fill="none" stroke="#244ba6" stroke-width="29.1" stroke-miterlimit="2.6" transform="matrix(.13431 0 0 -.13236 0 257.3)"/>
  <path d="M186.8 94.4l1.7-9.5-3.2.4 2.2-13.4-9.2 1.4-2.2 13.2-.1.2-3.2.6L171 97l3.2-.5-9 51.5v.5l9.2-1.6 9-51.9 3.3-.6M83.7 104a4.9 4.9 0 0 0-3.7-1.8l-7.7 1.2c-2.5.2-5 2.4-6.5 5.3-1.4 3-1.5 6.5-2.2 9.8L57.1 155l-.2 2.5c.1 3 1.2 5.7 3.4 6.8 1.4 1 3.8.2 5.5 0 1.8-.3 3.7-.2 5.4-1 2.8-1.2 5.4-4.5 6.2-8.1l.6-2.1L85 112c.7-3.3.2-6.3-1.4-8zm-8 12.3l-6.2 35.6c-.1.8-.3 1.7-.9 2.2-.4.3-1 .4-1.4.3-.3-.1-.6-.6-.7-1l.1-1.3 6.4-36.8c.2-.7.7-1.5 1.3-1.6.5-.1 1-.2 1.3.2.4.6.2 1.4.1 2.4M207.5 83.8a4.9 4.9 0 0 0-3.9-1.7l-7.5 1.2c-2.6.2-5.2 2.4-6.6 5.3-1.4 3-1.5 6.5-2.1 9.7l-6.6 36.7-.2 2.4c.1 3.1 1.2 5.8 3.4 6.8 1.5 1.1 3.7.3 5.5.2 1.8-.4 3.7-.4 5.5-1 2.8-1.4 5.2-4.6 6.2-8.3l.4-2 7.3-41.2c.6-3.2.1-6.3-1.4-8zm-8.1 12.3l-6.3 35.7c0 .8-.2 1.7-.7 2.1-.4.4-1 .5-1.5.4-.3 0-.6-.6-.7-1V132l6.6-36.8c.1-.8.6-1.5 1.2-1.6.5-.2 1-.2 1.4.1.4.6 0 1.6 0 2.4M63.3 85.4c-1.4-2.5-3.4-3.5-5.9-3.3l-14.7 2.3-.8.1a40 40 0 0 0-4 .7l-16.2 93.4 14.6-2.5c2.2-.4 4.6-.5 6.8-1.6 4.3-1.9 7.8-7.2 8.8-12.8l12.2-68.3c.5-3 .3-6-.8-8zm-21.8 72.2c-.8 4.1-3 4.2-3 4.2l-2.8.5.2-.9 11.3-64.3 3.6-.6c.5.4 1 .8 1 1.7l-10.3 59.4M121.7 98.8c-.8-2-2.3-3.2-4-3-1.2 0-2.3.5-3.3 1-2 1-3.4 2.8-5 4.5-.3-1-.7-1.8-1.3-2.3-1.3-1.3-3.7-1.2-5.4 0-1.3 1-2.6 2.1-3.7 3.6l.7-3.6-9.3 1.5-10.8 61.8 2-.3 7.2-1.2 8.6-49.3s.4-1.5 1.2-1.7c.9-.3 1.3 0 1.4.1 0 .2.4.4.1 1.9l-.3 1.7-8.2 46.8 9-1.4 8.5-49.4s.2-1.2.8-1.5c.7-.5.9-.6 1.3-.6.3 0 .8 0 .9 1.4l-8.7 49.7 9-1.5L122 102c0-1.2-.2-2.3-.3-3M145.7 99.6a8 8 0 0 0-.6-3.5c-.8-1.8-2.1-3-3.7-3.4-2.5-.3-5.3.5-7.9.8l-2 .4c-1.3.2-2.4 1-3.4 2.1-2.2 2.2-3 5.6-3.4 8.8l-6.4 36-1 5.7c-.1 1.5 0 2.8.3 4 .7 3 2.9 5 5.5 4.8l6.7-1c.9 0 1.7-.4 2.4-.7 2.2-1.3 4.1-3.9 5.2-6.6 0 0 .6-2.3 1.6-7.4l1.3-7.2.1-1-8.9 1.4v.3l-1.7 9.6s-.4 1.6-1 2c-.6.3-1 .2-1.6 0-.5-.4-.4-2-.4-2l2.7-15.4 11.7-2 .4-.1 3.8-21.9c.2-1.2.3-2.5.3-3.7zm-9.7 7.7l-1.6 9.6-3.2.4 2.3-12.5c.2-.7.7-1.2 1.3-1.5.6-.2 1.1.1 1.4.6.4 1 0 2.2-.2 3.4M157 111.2c-.5-1.5-.3-2.3-.3-2.3l1.2-7c.2-.9.5-1.8 1.2-2.2 0 0 .5-.3 1-.2.5.2.7.6.7 1v1.1c0 .6-1 5.8-1 5.8l8.7-1.4 1.6-8.8c.5-2.6-.1-5-1.3-6.6a4.7 4.7 0 0 0-4.8-1.9c-2.4.4-4.4.6-6.8 1.2l-1.5.3c-2 .6-3.6 2.3-4.7 4.4-.8 1.4-1.2 3-1.4 4.5l-2.2 12.1c-.2 1.5-.5 3 0 4.1.3 1 .8 2 1.4 2.7l5 7 1.7 2.4s.5.6.4 1.8c-.7 3.3-1.1 6.6-1.7 10-.2.7-.7 1.3-1.3 1.6-.4.3-.8 0-1.2-.3-.2-.3-.2-.8-.2-1.3.3-3.3 1-6.8 1.6-10l-9 1.4-.4 1.6c-.7 4-1.6 8-1.9 11.8a7 7 0 0 0 2.9 6.5c1.1.9 2.7 1 4.1.7 2-.4 3.8-.4 5.7-1 2-.2 3.8-1.8 5.3-3.7 1.1-1.6 2-3.6 2.5-5.6l.2-1c1-4.8 1.6-9.3 2.6-14.2.2-1.8.2-3.7-.8-4.7l-7.2-9.8M232 80.3a4.9 4.9 0 0 0-4.7-2l-7 1.3-1.4.3a9 9 0 0 0-4.8 4.5c-.7 1.3-1 2.9-1.3 4.4l-2.1 12.2c-.3 1.4-.6 3-.1 4 .4 1 .8 2 1.4 2.7l5 7.1 1.8 2.4s.4.5.3 1.6l-1.8 10a2 2 0 0 1-1.2 1.7c-.5.3-.9 0-1.2-.2-.2-.4-.3-.9-.3-1.4l1.7-10-9.1 1.4-.3 1.7c-.6 4-1.6 7.9-1.9 11.8a7 7 0 0 0 2.9 6.4c1 1 2.7 1 4.2.7 1.9-.4 3.7-.4 5.6-1 2-.2 3.9-1.8 5.3-3.7 1.2-1.5 2.1-3.6 2.6-5.6l.1-.9c1-4.8 1.6-9.3 2.6-14.3.3-1.8.1-3.7-.8-4.7l-7.2-9.7c-.6-1.6-.4-2.5-.4-2.5l1.2-6.8c.1-1 .5-1.8 1.2-2.3 0 0 .5-.4 1-.2.6.2.6.7.7 1 0 .2.2.6 0 1.2l-1 5.8 8.7-1.5c.4-2 1.4-6.5 1.7-8.7.4-2.7-.2-5-1.3-6.7" fill="#fff" fill-rule="evenodd"/>
</svg>
