<svg xmlns="http://www.w3.org/2000/svg" height="64.2" width="220.1">
  <path d="M605.4 1061.5c14 42.3 26.1 39.7 39.2-2.6 8-25.7 83.8-249.4 90.3-258.4 6.4-9 64.4-48.4 16.7-47.1H624.2c-12.9 1.3-20.5 19.3-6.3 27 14.2 7.8 18.5 10 18.9 19.9.3 10.4-12.6 47.8-12.6 47.8h-44s-13-37.2-13-48.3c0-7.3 7.4-12.7 16.9-20 11-8.5 9-23.2-3.9-26.4l-24.6.7c-48.8 0-54.6 38.2-45 61.9l94.8 245.6z" stroke="#410405" stroke-miterlimit="2.6" stroke-width="27.1" fill="none" transform="matrix(.122 0 0 -.128 -10.4 152.6)"/>
  <path d="M59.5 40l3.3-11 3.5 11h-6.8" fill-rule="evenodd" fill="#410405"/>
  <path d="M164.6 1146.6h126.6l52.2-173s49.3 157.5 53.2 173h125.7c17.4 0 18.3-17.4 3.8-25.1-15.7-8.4-25-13.6-25-25.2v-288c0-44 32.8-39.7 32.8-58 0-19.4-15.5-13.6-32.9-13.6H373.4c-13.5 0-33.8 3-17.4 20.3 23.5 24.9 31 30 32.9 51.3V959l-54.2-206.9c-6.7-24.2-34.8-21.3-37.7 2L237.1 959V808.3c2.9-22.3 49.3-40.6 49.3-56.1s-12.6-15.5-24.2-15.5H159.8c-26.1 0-37.7 17.4-18.4 31 19.3 13.5 42.5 23.2 46.4 38.6v293c0 12.5-43.5 19.3-43.5 35.7 0 15.5 20.3 11.6 20.3 11.6z" stroke="#410405" stroke-miterlimit="2.6" stroke-width="27.1" fill="none" transform="matrix(.122 0 0 -.128 -10.4 152.6)"/>
  <path d="M16.9 18.3l3.3 11.5-3.3.7V18.3M35.4 29.5l3.2-11.3v12.2l-3.2-1" fill-rule="evenodd" fill="#410405"/>
  <path d="M169 5.8h15.5l6.4 22.1s6-20.1 6.5-22.1h15.3c2.2 0 2.3 2.2.5 3.2-2 1-3 1.7-3 3.2v36.9c0 5.6 4 5 4 7.4 0 2.5-2 1.8-4 1.8h-15.6c-1.7 0-4.2-.4-2.2-2.6 3-3.2 3.8-3.9 4-6.6V29.8l-6.6 26.5c-.8 3-4.2 2.7-4.6-.3L178 29.8v19.3c.4 2.9 6 5.2 6 7.2s-1.5 2-2.9 2h-12.5c-3.2 0-4.6-2.3-2.2-4 2.3-1.7 5.2-3 5.6-5V12c0-1.7-5.3-2.5-5.3-4.6 0-2 2.5-1.5 2.5-1.5z" stroke="#410405" stroke-miterlimit="2.6" stroke-width="3.4" fill="none"/>
  <path d="M176.4 18.3l3.2 11.5-3.2.7V18.3M194.9 29.5l3.2-11.3v12.2l-3.2-1" fill-rule="evenodd" fill="#410405"/>
  <path d="M841.3 1106c-46.4 0-134.4-37.7-134.4-167.2 0-146 91.9-184.7 134.4-184.7 31 0 64.7 16.5 83.1 23.2 10.7 3.9 7.8-10.6 35.8-10.6V900c32 7.7 22.2 38.7-2.9 38.7h-84c-34 0-26.2-35.8-1-38.7v-81.2c-1-33.8-63.9-28-63.9 29v162.4c0 17.4 3 64.8 43.5 64.8 31 0 61.4-70.1 66.7-83.2 8.7-21.2 30-32.8 30-1v101.6c0 11.6-7.7 35.8-31 7.7-10.2-12.4-54 5.8-76.3 5.8z" stroke="#410405" stroke-miterlimit="2.6" stroke-width="27.1" fill="none" transform="matrix(.122 0 0 -.128 -10.4 152.6)"/>
  <path d="M990.2 1097.3h56c9.7 0 96.8-142.4 114.8-158.5v89c0 15.8 3.6 28.8-14.3 33.7-46.3 13-29.6 35.8 2 35.8h183.7c18.4 0 41.5-23 12.6-35.8-15.5-6.7-16.5-8.7-16.5-30V844c0-35.7 76.4-35.7 76.4 5.8v178c0 11.8 3 23.1-16.4 33.7-28.3 15.6-31.5 35.8 1 35.8h72.4c24.2 0 29-24.2-1-35.8-10.5-4-17.3-18.3-17.3-33.8V830.5c0-23.2-32-76.4-99.6-76.4-35.8 0-101.5 13.6-101.5 76.4v197.2c0 35.8-44.5 36.7-44.5 0V791.8c0-17.4-5.8-55-35.7-7.7a62617 62617 0 0 1-125.7 195.3V829.5c0-8.2 16.7-25.8 31-37.7 11.5-9.6 23.1-28-8.8-28h-78.3c-31.9 0-20.3 27-5.8 34.8 11 5.8 25.2 13.5 25.2 31v208.7c0 21.3-39.7 29-39.7 40.6 0 21.5 30 18.4 30 18.4z" stroke="#410405" stroke-miterlimit="2.6" stroke-width="27.1" fill="none" transform="matrix(.122 0 0 -.128 -10.4 152.6)"/>
</svg>
