<?xml version="1.0" encoding="UTF-8" standalone="no"?>
<svg xmlns:rdf="http://www.w3.org/1999/02/22-rdf-syntax-ns#" xmlns="http://www.w3.org/2000/svg" height="64.1674" width="220.112" version="1.1" xmlns:cc="http://creativecommons.org/ns#" xmlns:dc="http://purl.org/dc/elements/1.1/">
 <g transform="translate(-265.095 -467.008)">
  <g transform="matrix(.122001 0 0 -.127999 254.659 619.569)">
   <path d="m605.418 1061.55c13.928 42.29 26.107 39.63 39.158-2.66 7.932-25.72 83.863-249.418 90.307-258.436 6.444-9.029 64.368-48.344 16.677-47.051h-127.372c-12.883 1.29-20.463 19.333-6.279 27.07 14.176 7.732 18.526 9.99 18.85 19.817 0.341 10.388-12.571 47.852-12.571 47.852h-43.984s-13.048-37.22-13.048-48.332c0-7.271 7.492-12.745 16.918-19.982 11.118-8.537 9.097-23.201-3.87-26.425l-24.57 0.725c-48.82 0-54.619 38.186-44.954 61.871l94.738 245.551z" stroke="#410405" stroke-miterlimit="2.6131" stroke-width="27.0679" fill="none"/>
  </g>
  <path d="m324.589 506.956 3.34188-10.8888 3.499 10.8888h-6.84088" fill-rule="evenodd" fill="#410405"/>
  <g transform="matrix(.122001 0 0 -.127999 254.659 619.569)">
   <path d="m164.589 1146.62h126.647l52.202-173.045s49.3 157.575 53.174 173.045h125.675c17.398 0 18.362-17.4 3.862-25.13-15.729-8.39-25.134-13.54-25.134-25.14v-288.087c0-43.984 32.866-39.635 32.866-57.999 0-19.337-15.464-13.535-32.866-13.535h-127.608c-13.54 0-33.835 2.895-17.402 20.294 23.489 24.873 30.933 29.973 32.871 51.24v150.808l-54.139-206.873c-6.768-24.17-34.804-21.271-37.705 1.93l-59.934 204.943v-150.808c2.901-22.236 49.3-40.604 49.3-56.065 0-15.469-12.563-15.469-24.166-15.469h-102.474c-26.099 0-37.701 17.399-18.366 30.93 19.335 13.538 42.536 23.205 46.402 38.674v292.927c0 12.56-43.501 19.33-43.501 35.76 0 15.47 20.296 11.6 20.296 11.6z" stroke="#410405" stroke-miterlimit="2.6131" stroke-width="27.0679" fill="none"/>
  </g>
  <path d="m281.958 485.301 3.33488 11.509-3.33488 0.68062v-12.1896" fill-rule="evenodd" fill="#410405"/>
  <path d="m300.529 496.479 3.2095-11.3009-0.006 12.2501-3.20363-0.94925" fill-rule="evenodd" fill="#410405"/>
  <path d="m434.187 472.803h15.4502l6.36969 22.1496s6.01467-20.1694 6.48681-22.1496h15.3319c2.12282 0 2.24116 2.22718 0.47214 3.21661-1.91908 1.07391-3.06711 1.7331-3.06711 3.21789v36.8748c0 5.62989 4.01018 5.07323 4.01018 7.4238 0 2.47511-1.88736 1.73246-4.01018 1.73246h-15.5686c-1.65068 0-4.1273-0.37056-2.12282-2.59761 2.86581-3.18371 3.77472-3.8365 4.01018-6.55865v-19.3032l-6.60515 26.4795c-0.82473 3.09373-4.24443 2.72266-4.59945-0.24704l-7.31276-26.2324v19.3032c0.3538 2.84618 6.01588 5.19726 6.01588 7.17625 0 1.98001-1.53355 1.98001-2.94877 1.98001h-12.5015c-3.18546 0-4.60067-2.22705-2.24117-3.959 2.35829-1.73285 5.18994-2.97021 5.66087-4.95023v-37.4943c0-1.60766-5.30706-2.47421-5.30706-4.57723 0-1.98014 2.47663-1.48479 2.47663-1.48479z" stroke="#410405" stroke-miterlimit="2.6131" stroke-width="3.38252" fill="none"/>
  <path d="m441.446 485.301 3.28125 11.509-3.28125 0.68062v-12.1896" fill-rule="evenodd" fill="#410405"/>
  <path d="m459.964 496.479 3.21-11.3009-0.006 12.2501-3.20375-0.94925" fill-rule="evenodd" fill="#410405"/>
  <g transform="matrix(.122001 0 0 -.127999 254.659 619.569)">
   <path d="m841.303 1106.01c-46.398 0-134.376-37.7-134.376-167.237 0-145.975 91.84-184.645 134.376-184.645 30.937 0 64.741 16.514 83.143 23.201 10.63 3.868 7.728-10.65 35.764-10.65v133.424c31.902 7.732 22.237 38.67-2.902 38.67h-84.103c-33.835 0-26.103-35.767-0.965-38.67v-81.204c-0.86-33.833-63.808-28.035-63.808 29.003v162.408c0 17.4 2.902 64.77 43.505 64.77 30.933 0 61.375-70.11 66.706-83.137 8.701-21.267 29.969-32.872 29.969-0.965v101.502c0 11.6-7.737 35.77-30.938 7.73-10.258-12.39-54.134 5.8-76.371 5.8z" stroke="#410405" stroke-miterlimit="2.6131" stroke-width="27.0679" fill="none"/>
  </g>
  <g transform="matrix(.122001 0 0 -.127999 254.659 619.569)">
   <path d="m990.179 1097.32h56.071c9.67 0 96.75-142.434 114.72-158.547v88.937c0 15.87 3.64 28.86-14.26 33.84-46.32 12.89-29.65 35.77 2.01 35.77h183.68c18.37 0 41.52-23.1 12.57-35.77-15.47-6.77-16.44-8.7-16.44-29.97s0.05-170.117 0-187.546c-0.08-35.771 76.38-35.771 76.38 5.798v177.878c0 11.94 2.9 23.2-16.44 33.84-28.27 15.55-31.42 35.77 0.97 35.77h72.5c24.17 0 29.01-24.17-0.96-35.77-10.56-4.09-17.4-18.34-17.4-33.84v-197.211c0-23.201-31.9-76.371-99.58-76.371-35.76 0-101.5 13.531-101.5 76.371v197.211c0 35.77-44.47 36.74-44.47 0v-235.877c0-17.43-5.8-55.104-35.77-7.74-19.79 31.273-125.68 195.284-125.68 195.284v-79.274-70.569c0-8.263 16.75-25.879 30.94-37.701 11.6-9.67 23.2-28.038-8.7-28.038h-78.306c-31.902 0-20.304 27.069-5.804 34.802 10.926 5.825 25.142 13.534 25.142 30.937v208.816c0 21.26-39.642 29-39.642 40.6 0 21.43 29.969 18.37 29.969 18.37z" stroke="#410405" stroke-miterlimit="2.6131" stroke-width="27.0679" fill="none"/>
  </g>
 </g>
</svg>
