<svg xmlns="http://www.w3.org/2000/svg" xmlns:xlink="http://www.w3.org/1999/xlink" version="1.1" x="0px" y="0px" viewBox="0 0 100 125" enable-background="new 0 0 100 100" xml:space="preserve"><g><path d="M82.578,68.869l-31.427-51.02c-0.493-0.799-1.808-0.799-2.302,0l-31.426,51.02c-0.212,0.344-0.26,0.764-0.129,1.146   c0.131,0.381,0.426,0.685,0.803,0.828l31.426,11.822c0.155,0.057,0.316,0.086,0.477,0.086c0.162,0,0.322-0.029,0.477-0.086   l31.427-11.822c0.378-0.143,0.672-0.446,0.803-0.828C82.836,69.633,82.789,69.212,82.578,68.869z M79.383,68.901h-28.03V23.329   L79.415,68.89L79.383,68.901z M48.648,79.447l-24.438-9.193h24.438V79.447z M51.353,70.253H75.79l-24.438,9.193V70.253z    M48.648,23.329v45.572H20.617l-0.031-0.012L48.648,23.329z"/></g><text x="0" y="115" fill="#000000" font-size="5px" font-weight="bold" font-family="'Helvetica Neue', Helvetica, Arial-Unicode, Arial, Sans-serif">Created by naim</text><text x="0" y="120" fill="#000000" font-size="5px" font-weight="bold" font-family="'Helvetica Neue', Helvetica, Arial-Unicode, Arial, Sans-serif">from the Noun Project</text></svg>