<svg id="icon-linkedin" x="0px" y="0px" width="50px" height="50px" viewBox="0 0 50 50">
    <path id="linkedin" fill="#1D1D1B" d="M46.3,0H3.7C1.7,0,0,1.6,0,3.6v42.8c0,2,1.7,3.6,3.7,3.6h42.6c2,0,3.7-1.6,3.7-3.6V3.6
    C50,1.6,48.3,0,46.3,0z M14.8,42.6H7.4V18.7h7.4V42.6z M11.1,15.5c-2.4,0-4.3-1.9-4.3-4.3c0-2.4,1.9-4.3,4.3-4.3
    c2.4,0,4.3,1.9,4.3,4.3C15.4,13.6,13.5,15.5,11.1,15.5z M42.6,42.6h-7.4V31c0-2.8-0.1-6.3-3.9-6.3c-3.9,0-4.5,3-4.5,6.1v11.8h-7.4
    V18.7h7.1V22h0.1c1-1.9,3.4-3.9,7-3.9c7.5,0,8.9,4.9,8.9,11.4V42.6z"></path>
  </svg>
