<?xml version="1.0" encoding="utf-8"?>
<!-- Generator: Adobe Illustrator 18.1.1, SVG Export Plug-In . SVG Version: 6.00 Build 0)  -->
<svg version="1.1" id="Layer_1" xmlns="http://www.w3.org/2000/svg" xmlns:xlink="http://www.w3.org/1999/xlink" x="0px" y="0px"
	 viewBox="73.4 103.2 471.2 430.5" enable-background="new 73.4 103.2 471.2 430.5" xml:space="preserve">
<g>
	<path d="M538.6,533.7H391.7c-3.7,0-6.1-2.4-6.1-6.1V386.8h-153v140.8c0,3.7-2.4,6.1-6.1,6.1H79.6c-3.7,0-6.1-2.4-6.1-6.1V255.9
		c0-1.8,1.2-4.3,3.1-4.9L306,104.1c1.8-1.2,4.9-1.2,6.7,0l228.9,147.5c1.8,1.2,3.1,3.1,3.1,4.9v271.1
		C544.7,531.3,542.2,533.7,538.6,533.7z M397.8,521.5h134.6V260.1L309.7,116.3l-224,142.6v262.5h134.6V380.7c0-3.7,2.4-6.1,6.1-6.1
		h165.2c3.7,0,6.1,2.4,6.1,6.1V521.5z"/>
</g>
</svg>
