<svg xmlns="http://www.w3.org/2000/svg" xmlns:xlink="http://www.w3.org/1999/xlink" version="1.1" x="0px" y="0px" viewBox="0 0 100 125" style="enable-background:new 0 0 100 100;" xml:space="preserve"><path d="M79.7,62.7c-3.4-3.4-8.2-4.4-12.6-2.8L54.3,47.2l15-15l3.5,0.9c0.4,0.1,0.8-0.1,1.1-0.4l7-10c0.3-0.4,0.2-0.9-0.1-1.3l-2-2  c-0.3-0.3-0.9-0.4-1.3-0.1l-10,7c-0.3,0.2-0.5,0.7-0.4,1.1l0.9,3.5l-15,15L40.1,33.1c1.6-4.4,0.6-9.3-2.8-12.7  C34,17,28.1,16,23.5,18c-0.6,0.3-0.8,1.1-0.3,1.6l4.8,4.8V28h-3.6l-4.7-4.7c-0.5-0.5-1.3-0.3-1.6,0.3c-2,4.6-1,10.4,2.4,13.8  c3.4,3.4,8.2,4.4,12.6,2.8l12.7,12.6l-4.1,4.1c-2-1.3-4.5-0.9-6.2,0.7L18.4,74.5c-1.9,1.9-1.9,5.1,0,7.1c1.9,2,5.1,2,7.1,0  l17.1-16.9c1.7-1.7,1.9-4.4,0.6-6.4l4.1-4.1L60,67c-1.6,4.4-0.6,9.3,2.8,12.7C66.2,83,72,84.1,76.6,82c0.6-0.3,0.8-1.1,0.3-1.6  L72,75.6V72h3.6l4.9,4.8c0.5,0.5,1.3,0.3,1.6-0.3C84.1,71.9,83.1,66.1,79.7,62.7z M77.9,21.3l0.8,0.8l-6.1,8.7l-2.2-0.5l3-3  c0.5-0.5-0.2-1.2-0.7-0.7l-3,3l-0.5-2.2L77.9,21.3z M41.1,63.3L24.1,80.2c-1.2,1.2-3.1,1.2-4.2,0c-1.2-1.2-1.2-3.1,0-4.2l17.1-16.9  c1.2-1.2,3.1-1.2,4.2,0C42.3,60.2,42.3,62.1,41.1,63.3z M80.7,74.3l-4-4C76.5,70.1,76.3,70,76,70h-5c-0.6,0-1,0.4-1,1v5  c0,0.3,0.1,0.5,0.3,0.7l4.1,4c-3.6,1-7.7,0-10.2-2.5c-2.9-2.9-3.7-7.3-2.1-11.1c0.2-0.4,0.1-0.8-0.2-1.1L34,38.3  c-0.3-0.3-0.7-0.4-1.1-0.2c-3.8,1.7-8.1,0.8-11.1-2.1c-2.5-2.5-3.4-6.6-2.5-10.2l3.9,3.9c0.2,0.2,0.4,0.3,0.7,0.3h5c0.6,0,1-0.4,1-1  v-5c0-0.3-0.1-0.5-0.3-0.7l-3.9-3.9c3.6-1,7.7,0,10.2,2.5c2.9,2.9,3.7,7.3,2.1,11.1c-0.2,0.4-0.1,0.8,0.2,1.1l27.9,27.7  c0.3,0.3,0.7,0.4,1.1,0.2c3.8-1.7,8.1-0.8,11.1,2.1C80.8,66.6,81.7,70.7,80.7,74.3z"/></svg>
