<svg xmlns="http://www.w3.org/2000/svg" viewBox="0 0 60 75"><path d="M7 3C4.79 3 3 4.79 3 7s1.79 4 4 4 4-1.79 4-4-1.79-4-4-4zm0 6c-1.1 0-2-.9-2-2s.9-2 2-2 2 .9 2 2-.9 2-2 2zm9-6c-2.21 0-4 1.79-4 4s1.79 4 4 4 4-1.79 4-4-1.79-4-4-4zm0 6c-1.1 0-2-.9-2-2s.9-2 2-2 2 .9 2 2-.9 2-2 2zm9-6c-2.21 0-4 1.79-4 4s1.79 4 4 4 4-1.79 4-4-1.79-4-4-4zm0 6c-1.1 0-2-.9-2-2s.9-2 2-2 2 .9 2 2-.9 2-2 2z"/><path d="M0 0v60h60V0H0zm2 2h56v10H2V2zm56 56H2V14h56v44z"/><path d="M28 18H6v16h22V18zm-2 14H8V20h18v12zm2 22V38H6v16h22zM13 40c0 .55.45 1 1 1s1-.45 1-1h4c0 .55.45 1 1 1s1-.45 1-1h4c0 .55.45 1 1 1v4c-.55 0-1 .45-1 1s.45 1 1 1v4c-.55 0-1 .45-1 1h-4c0-.55-.45-1-1-1s-1 .45-1 1h-4c0-.55-.45-1-1-1s-1 .45-1 1H9c0-.55-.45-1-1-1v-4c.55 0 1-.45 1-1s-.45-1-1-1v-4c.55 0 1-.45 1-1h4zm41-22H32v16h22V18zm-2 14H34V20h18v12zm2 6H32v16h22V38zm-2 14H34V40h18v12z"/><circle cx="23" cy="43" r="1"/><circle cx="20" cy="46" r="1"/><circle cx="23" cy="49" r="1"/><circle cx="17" cy="43" r="1"/><circle cx="14" cy="46" r="1"/><circle cx="17" cy="49" r="1"/><circle cx="11" cy="43" r="1"/><circle cx="11" cy="49" r="1"/></svg>