<svg xmlns="http://www.w3.org/2000/svg" viewBox="0 0 60 75"><path d="M7 3C4.79 3 3 4.79 3 7s1.79 4 4 4 4-1.79 4-4-1.79-4-4-4zm0 6c-1.1 0-2-.9-2-2s.9-2 2-2 2 .9 2 2-.9 2-2 2zM16 3c-2.21 0-4 1.79-4 4s1.79 4 4 4 4-1.79 4-4-1.79-4-4-4zm0 6c-1.1 0-2-.9-2-2s.9-2 2-2 2 .9 2 2-.9 2-2 2zM25 3c-2.21 0-4 1.79-4 4s1.79 4 4 4 4-1.79 4-4-1.79-4-4-4zm0 6c-1.1 0-2-.9-2-2s.9-2 2-2 2 .9 2 2-.9 2-2 2z"/><path d="M0 0v60h60V0H0zm2 2h56v10H2V2zm56 56H2V14h56v44z"/><path d="M28 18H6v16h22V18zm-2 14H8V20h18v12zM28 54V38H6v16h22zM13 40c0 .55.45 1 1 1s1-.45 1-1h4c0 .55.45 1 1 1s1-.45 1-1h4c0 .55.45 1 1 1v4c-.55 0-1 .45-1 1s.45 1 1 1v4c-.55 0-1 .45-1 1h-4c0-.55-.45-1-1-1s-1 .45-1 1h-4c0-.55-.45-1-1-1s-1 .45-1 1H9c0-.55-.45-1-1-1v-4c.55 0 1-.45 1-1s-.45-1-1-1v-4c.55 0 1-.45 1-1h4zM54 18H32v16h22V18zm-2 14H34V20h18v12zM54 38H32v16h22V38zm-2 14H34V40h18v12z"/><circle cx="23" cy="43" r="1"/><circle cx="20" cy="46" r="1"/><circle cx="23" cy="49" r="1"/><circle cx="17" cy="43" r="1"/><circle cx="14" cy="46" r="1"/><circle cx="17" cy="49" r="1"/><circle cx="11" cy="43" r="1"/><circle cx="11" cy="49" r="1"/><text y="75" font-size="5" font-weight="bold" font-family="'Helvetica Neue', Helvetica, Arial-Unicode, Arial, Sans-serif">Created by Ben Davis</text><text y="80" font-size="5" font-weight="bold" font-family="'Helvetica Neue', Helvetica, Arial-Unicode, Arial, Sans-serif">from the Noun Project</text></svg>