<svg xmlns="http://www.w3.org/2000/svg" xmlns:xlink="http://www.w3.org/1999/xlink" version="1.1" x="0px" y="0px" viewBox="0 0 60 75" enable-background="new 0 0 60 60" xml:space="preserve"><g><path d="M7,3C4.79,3,3,4.79,3,7s1.79,4,4,4s4-1.79,4-4S9.21,3,7,3z M7,9C5.9,9,5,8.1,5,7s0.9-2,2-2s2,0.9,2,2S8.1,9,7,9z"/><path d="M16,3c-2.21,0-4,1.79-4,4s1.79,4,4,4s4-1.79,4-4S18.21,3,16,3z M16,9c-1.1,0-2-0.9-2-2s0.9-2,2-2s2,0.9,2,2S17.1,9,16,9z"/><path d="M25,3c-2.21,0-4,1.79-4,4s1.79,4,4,4s4-1.79,4-4S27.21,3,25,3z M25,9c-1.1,0-2-0.9-2-2s0.9-2,2-2s2,0.9,2,2S26.1,9,25,9z"/><path d="M0,0v14v46h60V14V0H0z M2,2h56v10H2V2z M58,58H2V14h56V58z"/><path d="M28,18H6v16h22V18z M26,32H8V20h18V32z"/><path d="M28,54V38H6v16H28z M13,40c0,0.55,0.45,1,1,1s1-0.45,1-1h4c0,0.55,0.45,1,1,1s1-0.45,1-1h4c0,0.55,0.45,1,1,1v4   c-0.55,0-1,0.45-1,1c0,0.55,0.45,1,1,1v4c-0.55,0-1,0.45-1,1h-4c0-0.55-0.45-1-1-1s-1,0.45-1,1h-4c0-0.55-0.45-1-1-1s-1,0.45-1,1H9   c0-0.55-0.45-1-1-1v-4c0.55,0,1-0.45,1-1c0-0.55-0.45-1-1-1v-4c0.55,0,1-0.45,1-1H13z"/><path d="M54,18H32v16h22V18z M52,32H34V20h18V32z"/><path d="M54,38H32v16h22V38z M52,52H34V40h18V52z"/><circle cx="23" cy="43" r="1"/><circle cx="20" cy="46" r="1"/><circle cx="23" cy="49" r="1"/><circle cx="17" cy="43" r="1"/><circle cx="14" cy="46" r="1"/><circle cx="17" cy="49" r="1"/><circle cx="11" cy="43" r="1"/><circle cx="11" cy="49" r="1"/></g><text x="0" y="75" fill="#000000" font-size="5px" font-weight="bold" font-family="'Helvetica Neue', Helvetica, Arial-Unicode, Arial, Sans-serif">Created by Ben Davis</text><text x="0" y="80" fill="#000000" font-size="5px" font-weight="bold" font-family="'Helvetica Neue', Helvetica, Arial-Unicode, Arial, Sans-serif">from the Noun Project</text></svg>