<svg xmlns="http://www.w3.org/2000/svg" viewBox="0 0 48 60">
    <switch>
        <g>
            <path
                d="M19.775 24.021l.529-.224-.318-.748.771-.027-1.79-1.646-.063 2.431.554-.534.317.748zM25.051 17.977h13.001v1H25.051v-1zM25.051 21.495h13.001v1H25.051v-1zM25.051 25.014h13.001v1H25.051v-1zM38.552 28.529H24.551v8.037h14.001v-8.037zm-1 7.037H25.551v-6.037h12.001v6.037zM9.582 28.529h13.001v1H9.582v-1zM9.582 32.049h13.001v1H9.582v-1zM9.582 35.566h13.001v1H9.582v-1z" />
            <path d="M23.083 17.977H9.082v8.037h14.001v-8.037zm-1 7.037H10.082v-6.037h12.001v6.037z" />
            <path
                d="M4.374 10.315v29.311H43.26V10.314l-38.886.001zm37.886 28.31H5.374V15.918H42.26v22.707zM15.554 12.583h24.631v1H15.554v-1zm-5.55-.059h1.117v1.116h-1.117v-1.116zm-1.758 0h1.117v1.116H8.246v-1.116zm-1.757 0h1.116v1.116H6.489v-1.116z" />
        </g>
    </switch>
</svg>
