<svg xmlns="http://www.w3.org/2000/svg" width="300" height="57.2"><path d="M278.134 43.732c0-3.961.475-9.666.475-16.32 0-12.36-5.07-16.954-18.855-16.954-6.655 0-12.517.95-16.162 2.535l.476 9.824c3.169-1.743 7.764-3.328 12.2-3.328 6.338 0 8.081 2.535 8.081 8.715v.95h-2.06c-15.528 0-22.816 4.754-22.816 13.469 0 9.031 4.436 14.26 17.27 14.26 6.814 0 13.31-.95 22.025-.95-.634-3.328-.634-8.557-.634-12.201zm-18.063 4.753c-4.753 0-6.813-1.584-6.813-5.545 0-3.803 2.535-6.022 9.031-6.022h1.902c0 3.645-.159 8.081.158 11.092-1.109.317-2.693.475-4.278.475zm-119.787-.475c-7.764 0-11.884-3.961-11.884-10.3v-.316l5.705.158c13.785 0 20.756-4.278 20.756-13.626 0-8.081-5.862-13.31-18.38-13.31-15.37 0-21.39 6.813-22.816 19.014l-8.081-.159v-2.06c0-12.358-5.07-16.953-18.855-16.953-6.655 0-12.518.95-16.162 2.535l.475 9.824c3.17-1.743 7.764-3.328 12.2-3.328 6.339 0 8.24 2.535 8.24 8.715v.95h-2.06c-15.528 0-22.816 4.754-22.816 13.469 0 9.031 4.436 14.26 17.27 14.26 6.814 0 13.31-.95 22.025-.95-.634-3.645-.634-8.874-.634-12.36l.158-6.655 8.081.159c1.268 14.577 8.873 19.806 24.401 19.806 5.704 0 11.567-.95 14.736-2.377l-.475-9.824a22.817 22.817 0 0 1-11.884 3.328zm-53.08.475c-4.754 0-6.813-1.584-6.813-5.545 0-3.803 2.535-6.022 9.031-6.022h1.902c0 3.645-.159 8.081.158 11.092-1.11.317-2.852.475-4.278.475zm41.038-18.855c0-6.18 1.901-10.775 7.606-10.775 3.168 0 5.387 1.743 5.387 4.754 0 4.278-2.852 6.338-8.873 6.338l-4.12-.159zm105.527 5.862v-8.714c0-11.25-4.912-16.162-18.856-16.162-7.764 0-13.31 1.426-22.024 1.426.475 7.922.475 17.588.475 23.609 0 6.18-.158 17.112-.475 20.598h14.894c-.317-3.486-.634-13.785-.634-20.598l.159-15.053c1.426-.475 3.327-.95 5.387-.95 5.229 0 6.972 2.376 6.972 9.19v6.654c0 6.18-.159 17.113-.476 20.599h14.894zm-46.901 10.775l.634 9.824c-1.11.317-4.754.95-9.507.95-9.824 0-15.053-4.12-15.053-14.26l.159-21.39h-5.07v-7.448c7.605-1.267 9.982-5.545 11.25-13.943h8.397l-.634 11.884h8.873v9.507h-9.031v17.27c0 6.655 1.426 8.557 5.862 8.557 1.585 0 3.328-.317 4.12-.951zM17.328 6.497c1.902 0 3.644.633 5.07 2.06l8.24 8.239 8.24-8.24c1.425-1.426 3.168-2.06 5.07-2.06 1.742 0 3.644.634 5.07 2.06l10.14 10.14a7.13 7.13 0 0 1 0 10.142L30.639 57.2 2.118 28.68a7.13 7.13 0 0 1 0-10.142l10.14-10.14c1.426-1.268 3.169-1.902 5.07-1.902m263.658 4.12h7.764v1.585h-3.01v7.922h-1.902V12.2h-3.01zm9.507 0h2.535l1.268 4.12.95 3.644.951-3.644 1.268-4.12H300v9.507h-1.743v-3.486l.159-4.278-1.11 4.12-1.109 3.644h-1.743l-1.109-3.644-1.109-4.12.158 4.278v3.486h-1.742v-9.507z" fill="#7d3f98"/></svg>