<svg xmlns="http://www.w3.org/2000/svg" viewBox="0 0 715.1 170.5"><path class="st0" d="M642.9 75.6v-6.5l-4.3-6.9-.2-.5c0-.3.5-.4 1.4-.4h.9c.7 0 1.1.1 1.3.4l2.6 4.6 2.6-4.6c.2-.3.6-.4 1.3-.4h.8c.9 0 1.3.1 1.3.4l-.2.5-4.3 6.9v6.5c0 .5-.4.7-1.3.7h-.7c-.8-.1-1.2-.3-1.2-.7zm11.7-.3V62c0-.6.3-.9.9-.9h7.8c.4 0 .6.4.6 1.1v.7c0 .7-.2 1.1-.6 1.1h-5.4v3.1h4.8c.4 0 .6.4.6 1.1v.7c0 .7-.2 1.1-.6 1.1h-4.8v3.5h5.4c.4 0 .6.4.6 1.1v.7c0 .7-.2 1.1-.6 1.1h-7.9c-.5-.2-.8-.5-.8-1.1zm13.1.5l.1-.4 4.7-13.8c.1-.3.5-.4 1.2-.4h1.1c.7 0 1.1.2 1.2.4l4.7 13.8.1.4c0 .3-.4.5-1.1.5h-.9c-.7 0-1.1-.1-1.2-.4l-.9-2.6h-5l-.9 2.6c-.1.3-.4.4-1 .4h-.9c-.8-.1-1.2-.2-1.2-.5zm4.9-5.4h3.2l-1.2-3.8-.3-1.4h-.1l-.3 1.4-1.3 3.8zm12.3 5.2V62.1c0-.6.3-.9.9-.9h4.2c3.6 0 5.3 1.3 5.3 4 0 .8-.2 1.5-.7 2.1a4 4 0 0 1-1.8 1.3v.1c.3.1.5.3.8.7l.7 1.3 1.9 4.7.1.4c0 .3-.4.4-1.3.4h-.9c-.7 0-1.1-.1-1.2-.4l-1.7-4.2c-.2-.5-.5-.8-.8-1s-.7-.3-1.4-.3h-.8v5.2c0 .5-.4.7-1.3.7h-.7c-.9 0-1.3-.2-1.3-.6zm3.3-8.1h2a2 2 0 0 0 1.2-.5c.3-.4.5-.8.5-1.3s-.2-.9-.5-1.2c-.3-.3-.8-.4-1.3-.4h-1.9v3.4zm11.6 7c0-.3.2-.7.5-1.2s.6-.7.8-.7l.6.2a5 5 0 0 0 2.6.7c1.3 0 2-.5 2-1.6 0-.5-.2-.8-.6-1.2-.4-.3-.9-.6-1.6-.8l-1.8-.8c-.6-.3-1.1-.8-1.5-1.4s-.6-1.4-.6-2.4.3-1.8.8-2.5c.9-1.2 2.4-1.9 4.3-1.9 1.1 0 2 .2 2.7.5s1.1.7 1.1 1-.1.7-.4 1.2c-.3.5-.5.7-.8.7l-.4-.1c-.6-.3-1.2-.4-2-.4s-1.3.1-1.6.4-.4.6-.4 1 .2.7.6 1 .9.6 1.5.8l1.8.8c.6.3 1.1.8 1.6 1.4.4.6.6 1.4.6 2.3s-.1 1.7-.4 2.3c-.3.6-.7 1.1-1.1 1.5-.9.7-2.1 1-3.5 1s-2.5-.2-3.4-.6c-.9-.4-1.4-.8-1.4-1.2z"/><path class="st0" d="M709.7 128.2v1.8a35.6 35.6 0 0 1-33.3 34 33 33 0 0 1-15.2-2.2 35.8 35.8 0 0 1-12-7.9 62 62 0 0 1-9.7-13l-8.8-15.6c-2.4-4.4-5-8.7-8.2-12.6s-7-7.1-11.9-8.8a26.3 26.3 0 0 0-11.9-1.1c-2.2.4-5.3 1.4-6.7 1.8-.5.2-1-.2-1-.7v-7l.2-.5L613 70.8h-37.2c-.4 0-.8-.3-.8-.7V62c0-.4.3-.8.8-.8h52.7c.4 0 .7.3.7.7v7.5l-4.1 4.7-16.6 18.8a34.2 34.2 0 0 1 16.3 7.8c3.7 3.2 6.7 6.9 9.4 10.9 3.7 5.5 6.8 11.5 10 17.3a98 98 0 0 0 7.6 12.4c2.5 3.4 5.3 6.5 8.8 8.8s7.2 3.4 11.3 3.7a24 24 0 0 0 13.4-2.8 25 25 0 0 0 13.3-17.3c2.2-9.5-1.4-19-8.4-25l6.1-8.2a34.8 34.8 0 0 1 13.2 25.2l.2 2.5z"/><path fill="none" stroke="#152f4e" stroke-miterlimit="10" d="M507.9 61.5v103.1"/><path class="st2" d="M398.9 99.5c2.8-40.7-25.2-57.2-25.2-57.2s45.7 3.6 70.8 21.8l-43.9 34-1.7 1.4z"/><path class="st0" d="M386 94.5V78.3h-2.5l-2.8 3.1a14.7 14.7 0 0 0-5.4-2.8c-2-.6-4.8-1-6.8-1a14 14 0 0 0-14.1 13.9c0 6.8 4.5 11.6 12.7 13.7l6.5 1.7c4.9 1.2 7.3 3.6 7.3 7.2 0 3.9-3.7 7-8.4 7-3.6 0-7.4-1.6-10.3-4.4-2.6-2.5-3.9-4.9-6-10.9h-2.7V123h2.7l3.8-3.6a21.4 21.4 0 0 0 12.8 4.3c8.5 0 14.7-6.1 14.7-14.5 0-4.2-1.3-7.6-3.8-9.7-.9-.8-2.2-1.5-3.6-2.2a83.4 83.4 0 0 0-10.6-3.4c-2-.5-3.5-1-4.7-1.5a6 6 0 0 1-3.7-5.4c0-3.8 3.8-6.8 8.7-6.8 6.3 0 10.2 4 14 14.3h2.2zm-49.7-13.4h.4c1.4 0 3.3.2 4.2.5 2.4.7 3.2 2.8 3.2 8.3v18c0 4-.9 7-2.6 9.1-2 2.3-5.8 3.9-9.6 3.9-3.4 0-6.5-1.2-8.5-3.3-2.5-2.5-3.6-6.5-3.6-13.1V87.6c0-5.9.5-6.4 5.5-6.4h.8v-2.8h-22.5v2.8h.8c5 0 5.5.6 5.5 6.4v18.6c0 5.2.9 8.7 2.9 11.3 2.9 3.8 9.3 6.2 16.6 6.2 7.5 0 13.2-2.5 15.9-6.9 1.5-2.5 2.1-5.2 2.1-10.1V89.9c0-7.1 1-8.7 5.7-8.7h.5v-2.8h-17v2.7h-.3zm-77.8-2.8v2.8h.7l1.7.1c3.4.1 4 .9 4 6.4v26.1c0 5.4-.6 6.3-4 6.3l-1.7.1h-.7v2.8h26.6c5.8 0 9.3-.8 12.9-2.7 3.7-2 5.9-5.5 5.9-9.3 0-3.2-1.7-6.3-4.6-8a25.3 25.3 0 0 0-10.8-3.1v-.1c8.4-1.4 12.4-4.9 12.4-10.9 0-7.2-5.2-10.4-16.9-10.4l-25.5-.1zm16.6 19.9V84.4c0-3 .2-3.3 3.3-3.3h4.1c3.3 0 5.2.7 6.6 2.3a9.1 9.1 0 0 1 2.1 6c0 4.4-2.6 7.8-6.3 8.5-.9.2-1.9.2-3.1.2l-6.7.1zm0 3h6.8c7 0 10.9 3.3 10.9 9.3 0 5.8-3.7 9.4-9.7 9.4h-4.7c-2.8 0-3.3-.6-3.3-3.7v-15zm-68.9-19.5h.1l16.1 41h2l14-41h.1v31.8c0 5.7-.5 6.4-5 6.4h-1.3v2.8h22.3v-2.8h-.7l-1.7-.1c-3.4-.1-4-.9-4-6.4V87.3c0-6 .2-6.3 5.6-6.4h.9v-2.8h-18.4l-9.8 28.6-11.2-28.6H197v2.8h1.2c4.8.1 5.1.5 5.1 6.4v23.8c0 6.1-1.8 8.6-6.1 8.7v2.8h16.4v-2.8a8 8 0 0 1-3.8-.8c-2.5-1.2-3.4-3.3-3.4-8V81.7h-.2zm-29.7-.6h.4c1.4 0 3.3.2 4.2.5 2.4.7 3.2 2.8 3.2 8.3v18c0 4-.9 7-2.6 9.1-2 2.3-5.8 3.9-9.6 3.9-3.4 0-6.5-1.2-8.6-3.3-2.5-2.5-3.6-6.5-3.6-13.1V87.6c0-5.9.5-6.4 5.5-6.4h.8v-2.8h-22.5v2.8h.8c5 0 5.5.6 5.5 6.4v18.6c0 5.2.9 8.7 2.9 11.3 3 3.8 9.4 6.2 16.6 6.2 7.5 0 13.2-2.5 15.9-6.9 1.5-2.5 2.1-5.2 2.1-10.1V89.9c0-7.1 1-8.7 5.7-8.7h.5v-2.8h-17v2.7h-.2zm-31.7 41.7l1-16.4h-2.5c-1 4.1-2.2 6.8-3.9 9.1a12.1 12.1 0 0 1-9.7 4.6h-4.5c-5.7 0-6.6-.6-6.6-4.3V87.6c0-5.4.6-6.3 4.1-6.3l1.8-.1h.7v-2.8h-23v2.8h.7l1.8.1c3.4.1 4 .9 4 6.3v26.1c0 5.4-.6 6.3-4 6.4l-1.8.1h-.7v2.8h42.6v-.2zM76.7 77.6a24 24 0 0 0-23.4 23.5c0 4.2 1.2 8.5 3.6 12.2a21.8 21.8 0 0 0 19.8 10.3c4.2 0 8.1-.8 11.2-2.4a23 23 0 0 0 12.2-20.1 24 24 0 0 0-23.4-23.5zm.1 2.5c8.1 0 12.2 6.9 12.2 20.5 0 7.4-1 13-3.1 16.1-1.8 2.6-5.2 4.2-9.2 4.2-8.4 0-12.4-6.3-12.4-19.4 0-14.3 4.1-21.4 12.5-21.4zM46 107.8a16.2 16.2 0 0 1-3.8 7.9 15.2 15.2 0 0 1-11.5 5.4c-2.6 0-5.1-.7-7.2-2-4.5-3-6.5-8.7-6.5-18.7 0-12.7 4.9-20.1 13-20.1 3.6 0 6.6 1.4 9.2 4.1 1.2 1.3 2.2 2.6 3 4.2 1.2 2.2 1.6 3.3 2.8 7h2.6l-.9-17.8h-2.5l-3.4 3.1a20.5 20.5 0 0 0-11.7-3.1A23 23 0 0 0 5.4 101a24 24 0 0 0 6.5 16.7c3.9 3.8 10.3 6 17 6 6.9 0 12.4-2.4 15.9-6.9a20 20 0 0 0 3.8-8.9l-2.6-.1zm398.5-43.7l-45.8 35.4s26.1-39.9 18.4-93.6c0 0 22.4 29.5 27.4 58.2z"/><path class="st2" d="M247.8 161.2v-28.1c0-.9.4-1.3 1.3-1.3h8.9c4.1 0 7.4 1.2 9.9 3.7 2.5 2.4 3.7 6.4 3.7 11.7 0 5.4-1.2 9.3-3.7 11.7s-5.8 3.7-9.9 3.7h-8.9c-.9-.1-1.3-.5-1.3-1.4zm3.8-2h6c3 0 5.3-1 7.2-2.9 1.8-1.9 2.7-5 2.7-9.1s-.9-7.2-2.7-9.1a9.5 9.5 0 0 0-7.2-2.9h-6v24zm26.3 2.5v-29c0-.6.6-1 1.8-1h.4c1.2 0 1.8.3 1.8 1v29c0 .6-.6 1-1.8 1h-.4c-1.2-.1-1.8-.4-1.8-1zm11.8 0v-28.6c0-.9.4-1.3 1.3-1.3h7.4c3.5 0 6.2.6 7.9 1.9 1.8 1.2 2.7 3.2 2.7 5.9 0 3.6-1.7 6.1-5.1 7.4v.2c.8.3 1.6.9 2.1 1.7a17 17 0 0 1 1.8 3.8l3.4 8.7.1.6c0 .5-.6.7-1.8.7h-.4c-1 0-1.6-.2-1.8-.7l-3.3-8.6a6.6 6.6 0 0 0-2.4-3.4c-1-.6-2.3-.9-4.1-.9h-4v12.7c0 .6-.6 1-1.8 1h-.4c-1-.2-1.6-.5-1.6-1.1zm3.9-16h5.8c1.6 0 2.9-.5 4-1.6s1.6-2.4 1.6-4-.5-2.8-1.6-3.7-2.5-1.3-4.4-1.3h-5.5v10.6h.1zm22.8 15.5v-28.1c0-.9.4-1.3 1.3-1.3H333c.6 0 .9.4.9 1.3v.7c0 .9-.3 1.3-.9 1.3h-12.8v10h11.5c.6 0 .9.4.9 1.3v.7c0 .9-.3 1.3-.9 1.3h-11.5v10.7h12.9c.6 0 .9.4.9 1.3v.7c0 .9-.3 1.3-.9 1.3h-15.4c-.9.1-1.3-.3-1.3-1.2zm21.6-14c0-10.4 4.7-15.6 14.2-15.6 2.1 0 4 .3 5.8.9 1.7.6 2.6 1.2 2.6 1.8 0 .4-.2.9-.5 1.6-.4.6-.7 1-.9 1l-.9-.5-2.4-1c-1.1-.3-2.2-.5-3.4-.5-3.5 0-6.1 1-7.8 2.9-1.7 2-2.5 5.1-2.5 9.3 0 4.3.8 7.4 2.5 9.4s4.2 3 7.7 3c1.3 0 2.6-.2 3.7-.5 1.2-.4 2.1-.7 2.7-1.1.6-.4 1-.5 1.1-.5.3 0 .6.3 1 1 .4.6.6 1.1.6 1.4 0 .7-.9 1.4-2.7 2.1s-3.9 1.1-6.4 1.1c-4.8 0-8.4-1.3-10.7-3.8-2.6-2.7-3.7-6.7-3.7-12zm35.8 14.5v-26.5h-8.4c-.6 0-.9-.4-.9-1.3v-.7c0-.9.3-1.3.9-1.3H386c.6 0 .9.4.9 1.3v.7c0 .9-.3 1.3-.9 1.3h-8.3v26.5c0 .6-.6 1-1.8 1h-.4c-1.1-.1-1.7-.4-1.7-1z"/><linearGradient id="a" gradientUnits="userSpaceOnUse" x1="566.5" y1="60.3" x2="696.5" y2="60.3" gradientTransform="translate(0 68)"><stop offset="0" stop-color="#36a9e1"/><stop offset=".9" stop-color="#152f4e"/></linearGradient><path d="M696.5 100.7l-6.2 8.1a28.4 28.4 0 0 0-10.5-5.4 25 25 0 0 0-24.2 6.9c-3.6 3.4-7.3 9.4-7.5 9.7l-5.8-9.7.6-.8c2.4-3.2 12.3-18.3 33.2-17 11.7.6 19.7 7.6 20.4 8.2zm-68.9 35.6l-.3-.5-.4.7c-2.4 3.9-5 7.6-8.4 10.8-2 1.9-4.3 3.5-6.9 4.6-4.1 1.8-8.3 2.3-12.8 1.8a26.1 26.1 0 0 1-21.9-18.6.8.8 0 0 0-.7-.5h-9c-.5 0-.8.4-.7.9a35.7 35.7 0 0 0 17 23.7 34.7 34.7 0 0 0 15.7 4.8 33.8 33.8 0 0 0 25.2-8.3c3.2-2.7 5.8-5.9 8.2-9.3l.4-.6-5.4-9.5z" fill="url(#a)"/></svg>