<svg xmlns="http://www.w3.org/2000/svg" version="1.1" id="Layer_1" x="0" y="0" xml:space="preserve" width="300" height="107.333"><style type="text/css" id="style2">.st0{fill:#152f4e}.st2{fill:#0bbbef}</style><path class="st2" d="M268.845 63.949c1.913-27.807-17.217-39.08-17.217-39.08S282.851 27.33 300 39.763l-29.993 23.23z" id="path20" fill="#0bbbef" stroke-width=".683"/><g id="g38" transform="translate(-3.69 -4.031) scale(.68322)"><path class="st0" d="M386 94.5V78.3h-2.5l-2.8 3.1c-2.2-1.7-3.3-2.1-5.4-2.8-2-.6-4.8-1-6.8-1-7.9 0-14.1 6.2-14.1 13.9 0 6.8 4.5 11.6 12.7 13.7l6.5 1.7c4.9 1.2 7.3 3.6 7.3 7.2 0 3.9-3.7 7-8.4 7-3.6 0-7.4-1.6-10.3-4.4-2.6-2.5-3.9-4.9-6-10.9h-2.7V123h2.7l3.8-3.6c1.7 1.2 2.5 1.7 3.9 2.3 2.7 1.3 6 2 8.9 2 8.5 0 14.7-6.1 14.7-14.5 0-4.2-1.3-7.6-3.8-9.7-.9-.8-2.2-1.5-3.6-2.2-2.8-1.2-6.5-2.3-10.6-3.4-2-.5-3.5-1-4.7-1.5-2.2-1-3.7-3.1-3.7-5.4 0-3.8 3.8-6.8 8.7-6.8 6.3 0 10.2 4 14 14.3z" id="path22" fill="#152f4e"/><path class="st0" d="M336.3 81.1h.4c1.4 0 3.3.2 4.2.5 2.4.7 3.2 2.8 3.2 8.3v18c0 4-.9 7-2.6 9.1-2 2.3-5.8 3.9-9.6 3.9-3.4 0-6.5-1.2-8.5-3.3-2.5-2.5-3.6-6.5-3.6-13.1V87.6c0-5.9.5-6.4 5.5-6.4h.8v-2.8h-22.5v2.8h.8c5 0 5.5.6 5.5 6.4v18.6c0 5.2.9 8.7 2.9 11.3 2.9 3.8 9.3 6.2 16.6 6.2 7.5 0 13.2-2.5 15.9-6.9 1.5-2.5 2.1-5.2 2.1-10.1V89.9c0-7.1 1-8.7 5.7-8.7h.5v-2.8h-17v2.7z" id="path24" fill="#152f4e"/><path class="st0" d="M258.5 78.3v2.8h.7l1.7.1c3.4.1 4 .9 4 6.4v26.1c0 5.4-.6 6.3-4 6.3l-1.7.1h-.7v2.8h26.6c5.8 0 9.3-.8 12.9-2.7 3.7-2 5.9-5.5 5.9-9.3 0-3.2-1.7-6.3-4.6-8-2.7-1.6-5.6-2.5-10.8-3.1v-.1c8.4-1.4 12.4-4.9 12.4-10.9 0-7.2-5.2-10.4-16.9-10.4zm16.6 19.9V84.4c0-3 .2-3.3 3.3-3.3h4.1c3.3 0 5.2.7 6.6 2.3 1.4 1.6 2.1 3.8 2.1 6 0 4.4-2.6 7.8-6.3 8.5-.9.2-1.9.2-3.1.2zm0 3h6.8c7 0 10.9 3.3 10.9 9.3 0 5.8-3.7 9.4-9.7 9.4h-4.7c-2.8 0-3.3-.6-3.3-3.7z" id="path26" fill="#152f4e"/><path class="st0" d="M206.2 81.7h.1l16.1 41h2l14-41h.1v31.8c0 5.7-.5 6.4-5 6.4h-1.3v2.8h22.3v-2.8h-.7l-1.7-.1c-3.4-.1-4-.9-4-6.4V87.3c0-6 .2-6.3 5.6-6.4h.9v-2.8h-18.4l-9.8 28.6-11.2-28.6H197v2.8h1.2c4.8.1 5.1.5 5.1 6.4v23.8c0 6.1-1.8 8.6-6.1 8.7v2.8h16.4v-2.8c-1.9-.1-2.6-.2-3.8-.8-2.5-1.2-3.4-3.3-3.4-8V81.7z" id="path28" fill="#152f4e"/><path class="st0" d="M176.5 81.1h.4c1.4 0 3.3.2 4.2.5 2.4.7 3.2 2.8 3.2 8.3v18c0 4-.9 7-2.6 9.1-2 2.3-5.8 3.9-9.6 3.9-3.4 0-6.5-1.2-8.6-3.3-2.5-2.5-3.6-6.5-3.6-13.1V87.6c0-5.9.5-6.4 5.5-6.4h.8v-2.8h-22.5v2.8h.8c5 0 5.5.6 5.5 6.4v18.6c0 5.2.9 8.7 2.9 11.3 3 3.8 9.4 6.2 16.6 6.2 7.5 0 13.2-2.5 15.9-6.9 1.5-2.5 2.1-5.2 2.1-10.1V89.9c0-7.1 1-8.7 5.7-8.7h.5v-2.8h-17v2.7z" id="path30" fill="#152f4e"/><path class="st0" d="M144.8 122.8l1-16.4h-2.5c-1 4.1-2.2 6.8-3.9 9.1-2.1 2.8-5.7 4.6-9.7 4.6h-4.5c-5.7 0-6.6-.6-6.6-4.3V87.6c0-5.4.6-6.3 4.1-6.3l1.8-.1h.7v-2.8h-23v2.8h.7l1.8.1c3.4.1 4 .9 4 6.3v26.1c0 5.4-.6 6.3-4 6.4l-1.8.1h-.7v2.8h42.6z" id="path32" fill="#152f4e"/><path class="st0" d="M76.7 77.6c-12.6 0-23.4 10.9-23.4 23.5 0 4.2 1.2 8.5 3.6 12.2 4.4 6.9 10.9 10.3 19.8 10.3 4.2 0 8.1-.8 11.2-2.4 7.3-3.7 12.2-11.8 12.2-20.1-.1-12.7-10.9-23.5-23.4-23.5zm.1 2.5c8.1 0 12.2 6.9 12.2 20.5 0 7.4-1 13-3.1 16.1-1.8 2.6-5.2 4.2-9.2 4.2-8.4 0-12.4-6.3-12.4-19.4 0-14.3 4.1-21.4 12.5-21.4z" id="path34" fill="#152f4e"/><path class="st0" d="M46 107.8c-1.1 4.1-1.8 5.6-3.8 7.9-2.9 3.4-7.1 5.4-11.5 5.4-2.6 0-5.1-.7-7.2-2-4.5-3-6.5-8.7-6.5-18.7 0-12.7 4.9-20.1 13-20.1 3.6 0 6.6 1.4 9.2 4.1 1.2 1.3 2.2 2.6 3 4.2 1.2 2.2 1.6 3.3 2.8 7h2.6l-.9-17.8h-2.5l-3.4 3.1c-3.6-2.2-6.9-3.1-11.7-3.1-13.5 0-23.7 10-23.7 23.2 0 6.3 2.5 12.9 6.5 16.7 3.9 3.8 10.3 6 17 6 6.9 0 12.4-2.4 15.9-6.9 2-2.6 2.6-4.2 3.8-8.9z" id="path36" fill="#152f4e"/></g><path class="st0" d="M300 39.763L268.709 63.95S286.54 36.689 281.279 0c0 0 15.305 20.155 18.721 39.763z" id="path40" fill="#152f4e" stroke-width=".683"/><path class="st2" d="M165.611 106.103V86.905c0-.615.274-.888.889-.888h6.08c2.801 0 5.056.82 6.764 2.528 1.708 1.64 2.528 4.372 2.528 7.993 0 3.69-.82 6.354-2.528 7.994-1.708 1.64-3.963 2.528-6.764 2.528h-6.08c-.615-.068-.889-.342-.889-.957zm2.597-1.366h4.099c2.05 0 3.621-.683 4.92-1.981 1.229-1.298 1.844-3.416 1.844-6.218 0-2.8-.615-4.919-1.845-6.217s-2.87-1.981-4.919-1.981h-4.1z" id="path42" fill="#0bbbef" stroke-width=".683"/><path class="st2" d="M186.176 106.445V86.632c0-.41.41-.683 1.23-.683h.273c.82 0 1.23.204 1.23.683v19.813c0 .41-.41.683-1.23.683h-.273c-.82-.068-1.23-.273-1.23-.683z" id="path44" fill="#0bbbef" stroke-width=".683"/><path class="st2" d="M194.238 106.445v-19.54c0-.615.274-.888.888-.888h5.056c2.391 0 4.236.41 5.398 1.298 1.23.82 1.844 2.186 1.844 4.03 0 2.46-1.161 4.169-3.484 5.057v.136a2.952 2.952 0 0 1 1.435 1.162c.41.615.82 1.435 1.23 2.596l2.322 5.944c.069.205.069.342.069.41 0 .342-.41.478-1.23.478h-.273c-.684 0-1.094-.136-1.23-.478l-2.255-5.876c-.41-1.161-1.025-1.913-1.64-2.323-.683-.41-1.57-.615-2.8-.615h-2.734v8.677c0 .41-.41.684-1.23.684h-.273c-.683-.137-1.093-.342-1.093-.752zm2.665-10.931h3.962c1.094 0 1.982-.342 2.733-1.094.752-.751 1.093-1.64 1.093-2.732 0-1.094-.341-1.913-1.093-2.528-.751-.615-1.708-.889-3.006-.889h-3.758v7.243z" id="path46" fill="#0bbbef" stroke-width=".683"/><path class="st2" d="M212.48 106.103V86.905c0-.615.273-.888.888-.888h10.453c.41 0 .615.273.615.888v.478c0 .615-.205.888-.615.888h-8.745v6.833h7.857c.41 0 .615.273.615.888v.478c0 .615-.205.888-.615.888h-7.857v7.31h8.814c.41 0 .615.274.615.889v.478c0 .615-.205.888-.615.888h-10.522c-.615.069-.888-.205-.888-.82z" id="path48" fill="#0bbbef" stroke-width=".683"/><path class="st2" d="M227.238 96.538c0-7.105 3.21-10.658 9.701-10.658 1.435 0 2.733.205 3.963.615 1.161.41 1.776.82 1.776 1.23 0 .273-.136.615-.341 1.093-.274.41-.479.683-.615.683-.069 0-.274-.136-.615-.341-.41-.205-.957-.41-1.64-.684-.751-.205-1.503-.341-2.323-.341-2.391 0-4.167.683-5.329 1.981-1.161 1.367-1.708 3.485-1.708 6.354 0 2.938.547 5.056 1.708 6.422 1.162 1.367 2.87 2.05 5.26 2.05.889 0 1.777-.137 2.529-.342.82-.273 1.434-.478 1.844-.751.41-.274.684-.342.752-.342.205 0 .41.205.683.683.273.41.41.752.41.957 0 .478-.615.956-1.845 1.435-1.23.478-2.664.751-4.372.751-3.28 0-5.74-.888-7.31-2.596-1.777-1.845-2.528-4.578-2.528-8.199z" id="path50" fill="#0bbbef" stroke-width=".683"/><path class="st2" d="M251.697 106.445V88.34h-5.74c-.41 0-.614-.273-.614-.888v-.479c0-.615.205-.888.615-.888h14.074c.41 0 .615.273.615.888v.479c0 .615-.205.888-.615.888h-5.67v18.105c0 .41-.41.683-1.23.683h-.274c-.751-.068-1.161-.273-1.161-.683z" id="path52" fill="#0bbbef" stroke-width=".683"/><linearGradient id="SVGID_1_" gradientUnits="userSpaceOnUse" x1="566.481" y1="60.267" x2="696.5" y2="60.267" gradientTransform="translate(0 68)"><stop offset="0" id="stop54" stop-color="#36a9e1"/><stop offset=".925" id="stop56" stop-color="#152f4e"/></linearGradient></svg>