<svg xmlns="http://www.w3.org/2000/svg" width="300" height="208.698"><path d="M164.98 125.514a83.184 83.184 0 0 1-83.183 83.184A83.184 83.184 0 0 1 0 125.514a83.184 83.184 0 0 1 81.797-83.183 83.184 83.184 0 0 1 83.184 83.183z" fill="#80e5ff"/><path d="M164.98 125.514a83.184 83.184 0 0 1-83.183 83.184A83.184 83.184 0 0 1 0 125.514a83.184 83.184 0 0 1 81.797-83.183 83.184 83.184 0 0 1 83.184 83.183z" fill="none"/><path d="M101.207 52.036h-2.773l-1.387 4.159v2.772H80.411l-9.705 2.773-1.386 4.16v1.386h-1.387l-2.773 1.386v1.387l2.773 1.386 8.319 5.546h-2.773v2.772h8.318l5.546 4.16h4.159l8.318-1.387h2.773V81.15l4.16-2.773v-9.705h-1.387 4.159l-1.386 8.319h-4.16l-2.772 4.159c-1.387 2.773-1.387 2.773-5.546 2.773l-13.864-1.387h-5.545v4.16h2.772-5.545l-5.546-2.773a13.864 13.864 0 0 0-15.25 0l-2.773-1.387V81.15h-4.16s-1.385 0 0 0v-1.387l-1.385-2.772h-2.773l-1.387-4.16h-8.318l-8.318 9.705 1.386 2.773h5.546-1.387c-1.386 2.773-1.386 2.773-4.159 0-4.16 0-4.16 0-5.546 2.773 0 0-1.386 0 0 2.772l-1.386 1.387-1.386 1.386-1.387 5.546v2.773L13.864 96.4l-1.386-2.773-1.387 1.387c0 2.772-2.773 8.318 0 13.864v1.386H8.318l-2.772 12.478v15.25a110.911 110.911 0 0 0 16.636 37.432l12.478 13.864a83.184 83.184 0 0 0 38.819 13.864c23.568 4.16 44.364-2.773 61.001-19.41a83.184 83.184 0 0 0 19.41-24.954l5.545-20.796v-23.569a97.048 97.048 0 0 0-8.318-27.728l-6.932-9.704-5.546-8.319c-4.159-4.159-4.159-5.545-6.932-5.545-4.159 0-9.704-2.773-11.09 0v1.386c5.545 2.773 8.317 5.546 8.317 6.932 0 1.386 0 1.386-1.386 0l-8.318-6.932c-1.387 0-2.773 0-2.773-2.773 0 0-1.386-2.773-5.546-4.159h-1.386v-2.773l-4.16-2.772zm-18.023 8.318l2.772 1.386-2.772 1.387-2.773 2.772-4.16 1.387-1.386-2.773h4.16c2.772 0 2.772 0 2.772-2.773zm11.09 9.705h2.773l2.773 4.159h-1.386L95.66 72.83h-5.546v-2.77zm23.57 2.772h2.772c0 2.773 2.773 2.773 2.773 4.16l-2.773 5.545h-5.545c2.772-2.773 4.159-4.159 2.772-6.932zM36.045 90.854h1.387l-8.319 6.932-2.773 5.546v1.386c0 1.387-1.386 0-1.386 0l2.773-6.932 1.386-2.772h2.773c1.386-4.16 2.773-4.16 4.16-4.16zm30.5 4.16h4.16l2.773 2.772v2.773h-2.773L65.16 96.4s2.773-1.386 2.773 0zm44.365 0l2.773 1.386 2.773 1.386v5.546h-1.386v-2.773c0-2.773 0-2.773-2.773-2.773l-2.773 1.387-1.386 1.386h-2.773l-2.773-2.773h2.773v-2.772zm-59.614 5.545h4.159L61 106.105c2.773 1.386 2.773 6.932 2.773 9.705h-1.386v-2.773l-4.16-6.932h-5.545l-5.546 1.386h-4.159c-1.386 1.387-4.159 4.16-4.159 6.932l1.386 2.773h4.16l2.772-1.386-1.386-1.387c-1.386 0-1.386-1.386 0-1.386l2.773-1.387h4.159l2.773 2.773v2.773l-6.932 5.546H45.75c-1.386 0-1.386 2.772-4.16 2.772h-5.545c-5.545-1.386-8.318-1.386-8.318-4.159-1.387-2.773-1.387-2.773 1.386-1.386 1.387 2.773 4.16 2.773 6.932 2.773h1.387v-2.773c-4.16-2.773-5.546-4.16-5.546-9.705l1.386-2.773 4.16-5.545v1.386h13.864zm48.523 0v1.387l4.16 1.386h-6.933c-1.386 0-1.386 0 0 0v-2.773h4.16zm49.91 2.773v1.386c2.773 2.773 4.16 6.932 4.16 11.092 0 2.772 0 4.159-1.387 2.772l-2.773-2.772h-2.772l-4.16 4.159h-2.772l-1.387-1.387 2.773-1.386 4.16-8.318h2.772v-4.16zM23.57 106.105l1.386 4.159v8.318l-2.773-5.545-1.386-2.773zm-8.319 13.864h2.773c1.386 2.773 5.546 4.159 9.705 5.545H30.5l-5.546 2.773-4.16-2.773-2.772-2.772v-2.773s-2.773 0 0 0zm45.751 0v9.704l-5.545 9.705-5.546 4.16h-1.386l4.159-4.16s2.773 0 4.16-2.773v-4.159l-1.387-1.386-2.773 1.386-1.386 1.387v-2.773l8.318-8.318v-1.387zm19.41 0c0 2.773 0 2.773 2.773 4.159v11.091c-1.387 1.386-1.387 1.386-1.387 0v-2.773l-1.386-2.773c0-1.386 0-2.772-2.773 0v-6.931l2.773-1.387zm-69.32 0v4.159l2.773 4.16c1.386 0 2.773 0 2.773 2.772h1.386v2.773h15.25l1.387 2.772-6.932 1.387-4.16 1.386-9.704-1.386c-2.773-1.387-4.16-4.16-5.546-9.705l1.387-6.932zm113.684 4.159h2.773l8.318 8.318c2.773-1.386 0-4.159 0-5.545v-1.387l4.16 6.932v9.705c2.772 2.773-1.387 8.318-6.932 11.091-2.773 2.773-2.773 2.773-6.932 2.773-5.546 1.386-8.319 0-11.091 0-2.773-2.773-2.773-4.16-1.387-4.16h9.705c2.773 0 5.545 0 5.545-2.772v-2.773c4.16-4.159 4.16-4.159 4.16-6.932-1.387-4.159-2.773-6.932-5.546-8.318-2.773 0-2.773-1.387-1.386-1.387v-4.159zm22.183 18.023v5.546l-2.773 1.386v-5.546h2.773zm-106.753 4.16h1.387v1.386l-2.773 1.386-2.773 1.386H34.66l-1.387-2.772h6.932zm54.07 9.704s0 2.773 2.772 2.773c2.773 0 2.773 0 0 0-4.159 0-5.545 0-5.545 4.159h-1.387v-6.932zm-67.934 2.773h1.387l-1.387 2.772c-2.772 0-2.772 2.773-4.159 4.16h-1.386l-1.387-2.773v-1.387h1.387l4.16-1.386zm27.728 5.545l-2.772 2.773c-6.932 4.16-9.705 5.546-11.092 9.705v4.159c1.387 1.386 1.387 1.386 0 1.386l-2.772-4.159 1.386-5.545c2.773-4.16 1.386-6.932-4.16-6.932-1.386 0-1.386 0 0 0h9.706zm55.456 0h9.705c4.159 0 5.545 0 4.159 2.773h-5.546l-8.318-1.386zM31.887 72.831c-1.386 0-1.386 0 0 0h6.932z" fill="#37abc8"/><g clip-path="url(#id140)" transform="matrix(7.57663 0 0 -7.8334 -113.684 5994.112)"><path d="M54.6 752.6c0-7.3-5.5-12.9-13.5-12.9h-7.7c1.5 1 2.8 2.5 3.8 4.1h4c5.3 0 8.8 3.6 8.8 8.6s-3.5 8.7-8.9 8.7h-5v-3.7a12.1 12.1 0 0 1-4.5 3.4v4.4H41c8 0 13.5-5.5 13.5-12.7"/></g></svg>