<svg xmlns="http://www.w3.org/2000/svg" width="100" height="21">
  <path d="M12.6 9.8a6 6 0 0 1-6 6 6 6 0 0 1-5.9-6 6 6 0 0 1 5.9-6 6 6 0 0 1 6 6z" fill="#80e5ff"/>
  <path d="M12.6 9.8a6 6 0 0 1-6 6 6 6 0 0 1-5.9-6 6 6 0 0 1 5.9-6 6 6 0 0 1 6 6z" fill="none"/>
  <path d="M8 4.5h-.2l-.1.3V5h-.1-1.1l-.7.2-.1.3v.1h-.1l-.2.1v.1l.2.1.6.4H6v.2h.6l.4.3h.3l.6-.1h.2v-.1l.3-.2V6v-.3h-.1.3l-.1.6h-.3l-.2.3c-.1.2-.1.2-.4.2l-1-.1h-.4V7h.2L6 7l-.4-.2a1 1 0 0 0-1.1 0l-.2-.1v-.1H4s-.1 0 0 0v-.1l-.1-.2h-.2L3.6 6 3.4 6H3l-.6.7.1.2h.4-.1c-.1.2-.1.2-.3 0-.3 0-.3 0-.4.2 0 0-.1 0 0 .2l-.1.1-.1.1-.1.4v.2l-.1-.4-.1-.2-.1.1c0 .2-.2.6 0 1v.1h-.2l-.2.9v1.1a8 8 0 0 0 1.2 2.7l.9 1a6 6 0 0 0 2.8 1c1.7.3 3.2-.2 4.4-1.4a6 6 0 0 0 1.4-1.8l.4-1.5V9a7 7 0 0 0-.6-2l-.5-.7-.4-.6c-.3-.3-.3-.4-.5-.4-.3 0-.7-.2-.8 0v.1c.4.2.6.4.6.5 0 .1 0 .1-.1 0l-.6-.5c-.1 0-.2 0-.2-.2 0 0-.1-.2-.4-.3h-.1v-.2l-.3-.2H8zm-1.3.6l.2.1-.2.1-.2.2-.3.1-.1-.2h.3c.2 0 .2 0 .2-.2zm.8.7h.2l.2.3h-.1L7.6 6h-.3-.1v-.2h.3zm1.7.2h.2c0 .2.2.2.2.3l-.2.4H9c.2-.2.3-.3.2-.5L9.2 6V6zM2 6.3h-.2c-.2 0-.3.2-.3.4l.2-.1.3-.2v-.1zm1.3 1h.1l-.6.5-.2.4v.1c0 .1-.1 0-.1 0l.2-.5.1-.2h.2c.1-.3.2-.3.3-.3zm2.2.3h.3l.2.2V8H6C6 8 6 8 5.8 8l-.4-.3s.2-.1.2 0zm3.2 0l.2.1.2.1v.4H9V8c0-.2 0-.2-.2-.2l-.2.1-.1.1h-.2l-.2-.2h.2v-.2h.4zM4.4 8h.3l.4.4c.2.1.2.5.2.7h-.1v-.2l-.3-.5h-.4l-.4.1h-.3c-.1.1-.3.3-.3.5l.1.2h.3l.2-.1L4 9c-.1 0-.1-.1 0-.1l.2-.1h.3l.2.2v.2l-.5.4H4c-.1 0-.1.2-.3.2h-.4c-.4-.1-.6-.1-.6-.3-.1-.2-.1-.2.1-.1.1.2.3.2.5.2h.1v-.2c-.3-.2-.4-.3-.4-.7l.1-.2.3-.4v.1H4.4V8zm3.5 0v.1l.3.1h-.5c-.1 0-.1 0 0 0V8H8zm3.6.2v.1c.2.2.3.5.3.8 0 .2 0 .3-.1.2l-.2-.2h-.2l-.3.3h-.2l-.1-.1.2-.1.3-.6h.2v-.3zm-9.1.2l.1.3V9.3l-.2-.4-.1-.2.2-.3zm-.6 1H2c.1.2.4.3.7.4h.2l-.4.2-.3-.2-.2-.2v-.2s-.2 0 0 0zm3.3 0v.7l-.4.7-.4.3h-.1l.3-.3s.2 0 .3-.2v-.3l-.1-.1-.2.1-.1.1v-.2l.6-.6v-.1zm1.4 0c0 .2 0 .2.2.3v.8c-.1.1-.1.1-.1 0v-.2l-.1-.2c0-.1 0-.2-.2 0v-.5l.2-.1zm-5 0v.3l.2.3c.1 0 .2 0 .2.2H2v.2h1.1l.1.2-.5.1-.3.1-.7-.1c-.2-.1-.3-.3-.4-.7l.1-.5zm8.2.3h.2a866 866 0 0 0 .6.6c.2-.1 0-.3 0-.4v-.1l.3.5v.7c.2.2-.1.6-.5.8-.2.2-.2.2-.5.2-.4.1-.6 0-.8 0-.2-.2-.2-.3-.1-.3h.7c.2 0 .4 0 .4-.2v-.2c.3-.3.3-.3.3-.5-.1-.3-.2-.5-.4-.6-.2 0-.2-.1-.1-.1V10v-.2l-.1-.1zm1.6 1.3v.4l-.2.1v-.4h.2zm-7.7.3h.1v.1l-.2.1-.2.1h-.1l-.1-.2h.5zm3.9.7s0 .2.2.2.2 0 0 0c-.3 0-.4 0-.4.3h-.1V12h.3zm-4.9.2h.1l-.1.2c-.2 0-.2.2-.3.3h-.1l-.1-.2v-.1h.1l.3-.1.1-.1zm2 .4l-.2.2c-.5.3-.7.4-.8.7v.3c.1.1.1.1 0 .1l-.2-.3.1-.4c.2-.3.1-.5-.3-.5-.1 0-.1 0 0 0h.7l.7-.1zm4 0h.7c.3 0 .4 0 .3.2h-.4l-.6-.1zM3 6c-.1 0-.1 0 0 0h.5H3z" fill="#37abc8"/>
  <g clip-path="url(#id140)" transform="matrix(.5465 0 0 -.56502 -7.5 433.1)">
    <path d="M190.7 758.8l-4.9-14-4.6 14h-4.7l7.1-19v-.2s-1.4-3.9-2.7-4.8c-1-.6-3.4-.5-4.3-.5v-3.6c1.6 0 5.2 0 6.4.7 1.5 1 1.8 1.3 2.8 3.4 1 2.2 9.5 24 9.5 24h-4.6zm-23-3.2v3.2h-4.4v-19.2h4.4v7.3c0 1.3.1 2.4.5 3.4 1.3 3.4 5 4.4 7 4.7l-1.6 3.7c-1.5-.3-4.2-1-5.9-3zM92 743c-3.4 0-5.7 2.7-5.7 6.2 0 3.4 2.3 6.2 5.5 6.2 2.2 0 3.6-1 5-2.4l2.7 2.9c-1.8 2-4 3.3-7.7 3.3a10 10 0 0 1-10-10c0-5.6 4.3-10 10-10 3.7 0 6 1.5 7.9 3.6l-2.7 2.6c-1.4-1.4-3-2.4-5-2.4zm63.8 8c-.1.7-.3 1-.5 1.5-.3.6-.6 1.2-1 1.6a4.4 4.4 0 0 1-3.4 1.5c-1.4 0-2.5-.5-3.4-1.4a5 5 0 0 1-1.6-3.2h9.9zm3.7 1.8a13.2 13.2 0 0 0 .6-5.2h-14.2c.3-1.5 1-2.8 2-3.6 1-.8 2.1-1.2 3.6-1.2 1 0 2 .1 2.8.5.8.4 1.6 1 2.4 1.7l2.6-2.2c-1-1.1-2-2-3.3-2.7-1.3-.6-2.8-1-4.6-1-1.4 0-2.7.3-3.9.8a9.5 9.5 0 0 0-6 9.2v.1c0 1.4.3 2.7.7 3.9a9.2 9.2 0 0 0 8.7 6.1 8.3 8.3 0 0 0 6.9-3c.8-1 1.4-2.1 1.7-3.4zm-28.2-8.1l-5.2 14.1h-4.7l7.9-19.4h4l7.8 19.4h-4.6l-5.2-14.1zm-14.5 4.5a6.6 6.6 0 0 1-1.7 4.3 5.8 5.8 0 0 1-6.6 1.4c-.7-.4-1.3-.8-1.8-1.4-.5-.5-1-1.1-1.2-1.9a7 7 0 0 1-.4-2.4 6.5 6.5 0 0 1 1.7-4.4 5.7 5.7 0 0 1 4.2-1.8 5.7 5.7 0 0 1 4.2 1.8c.5.6 1 1.2 1.2 2 .3.7.4 1.5.4 2.3zm3.6 4c.5-1.3.8-2.6.8-4a9.7 9.7 0 0 0-3-7 10.1 10.1 0 0 0-7.3-3 10.4 10.4 0 0 0-7.3 2.9 9.7 9.7 0 0 0-2.9 7 9.7 9.7 0 0 0 3 7.1 10.2 10.2 0 0 0 7.3 3 10.5 10.5 0 0 0 7.3-3c1-.8 1.6-1.9 2.1-3zm-42.5-4l-1.9 1a25.2 25.2 0 0 1-3.7 1.3c-.5.2-1 .3-1.4.6l-1 .6c-.2.3-.3.6-.3 1 0 .6.2 1 .7 1.4.5.4 1.1.5 2 .5a8 8 0 0 0 2.6-.5c1-.3 1.9-.7 2.8-1.3l1.7 3.1a13.1 13.1 0 0 1-7 2.2c-1 0-1.8-.1-2.7-.4a5.5 5.5 0 0 1-4.2-5.5 4.6 4.6 0 0 1 2-4l2-1 2-.6 1.7-.5 1.4-.6c.4-.2.7-.4.9-.7.2-.3.3-.6.3-1 0-.6-.2-1.1-.7-1.5-.6-.4-1.3-.6-2.2-.6-1 0-2 .2-3.1.6-1.1.4-2.2 1-3.2 1.8l-2-3a13.5 13.5 0 0 1 8.2-2.9c1 0 1.9.1 2.8.4.8.3 1.6.6 2.2 1.1.7.5 1.2 1.2 1.5 2 .4.7.6 1.5.6 2.6 0 1-.2 1.7-.6 2.3-.3.6-.8 1-1.4 1.5zm-20.7-9.6h4.4v19.2h-4.4v-19.2zm-2.6 13c0-7.3-5.5-12.9-13.5-12.9h-7.7c1.5 1 2.8 2.5 3.8 4.1h4c5.3 0 8.8 3.6 8.8 8.6s-3.5 8.7-8.9 8.7h-5v-3.7a12.1 12.1 0 0 1-4.5 3.4v4.4H41c8 0 13.5-5.5 13.5-12.7"/>
  </g>
</svg>
