<svg xmlns="http://www.w3.org/2000/svg" height="248.65" width="300"><path d="M28.1 78.04A5489 5489 0 0 1 9.7 182.8c-2.08 8.3-2.78 9.96 4 7.75 6.65-2.08 12.18 4.42 11.77 9.96-3.32 23.66 26.7 41.37 63.5 40.68 30.86-.97 63.65-5.26 137.4-54.24 3.33-2.5 8.3-4.7 11.76-2.77 1.8.69 2.36.55 4.84-7.2 4.98-13.83 9.14-22.4 11.21-28.22 6.1-14.12 10.1-11.07 15.92-11.07 8.85.28 10.24-4.84 11.48-13.15 1.52-7.88 6.92-18.54-2.49-27.11-4.98-5.96-6.5-18 3.88-20.76 9.68-.83 8.3-.55 8.3-6.92 0-7.9-2.5-6.64-3.6-11.07-1.8-2.63-1.8-6.78-1.8-13.42.42-12.73-11.07-35.28-67.52-37.77-53-1.25-99.35 29.05-108.62 34.73-2.9 2.07-9.27 6.64-12.04 3.6-2.49-2.22-2.21-1.8-3.87 2.2-3.46 7.9-13.15 22.01-15.5 27.27C62.82 93.95 58.4 88 56.18 76.93c-2.49-6.64 4.15-13.97-12.45-10.79C35.15 68.08 31 63.1 28.1 78.04" fill="#244ba6" fill-rule="evenodd"/><path d="M87.06 178.42l.84 1.65c3.38 8.72-7.95 24.26-25.9 35.4-18.6 11.46-37.26 13.85-41.72 5.27-4.47-8.46 6.95-24.7 25.55-36.2 17.92-11.07 36.02-13.7 41.23-6.12" fill="#244ba6" fill-rule="evenodd"/><path d="M26.43 173.93s-30.44 45.1 20.77 66.7c78.58 33.48 188.59-49.82 188.59-49.82l7.19 9.27 17.7-45.38-53.82 7.47 6.36 7.47s-102.94 73.75-165.2 55.08c-39.44-11.91-21.73-50.78-21.73-50.78" fill="#fff" fill-rule="evenodd"/><path d="M47.2 240.76c78.58 33.35 188.59-49.81 188.59-49.81l7.19 9.13 17.7-45.38-53.82 7.47 6.36 7.47s-102.94 73.75-165.2 55.08l-.97 15.9" fill="#ef2c30" fill-rule="evenodd"/><path d="M82.2 248.5v-21.57l-1.94.14.14 21.16h1.8" fill="#ef2c30" fill-rule="evenodd"/><path d="M79.98 227.34v21.03h1.94v-21.3l-1.94.28" fill="#ee2c30" fill-rule="evenodd"/><path d="M79.84 227.34v20.9l1.8.14V227.2h-1.8" fill="#ef2e31" fill-rule="evenodd"/><path d="M79.57 227.34v20.9l1.8.14V227.2l-1.8.15" fill="#ef2e31" fill-rule="evenodd"/><path d="M79.3 227.34v20.9l1.65.14.14-21.18-1.8.15" fill="#ef3032" fill-rule="evenodd"/><path d="M79.01 227.34l-.14 20.9h1.8l.14-21.04-1.8.15" fill="#ef3032" fill-rule="evenodd"/><path d="M78.74 227.34l-.15 20.75 1.8.29.15-21.18-1.8.15" fill="#ef3032" fill-rule="evenodd"/><path d="M78.46 227.48l-.28 20.75h1.8l.28-21.03-1.8.28" fill="#ef3233" fill-rule="evenodd"/><path d="M78.18 227.48l-.28 20.75h1.95l.4-20.9h-1.93" fill="#ef3233" fill-rule="evenodd"/><path d="M78.05 227.48l-.42 20.75h1.8l.42-20.9h-1.8" fill="#ef3433" fill-rule="evenodd"/><path d="M77.77 227.48l-.42 20.61 1.8.14.42-20.9h-1.8" fill="#ef3434" fill-rule="evenodd"/><path d="M77.5 227.48l-.56 20.61h1.8l.55-20.75-1.8.14" fill="#ef3434" fill-rule="evenodd"/><path d="M77.07 227.48l-.41 20.61h1.8l.55-20.75-1.8.14" fill="#ef3635" fill-rule="evenodd"/><path d="M76.94 227.48l-.56 20.48 1.8.27.56-20.75h-1.8" fill="#ef3635" fill-rule="evenodd"/><path d="M76.66 227.48l-.55 20.48 1.66.14.69-20.76-1.8.14" fill="#f03835" fill-rule="evenodd"/><path d="M76.38 227.62l-.69 20.34 1.8.14.7-20.76-1.8.28" fill="#f03837" fill-rule="evenodd"/><path d="M76.1 227.62l-.68 20.34h1.65l.84-20.49h-1.8" fill="#f03837" fill-rule="evenodd"/><path d="M75.83 227.62l-.83 20.2 1.8.28.83-20.63h-1.8" fill="#f03a37" fill-rule="evenodd"/><path d="M75.7 227.62l-.97 20.2 1.8.14.82-20.49h-1.8" fill="#f03a38" fill-rule="evenodd"/><path d="M75.28 227.62l-.83 20.2 1.66.14.96-20.49-1.79.15" fill="#f03a38" fill-rule="evenodd"/><path d="M75.14 227.62l-.97 20.2h1.52l.97-20.34-1.66.14" fill="#f03c38" fill-rule="evenodd"/><path d="M74.72 227.62l-.96 20.06 1.66.28 1.1-20.34h-1.8" fill="#f03c39" fill-rule="evenodd"/><path d="M74.45 227.62l-.97 20.06 1.66.14 1.1-20.2h-1.93" fill="#f03e39" fill-rule="evenodd"/><path d="M74.3 227.62l-1.37 20.06 1.8.14 1.1-20.2h-1.8" fill="#f03e3a" fill-rule="evenodd"/><path d="M73.9 227.62l-.97 20.06 1.8.28 1.1-20.2h-1.8" fill="#f03e3a" fill-rule="evenodd"/><path d="M73.76 227.62l-1.39 19.92 1.8.28 1.25-20.2h-1.66" fill="#f0403a" fill-rule="evenodd"/><path d="M73.48 227.76l-1.39 19.78 1.67.15 1.38-20.07h-1.66" fill="#f0403c" fill-rule="evenodd"/><path d="M73.06 227.76l-1.38 19.64 1.8.29 1.38-20.07h-1.93" fill="#f0423c" fill-rule="evenodd"/><path d="M72.93 227.76l-1.39 19.64 1.66.29 1.38-20.07h-1.8" fill="#f0423d" fill-rule="evenodd"/><path d="M72.51 227.76l-1.38 19.64 1.65.14 1.4-19.92H72.5" fill="#f0423d" fill-rule="evenodd"/><path d="M72.37 227.76l-1.39 19.5 1.4.28 1.65-19.92h-1.66" fill="#f1443d" fill-rule="evenodd"/><path d="M71.96 227.76l-1.39 19.36c.41.29.97.29 1.52.42l1.53-19.92h-1.66" fill="#f1443e" fill-rule="evenodd"/><path d="M71.82 227.76l-1.66 19.36 1.66.29 1.52-19.65h-1.52" fill="#f1463e" fill-rule="evenodd"/><path d="M71.54 227.76l-1.8 19.36 1.66.29 1.66-19.65h-1.52" fill="#f1463e" fill-rule="evenodd"/><path d="M71.13 227.76l-1.67 19.36 1.67.29 1.65-19.65h-1.65" fill="#f14640" fill-rule="evenodd"/><path d="M70.98 227.76l-1.8 19.36 1.53.15 1.8-19.51h-1.53" fill="#f14940" fill-rule="evenodd"/><path d="M70.7 227.76l-1.93 19.23 1.53.28 1.8-19.51h-1.53" fill="#f14841" fill-rule="evenodd"/><path d="M70.3 227.76l-1.8 19.09 1.52.42 1.94-19.51H70.3" fill="#f14b41" fill-rule="evenodd"/><path d="M70.16 227.76l-1.94 19.09 1.39.28 2.07-19.37h-1.66" fill="#f14b41" fill-rule="evenodd"/><path d="M69.74 227.76l-1.93 19.09 1.52.28 2.07-19.37h-1.66" fill="#f14b41" fill-rule="evenodd"/><path d="M69.46 227.76l-1.93 18.95 1.38.28 2.21-19.37h-1.66" fill="#f14d43" fill-rule="evenodd"/><path d="M69.19 227.76l-2.07 18.95 1.52.28 2.21-19.37h-1.66" fill="#f14d43" fill-rule="evenodd"/><path d="M68.92 227.76l-2.08 18.81 1.38.28 2.22-19.1h-1.39" fill="#f14c44" fill-rule="evenodd"/><path d="M68.64 227.76l-2.22 18.81 1.52.28 2.22-19.1h-1.39" fill="#f14f44" fill-rule="evenodd"/><path d="M68.36 227.76l-2.35 18.54 1.38.27 2.35-18.95h-1.52" fill="#f14f44" fill-rule="evenodd"/><path d="M68.08 227.76l-2.34 18.54 1.38.27 2.49-18.95h-1.53" fill="#f25146" fill-rule="evenodd"/><path d="M67.8 227.62l-2.34 18.68 1.38.27 2.49-18.81H67.8" fill="#f25146" fill-rule="evenodd"/><path d="M67.4 227.62l-2.23 18.68 1.4.27 2.62-18.81h-1.8" fill="#f25047" fill-rule="evenodd"/><path d="M67.25 227.62l-2.63 18.68 1.39.41 2.63-18.82h-1.52" fill="#f25347" fill-rule="evenodd"/><path d="M66.84 227.62l-2.5 18.68 1.39.27 2.77-18.68h-1.66" fill="#f25347" fill-rule="evenodd"/><path d="M66.56 227.62l-2.63 18.4 1.39.28 2.76-18.54H66.7" fill="#f25549" fill-rule="evenodd"/><path d="M66.28 227.62l-2.77 18.26 1.66.42 2.64-18.68h-1.4" fill="#f25549" fill-rule="evenodd"/><path d="M66 227.62l-2.77 18.26 1.39.28 2.77-18.54h-1.38" fill="#f2554a" fill-rule="evenodd"/><path d="M65.73 227.62l-2.77 18.12 1.39.42 2.9-18.54h-1.52" fill="#f2574a" fill-rule="evenodd"/><path d="M65.45 227.62l-2.77 17.99c.42.27.84.27 1.4.41l2.76-18.4h-1.39" fill="#f2574a" fill-rule="evenodd"/><path d="M65.04 227.62l-2.77 17.99 1.38.41 3.05-18.4h-1.65" fill="#f2594c" fill-rule="evenodd"/><path d="M64.9 227.62l-3.05 17.99 1.39.27 3.04-18.26H64.9" fill="#f2594c" fill-rule="evenodd"/><path d="M64.62 227.48l-3.18 17.99 1.39.27L66 227.62h-1.39" fill="#f2594e" fill-rule="evenodd"/><path d="M64.2 227.48l-3.04 17.99 1.39.27 3.18-18.12h-1.38" fill="#f35b4e" fill-rule="evenodd"/><path d="M63.93 227.48l-3.18 17.71 1.38.41 3.19-17.98h-1.39" fill="#f35b4e" fill-rule="evenodd"/><path d="M63.65 227.48l-3.18 17.71 1.38.28 3.19-18h-1.39" fill="#f35d4f" fill-rule="evenodd"/><path d="M63.24 227.48l-3.19 17.43 1.4.42 3.31-18h-1.39" fill="#f35d4f" fill-rule="evenodd"/><path d="M63.1 227.48l-3.46 17.43 1.39.42 3.45-17.86H63.1" fill="#f35d4f" fill-rule="evenodd"/><path d="M62.69 227.34l-3.33 17.57 1.4.28 3.45-17.7h-1.38" fill="#f36050" fill-rule="evenodd"/><path d="M62.41 227.34l-3.46 17.57 1.38.42 3.47-17.71h-1.4" fill="#f36051" fill-rule="evenodd"/><path d="M62.13 227.34l-3.6 17.3 1.39.4 3.6-17.56-1.39-.14" fill="#f36251" fill-rule="evenodd"/><path d="M61.85 227.34l-3.59 17.3 1.38.27 3.6-17.43-1.39-.14" fill="#f36253" fill-rule="evenodd"/><path d="M61.44 227.34l-3.6 17.16 1.39.41 3.73-17.43-1.38-.14" fill="#f36253" fill-rule="evenodd"/><path d="M61.16 227.2l-3.45 17.16 1.38.42 3.6-17.44H61.3" fill="#f36453" fill-rule="evenodd"/><path d="M60.89 227.2l-3.74 17.02 1.38.42 3.74-17.3H60.9" fill="#f36455" fill-rule="evenodd"/><path d="M60.47 227.2l-3.73 16.88 1.38.42L62 227.34l-1.4-.14" fill="#f36455" fill-rule="evenodd"/><path d="M60.2 227.2l-3.88 16.75 1.39.4 3.87-17.01-1.38-.14" fill="#f36657" fill-rule="evenodd"/><path d="M59.92 227.06l-3.88 16.89 1.39.4 3.87-17.15h-1.38" fill="#f36657" fill-rule="evenodd"/><path d="M59.64 227.06l-4.15 16.6 1.38.56 4.16-17.02h-1.39" fill="#f46957" fill-rule="evenodd"/><path d="M59.36 226.93l-4.14 16.74 1.38.41 4.15-16.88-1.39-.14" fill="#f46859" fill-rule="evenodd"/><path d="M59.09 226.93l-4.15 16.6 1.25.42 4.14-16.75-1.38-.28" fill="#f46859" fill-rule="evenodd"/><path d="M58.67 226.93l-4.15 16.6 1.24.28 4.16-16.6-1.25-.29" fill="#f46b5a" fill-rule="evenodd"/><path d="M58.26 226.93l-4.15 16.33 1.38.4 4.15-16.6-1.38-.14" fill="#f46b5a" fill-rule="evenodd"/><path d="M58.12 226.93l-4.57 16.18 1.39.42 4.15-16.6h-1.1" fill="#f46d5b" fill-rule="evenodd"/><path d="M57.7 226.93l-4.42 16.05 1.38.55 4.43-16.6H57.7" fill="#f46d5c" fill-rule="evenodd"/><path d="M57.43 226.78L53 242.84l1.24.55 4.57-16.46-1.38-.15" fill="#f46d5c" fill-rule="evenodd"/><path d="M57.01 226.65l-4.42 16.05 1.38.55 4.43-16.32-1.39-.29" fill="#f46f5e" fill-rule="evenodd"/><path d="M56.74 226.65l-4.58 16.05 1.4.41 4.56-16.18-1.38-.29" fill="#f46f5e" fill-rule="evenodd"/><path d="M56.32 226.65l-4.57 15.77 1.4.56 4.56-16.2-1.39-.14" fill="#f4715e" fill-rule="evenodd"/><path d="M56.19 226.5l-4.71 15.92 1.24.42 4.7-16.06-1.38-.27" fill="#f4715e" fill-rule="evenodd"/><path d="M55.77 226.5l-4.7 15.65 1.24.4 4.83-15.9-1.38-.28" fill="#f47160" fill-rule="evenodd"/><path d="M55.49 226.37l-4.84 15.78 1.38.4 4.7-15.9-1.38-.28" fill="#f47360" fill-rule="evenodd"/><path d="M55.08 226.37l-4.84 15.5 1.38.55 4.84-15.77-1.38-.28" fill="#f47360" fill-rule="evenodd"/><path d="M54.94 226.37l-4.98 15.36 1.1.55 5.12-15.77-1.38-.14" fill="#f57563" fill-rule="evenodd"/><path d="M54.52 226.24L49.4 241.6l1.24.55 4.98-15.64-1.38-.27" fill="#f57563" fill-rule="evenodd"/><path d="M54.24 226.24l-5.12 15.22 1.11.4 5.27-15.49-1.4-.14" fill="#f57564" fill-rule="evenodd"/><path d="M53.83 226.1l-5.12 15.22 1.25.41 5.26-15.36-1.39-.27" fill="#f57865" fill-rule="evenodd"/><path d="M53.55 226.1l-5.26 15.08 1.25.41 5.27-15.22-1.4-.27" fill="#f57865" fill-rule="evenodd"/><path d="M53.28 225.96l-5.4 15.08 1.38.42 5.27-15.22-1.39-.29" fill="#f57866" fill-rule="evenodd"/><path d="M52.86 225.96l-5.26 14.8 1.11.42 5.53-15.22-1.38-.14" fill="#f57a67" fill-rule="evenodd"/><path d="M52.59 225.82l-5.54 14.8h.15l1.1.56 5.53-15.08-1.39-.28" fill="#f57a69" fill-rule="evenodd"/><path d="M52.17 225.82l-5.54 14.66.56.14.69.42 5.54-14.94-1.25-.28" fill="#f57c69" fill-rule="evenodd"/><path d="M51.89 225.54l-5.53 14.8.83.28.28.15L53 225.96l-1.1-.29" fill="#f57c69" fill-rule="evenodd"/><path d="M51.48 225.54l-5.54 14.67 1.25.41 5.53-14.66-1.24-.42" fill="#f57c6b" fill-rule="evenodd"/><path d="M51.2 225.54l-5.53 14.4 1.1.54 5.67-14.66-1.24-.28" fill="#f57f6b" fill-rule="evenodd"/><path d="M50.79 225.54l-5.54 14.25 1.1.56 5.82-14.81c-.42 0-.83 0-1.38-.28" fill="#f57f6d" fill-rule="evenodd"/><path d="M50.51 225.4l-5.81 14.26 1.24.41 5.81-14.39-1.24-.28" fill="#f6816d" fill-rule="evenodd"/><path d="M50.23 225.26l-5.8 14.12 1.1.56 5.95-14.4-1.38-.28" fill="#f6816d" fill-rule="evenodd"/><path d="M49.82 225.13l-5.81 14.25 1.1.56 5.95-14.26-1.24-.42" fill="#f6816f" fill-rule="evenodd"/><path d="M49.4 225.13l-5.95 13.83 1.25.56 6.09-13.98-1.39-.28" fill="#f6836f" fill-rule="evenodd"/><path d="M49.12 224.99l-5.94 13.84 1.1.55 6.1-14.12-1.26-.27" fill="#f68371" fill-rule="evenodd"/><path d="M48.85 224.85l-6.09 13.83 1.1.56 6.24-13.98-1.39-.41" fill="#f68572" fill-rule="evenodd"/><path d="M48.58 224.85l-6.23 13.56 1.1.55 6.23-13.83-1.1-.28" fill="#f68572" fill-rule="evenodd"/><path d="M48.02 224.72l-6.09 13.54 1.25.56 6.22-13.84-1.25-.27" fill="#f68572" fill-rule="evenodd"/><path d="M47.88 224.57L41.65 238l.97.56 6.5-13.57-.96-.26h-.28" fill="#f68874" fill-rule="evenodd"/><path d="M47.47 224.44l-6.37 13.55 1.25.56 6.36-13.57-.56-.14-.68-.27" fill="#f68874" fill-rule="evenodd"/><path d="M47.2 224.44l-6.38 13.14 1.11.55 6.5-13.42h-.41l-.97-.27" fill="#f68a76" fill-rule="evenodd"/><path d="M46.77 224.16l-6.5 13.28 1.38.55 6.37-13.28-1.24-.42" fill="#f68a76" fill-rule="evenodd"/><path d="M46.5 224.16l-6.5 13 1.1.7 6.64-13.29-1.38-.41" fill="#f68a76" fill-rule="evenodd"/><path d="M46.08 224.02l-6.5 12.87 1.1.7 6.65-13.15-1.25-.42" fill="#f68c78" fill-rule="evenodd"/><path d="M45.8 223.88l-6.63 12.88 1.1.68 6.78-13.15-1.24-.4" fill="#f68c78" fill-rule="evenodd"/><path d="M45.39 223.74l-6.64 12.73 1.1.7 6.93-13.02c-.56 0-.97-.27-1.4-.4" fill="#f78f79" fill-rule="evenodd"/><path d="M45.25 223.74l-6.92 12.45 1.11.7 6.92-12.73-1.25-.42" fill="#f78f7b" fill-rule="evenodd"/><path d="M44.7 223.47l-6.78 12.45 1.1.7 6.92-12.6-1.24-.56" fill="#f78f7b" fill-rule="evenodd"/><path d="M44.42 223.47l-6.92 12.3 1.25.7 6.92-12.59-1.25-.42" fill="#f7917d" fill-rule="evenodd"/><path d="M44.14 223.33l-6.92 12.17 1.11.7 6.92-12.45-1.1-.43" fill="#f7917d" fill-rule="evenodd"/><path d="M43.87 223.19l-7.06 12.18.97.55 7.2-12.31-1.25-.42" fill="#f7917d" fill-rule="evenodd"/><path d="M43.45 223.05l-7.05 12.04 1.1.7 7.06-12.33c-.42 0-.7-.27-1.1-.4" fill="#f79380" fill-rule="evenodd"/><path d="M43.03 222.77l-6.9 12.04.96.7 7.19-12.18-1.25-.41" fill="#f79380" fill-rule="evenodd"/><path d="M42.76 222.77l-7.2 11.77 1.12.69L44 223.19l-1.38-.42" fill="#f79682" fill-rule="evenodd"/><path d="M42.49 222.64l-7.2 11.62.97.69 7.33-11.9c-.41 0-.7-.28-1.1-.41" fill="#f79682" fill-rule="evenodd"/><path d="M42.07 222.5l-7.2 11.48.97.7 7.33-11.76-1.1-.42" fill="#f79682" fill-rule="evenodd"/><path d="M41.79 222.36l-7.33 11.34 1.1.84 7.34-11.77c-.41 0-.83-.27-1.11-.4" fill="#f79885" fill-rule="evenodd"/><path d="M41.38 222.08l-7.33 11.35 1.1.83 7.47-11.62a45.66 45.66 0 0 1-1.24-.56" fill="#f79885" fill-rule="evenodd"/><path d="M41.1 221.94l-7.33 11.21.96.83 7.47-11.48-1.1-.56" fill="#f89a87" fill-rule="evenodd"/><path d="M40.69 221.8l-7.33 11.07.96.83 7.61-11.34-1.24-.55" fill="#f89a87" fill-rule="evenodd"/><path d="M40.41 221.67l-7.47 11.07 1.1.69 7.61-11.07-1.24-.69" fill="#f89a87" fill-rule="evenodd"/><path d="M40.13 221.4l-7.6 11.06 1.1.69 7.6-11.07-1.1-.55" fill="#f89d88" fill-rule="evenodd"/><path d="M39.72 221.4l-7.47 10.65.96.82 7.75-11.06-1.24-.42" fill="#f89d8a" fill-rule="evenodd"/><path d="M39.44 221.12l-7.6 10.65.96.82 7.89-10.78-1.39-.7" fill="#f89f8a" fill-rule="evenodd"/><path d="M39.16 220.98L31.4 231.5l1.11.7 7.75-10.52-1.1-.7" fill="#f89f8c" fill-rule="evenodd"/><path d="M38.75 220.84l-7.76 10.24 1.11.82 7.61-10.5-1.1-.56" fill="#f89f8c" fill-rule="evenodd"/><path d="M38.47 220.7l-7.75 10.1.97.83 7.9-10.38a44.28 44.28 0 0 1-1.12-.55" fill="#f8a18d" fill-rule="evenodd"/><path d="M38.06 220.42l-7.76 10.1 1.11.83 7.9-10.24-1.25-.69" fill="#f8a18f" fill-rule="evenodd"/><path d="M37.78 220.28l-7.75 9.96.97.83 7.89-10.24-1.11-.55" fill="#f8a48f" fill-rule="evenodd"/><path d="M37.5 220l-7.89 9.83.97.83 8.03-9.96-1.1-.55" fill="#f8a48f" fill-rule="evenodd"/><path d="M37.22 220l-7.88 9.7.98.68 8.02-9.82-1.1-.69" fill="#f8a491" fill-rule="evenodd"/><path d="M36.95 219.73l-8.03 9.55.96.83 8.03-9.7-1.1-.68" fill="#f8a692" fill-rule="evenodd"/><path d="M36.53 219.45l-7.88 9.41.96.97 8.03-9.69a38.74 38.74 0 0 1-1.1-.69" fill="#f8a694" fill-rule="evenodd"/><path d="M36.26 219.32l-8.03 9.26.97.84 8.17-9.41-1.11-.7" fill="#f8a694" fill-rule="evenodd"/><path d="M35.98 219.04l-8.02 9.27.83.83 8.3-9.41-1.11-.7" fill="#f9a995" fill-rule="evenodd"/><path d="M35.57 218.9l-8.03 9 .97.96 8.3-9.27a35.97 35.97 0 0 1-1.24-.7" fill="#f9a997" fill-rule="evenodd"/><path d="M35.29 218.62l-8.02 9 .96.83 8.3-9-1.24-.69" fill="#f9ab97" fill-rule="evenodd"/><path d="M35.01 218.49L27 227.2l.83.96 8.3-9-1.1-.68" fill="#f9ab99" fill-rule="evenodd"/><path d="M34.73 218.2l-8.02 8.73.83.83 8.3-8.72-1.1-.83" fill="#f9ab99" fill-rule="evenodd"/><path d="M34.47 218.06l-8.31 8.31 1.1 1.11 8.3-8.72-1.1-.69" fill="#f9ad9a" fill-rule="evenodd"/><path d="M34.18 217.8l-8.3 8.3.97 1.1 8.3-8.58-.97-.82" fill="#f9ad9c" fill-rule="evenodd"/><path d="M33.9 217.65l-8.3 8.17.97.96 8.3-8.3-.97-.83" fill="#f9b09d" fill-rule="evenodd"/><path d="M33.63 217.38l-8.3 8.03.96 1.1 8.32-8.3-.98-.84" fill="#f9b09d" fill-rule="evenodd"/><path d="M33.35 217.24l-8.3 7.75.96 1.1 8.31-8.16-.97-.83" fill="#f9b09f" fill-rule="evenodd"/><path d="M33.08 216.96l-8.3 7.75.96 1.1 8.3-8.01-.96-.84" fill="#f9b2a0" fill-rule="evenodd"/><path d="M32.8 216.69l-8.3 7.6.83 1.12 8.44-7.9-.97-.82" fill="#f9b2a0" fill-rule="evenodd"/><path d="M32.52 216.55l-8.3 7.47.83.96 8.44-7.6a34.6 34.6 0 0 1-.97-.83" fill="#fab5a3" fill-rule="evenodd"/><path d="M32.25 216.27l-8.31 7.2.82 1.1 8.45-7.46-.97-.84" fill="#fab5a3" fill-rule="evenodd"/><path d="M31.97 215.86l-8.3 7.33.82 1.1 8.45-7.46-.97-.83" fill="#fab5a5" fill-rule="evenodd"/><path d="M31.69 215.86l-8.3 6.91.83 1.11 8.44-7.2-.97-.96" fill="#fab7a5" fill-rule="evenodd"/><path d="M31.41 215.44l-8.3 6.92.84 1.1 8.43-6.91a30.44 30.44 0 0 1-.97-1.11" fill="#fab7a5" fill-rule="evenodd"/><path d="M31.14 215.3l-8.3 6.78c.4.28.55.7.83 1.11l8.58-6.92-1.11-.96" fill="#fabaa8" fill-rule="evenodd"/><path d="M31 215.03l-8.3 6.64.7 1.1 8.57-6.92c-.41-.14-.7-.54-.97-.82" fill="#fabaa8" fill-rule="evenodd"/><path d="M30.72 214.75l-8.3 6.5.83 1.11 8.3-6.64-.83-.97" fill="#fabaaa" fill-rule="evenodd"/><path d="M30.45 214.47l-8.3 6.5c.4.29.55.7.82 1.11l8.44-6.64-.96-.83" fill="#fabcab" fill-rule="evenodd"/><path d="M30.17 214.2L22 220.42l.7 1.39 8.44-6.5a29.06 29.06 0 0 1-.97-1.11" fill="#fabcab" fill-rule="evenodd"/><path d="M30.03 214.05l-8.3 6.1.83 1.24 8.3-6.36-.83-.98" fill="#fabfae" fill-rule="evenodd"/><path d="M29.76 213.78l-8.31 5.95.83 1.24 8.44-6.08-.96-1.1" fill="#fabfae" fill-rule="evenodd"/><path d="M29.61 213.5l-8.3 5.82.84 1.38 8.3-6.1-.84-1.1" fill="#fabfae" fill-rule="evenodd"/><path d="M29.34 213.23l-8.16 5.67.69 1.38 8.44-5.95-.97-1.1" fill="#fac1b1" fill-rule="evenodd"/><path d="M29.2 213.09l-8.3 5.53.7 1.25 8.43-5.82-.83-.96" fill="#fac1b1" fill-rule="evenodd"/><path d="M28.92 212.81l-8.16 5.4.69 1.38 8.3-5.67a30.44 30.44 0 0 1-.83-1.11" fill="#fac1b3" fill-rule="evenodd"/><path d="M28.65 212.53l-8.03 5.27.7 1.38 8.3-5.54-.83-1.1" fill="#fbc4b4" fill-rule="evenodd"/><path d="M28.65 212.26l-8.3 5.12.69 1.38 8.3-5.4a29.06 29.06 0 0 1-.83-1.1" fill="#fbc4b4" fill-rule="evenodd"/><path d="M28.37 211.98l-8.02 4.98.55 1.39 8.3-5.12-.83-1.25" fill="#fbc6b7" fill-rule="evenodd"/><path d="M28.1 211.7l-8.03 4.84.69 1.39 8.3-4.98-.97-1.24" fill="#fbc6b7" fill-rule="evenodd"/><path d="M27.96 211.43l-8.03 4.84.55 1.38 8.3-4.98a27.67 27.67 0 0 1-.82-1.24" fill="#fbc6b7" fill-rule="evenodd"/><path d="M27.82 211.29l-8.03 4.56.56 1.39 8.3-4.84a29.06 29.06 0 0 1-.83-1.11" fill="#fbc9ba" fill-rule="evenodd"/><path d="M27.68 211.01l-8.02 4.57.54 1.38 8.31-4.83a29.06 29.06 0 0 1-.83-1.12" fill="#fbc9ba" fill-rule="evenodd"/><path d="M27.4 210.74l-7.88 4.42.55 1.39 8.3-4.57-.97-1.24" fill="#fbcbbb" fill-rule="evenodd"/><path d="M27.27 210.46l-7.9 4.15.56 1.39 8.3-4.3-.96-1.24" fill="#fbcbbd" fill-rule="evenodd"/><path d="M27.13 210.32l-7.9 4.01.56 1.39 8.3-4.16-.97-1.38" fill="#fbcbbd" fill-rule="evenodd"/><path d="M26.99 210.04l-7.9 4.01.57 1.4 8.15-4.16-.82-1.38" fill="#fbcec0" fill-rule="evenodd"/><path d="M26.86 209.76l-7.76 3.88.42 1.39 8.16-4.02-.83-1.25" fill="#fbcec0" fill-rule="evenodd"/><path d="M26.71 209.49l-7.75 3.74c0 .55.28.97.42 1.38l8.02-3.87-.69-1.25" fill="#fcd0c1" fill-rule="evenodd"/><path d="M26.57 209.22l-7.75 3.73.43 1.38 8.15-3.73c-.41-.42-.55-.84-.83-1.38" fill="#fcd0c4" fill-rule="evenodd"/><path d="M26.43 208.94l-7.75 3.6.56 1.38 7.9-3.6a26.29 26.29 0 0 1-.7-1.38" fill="#fcd0c4" fill-rule="evenodd"/><path d="M26.3 208.8l-7.62 3.46.42 1.38 7.89-3.6-.7-1.38" fill="#fcd3c7" fill-rule="evenodd"/><path d="M26.16 208.52l-7.61 3.32.41 1.52 7.9-3.45-.7-1.39" fill="#fcd3c7" fill-rule="evenodd"/><path d="M25.88 208.25l-7.47 3.18.42 1.66 7.88-3.46-.7-1.39" fill="#fcd5c8" fill-rule="evenodd"/><path d="M25.88 208.1l-7.47 3.05c0 .56.27.97.42 1.52l7.88-3.18-.83-1.38" fill="#fcd5ca" fill-rule="evenodd"/><path d="M25.88 207.83l-7.61 3.04.41 1.4 7.9-3.05-.84-1.39" fill="#fcd5ca" fill-rule="evenodd"/><path d="M25.6 207.55l-7.33 2.91.28 1.66 7.89-3.04-.84-1.38" fill="#fcd8cb" fill-rule="evenodd"/><path d="M25.6 207.55l-7.46 2.78.4 1.38 7.76-2.91-.7-1.38" fill="#fcd8cd" fill-rule="evenodd"/><path d="M25.47 207.28l-7.33 2.63.26 1.52 7.76-2.77-.7-1.38" fill="#fcd8cd" fill-rule="evenodd"/><path d="M25.33 207l-7.2 2.63.28 1.38 7.6-2.63-.68-1.38" fill="#fcdad1" fill-rule="evenodd"/><path d="M25.19 206.72l-7.2 2.5.28 1.52 7.61-2.63-.69-1.39" fill="#fcdad1" fill-rule="evenodd"/><path d="M25.19 206.44l-7.2 2.5.28 1.52 7.61-2.49-.69-1.38" fill="#fdddd1" fill-rule="evenodd"/><path d="M25.05 206.3l-7.2 2.36.28 1.38 7.61-2.34a27.67 27.67 0 0 1-.7-1.4" fill="#fdddd1" fill-rule="evenodd"/><path d="M24.91 206.17L18 208.24l.15 1.67 7.46-2.35-.69-1.39" fill="#fdddd4" fill-rule="evenodd"/><path d="M24.91 205.9l-7.05 2.07c0 .55 0 1.1.28 1.66l7.32-2.21-.55-1.39" fill="#fddfd5" fill-rule="evenodd"/><path d="M24.77 205.76l-6.91 1.94.13 1.65 7.47-2.2-.69-1.4" fill="#fddfd7" fill-rule="evenodd"/><path d="M24.77 205.48l-6.91 1.94v1.66l7.47-2.08a29.06 29.06 0 0 1-.56-1.38" fill="#fde2d8" fill-rule="evenodd"/><path d="M24.64 205.34l-6.92 1.8.27 1.66 7.34-1.94-.7-1.52" fill="#fde2d8" fill-rule="evenodd"/><path d="M24.5 205.06l-6.92 1.8.28 1.66 7.32-1.8-.69-1.66" fill="#fde2da" fill-rule="evenodd"/><path d="M24.5 204.79l-6.92 1.8.28 1.65 7.32-1.8a29.06 29.06 0 0 1-.69-1.52" fill="#fde5db" fill-rule="evenodd"/><path d="M24.5 204.79l-6.92 1.52.28 1.66 7.19-1.66-.7-1.66" fill="#fde5de" fill-rule="evenodd"/><path d="M24.5 204.65l-6.92 1.38.28 1.67 7.05-1.53-.55-1.53" fill="#fde7df" fill-rule="evenodd"/><path d="M24.36 204.37l-6.78 1.38.14 1.8 7.19-1.52a29.06 29.06 0 0 1-.55-1.66" fill="#fde7df" fill-rule="evenodd"/><path d="M24.22 204.23l-6.64 1.39.14 1.66 7.19-1.38-.69-1.67" fill="#fde7e1" fill-rule="evenodd"/><path d="M24.22 204.1l-6.64 1.38V207l7.2-1.38-.56-1.52" fill="#fdeae2" fill-rule="evenodd"/><path d="M24.08 203.96l-6.5 1.1v1.8l7.2-1.38-.7-1.52" fill="#fdeae5" fill-rule="evenodd"/><path d="M24.08 203.68l-6.5 1.1v1.8l7.06-1.24-.56-1.66" fill="#feece6" fill-rule="evenodd"/><path d="M24.08 203.54l-6.5 1.1v1.67l6.91-1.11-.4-1.66" fill="#feece6" fill-rule="evenodd"/><path d="M23.94 203.4l-6.36.97v1.8l6.91-1.1-.54-1.67" fill="#feede8" fill-rule="evenodd"/><path d="M23.94 203.26l-6.36.97v1.67l6.91-.98-.54-1.65" fill="#feefe9" fill-rule="evenodd"/><path d="M23.94 203.13l-6.5.82.14 1.8 6.91-.96-.54-1.67" fill="#feefec" fill-rule="evenodd"/><path d="M23.8 202.99l-6.36.83.14 1.66 6.91-.83-.69-1.66" fill="#fef2ed" fill-rule="evenodd"/><path d="M23.8 202.84l-6.36.7v1.8l6.92-.83-.56-1.66" fill="#fef2ed" fill-rule="evenodd"/><path d="M23.8 202.71l-6.36.69v1.66l6.92-.69a29.06 29.06 0 0 1-.56-1.66" fill="#fef2ef" fill-rule="evenodd"/><path d="M23.67 202.43l-6.23.7v1.8l6.92-.7-.7-1.8" fill="#fef4f0" fill-rule="evenodd"/><path d="M23.67 202.43l-6.23.56v1.8l6.78-.7-.55-1.66" fill="#fef4f0" fill-rule="evenodd"/><path d="M23.67 202.3l-6.23.55v1.8l6.78-.55-.55-1.8" fill="#fef4f0" fill-rule="evenodd"/><path d="M23.67 202.16l-6.23.42v1.8l6.78-.43-.55-1.8" fill="#fef7f4" fill-rule="evenodd"/><path d="M23.67 202.02l-6.23.41v1.8l6.64-.41-.41-1.8" fill="#fef7f4" fill-rule="evenodd"/><path d="M23.53 202.02l-6.1.28v1.8l6.65-.42-.55-1.66" fill="#fffaf8" fill-rule="evenodd"/><path d="M23.53 201.88l-6.1.28v1.8l6.65-.42-.55-1.66" fill="#fffaf8" fill-rule="evenodd"/><path d="M23.53 201.74l-6.1.28v1.8l6.52-.28c0-.69-.29-1.24-.42-1.8" fill="#fffaf8" fill-rule="evenodd"/><path d="M23.53 201.6l-6.1.14v1.94l6.52-.28-.42-1.8" fill="#fffcfb" fill-rule="evenodd"/><path d="M23.4 201.47l-5.96.14v1.93l6.5-.14-.55-1.93" fill="#fffcfb" fill-rule="evenodd"/><path d="M23.4 201.47h-5.82v1.93h6.37l-.56-1.93" fill="#fff" fill-rule="evenodd"/><path d="M23.4 201.33h-5.82v1.94h6.37l-.56-1.94M283.38 78.17s34.31-42.75-13-67.24C200.77-24.91 100.6 38.88 100.6 38.88l-5.81-9.69L73.2 72.64l51.89-2.21-5.12-8.17s98.8-58.94 149.43-36.8c35.98 15.77 13.98 52.58 13.98 52.58" fill="#fff" fill-rule="evenodd"/><path d="M232.46 21.03V.43l-4.02-.3v21.32c1.4 0 2.78-.28 4.02-.42" fill="#19b5f1" fill-rule="evenodd"/><path d="M231.9 21.18V.42l-4-.28v21.45l4-.41" fill="#19b5f1" fill-rule="evenodd"/><path d="M231.22 21.18V.42l-3.88-.28v21.45c1.38 0 2.77-.28 3.88-.41" fill="#1cb6f1" fill-rule="evenodd"/><path d="M230.66 21.31V.28l-4-.14.13 21.59 3.87-.42" fill="#1cb6f1" fill-rule="evenodd"/><path d="M230.25 21.31L229.97.28 226.1.14l.28 21.59c1.38 0 2.49-.28 3.87-.42" fill="#1eb7f1" fill-rule="evenodd"/><path d="M229.56 21.31L229.4.28 225.54 0l.28 21.87 3.74-.56" fill="#1eb7f1" fill-rule="evenodd"/><path d="M229 21.45l-.28-21.3h-3.87l.28 21.71c1.38 0 2.77-.27 3.87-.4" fill="#1eb7f1" fill-rule="evenodd"/><path d="M228.44 21.45l-.27-21.3h-3.87l.28 21.86 3.87-.56" fill="#21b8f1" fill-rule="evenodd"/><path d="M227.9 21.59L227.6.14h-4.14l.55 22 4.01-.55" fill="#21b8f1" fill-rule="evenodd"/><path d="M227.34 21.59L226.92.15h-4.01l.55 22.14 3.88-.7" fill="#21b8f1" fill-rule="evenodd"/><path d="M226.79 21.73L226.23.14h-3.87l.55 22.14 3.88-.55" fill="#24b9f1" fill-rule="evenodd"/><path d="M226.23 21.73L225.68 0h-4.01l.69 22.42 3.87-.69" fill="#24b9f1" fill-rule="evenodd"/><path d="M225.68 21.87L225.14 0h-4.15l.69 22.42 3.87-.56" fill="#26b9f1" fill-rule="evenodd"/><path d="M225.13 22l-.7-22h-3.87l.7 22.55 3.87-.54" fill="#26b9f1" fill-rule="evenodd"/><path d="M224.57 22.14L223.88 0h-4.01l.83 22.7 3.88-.7" fill="#26b9f1" fill-rule="evenodd"/><path d="M224.02 22.14L223.2 0h-3.88l.83 22.7 3.88-.56" fill="#29baf2" fill-rule="evenodd"/><path d="M223.47 22.14L222.5 0h-3.88l.97 22.83 3.88-.69" fill="#29baf2" fill-rule="evenodd"/><path d="M222.91 22.28L221.94 0h-4l1.1 22.98 3.87-.7" fill="#29baf2" fill-rule="evenodd"/><path d="M222.36 22.41l-1.1-22.4h-3.88l1.1 23.1 3.88-.69" fill="#2bbbf2" fill-rule="evenodd"/><path d="M221.67 22.41L220.7.01h-4.01l1.24 23.1 3.74-.69" fill="#2bbbf2" fill-rule="evenodd"/><path d="M221.25 22.55L220.16.02H216l1.38 23.24 3.88-.7" fill="#2ebcf2" fill-rule="evenodd"/><path d="M220.7 22.7L219.46 0h-4.02l1.38 23.38 3.88-.7" fill="#2ebcf2" fill-rule="evenodd"/><path d="M220.01 22.7L218.9 0l-4.01.14 1.38 23.38 3.74-.83" fill="#2ebcf2" fill-rule="evenodd"/><path d="M219.59 22.84L218.21.01l-3.87.14 1.38 23.52 3.74-.84" fill="#30bdf2" fill-rule="evenodd"/><path d="M218.9 22.98L217.52 0l-3.87.29 1.38 23.51 3.87-.82" fill="#30bdf2" fill-rule="evenodd"/><path d="M218.35 23.11L216.97.14h-4.02l1.53 23.66 3.87-.69" fill="#33bdf2" fill-rule="evenodd"/><path d="M217.8 23.11L216.4.14l-4.15.14 1.66 23.66 3.87-.83" fill="#33bdf2" fill-rule="evenodd"/><path d="M217.24 23.25L215.72.14l-4.15.14 1.8 23.8 3.87-.83" fill="#33bdf2" fill-rule="evenodd"/><path d="M216.82 23.39L215.02.15l-4 .27 1.8 23.8 3.87-.83" fill="#36bef2" fill-rule="evenodd"/><path d="M216.13 23.53L214.48 0l-4.16.29 1.94 23.93 3.87-.83" fill="#36bef2" fill-rule="evenodd"/><path d="M215.44 23.53L213.78.28l-4.01.14 1.93 24.08 3.74-.83" fill="#38bff3" fill-rule="evenodd"/><path d="M214.89 23.8L213.09.28l-3.88.28 1.95 24.07 3.73-.83" fill="#38bff3" fill-rule="evenodd"/><path d="M214.47 23.8L212.54.28l-4.02.28 2.08 24.21 3.88-.97" fill="#38bff3" fill-rule="evenodd"/><path d="M213.78 23.94L211.85.42c-1.4 0-2.64 0-3.88.27l2.08 24.08 3.73-.83" fill="#3bc0f3" fill-rule="evenodd"/><path d="M213.22 24.08L211.3.42l-3.87.27 2.21 24.22 3.74-.83" fill="#3bc0f3" fill-rule="evenodd"/><path d="M212.68 24.22L210.6.42l-4.15.41 2.34 24.22 3.89-.83" fill="#3dc1f3" fill-rule="evenodd"/><path d="M212.12 24.36L210.05.41l-4.16.41 2.36 24.5 3.87-.98" fill="#3dc1f3" fill-rule="evenodd"/><path d="M211.57 24.5L209.22.56l-3.88.27 2.49 24.5 3.74-.83" fill="#3dc1f3" fill-rule="evenodd"/><path d="M211.01 24.63L208.52.56l-4 .41 2.48 24.5 3.88-.84" fill="#40c1f3" fill-rule="evenodd"/><path d="M210.32 24.77L207.98.7l-3.89.29 2.5 24.76 3.73-.97" fill="#40c1f3" fill-rule="evenodd"/><path d="M209.9 24.91L207.41.69c-1.38 0-2.76.29-4 .42l2.77 24.63 3.72-.83" fill="#40c1f3" fill-rule="evenodd"/><path d="M209.35 24.91L206.72.69l-3.87.56 2.77 24.77 3.74-.97" fill="#42c2f3" fill-rule="evenodd"/><path d="M208.66 25.19L206.17.83l-4.15.42 2.9 24.9 3.74-.96" fill="#42c2f3" fill-rule="evenodd"/><path d="M208.11 25.33L205.48.83l-4.01.56 2.77 24.9 3.87-.97" fill="#45c3f3" fill-rule="evenodd"/><path d="M207.56 25.46L204.78.97l-4 .42 3.04 24.9 3.74-.83" fill="#45c3f3" fill-rule="evenodd"/><path d="M207 25.6L204.23.97l-4.15.55 3.19 24.91 3.73-.83" fill="#45c3f3" fill-rule="evenodd"/><path d="M206.45 25.74l-2.9-24.63-4.16.56 3.18 25.04 3.88-.97" fill="#47c4f3" fill-rule="evenodd"/><path d="M205.76 25.88L202.98 1.1l-4.14.56 3.32 25.17 3.73-.96" fill="#47c4f3" fill-rule="evenodd"/><path d="M205.34 26.02l-3.05-24.77-4.14.55 3.32 25.18 3.87-.96" fill="#4ac5f4" fill-rule="evenodd"/><path d="M204.79 26.15l-3.2-24.9-4 .7 3.32 25.17 3.87-.97" fill="#4ac5f4" fill-rule="evenodd"/><path d="M204.1 26.3L200.9 1.39l-3.87.56 3.32 25.46 3.73-1.11" fill="#4ac5f4" fill-rule="evenodd"/><path d="M203.55 26.43l-3.33-24.9-3.87.55 3.45 25.46 3.75-1.1" fill="#4dc6f4" fill-rule="evenodd"/><path d="M203 26.57l-3.33-24.9c-1.39 0-2.77.28-4.01.55l3.59 25.46 3.74-1.1" fill="#4dc6f4" fill-rule="evenodd"/><path d="M202.44 26.7l-3.46-24.9c-1.39 0-2.77.28-4.02.56l3.74 25.46 3.74-1.11" fill="#4fc6f4" fill-rule="evenodd"/><path d="M201.88 26.99l-3.6-25.18-4 .68 3.87 25.46 3.73-.96" fill="#4fc6f4" fill-rule="evenodd"/><path d="M201.33 27.12l-3.6-25.18-4.15.55 4.01 25.74 3.74-1.1" fill="#4fc6f4" fill-rule="evenodd"/><path d="M200.77 27.26l-3.73-25.32-4.01.7 3.87 25.73 3.87-1.1" fill="#52c7f4" fill-rule="evenodd"/><path d="M200.22 27.4l-3.74-25.32-4.14.69 4.14 25.74 3.74-1.11" fill="#52c7f4" fill-rule="evenodd"/><path d="M199.53 27.68l-3.87-25.46-3.88.7 4.16 25.72 3.59-1.1" fill="#54c8f4" fill-rule="evenodd"/><path d="M198.98 27.68L195.1 2.36l-4 .69 4.14 25.87 3.74-1.1" fill="#54c8f4" fill-rule="evenodd"/><path d="M198.43 27.96l-4.02-25.6-3.87.83 4.14 25.87 3.74-1.1" fill="#54c8f4" fill-rule="evenodd"/><path d="M197.87 28.1l-4.15-25.6-3.88.69 4.3 26 3.73-1.1" fill="#57c9f4" fill-rule="evenodd"/><path d="M197.32 28.23l-4.16-25.6-4.14.7 4.56 26.01 3.74-1.11" fill="#57c9f4" fill-rule="evenodd"/><path d="M196.76 28.37l-4.14-25.6-4.16.7 4.57 26.15 3.73-1.25" fill="#59caf5" fill-rule="evenodd"/><path d="M196.2 28.5l-4.28-25.6-4.15.7 4.7 26.15 3.74-1.24" fill="#59caf5" fill-rule="evenodd"/><path d="M195.66 28.79l-4.43-25.74-4.16.7 4.85 26.28 3.74-1.39" fill="#59caf5" fill-rule="evenodd"/><path d="M194.96 29.06l-4.42-26.01-4.01.7 4.83 26.28 3.6-1.24" fill="#5ccaf5" fill-rule="evenodd"/><path d="M194.41 29.06L189.84 3.2l-3.87.82 4.7 26.3 3.74-1.25" fill="#5ccaf5" fill-rule="evenodd"/><path d="M193.86 29.34l-4.57-26.02-4.01.84 4.84 26.28 3.74-1.1" fill="#5ccaf5" fill-rule="evenodd"/><path d="M193.3 29.48l-4.7-26.01-4.01.82 5.12 26.3 3.6-1.11" fill="#5ecbf5" fill-rule="evenodd"/><path d="M192.75 29.62L187.91 3.6l-3.88.83 4.98 26.43 3.74-1.24" fill="#5ecbf5" fill-rule="evenodd"/><path d="M192.2 29.9l-4.84-26.16-4.15.97L188.46 31l3.74-1.1" fill="#61ccf5" fill-rule="evenodd"/><path d="M191.64 30.03l-4.98-26.15-4.15.97 5.54 26.29 3.59-1.11" fill="#61ccf5" fill-rule="evenodd"/><path d="M191.1 30.16l-5.13-26-4 .96 5.38 26.43 3.74-1.24" fill="#61ccf5" fill-rule="evenodd"/><path d="M190.54 30.45l-5.26-26.3-3.87.97 5.39 26.57 3.6-1.38" fill="#64cdf5" fill-rule="evenodd"/><path d="M189.84 30.45l-5.12-26.16-4.01.97 5.54 26.57 3.6-1.39" fill="#64cdf5" fill-rule="evenodd"/><path d="M189.44 30.72l-5.41-26.29-4.01.97 5.53 26.57 3.88-1.25" fill="#66cef5" fill-rule="evenodd"/><path d="M188.87 31L183.34 4.7c-1.38.14-2.63.55-3.88.83l5.54 26.7 3.87-1.38" fill="#66cef5" fill-rule="evenodd"/><path d="M188.18 31.14l-5.53-26.3-3.87.84 5.8 26.7 3.6-1.24" fill="#66cef5" fill-rule="evenodd"/><path d="M187.63 31.27L182.1 5l-4.01.82 5.94 26.85 3.6-1.38" fill="#69cff6" fill-rule="evenodd"/><path d="M187.07 31.55l-5.66-26.43-4.02.97 5.95 26.7 3.73-1.37" fill="#69cff6" fill-rule="evenodd"/><path d="M186.38 31.83l-5.53-26.57-4.15.97 6.09 26.84 3.74-1.38" fill="#6bcff6" fill-rule="evenodd"/><path d="M185.97 31.83l-5.8-26.3-4.16.98 6.22 26.7 3.74-1.38" fill="#6bcff6" fill-rule="evenodd"/><path d="M185.42 32.1l-5.95-26.56-4.02.97 6.23 26.84 3.74-1.24" fill="#6bcff6" fill-rule="evenodd"/><path d="M184.86 32.24l-6.09-26.56-3.87 1.1 6.23 26.85 3.73-1.39" fill="#6ed0f6" fill-rule="evenodd"/><path d="M184.31 32.52l-6.23-26.7-4 1.1 6.36 26.84 3.73-1.38" fill="#6ed0f6" fill-rule="evenodd"/><path d="M183.62 32.66l-6.09-26.57-4.01.97 6.5 26.98 3.6-1.38" fill="#70d1f6" fill-rule="evenodd"/><path d="M183.06 32.94l-6.22-26.7-3.88 1.1 6.5 26.84 3.6-1.38" fill="#70d1f6" fill-rule="evenodd"/><path d="M182.65 33.21l-6.36-26.84-4.02 1.1 6.65 27 3.73-1.4" fill="#70d1f6" fill-rule="evenodd"/><path d="M181.96 33.21l-6.36-26.7-4.16 1.1 6.92 27.12 3.6-1.38" fill="#73d2f6" fill-rule="evenodd"/><path d="M181.4 33.49l-6.5-26.57-4.01 1.11 6.92 26.98 3.6-1.38" fill="#73d2f6" fill-rule="evenodd"/><path d="M180.85 33.76l-6.5-26.84-4.15 1.11 6.92 27.12 3.73-1.39" fill="#73d2f6" fill-rule="evenodd"/><path d="M180.3 33.9l-6.65-26.84-4 1.1 6.91 27.13 3.74-1.38" fill="#76d3f6" fill-rule="evenodd"/><path d="M179.74 34.18l-6.92-26.84-3.87 1.1 7.06 27.12 3.73-1.38" fill="#76d3f6" fill-rule="evenodd"/><path d="M179.2 34.32l-6.93-26.84-3.87 1.1 7.2 27.13 3.59-1.4" fill="#78d4f7" fill-rule="evenodd"/><path d="M178.64 34.6L171.72 7.6l-4.01 1.25 7.32 27.12 3.61-1.38" fill="#78d4f7" fill-rule="evenodd"/><path d="M178.09 34.73l-7.06-26.97L167.15 9l7.2 27.12 3.73-1.39" fill="#78d4f7" fill-rule="evenodd"/><path d="M177.53 35l-7.2-26.97-3.87 1.1 7.47 27.27 3.6-1.4" fill="#7bd4f7" fill-rule="evenodd"/><path d="M176.97 35.14l-7.2-26.84-4.14 1.25 7.61 27.12 3.74-1.38" fill="#7bd4f7" fill-rule="evenodd"/><path d="M176.42 35.43L169.09 8.3l-4.01 1.39 7.6 27.12 3.74-1.38" fill="#7dd5f7" fill-rule="evenodd"/><path d="M175.87 35.57L168.4 8.58l-3.88 1.25 7.61 27.26 3.74-1.39" fill="#7dd5f7" fill-rule="evenodd"/><path d="M175.32 35.84L167.7 8.72l-3.88 1.38 7.75 27.13 3.74-1.39" fill="#7dd5f7" fill-rule="evenodd"/><path d="M174.62 35.98L167.15 9l-4 1.25 8.01 27.11 3.6-1.38" fill="#80d6f7" fill-rule="evenodd"/><path d="M174.07 36.25l-7.6-27.11-3.88 1.38 7.88 27.26 3.6-1.38" fill="#80d6f7" fill-rule="evenodd"/><path d="M173.65 36.53L165.9 9.41l-4 1.25 8.02 27.26 3.73-1.39" fill="#82d7f7" fill-rule="evenodd"/><path d="M172.96 36.67L165.21 9.7l-3.87 1.39 8.17 27.25 3.45-1.38" fill="#82d7f7" fill-rule="evenodd"/><path d="M172.55 36.95L164.4 9.68l-4.01 1.25 8.29 27.27 3.6-1.39" fill="#82d7f7" fill-rule="evenodd"/><path d="M171.85 37.23l-8.02-27.26-3.87 1.38 8.3 27.26 3.6-1.38" fill="#85d8f7" fill-rule="evenodd"/><path d="M171.3 37.36l-8.02-27.1-4.01 1.37 8.44 27.26 3.59-1.52" fill="#85d8f7" fill-rule="evenodd"/><path d="M170.75 37.64l-8.16-27.26-3.88 1.39 8.44 27.26 3.6-1.39" fill="#87d8f7" fill-rule="evenodd"/><path d="M170.2 37.77l-8.3-27.11-3.88 1.38 8.58 27.26 3.6-1.38" fill="#87d8f7" fill-rule="evenodd"/><path d="M169.78 38.06l-8.44-27.27-3.87 1.38 8.57 27.4 3.6-1.53" fill="#87d8f7" fill-rule="evenodd"/><path d="M169.23 38.33l-8.58-27.25-3.87 1.38 8.85 27.26 3.6-1.39" fill="#8ad9f8" fill-rule="evenodd"/><path d="M168.67 38.47l-8.57-27.26-3.88 1.39 8.72 27.4 3.74-1.4" fill="#8ad9f8" fill-rule="evenodd"/><path d="M167.99 38.75l-8.59-27.26-3.87 1.39 8.86 27.4 3.6-1.53" fill="#8cdaf8" fill-rule="evenodd"/><path d="M167.43 39.03l-8.72-27.26-3.87 1.38 9 27.26 3.6-1.38" fill="#8cdaf8" fill-rule="evenodd"/><path d="M167.01 39.16l-8.85-27.26-4.01 1.39 9.13 27.4 3.6-1.4" fill="#8cdaf8" fill-rule="evenodd"/><path d="M166.32 39.44l-8.85-27.27-3.88 1.39 9.13 27.4 3.6-1.53" fill="#8fdbf8" fill-rule="evenodd"/><path d="M165.77 39.72l-9-27.4-3.87 1.37 9.27 27.54 3.6-1.52" fill="#8fdbf8" fill-rule="evenodd"/><path d="M165.21 39.85l-8.99-27.25-3.87 1.38 9.4 27.4 3.46-1.39" fill="#8fdbf8" fill-rule="evenodd"/><path d="M164.8 40.13l-9.27-27.25-3.87 1.38 9.54 27.4 3.6-1.52" fill="#91dcf8" fill-rule="evenodd"/><path d="M164.25 40.4l-9.41-27.39-3.74 1.39 9.41 27.53 3.6-1.52" fill="#91dcf8" fill-rule="evenodd"/><path d="M163.56 40.55l-9.28-27.26-3.87 1.38 9.69 27.4 3.46-1.39" fill="#94ddf8" fill-rule="evenodd"/><path d="M163 40.82l-9.4-27.25-3.74 1.38 9.68 27.4 3.46-1.39" fill="#94ddf8" fill-rule="evenodd"/><path d="M162.59 41.1l-9.69-27.4-3.88 1.39 9.96 27.53 3.6-1.52" fill="#94ddf8" fill-rule="evenodd"/><path d="M162.03 41.24l-9.68-27.26-3.88 1.38 9.96 27.53 3.6-1.65" fill="#96ddf8" fill-rule="evenodd"/><path d="M161.49 41.52l-9.7-27.26-3.87 1.38 9.96 27.4 3.6-1.39" fill="#96ddf8" fill-rule="evenodd"/><path d="M160.92 41.8l-9.68-27.4-4.14 1.52 10.24 27.4 3.6-1.53" fill="#99def9" fill-rule="evenodd"/><path d="M160.38 42.07l-9.97-27.4-3.87 1.38 10.24 27.54 3.6-1.53" fill="#99def9" fill-rule="evenodd"/><path d="M159.82 42.2l-9.96-27.25-3.88 1.38 10.24 27.54 3.6-1.66" fill="#99def9" fill-rule="evenodd"/><path d="M159.27 42.48l-10.24-27.26-3.74 1.39 10.24 27.4 3.6-1.4" fill="#9cdff9" fill-rule="evenodd"/><path d="M158.71 42.75l-10.24-27.52-3.73 1.51 10.38 27.4 3.6-1.24" fill="#9cdff9" fill-rule="evenodd"/><path d="M158.16 42.9l-10.24-27.26-3.74 1.53 10.38 27.39 3.6-1.66" fill="#9ee0f9" fill-rule="evenodd"/><path d="M157.6 43.18l-10.24-27.26-3.87 1.52 10.66 27.4 3.45-1.67" fill="#9ee0f9" fill-rule="evenodd"/><path d="M157.06 43.45l-10.39-27.26-3.87 1.52 10.65 27.4 3.6-1.66" fill="#9ee0f9" fill-rule="evenodd"/><path d="M156.5 43.73l-10.52-27.26-3.73 1.38 10.79 27.4 3.46-1.52" fill="#a1e1f9" fill-rule="evenodd"/><path d="M155.94 44l-10.51-27.39-3.87 1.66 10.93 27.26 3.45-1.53" fill="#a1e1f9" fill-rule="evenodd"/><path d="M155.39 44.28l-10.51-27.54-3.74 1.53 10.93 27.4 3.46-1.67" fill="#a3e1f9" fill-rule="evenodd"/><path d="M154.84 44.42l-10.66-27.26-3.87 1.53 11.07 27.4 3.46-1.67" fill="#a3e1f9" fill-rule="evenodd"/><path d="M154.28 44.7l-10.79-27.26-3.73 1.52 11.06 27.4 3.46-1.67" fill="#a3e1f9" fill-rule="evenodd"/><path d="M153.88 44.97L142.8 17.71l-3.74 1.52 11.21 27.26 3.6-1.52" fill="#a6e2f9" fill-rule="evenodd"/><path d="M153.18 45.12l-10.8-27.13-3.73 1.52 11.2 27.26 3.6-1.66" fill="#a6e2f9" fill-rule="evenodd"/><path d="M152.76 45.38l-11.07-27.11-3.87 1.52 11.2 27.26 3.6-1.66" fill="#a6e2f9" fill-rule="evenodd"/><path d="M152.21 45.67l-11.2-27.26-3.75 1.66 11.35 27.26 3.6-1.67" fill="#a8e3fa" fill-rule="evenodd"/><path d="M151.8 45.94l-11.35-27.25-3.88 1.65L148.2 47.6l3.47-1.66" fill="#a8e3fa" fill-rule="evenodd"/><path d="M151.1 46.22l-11.34-27.26-3.74 1.66 11.62 27.26 3.46-1.66" fill="#abe4fa" fill-rule="evenodd"/><path d="M150.55 46.36l-11.21-26.98-3.87 1.65 11.76 27.13a20.3 20.3 0 0 0 3.46-1.67" fill="#abe4fa" fill-rule="evenodd"/><path d="M150 46.64L138.5 19.5l-3.74 1.67 11.77 27.11 3.45-1.65" fill="#abe4fa" fill-rule="evenodd"/><path d="M149.58 46.91L137.96 19.8l-3.74 1.66 11.76 27.12 3.6-1.65" fill="#ade5fa" fill-rule="evenodd"/><path d="M149.03 47.05l-11.77-26.98-3.73 1.66 12.04 27.12 3.45-1.8" fill="#ade5fa" fill-rule="evenodd"/><path d="M148.47 47.46l-11.9-27.12-3.6 1.67 12.04 27.12 3.46-1.67" fill="#b0e6fa" fill-rule="evenodd"/><path d="M147.92 47.74l-11.9-27.12-3.74 1.66 12.18 27.12 3.46-1.66" fill="#b0e6fa" fill-rule="evenodd"/><path d="M147.37 47.87l-11.9-26.97-3.74 1.66 12.17 27.12 3.47-1.8" fill="#b0e6fa" fill-rule="evenodd"/><path d="M146.81 48.16l-12.04-26.98-3.73 1.65 12.45 27.13c.97-.7 2.21-1.25 3.32-1.8" fill="#b2e6fa" fill-rule="evenodd"/><path d="M146.27 48.44l-12.05-26.99-3.74 1.66 12.46 26.98 3.32-1.65" fill="#b2e6fa" fill-rule="evenodd"/><path d="M145.84 48.7l-12.3-26.97-3.61 1.66 12.45 26.98 3.47-1.66" fill="#b5e7fa" fill-rule="evenodd"/><path d="M145.3 48.98l-12.46-26.97-3.6 1.66 12.45 26.98 3.6-1.67" fill="#b5e7fa" fill-rule="evenodd"/><path d="M144.88 49.26l-12.45-27.12-3.75 1.66 12.6 26.98 3.46-1.65" fill="#b5e7fa" fill-rule="evenodd"/><path d="M144.18 49.54l-12.44-26.99-3.61 1.67 12.59 26.98 3.46-1.66" fill="#b8e8fb" fill-rule="evenodd"/><path d="M143.63 49.82l-12.46-26.99-3.73 1.67 12.87 26.98 3.32-1.8" fill="#b8e8fb" fill-rule="evenodd"/><path d="M143.22 49.96L130.49 23.1l-3.74 1.66 13 26.98 3.47-1.8" fill="#bae9fb" fill-rule="evenodd"/><path d="M142.66 50.23l-12.73-26.7-3.73 1.66 13 26.98 3.46-1.8" fill="#bae9fb" fill-rule="evenodd"/><path d="M142.1 50.5l-12.73-26.97-3.73 1.66 13 26.84 3.47-1.66" fill="#bae9fb" fill-rule="evenodd"/><path d="M141.56 50.79l-12.88-26.85-3.6 1.66 12.88 26.98 3.45-1.65" fill="#bdeafb" fill-rule="evenodd"/><path d="M141 51.06l-12.73-26.84-3.73 1.8 13.28 26.7 3.32-1.66" fill="#bdeafb" fill-rule="evenodd"/><path d="M140.58 51.2l-13.14-26.7-3.6 1.8L137.13 53l3.45-1.66" fill="#bfeafb" fill-rule="evenodd"/><path d="M140.04 51.62l-13.15-26.84-3.6 1.8 13.28 26.7 3.47-1.66" fill="#bfeafb" fill-rule="evenodd"/><path d="M139.34 51.9L126.47 24.9l-3.73 1.8 13.42 26.7 3.46-1.66" fill="#bfeafb" fill-rule="evenodd"/><path d="M139.06 52.03l-13.55-26.7-3.6 1.8 13.42 26.7 3.6-1.8" fill="#c2ebfb" fill-rule="evenodd"/><path d="M138.51 52.3L125.1 25.6l-3.6 1.8 13.56 26.7 3.46-1.8" fill="#c2ebfb" fill-rule="evenodd"/><path d="M137.96 52.58L124.4 26.02l-3.6 1.66 13.84 26.7 3.32-1.8" fill="#c2ebfb" fill-rule="evenodd"/><path d="M137.4 52.86L123.84 26.3l-3.6 1.8 13.84 26.56 3.32-1.8" fill="#c4ecfb" fill-rule="evenodd"/><path d="M136.85 53.14l-13.56-26.57-3.6 1.8 13.84 26.57 3.32-1.8" fill="#c4ecfb" fill-rule="evenodd"/><path d="M136.44 53.41L122.6 26.84l-3.46 1.8 13.83 26.57 3.47-1.8" fill="#c7edfb" fill-rule="evenodd"/><path d="M135.88 53.7l-13.84-26.58-3.59 1.8 13.98 26.57 3.45-1.8" fill="#c7edfb" fill-rule="evenodd"/><path d="M135.33 53.97L121.49 27.4l-3.6 1.8 13.98 26.57 3.46-1.8" fill="#c7edfb" fill-rule="evenodd"/><path d="M134.91 54.25l-13.97-26.57-3.6 1.8 14.11 26.42 3.47-1.65" fill="#c9eefc" fill-rule="evenodd"/><path d="M134.36 54.52l-13.97-26.57-3.6 1.95 14.11 26.28 3.46-1.66" fill="#c9eefc" fill-rule="evenodd"/><path d="M133.8 54.8l-14.1-26.43-3.6 1.8 14.25 26.29 3.45-1.67" fill="#cceffc" fill-rule="evenodd"/><path d="M133.25 55.07l-14.11-26.43-3.6 1.8 14.11 26.3 3.47-1.67" fill="#cceffc" fill-rule="evenodd"/><path d="M132.84 55.35l-14.25-26.56-3.6 1.8 14.4 26.28 3.45-1.8" fill="#cceffc" fill-rule="evenodd"/><path d="M132.43 55.48L117.9 29.2l-3.47 1.94 14.4 26.29 3.6-2.08" fill="#cfeffc" fill-rule="evenodd"/><path d="M131.73 55.77l-14.39-26.3-3.6 1.95 14.67 26.28 3.32-1.93" fill="#cfeffc" fill-rule="evenodd"/><path d="M131.32 56.05l-14.53-26.3-3.46 1.94 14.66 26.29c.97-.69 2.08-1.39 3.33-1.93" fill="#d1f0fc" fill-rule="evenodd"/><path d="M130.76 56.32l-14.53-26.29-3.6 1.94 14.81 26.29c.97-.7 2.08-1.39 3.32-1.94" fill="#d1f0fc" fill-rule="evenodd"/><path d="M130.2 56.74l-14.66-26.3-3.46 1.94 14.8 26.01 3.33-1.8" fill="#d1f0fc" fill-rule="evenodd"/><path d="M129.65 56.87L115 30.72l-3.46 1.94 14.8 26.01 3.46-1.8" fill="#d4f1fc" fill-rule="evenodd"/><path d="M129.24 57.15L114.44 31l-3.6 1.94 15.08 26 3.32-1.8" fill="#d4f1fc" fill-rule="evenodd"/><path d="M128.83 57.43l-14.95-26.01-3.6 1.79 15.22 26.02 3.46-1.8" fill="#d6f2fc" fill-rule="evenodd"/><path d="M128.27 57.7L113.33 31.7l-3.6 1.94 15.22 25.87 3.32-1.8" fill="#d6f2fc" fill-rule="evenodd"/><path d="M127.72 58.12l-14.94-26.29-3.6 1.93 15.22 25.88 3.32-1.8" fill="#d6f2fc" fill-rule="evenodd"/><path d="M127.16 58.26L112.1 32.24l-3.47 1.94 15.22 25.88 3.32-1.8" fill="#d9f3fd" fill-rule="evenodd"/><path d="M126.75 58.53l-15.22-25.87-3.46 1.94 15.22 25.73 3.46-1.8" fill="#d9f3fd" fill-rule="evenodd"/><path d="M126.2 58.81l-15.22-25.87-3.46 1.93 15.36 25.74 3.32-1.8" fill="#d9f3fd" fill-rule="evenodd"/><path d="M125.78 59.09l-15.5-25.88-3.46 1.94 15.64 25.73 3.32-1.79" fill="#dbf4fd" fill-rule="evenodd"/><path d="M125.23 59.36l-15.36-25.73-3.46 1.8 15.5 25.73 3.32-1.8" fill="#dbf4fd" fill-rule="evenodd"/><path d="M124.82 59.5l-15.5-25.46-3.46 1.94 15.5 25.6 3.46-1.94" fill="#def4fd" fill-rule="evenodd"/><path d="M124.26 59.91l-15.5-25.73-3.6 1.94 15.78 25.74 3.32-1.95" fill="#def4fd" fill-rule="evenodd"/><path d="M123.7 60.2l-15.5-25.74-3.59 2.07 15.78 25.6 3.32-1.94" fill="#def4fd" fill-rule="evenodd"/><path d="M123.3 60.47l-15.78-25.6-3.46 1.94 20.76 33.62h.4l-5.25-8.16 3.32-1.94" fill="#e0f5fd" fill-rule="evenodd"/><path d="M122.74 60.75l-15.78-25.6-3.32 1.93 20.62 33.22h.97l-5.27-7.9 2.78-1.65" fill="#e0f5fd" fill-rule="evenodd"/><path d="M122.32 60.89l-15.91-25.32c-1.39.82-2.49 1.38-3.32 2.07l20.62 32.93h1.38l-5.12-8.3 2.35-1.39" fill="#e3f6fd" fill-rule="evenodd"/><path d="M121.77 61.3l-15.91-25.46-3.33 1.93 20.49 32.8h2.2l-5.25-8.3 1.8-1.11" fill="#e3f6fd" fill-rule="evenodd"/><path d="M121.35 61.58l-16.18-25.46-3.2 2.07 20.5 32.24h2.76l-5.26-8.16 1.38-.83" fill="#e3f6fd" fill-rule="evenodd"/><path d="M120.8 61.86L104.76 36.4l-3.46 2.07 20.48 32.1 3.46-.14-5.26-8.16.83-.56" fill="#e5f7fd" fill-rule="evenodd"/><path d="M120.38 62.13L104.2 36.81l-3.32 1.94 20.34 31.82 4-.14-5.25-8.16.42-.28zm-25.6-32.66l4.43 6.93-4.14-7.34-.29.42" fill="#e5f7fd" fill-rule="evenodd"/><path d="M124.95 70.43l-21.3-33.21-3.05 1.53-5.81-9.69-.56.97 26.29 40.54 4.43-.14" fill="#e8f8fe" fill-rule="evenodd"/><path d="M124.26 70.43L103.1 37.36l-2.49 1.39-5.81-9.69-.83 1.66 26.01 39.85 4.43-.14" fill="#e8f8fe" fill-rule="evenodd"/><path d="M123.7 70.43l-21.17-32.66-1.8 1.11-5.81-9.68-1.1 2.22 25.46 39.15 4.42-.14" fill="#e8f8fe" fill-rule="evenodd"/><path d="M123.15 70.57l-21.17-32.65-1.38.83-5.53-9.69-1.67 2.9 25.19 38.75 4.56-.28" fill="#ebf8fe" fill-rule="evenodd"/><path d="M122.46 70.57l-21.03-32.24-.7.42-5.8-9.69-1.8 3.74 24.9 37.77 4.43-.28" fill="#ebf8fe" fill-rule="evenodd"/><path d="M121.77 70.57L101 38.75l-.28.14-2.34-3.88-3.6-5.53-2.08 4.15 24.63 36.94 4.42-.14" fill="#edf9fe" fill-rule="evenodd"/><path d="M121.35 70.57l-27.12-40.4-1.93 4.15 24.49 36.25 4.43-.14" fill="#edf9fe" fill-rule="evenodd"/><path d="M120.52 70.57l-26.43-39.7L92.02 35l24.08 35.56 4.42-.14" fill="#edf9fe" fill-rule="evenodd"/><path d="M119.97 70.57l-26.3-39.02-1.92 4.16 23.8 35.14 4.42-.28" fill="#f0fafe" fill-rule="evenodd"/><path d="M119.28 70.57L93.4 32.24l-1.93 4.15 23.52 34.46 4.29-.28" fill="#f0fafe" fill-rule="evenodd"/><path d="M118.72 70.57L93 33.08l-1.94 4.15L114.17 71l4.56-.14" fill="#f2fbfe" fill-rule="evenodd"/><path d="M118.17 70.57l-25.46-36.8-1.8 3.87 22.83 33.21 4.57-.14" fill="#f2fbfe" fill-rule="evenodd"/><path d="M117.48 70.7L92.3 34.18l-2.08 4.15 22.83 32.66 4.57-.29" fill="#f2fbfe" fill-rule="evenodd"/><path d="M116.79 70.7L92.02 34.87l-1.94 4.16 22.14 31.82h4.57" fill="#f5fcfe" fill-rule="evenodd"/><path d="M116.23 70.7L91.75 35.57l-1.95 4L111.67 71l4.56-.29" fill="#f5fcfe" fill-rule="evenodd"/><path d="M115.54 70.85l-24.22-34.6-1.93 4.02L110.98 71l4.56-.14" fill="#f5fcfe" fill-rule="evenodd"/><path d="M114.99 70.85L90.9 36.95l-1.93 4.01L110.28 71l4.57-.14" fill="#f7fdff" fill-rule="evenodd"/><path d="M114.3 70.85L90.78 37.64l-2.08 4.01 21.03 29.47 4.57-.27" fill="#f7fdff" fill-rule="evenodd"/><path d="M113.74 70.85L90.51 38.2l-2.08 4.15 20.75 28.78 4.57-.28" fill="#fafdff" fill-rule="evenodd"/><path d="M113.05 70.85L90.08 38.89l-1.94 4 20.2 28.24 4.71-.28" fill="#fafdff" fill-rule="evenodd"/><path d="M112.36 70.99L89.8 39.58l-1.93 3.87 19.93 27.67 4.56-.14" fill="#fafdff" fill-rule="evenodd"/><path d="M111.67 70.99L89.53 40.13l-1.94 3.88 19.51 26.98 4.57-.14" fill="#fcfeff" fill-rule="evenodd"/><path d="M111.11 70.99l-22-30.17-1.93 3.88 19.37 26.57 4.56-.29" fill="#fcfeff" fill-rule="evenodd"/><path d="M110.42 70.99L88.84 41.52l-2.08 3.87 18.82 25.88 4.7-.29" fill="#fff" fill-rule="evenodd"/><path d="M109.87 71.13L88.56 42.07l-1.94 3.87 18.55 25.32 4.7-.14" fill="#fff" fill-rule="evenodd"/><path d="M288.22 66.28h2.21a57.4 57.4 0 0 1-5.94 10.24h-.28a49.89 49.89 0 0 0 4.15-10.24" fill="#244ba6" fill-rule="evenodd"/><path d="M232.74 21.03V.56L229 .28v21.17l3.74-.42" fill="#19b5f1" fill-rule="evenodd"/><path d="M233.02 21.03l.27-20.47-3.87-.28-.14 21.17 3.74-.42" fill="#1ab4f0" fill-rule="evenodd"/><path d="M233.43 21.03l.41-20.47-3.87-.28-.27 21.03 3.73-.28" fill="#1ab4f0" fill-rule="evenodd"/><path d="M233.84 21.03L234.26.7l-3.74-.4-.55 21.02 3.87-.28" fill="#1ab2ef" fill-rule="evenodd"/><path d="M234.12 20.9l.56-20.2-3.74-.28-.55 20.76c1.24 0 2.49 0 3.73-.29" fill="#1ab2ef" fill-rule="evenodd"/><path d="M234.4 20.9l.69-20.2-3.6-.28-.7 20.76 3.6-.29" fill="#1ab2ef" fill-rule="evenodd"/><path d="M234.81 20.9l.83-20.06-3.6-.42-.96 20.76 3.73-.29" fill="#1bb1ee" fill-rule="evenodd"/><path d="M235.23 20.76l.83-19.92-3.6-.42-.96 20.76 3.73-.29" fill="#18b0ee" fill-rule="evenodd"/><path d="M235.5 20.76l.98-19.92-3.46-.28-1.11 20.62 3.6-.29" fill="#19afed" fill-rule="evenodd"/><path d="M235.92 20.76L237.17.97l-3.74-.41-1.25 20.62 3.74-.29" fill="#19afed" fill-rule="evenodd"/><path d="M236.2 20.76L237.58.97c-1.25 0-2.35-.28-3.46-.41l-1.38 20.48 3.6-.28" fill="#19afed" fill-rule="evenodd"/><path d="M236.61 20.76L238 1.1 234.54.7l-1.39 20.34 3.46-.27" fill="#19aeec" fill-rule="evenodd"/><path d="M237.03 20.76l1.52-19.65L235.1.7l-1.66 20.34 3.6-.27" fill="#19aeec" fill-rule="evenodd"/><path d="M237.44 20.76l1.52-19.51-3.32-.41-1.8 20.05 3.6-.13" fill="#19aeec" fill-rule="evenodd"/><path d="M237.85 20.76l1.67-19.37-3.32-.55-1.94 20.06 3.6-.14" fill="#19aceb" fill-rule="evenodd"/><path d="M238.13 20.76l1.8-19.37-3.32-.42-1.8 19.79 3.46-.15" fill="#19aceb" fill-rule="evenodd"/><path d="M238.55 20.76l1.94-19.37a114.84 114.84 0 0 0-3.18-.42l-2.22 19.93 3.46-.14" fill="#1aabea" fill-rule="evenodd"/><path d="M238.96 20.76l2.08-19.23-3.32-.42-2.21 19.79 3.45-.14" fill="#1aabea" fill-rule="evenodd"/><path d="M239.38 20.76l2.07-19.1-3.18-.55-2.34 19.79 3.45-.28" fill="#1aabea" fill-rule="evenodd"/><path d="M239.79 20.76l2.36-19.1-3.32-.41-2.5 19.5h3.47" fill="#1aa9e9" fill-rule="evenodd"/><path d="M240.22 20.76l2.34-18.96a110.7 110.7 0 0 0-3.18-.55l-2.77 19.5h3.6" fill="#1aa9e9" fill-rule="evenodd"/><path d="M240.49 20.76l2.63-18.96c-1.11 0-2.08-.27-3.19-.41l-2.77 19.37h3.32" fill="#1ba8e8" fill-rule="evenodd"/><path d="M240.9 20.76l2.77-18.82-3.18-.55-2.77 19.37h3.18" fill="#1ba8e8" fill-rule="evenodd"/><path d="M241.32 20.76l2.77-18.68-3.05-.55L238 20.76h3.32" fill="#1ba8e8" fill-rule="evenodd"/><path d="M241.73 20.76l2.91-18.55-3.04-.54-3.05 19.09h3.32" fill="#1ba7e7" fill-rule="evenodd"/><path d="M242.15 20.76l3.04-18.55-2.9-.54-3.33 19.09h3.19" fill="#1ba7e7" fill-rule="evenodd"/><path d="M242.7 20.76l3.04-18.4-3.04-.56-3.32 18.82h3.32" fill="#1ba5e6" fill-rule="evenodd"/><path d="M243.12 20.76l3.18-18.27-2.9-.54-3.6 18.67h3.18" fill="#1ba5e6" fill-rule="evenodd"/><path d="M243.4 20.76l3.45-18.13-2.9-.55-3.74 18.54h3.18" fill="#1ba5e6" fill-rule="evenodd"/><path d="M243.94 20.76l3.47-17.99-2.78-.56-3.87 18.41h3.18" fill="#1ca4e5" fill-rule="evenodd"/><path d="M244.5 20.76l3.46-17.99a113.46 113.46 0 0 0-2.77-.56l-4.15 18.55h3.18" fill="#1ca4e5" fill-rule="evenodd"/><path d="M244.77 20.76l3.74-17.71-2.77-.7-4.14 18.27h3.18" fill="#1aa2e4" fill-rule="evenodd"/><path d="M245.2 20.76l3.86-17.57-2.76-.7-4.15 18.13h3.04" fill="#1aa2e4" fill-rule="evenodd"/><path d="M245.6 20.76l4.02-17.43-2.77-.7-4.15 18h2.9" fill="#1aa2e4" fill-rule="evenodd"/><path d="M246.16 20.76l4.01-17.43-2.77-.56-4.28 18h3.04" fill="#1aa1e3" fill-rule="evenodd"/><path d="M246.57 20.76l4.16-17.3a103.77 103.77 0 0 0-2.63-.55l-4.57 17.71h3.04" fill="#1aa1e3" fill-rule="evenodd"/><path d="M247.13 20.76l4.15-17.02a101 101 0 0 0-2.63-.7l-4.57 17.58 3.05.14" fill="#1b9fe2" fill-rule="evenodd"/><path d="M247.54 20.76l4.29-16.88-2.49-.69-4.84 17.57 2.76.14" fill="#1b9fe2" fill-rule="evenodd"/><path d="M247.96 20.76L252.38 4l-2.48-.69-4.84 17.3 2.76.14" fill="#1b9fe2" fill-rule="evenodd"/><path d="M248.5 20.76l4.58-16.6-2.77-.7-4.84 17.16 3.04.28" fill="#1b9ee1" fill-rule="evenodd"/><path d="M248.93 20.76l4.7-16.47-2.49-.69-5.26 17.16h2.91" fill="#1b9ee1" fill-rule="evenodd"/><path d="M249.34 20.9l4.84-16.47-2.49-.7-5.26 17.03 2.92.14" fill="#1b9ee1" fill-rule="evenodd"/><path d="M249.76 20.9l4.98-16.19-2.35-.7-5.4 16.75 2.77.14" fill="#1b9de0" fill-rule="evenodd"/><path d="M250.31 21.03l4.98-16.18-2.34-.7-5.55 16.6 2.91.3" fill="#1b9de0" fill-rule="evenodd"/><path d="M250.86 21.03L255.84 5l-2.2-.7-5.54 16.6 2.77.15" fill="#1c9bdf" fill-rule="evenodd"/><path d="M251.42 21.03l4.98-15.77-2.2-.7-5.55 16.34 2.77.14" fill="#1c9bdf" fill-rule="evenodd"/><path d="M251.83 21.18l5.26-15.78-2.22-.69-5.8 16.19 2.77.28" fill="#1c9bdf" fill-rule="evenodd"/><path d="M252.25 21.18l5.53-15.5-2.34-.83-5.82 16.05 2.77.28" fill="#1a99de" fill-rule="evenodd"/><path d="M252.8 21.31l5.54-15.5-2.21-.69-5.96 15.91c.84 0 1.8 0 2.63.29" fill="#1a99de" fill-rule="evenodd"/><path d="M253.35 21.31l5.54-15.22-2.22-.83-6.09 15.77 2.78.29" fill="#1a98dd" fill-rule="evenodd"/><path d="M253.77 21.45l5.67-15.22-2.07-.7-6.09 15.51 2.5.41" fill="#1a98dd" fill-rule="evenodd"/><path d="M254.18 21.45L260 6.51l-2.07-.83-6.23 15.5 2.64.27" fill="#1a98dd" fill-rule="evenodd"/><path d="M254.74 21.59l5.8-14.94-1.93-.7-6.36 15.23 2.49.4" fill="#1b97dc" fill-rule="evenodd"/><path d="M255.3 21.59l5.94-14.67-2.07-.69-6.37 15.08 2.5.29" fill="#1b97dc" fill-rule="evenodd"/><path d="M255.85 21.73l5.94-14.53-1.93-.83-6.5 14.94 2.48.42" fill="#1b95db" fill-rule="evenodd"/><path d="M256.4 21.73l5.95-14.4-1.8-.68-6.64 14.8 2.49.28" fill="#1b95db" fill-rule="evenodd"/><path d="M256.95 21.87l6.24-14.25-2.08-.69-6.64 14.53 2.49.41" fill="#1b95db" fill-rule="evenodd"/><path d="M257.37 22l6.37-14.11-1.95-.83-6.92 14.53 2.5.42" fill="#1b94da" fill-rule="evenodd"/><path d="M257.93 22.14l6.35-13.97-1.93-.83-6.92 14.25 2.49.55" fill="#1b94da" fill-rule="evenodd"/><path d="M258.34 22.14l6.5-13.83-1.8-.7-6.92 14.12 2.35.41" fill="#1c93d9" fill-rule="evenodd"/><path d="M259.03 22.28l6.5-13.56-1.94-.83-6.92 13.84 2.36.55" fill="#1c93d9" fill-rule="evenodd"/><path d="M259.58 22.41L266.08 9l-1.8-.83L257.23 22l2.34.41" fill="#1c93d9" fill-rule="evenodd"/><path d="M260 22.55l6.64-13.27-1.8-.84-7.06 13.57 2.21.54" fill="#1c91d8" fill-rule="evenodd"/><path d="M260.56 22.7l6.9-13.14-1.93-.84-7.2 13.42 2.22.56" fill="#1c91d8" fill-rule="evenodd"/><path d="M261.1 22.84l6.92-13.02-1.8-.82-7.33 13.28 2.2.55" fill="#1c91d8" fill-rule="evenodd"/><path d="M261.66 22.98l6.92-12.88-1.67-.82-7.46 13.14 2.2.56" fill="#1d90d8" fill-rule="evenodd"/><path d="M262.21 23.11l6.92-12.73-1.66-.83-7.47 13 2.2.56" fill="#1d90d8" fill-rule="evenodd"/><path d="M262.76 23.25l6.92-12.45c-.41-.42-.97-.56-1.52-.83l-7.61 12.73 2.21.55" fill="#1d8fd7" fill-rule="evenodd"/><path d="M263.31 23.53l7.06-12.45-1.66-.83-7.6 12.44 2.2.7" fill="#1d8fd7" fill-rule="evenodd"/><path d="M263.87 23.53l7.05-12.18-.55-.42-.97-.4-7.75 12.44 2.09.55" fill="#1d8fd7" fill-rule="evenodd"/><path d="M264.43 23.8l7.2-12.18-1.4-.69h-.27l-7.75 12.18 2.22.69" fill="#1e8dd6" fill-rule="evenodd"/><path d="M264.84 23.94l7.33-11.9a99.63 99.63 0 0 0-1.38-.83l-7.9 12.04 1.95.7" fill="#1b8dd6" fill-rule="evenodd"/><path d="M265.4 24.08l7.33-11.76-1.38-.7h-.15l-7.75 11.77 1.94.69" fill="#1c8cd5" fill-rule="evenodd"/><path d="M265.95 24.36l7.47-11.63a96.86 96.86 0 0 0-1.38-.83h-.15l-7.88 11.76 1.94.7" fill="#1c8cd5" fill-rule="evenodd"/><path d="M266.64 24.5L273.97 13l-1.38-.69h-.28l-7.75 11.48 1.94.7" fill="#1c8cd5" fill-rule="evenodd"/><path d="M267.06 24.63l7.46-11.2-1.1-.7H273l-7.88 11.21 1.93.7" fill="#1c8ad4" fill-rule="evenodd"/><path d="M267.6 24.91l7.61-11.07a81.64 81.64 0 0 0-1.1-.7h-.55l-7.9 11.08 1.94.69" fill="#1c8ad4" fill-rule="evenodd"/><path d="M268.17 25.19l7.6-11.07-1.1-.7h-.42l-8.03 11.08c.7 0 1.38.41 1.94.69" fill="#1c89d3" fill-rule="evenodd"/><path d="M268.71 25.33l7.61-10.8-.96-.69h-.7l-7.89 10.8 1.94.68" fill="#1c89d3" fill-rule="evenodd"/><path d="M269.13 25.6l7.75-10.79a58.11 58.11 0 0 0-.83-.55h-.84l-7.88 10.51 1.8.83" fill="#1c89d3" fill-rule="evenodd"/><path d="M269.82 25.88l7.75-10.66-.97-.55h-.69l-8.03 10.38 1.39.55.55.28" fill="#1d88d2" fill-rule="evenodd"/><path d="M270.24 26.02l7.88-10.39-.97-.69-.7.15-8.01 10.1.96.4.83.43" fill="#1d88d2" fill-rule="evenodd"/><path d="M270.79 26.3l7.89-10.24-.97-.7-.7.15-8.02 9.95.41.15 1.39.69" fill="#1d86d1" fill-rule="evenodd"/><path d="M271.35 26.57l7.88-10.1-.83-.7-.83.15-8.02 9.68 1.8.97" fill="#1d86d1" fill-rule="evenodd"/><path d="M271.9 26.84l7.89-9.95-.84-.56h-.7l-8.15 9.69 1.8.83" fill="#1d86d1" fill-rule="evenodd"/><path d="M272.45 27.12l7.9-9.68-.85-.7h-.69l-8.3 9.41 1.94.97" fill="#1e85d0" fill-rule="evenodd"/><path d="M272.86 27.26l8.03-9.55-.83-.69h-.7l-8.3 9.41 1.8.83" fill="#1e85d0" fill-rule="evenodd"/><path d="M273.56 27.68l7.88-9.41-.83-.83h-.69l-8.3 9.27a5.52 5.52 0 0 1 1.8.97" fill="#1c83cf" fill-rule="evenodd"/><path d="M273.97 27.96l8.03-9.27a53.97 53.97 0 0 0-.83-.84h-.56l-8.3 9.14 1.66.96" fill="#1c83cf" fill-rule="evenodd"/><path d="M274.39 28.23l8.16-9.13-.97-.7h-.41l-8.3 8.86 1.52.97" fill="#1c83cf" fill-rule="evenodd"/><path d="M274.94 28.5l8.16-8.85-1.1-.96h-.29l-8.29 8.84 1.52.97" fill="#1c82ce" fill-rule="evenodd"/><path d="M275.5 28.79l8.02-8.72-.97-.97h-.27l-8.45 8.72 1.66.97" fill="#1c82ce" fill-rule="evenodd"/><path d="M275.91 29.06l8.16-8.57-1.1-.98-8.58 8.59 1.52.96" fill="#1c82ce" fill-rule="evenodd"/><path d="M276.46 29.48l8.16-8.45-1.1-1.1-8.72 8.58 1.66.97" fill="#1d81cd" fill-rule="evenodd"/><path d="M276.88 29.75l8.3-8.3a42.9 42.9 0 0 0-1.25-1.1l-8.57 8.3 1.52 1.1" fill="#1d81cd" fill-rule="evenodd"/><path d="M277.43 30.03l8.17-8.02-1.11-1.11-8.58 8.16 1.38.97" fill="#1d80cc" fill-rule="evenodd"/><path d="M277.85 30.45l8.16-8.04-.97-.96-8.72 7.89 1.53 1.1" fill="#1d80cc" fill-rule="evenodd"/><path d="M278.4 30.86l8.16-7.9a47.05 47.05 0 0 0-1.1-1.1l-8.58 7.9 1.52 1.1" fill="#1d80cc" fill-rule="evenodd"/><path d="M278.81 31.14l8.17-7.61-.97-1.11-8.72 7.61 1.52 1.11" fill="#1e7ecb" fill-rule="evenodd"/><path d="M279.23 31.55l8.16-7.47-1.1-1.25-8.58 7.61 1.52 1.25" fill="#1e7ecb" fill-rule="evenodd"/><path d="M279.78 31.83l8.03-7.2-.97-1.38-8.58 7.47 1.38 1.25" fill="#1e7dca" fill-rule="evenodd"/><path d="M280.2 32.24l8.02-7.19-.97-1.1-8.57 7.05 1.38 1.38" fill="#1e7dca" fill-rule="evenodd"/><path d="M280.47 32.66l8.17-7.06-.97-1.25-8.58 7.07 1.39 1.24" fill="#1e7dca" fill-rule="evenodd"/><path d="M281.02 33.07l8.03-6.92-.96-1.38-8.44 6.92 1.38 1.38" fill="#1e7cc9" fill-rule="evenodd"/><path d="M281.44 33.35l8.03-6.64-.97-1.39-8.44 6.92 1.38 1.11" fill="#1e7cc9" fill-rule="evenodd"/><path d="M281.86 33.76l7.9-6.5-.85-1.38-8.43 6.64 1.38 1.39" fill="#1f7ac8" fill-rule="evenodd"/><path d="M282.13 34.18l8.03-6.5-.83-1.38-8.44 6.5 1.39 1.24" fill="#1f7ac8" fill-rule="evenodd"/><path d="M282.55 34.6l8.03-6.23-.97-1.38-8.3 6.22 1.38 1.39" fill="#1f7ac8" fill-rule="evenodd"/><path d="M282.96 35l7.9-6.08-.84-1.38-8.3 6.09L283.1 35" fill="#1f79c7" fill-rule="evenodd"/><path d="M283.24 35.43l7.9-5.96-.84-1.38-8.3 5.95 1.38 1.39" fill="#1f79c7" fill-rule="evenodd"/><path d="M283.66 35.98l7.89-5.95-.84-1.39-8.3 5.82 1.39 1.38" fill="#2078c6" fill-rule="evenodd"/><path d="M284.07 36.25l7.75-5.53-.83-1.38-8.3 5.53 1.38 1.38" fill="#1d77c6" fill-rule="evenodd"/><path d="M284.35 36.67l7.75-5.53-.83-1.39-8.17 5.54 1.25 1.38" fill="#1d77c6" fill-rule="evenodd"/><path d="M284.62 37.09l7.75-5.27a33.21 33.21 0 0 0-.83-1.51l-8.02 5.26 1.1 1.51" fill="#1e76c5" fill-rule="evenodd"/><path d="M285.04 37.5l7.61-5.11-.83-1.53-8.02 5.12 1.24 1.53" fill="#1e76c5" fill-rule="evenodd"/><path d="M285.32 38.06l7.47-5.12a31.83 31.83 0 0 0-.7-1.52l-7.89 4.97 1.12 1.66" fill="#1e76c5" fill-rule="evenodd"/><path d="M285.59 38.47l7.47-4.98-.69-1.66-7.89 4.98 1.12 1.66" fill="#1e75c4" fill-rule="evenodd"/><path d="M286.01 38.88l7.33-4.7-.69-1.66-7.9 4.7 1.12 1.66" fill="#1e75c4" fill-rule="evenodd"/><path d="M286.01 39.3l7.47-4.57a31.83 31.83 0 0 0-.55-1.8l-7.9 4.71 1.12 1.66" fill="#1e74c4" fill-rule="evenodd"/><path d="M286.42 39.72l7.34-4.43a33.21 33.21 0 0 0-.7-1.66l-7.75 4.42 1.11 1.67" fill="#1e74c4" fill-rule="evenodd"/><path d="M286.7 40.26l7.2-4.42-.56-1.8-7.75 4.43 1.11 1.8" fill="#1e74c4" fill-rule="evenodd"/><path d="M286.84 40.68l7.2-4.15-.56-1.93-7.61 4.15.97 1.93" fill="#1f72c3" fill-rule="evenodd"/><path d="M287.12 41.1l7.05-4.15c0-.56-.28-1.11-.55-1.8l-7.47 4.15.97 1.8" fill="#1f72c3" fill-rule="evenodd"/><path d="M287.39 41.52l6.92-4.02-.41-1.8-7.47 4.15.82 1.67" fill="#1f71c2" fill-rule="evenodd"/><path d="M287.53 42.07l6.92-3.88c0-.68-.28-1.38-.42-1.94l-7.46 3.88.96 1.94" fill="#1f71c2" fill-rule="evenodd"/><path d="M287.67 42.48l6.92-3.73-.41-2.08-7.34 3.88.83 1.93" fill="#1f71c2" fill-rule="evenodd"/><path d="M287.94 42.9l6.92-3.6-.55-1.94-7.33 3.6.96 1.94" fill="#2070c1" fill-rule="evenodd"/><path d="M288.08 43.45l6.78-3.6-.4-2.07-7.2 3.6.83 2.07" fill="#2070c1" fill-rule="evenodd"/><path d="M288.22 43.87l6.78-3.46-.41-2.08-7.2 3.46.83 2.08" fill="#206ec0" fill-rule="evenodd"/><path d="M288.36 44.28l6.64-3.32-.27-2.08-7.2 3.32.83 2.08" fill="#206ec0" fill-rule="evenodd"/><path d="M288.64 44.7l6.5-3.18-.41-2.08-6.92 3.18.83 2.08" fill="#206ec0" fill-rule="evenodd"/><path d="M288.78 45.25l6.36-3.18-.28-2.08-6.92 3.05.84 2.21" fill="#216dbf" fill-rule="evenodd"/><path d="M288.78 45.67l6.5-3.05-.28-2.2-6.91 3.03.82 2.21" fill="#216dbf" fill-rule="evenodd"/><path d="M288.91 46.08l6.37-2.9-.28-2.22-6.78 2.91.7 2.2" fill="#216cbe" fill-rule="evenodd"/><path d="M289.05 46.5l6.23-2.77-.14-2.21-6.78 2.76.7 2.21" fill="#1f6cbe" fill-rule="evenodd"/><path d="M289.19 46.91l6.09-2.77v-2.2l-6.78 2.76.69 2.21" fill="#1f6cbe" fill-rule="evenodd"/><path d="M289.33 47.33l6.09-2.64-.14-2.2-6.64 2.77.7 2.06" fill="#1f6abd" fill-rule="evenodd"/><path d="M289.33 47.87l6.09-2.48-.14-2.5-6.5 2.64.55 2.34" fill="#1f6abd" fill-rule="evenodd"/><path d="M289.47 48.3l5.95-2.5v-2.34l-6.5 2.49.55 2.34" fill="#2069bc" fill-rule="evenodd"/><path d="M289.6 48.7l5.82-2.34v-2.49l-6.37 2.35.56 2.49" fill="#2069bc" fill-rule="evenodd"/><path d="M289.6 49.13l5.82-2.35v-2.36l-6.23 2.22.42 2.49" fill="#2069bc" fill-rule="evenodd"/><path d="M289.74 49.54l5.54-2.21v-2.5l-6.1 2.22.56 2.49" fill="#2068bb" fill-rule="evenodd"/><path d="M289.74 49.82l5.54-1.94v-2.77l-5.95 2.22.41 2.63" fill="#2068bb" fill-rule="evenodd"/><path d="M289.74 50.23l5.54-1.94v-2.63l-5.95 2.08.41 2.49" fill="#2068bb" fill-rule="evenodd"/><path d="M289.89 50.79l5.39-1.94v-2.63l-5.81 1.94.42 2.63" fill="#2166ba" fill-rule="evenodd"/><path d="M289.89 51.2l5.39-1.94v-2.63l-5.81 1.94.42 2.5" fill="#2166ba" fill-rule="evenodd"/><path d="M289.89 51.48l5.25-1.8.28-2.63-5.81 1.93.28 2.5" fill="#2165b9" fill-rule="evenodd"/><path d="M289.89 51.9l5.25-1.67.14-2.77-5.54 1.8.15 2.78" fill="#2165b9" fill-rule="evenodd"/><path d="M290.02 52.3l5.12-1.65.14-2.78-5.54 1.81.29 2.77" fill="#2165b9" fill-rule="evenodd"/><path d="M290.02 52.58L295 51.2l.28-2.77-5.54 1.66.29 2.63" fill="#2164b8" fill-rule="evenodd"/><path d="M290.02 53L295 51.6l.28-2.77-5.54 1.39.29 2.77" fill="#1f64b8" fill-rule="evenodd"/><path d="M290.02 53.41l4.84-1.38.42-2.77-5.54 1.39.29 2.76" fill="#2063b7" fill-rule="evenodd"/><path d="M290.16 53.97l4.7-1.52.28-2.78-5.26 1.39.14 2.77" fill="#2063b7" fill-rule="evenodd"/><path d="M290.16 54.25l4.57-1.39.41-2.77-5.26 1.39.14 2.77" fill="#2063b7" fill-rule="evenodd"/><path d="M290.16 54.52l4.57-1.38.41-2.78-5.26 1.39.14 2.77" fill="#2061b6" fill-rule="evenodd"/><path d="M290.16 54.8l4.43-1.1.55-2.92-5.12 1.25v2.77" fill="#2061b6" fill-rule="evenodd"/><path d="M290.02 55.35l4.57-1.38.41-2.77-4.98 1.1v3.05" fill="#2160b5" fill-rule="evenodd"/><path d="M290.02 55.63l4.43-1.1.55-3.05-4.98 1.25v2.9" fill="#2160b5" fill-rule="evenodd"/><path d="M290.02 55.91l4.29-.97.55-3.05-4.83 1.11v2.9" fill="#2160b5" fill-rule="evenodd"/><path d="M290.02 56.32l4.16-1.1.69-3.05-4.84 1.1v3.05" fill="#215fb4" fill-rule="evenodd"/><path d="M290.02 56.74l4.16-1.11.69-3.05-4.84 1.11v2.9" fill="#215fb4" fill-rule="evenodd"/><path d="M289.89 57.01l4.14-.96.7-3.05-4.7.97V57" fill="#225eb3" fill-rule="evenodd"/><path d="M289.89 57.29l4.14-.97.7-3.05-4.7.98v3.04" fill="#225eb3" fill-rule="evenodd"/><path d="M289.89 57.57l4.14-.83.56-3.19-4.57.97v3.05" fill="#225eb3" fill-rule="evenodd"/><path d="M289.89 57.84l3.87-.7.83-3.17-4.57.82-.14 3.05" fill="#225cb3" fill-rule="evenodd"/><path d="M289.89 58.12l3.87-.7.7-3.17-4.44.82-.14 3.19" fill="#225cb3" fill-rule="evenodd"/><path d="M289.74 58.53l3.88-.83.83-3.18-4.43.83c0 1.1 0 2.08-.28 3.18" fill="#225cb3" fill-rule="evenodd"/><path d="M289.74 58.81l3.74-.7.83-3.32-4.29.84c0 1.1 0 2.07-.28 3.18" fill="#235bb2" fill-rule="evenodd"/><path d="M289.74 59.09l3.74-.56.83-3.32-4.29.7-.28 3.18" fill="#235bb2" fill-rule="evenodd"/><path d="M289.74 59.5l3.6-.69.84-3.32-4.16.7-.28 3.18" fill="#235ab1" fill-rule="evenodd"/><path d="M289.6 59.64l3.6-.55.98-3.32-4.16.69c0 1.1-.28 2.21-.41 3.18" fill="#235ab1" fill-rule="evenodd"/><path d="M289.6 59.91l3.6-.54.83-3.32-4.14.69c0 1.1 0 2.07-.29 3.17" fill="#235ab1" fill-rule="evenodd"/><path d="M289.6 60.34l3.46-.56.97-3.32-4.14.55-.29 3.33" fill="#2359b0" fill-rule="evenodd"/><path d="M289.6 60.47l3.33-.41.97-3.32-4.01.55-.29 3.18" fill="#2359b0" fill-rule="evenodd"/><path d="M289.47 60.89l3.46-.56.97-3.32-4.01.42-.42 3.32" fill="#2257af" fill-rule="evenodd"/><path d="M289.47 60.89l3.32-.28.96-3.32-3.86.41-.42 3.32" fill="#2257af" fill-rule="evenodd"/><path d="M289.47 61.3l3.18-.42 1.1-3.45-3.86.55-.42 3.32" fill="#2257af" fill-rule="evenodd"/><path d="M289.33 61.58l3.18-.42 1.11-3.46-3.73.42-.56 3.46" fill="#2256ae" fill-rule="evenodd"/><path d="M289.33 61.86l3.18-.42 1.11-3.46-3.73.41-.56 3.47" fill="#2256ae" fill-rule="evenodd"/><path d="M289.33 62l3.05-.29 1.1-3.45-3.74.41-.4 3.32" fill="#2256ae" fill-rule="evenodd"/><path d="M289.19 62.27l3.04-.28 1.25-3.46-3.74.28c0 1.25-.27 2.35-.55 3.46" fill="#2355ad" fill-rule="evenodd"/><path d="M289.19 62.55l2.9-.28 1.39-3.6-3.74.42-.55 3.46" fill="#2355ad" fill-rule="evenodd"/><path d="M289.19 62.82l2.77-.27 1.38-3.6-3.6.27-.55 3.6" fill="#2354ac" fill-rule="evenodd"/><path d="M289.05 62.96l2.9-.28 1.4-3.45-3.6.27-.7 3.46" fill="#2354ac" fill-rule="evenodd"/><path d="M289.05 63.24l2.77-.28 1.39-3.6-3.6.28a45.66 45.66 0 0 1-.56 3.6" fill="#2354ac" fill-rule="evenodd"/><path d="M289.05 63.52l2.77-.28 1.39-3.6-3.6.28-.56 3.6" fill="#2452ab" fill-rule="evenodd"/><path d="M288.91 63.66l2.77-.15 1.38-3.6-3.45.29-.7 3.46" fill="#2452ab" fill-rule="evenodd"/><path d="M288.78 63.93l2.77-.28 1.38-3.46-3.32.15-.7 3.6" fill="#2452ab" fill-rule="evenodd"/><path d="M288.78 64.2l2.77-.27 1.38-3.6-3.46.28c0 1.25-.42 2.35-.7 3.6" fill="#2451aa" fill-rule="evenodd"/><path d="M288.78 64.35l2.63-.15 1.38-3.73-3.32.28-.7 3.6" fill="#2451aa" fill-rule="evenodd"/><path d="M288.78 64.48h2.49l1.38-3.73-3.18.14-.7 3.6" fill="#2350a9" fill-rule="evenodd"/><path d="M288.78 64.76l2.49-.14 1.38-3.73-3.18.13a48.43 48.43 0 0 1-.83 3.74" fill="#2350a9" fill-rule="evenodd"/><path d="M288.64 65.04l2.5-.15 1.37-3.73h-3.04l-.83 3.74" fill="#2350a9" fill-rule="evenodd"/><path d="M288.64 65.04H291c.55-1.25 1.1-2.5 1.38-3.74h-3.04l-.69 3.88" fill="#234fa8" fill-rule="evenodd"/><path d="M288.5 65.31h2.5l1.38-3.87-3.05.14a16.7 16.7 0 0 1-.83 3.73" fill="#234fa8" fill-rule="evenodd"/><path d="M288.5 65.45h2.35c.56-1.25 1.1-2.48 1.38-3.74h-2.9a48.43 48.43 0 0 1-.83 3.74" fill="#234fa8" fill-rule="evenodd"/><path d="M288.5 65.72h2.21l1.52-3.86h-2.9l-.83 3.86" fill="#234ea7" fill-rule="evenodd"/><path d="M288.36 65.87h2.35l1.52-3.88h-2.9l-.97 3.88" fill="#234ea7" fill-rule="evenodd"/><path d="M288.36 66.01h2.2l1.67-3.74h-3.04l-.83 3.73" fill="#244ca7" fill-rule="evenodd"/><path d="M288.36 66.14h2.2l1.54-3.73h-2.78l-.96 3.73" fill="#244ca7" fill-rule="evenodd"/><path d="M288.22 66.42h2.21l1.53-3.74h-2.77l-.97 3.74" fill="#244ca7" fill-rule="evenodd"/><path d="M289.19 62.82h2.77l-1.8 3.6h-2.07l.96-3.74m-16.19 8.17l-25.6-.83-49.12 9.13-47.04 6.63-49.81 15.64-29.05-.55-23.53-9.7-.97-15.21H36.26L13.7 176.43h18.95l10.1-24.91 14.53 2.08 9 14.66 73.33-23.8 39.57-3.87 32.93-3.74 17.58-13.28 32.1-.42 14.52 9.96 5.96-15.63 1.1-15.22-10.51-31.41" fill="#244ba6" fill-rule="evenodd"/><path d="M272.8 70.75l-25.53-.86-49.14 9.16-47.11 6.74-49.66 15.58-29.06-.53-23.6-9.69-.97-15.36-11.52.1-22.58 100.43 19.03.1 10.03-24.83 14.53 1.99 9.08 14.64 73.18-23.8 39.62-3.89 33-3.79 17.66-13.24 32.04-.32 14.53 9.89 5.99-15.56 1.05-15.28z" stroke-miterlimit="2.6" fill="none" stroke="#244ba6" stroke-width="2.15"/><path d="M234.4 81.36l2.34-13.14-4.55.55c.83-6.22 2.2-12.45 3.18-18.54l-12.73 2.07-3.18 18.13v.42l-4.57.83c-.69 4.43-1.39 9-2.35 13.28l4.56-.7-12.44 71.27c0 .28-.29.55 0 .83l12.58-2.35 12.45-71.68 4.7-.97" fill="#244ba6" fill-rule="evenodd"/><path d="M234.35 81.37c.75-4.43 1.6-8.73 2.35-13.16l-4.48.55c.85-6.24 2.13-12.46 3.1-18.54 0 0-8.55 1.35-12.71 2.08l-3.11 18.14-.1.4-4.49.73c-.74 4.44-1.48 9.07-2.36 13.37l4.5-.73-12.5 71.26c0 .33-.12.55 0 .84l12.7-2.3 12.51-71.8z" stroke-miterlimit="2.6" fill="none" stroke="#244ba6" stroke-width="2.15"/><path d="M91.75 94.65a6.92 6.92 0 0 0-5.27-2.49l-10.51 1.66c-3.6.28-7.05 3.46-9.13 7.33-1.8 4.15-2.08 9-3.05 13.56l-8.85 50.78-.42 3.32c.28 4.15 1.8 7.9 4.7 9.41 2.09 1.53 5.13.27 7.76.27 2.35-.54 4.98-.54 7.47-1.38 3.87-1.93 7.32-6.36 8.58-11.48l.69-2.77 9.96-57c.97-4.43.14-8.72-1.94-11.07zm-11.21 17.02l-8.58 49.4c-.14.96-.28 2.2-1.11 2.77-.55.68-1.39.82-1.93.68-.56-.14-.98-.83-1.11-1.52l.27-1.66 8.86-51.2c.14-.82.97-1.93 1.8-2.07.55 0 1.38-.28 1.8.28.55.82 0 2.07 0 3.32" fill="#244ba6" fill-rule="evenodd"/><path d="M91.74 94.63a6.9 6.8 0 0 0-5.22-2.53h-.12a358.67 353.47 0 0 1-10.46 1.69c-3.53.31-7.06 3.37-9.1 7.38-1.8 4.21-2.01 8.93-2.98 13.46l-8.98 50.84c-.2 1.07-.2 2.1-.31 3.27.2 4.22 1.7 7.88 4.59 9.48 2.13 1.46 5.24.22 7.8.22 2.35-.55 5.02-.55 7.47-1.48 3.85-1.8 7.39-6.33 8.55-11.36.32-.86.43-2.01.75-2.86l9.94-56.95c.95-4.41.2-8.74-1.93-11.16z" stroke-miterlimit="2.6" fill="none" stroke="#244ba6" stroke-width="2.15"/><path d="M80.53 111.59l-8.55 49.45c-.22.95-.31 2.2-1.17 2.84-.56.53-1.3.73-1.93.53-.54-.11-.97-.84-1.07-1.46l.22-1.69 8.86-51.06c.22-.96.97-2.02 1.82-2.2.63-.13 1.28-.21 1.82.3.52.84.1 2.1 0 3.26z" stroke-miterlimit="2.6" fill="none" stroke="#244ba6" stroke-width="2.15"/><path d="M262.9 66.83a6.78 6.78 0 0 0-5.26-2.49L247.13 66c-3.6.29-7.06 3.32-9 7.47-1.93 4.16-2.2 8.86-3.18 13.43l-9 50.78-.27 3.32c.28 4.15 1.66 7.89 4.7 9.4 2.08 1.4 5.27.29 7.76.15 2.35-.55 5.12-.42 7.47-1.39 3.73-1.8 7.33-6.22 8.44-11.34.41-.83.55-1.94.82-2.9l9.97-56.74c.97-4.7.14-8.86-1.94-11.35zm-11.07 17.02l-8.71 49.4c0 .97-.29 2.2-1.25 2.9-.42.56-1.24.7-1.8.56-.55-.28-.96-.83-.96-1.39v-1.93l8.85-50.92c.41-.97.97-1.94 1.93-2.2.56 0 1.4-.15 1.8.26.56.83.15 2.08 0 3.32" fill="#244ba6" fill-rule="evenodd"/><path d="M262.88 66.85a6.73 6.63 0 0 0-5.25-2.53 259.05 259.05 0 0 0-10.59 1.69c-3.51.2-7.04 3.26-8.96 7.36-1.91 4.1-2.13 8.95-3.1 13.48l-8.97 50.73c-.21 1.06-.21 2.22-.32 3.37.22 4.2 1.71 7.9 4.7 9.47 2.04 1.37 5.24.22 7.7.1 2.45-.51 5.12-.42 7.47-1.46 3.84-1.8 7.37-6.23 8.54-11.26.32-.85.54-2.01.74-2.95L264.8 78c.96-4.52.21-8.73-1.92-11.17z" stroke-miterlimit="2.6" fill="none" stroke="#244ba6" stroke-width="2.15"/><path d="M251.77 83.79l-8.67 49.37c-.11 1.05-.31 2.31-1.17 2.93a2.18 2.14 0 0 1-1.93.56c-.52-.22-.85-.85-.95-1.47l.1-1.81L248 82.42c.33-.94.97-2 1.82-2.2.65-.11 1.4-.22 1.82.31.54.84.2 2.02.12 3.26z" stroke-miterlimit="2.6" fill="none" stroke="#244ba6" stroke-width="2.15"/><path d="M63.24 69.05a8.3 8.3 0 0 0-7.89-4.7l-20.48 3.18-.97.28c-1.8.27-3.87.41-5.53.82L5.68 197.87l20.2-3.32c3.18-.7 6.5-.7 9.41-2.22 5.95-2.77 10.93-10.1 12.31-17.85l16.6-94.5c.97-4.15.56-8.17-.96-11.07zm-29.89 99.62c-1.1 5.96-4.15 6.09-4.15 6.09l-3.87.69.14-1.25L41.1 85.1c1.66-.28 3.46-.69 4.98-.69.83.41 1.39.97 1.39 2.21l-14.11 82.2" fill="#244ba6" fill-rule="evenodd"/><path d="M63.33 68.95a8.2 8.08 0 0 0-8-4.63L34.9 67.45l-1.07.22c-1.7.32-3.84.52-5.56.94L5.76 197.8l20.28-3.25c3.1-.73 6.41-.73 9.4-2.2 5.99-2.74 10.9-10.12 12.29-17.9L64.4 79.9c.85-4 .52-8.1-1.08-10.93z" stroke-miterlimit="2.6" fill="none" stroke="#244ba6" stroke-width="2.15"/><path d="M33.33 168.73c-1.08 5.92-4.1 6-4.1 6-.4 0-3.93.65-3.93.65l.2-1.15 15.61-89.17c1.6-.32 3.42-.63 5.02-.63.74.31 1.28.93 1.28 2.2z" stroke-miterlimit="2.6" fill="none" stroke="#244ba6" stroke-width="2.15"/><path d="M144.18 87.59c-1.1-2.77-3.04-4.43-5.53-4.15-1.66 0-3.05.56-4.57 1.25-2.63 1.38-4.56 4-6.78 6.22a6.42 6.42 0 0 0-2.07-3.18c-1.8-1.66-4.85-1.66-7.2 0a22.4 22.4 0 0 0-5.12 5.12l.7-5.12-12.73 2.08-14.95 85.5 2.77-.27 9.82-1.66 12.18-68.22s.55-2.21 1.66-2.49c1.1-.41 1.66 0 1.8.28 0 .28.7.41.28 2.63l-.42 2.2-11.49 64.77 12.46-1.8 11.9-68.49s.28-1.52.97-2.08c.97-.7 1.38-.7 1.8-.7.55 0 1.24 0 1.24 1.8l-12.04 68.78 12.45-1.94 13.3-76.38c0-1.52-.15-3.04-.43-4.15" fill="#244ba6" fill-rule="evenodd"/><path d="M144.18 87.47c-1.07-2.63-3.09-4.3-5.65-4.21-1.49 0-2.99.73-4.38 1.37-2.68 1.46-4.7 4.01-6.85 6.23a8.25 8.13 0 0 0-2.02-3.17c-1.82-1.68-4.9-1.68-7.25.11-1.82 1.35-3.75 2.93-5.14 4.94.21-1.68.55-3.27.74-5.05l-12.7 2.11-14.95 85.47 2.67-.31 9.92-1.58 12.09-68.31s.52-2.13 1.7-2.43c1.18-.43 1.71 0 1.8.2.12.32.66.54.23 2.63-.43 2.02-.43 2.33-.43 2.33l-11.43 64.74c4.28-.55 8.44-1.28 12.5-1.9l11.85-68.42s.22-1.58.97-2.12c.96-.64 1.28-.64 1.82-.64.52 0 1.17-.09 1.17 1.8l-11.97 68.75c4.27-.64 8.34-1.28 12.5-2.01l13.24-76.32c.11-1.57-.2-3.05-.43-4.2z" stroke-miterlimit="2.6" fill="none" stroke="#244ba6" stroke-width="2.15"/><path d="M177.53 88.56a12.02 12.02 0 0 0-.97-4.84c-1.1-2.35-2.77-4.15-5.12-4.7-3.45-.29-7.33.82-10.8 1.1l-3.04.56a9.82 9.82 0 0 0-4.7 2.9c-2.77 3.04-3.88 7.9-4.57 12.32l-8.85 49.8-1.39 7.89a15.22 15.22 0 0 0 .42 5.54c1.1 4.14 4.01 6.78 7.61 6.64l9.41-1.39a14.5 14.5 0 0 0 3.18-1.1c3.05-1.8 5.81-5.26 7.2-9V154s.97-3.04 2.35-10.1l1.66-9.96v-1.38l-12.04 1.94v.41l-2.49 13.42s-.69 2.08-1.38 2.78a2.22 2.22 0 0 1-2.08-.15c-.83-.55-.55-2.77-.55-2.77l3.73-21.3 16.05-2.77c.28.14.42-.14.56 0l5.26-30.3c.27-1.8.55-3.47.55-5.26zm-13.42 10.66c-.97 4.42-1.52 8.85-2.35 13.27l-4.3.56 3.05-17.15a3.7 3.7 0 0 1 1.8-2.22c.83-.28 1.66.14 2.08.97.41 1.38 0 3.04-.29 4.57" fill="#244ba6" fill-rule="evenodd"/><path d="M177.52 88.51a11.15 10.99 0 0 0-.96-4.83c-1.07-2.42-2.88-4.21-5.13-4.73-3.42-.32-7.26.85-10.78 1.16l-3 .53a9.83 9.69 0 0 0-4.7 2.93c-2.88 3.06-3.95 7.8-4.59 12.22l-8.87 49.9c-.42 2.64-.96 5.17-1.3 7.9a15.77 15.55 0 0 0 .34 5.47c1.07 4.1 3.96 6.74 7.59 6.63l9.4-1.46a9.83 9.83 0 0 0 3.2-.96c2.99-1.79 5.76-5.27 7.15-9.06l.11-.2s.85-3.06 2.23-10.1c1.08-5.8 1.73-10 1.73-10l.1-1.39-12.18 1.9-.12.43-2.34 13.48s-.63 2.09-1.39 2.62c-.74.43-1.37.33-2.13-.1-.75-.43-.53-2.62-.53-2.62l3.72-21.38 16.15-2.75c.2.1.42-.18.52-.1l5.24-30.21c.32-1.8.54-3.49.54-5.26z" stroke-miterlimit="2.6" fill="none" stroke="#244ba6" stroke-width="2.15"/><path d="M164.07 99.15c-.86 4.44-1.5 8.85-2.36 13.28l-4.28.63 3.1-17.27a3.6 3.6 0 0 1 1.82-2.1c.86-.32 1.6.1 2.03.83.43 1.38-.1 3.06-.31 4.64z" stroke-miterlimit="2.6" fill="none" stroke="#244ba6" stroke-width="2.15"/><path d="M193.3 104.75c-1.1-2.21-.69-3.32-.69-3.32l1.66-9.69c.28-1.1.7-2.35 1.66-3.04 0 0 .7-.42 1.39-.28.83.28.96.83.96 1.39 0 .4.29.82 0 1.65l-1.38 8.03 12.18-1.94 2.21-12.17c.56-3.74-.28-6.92-1.8-9.27a6.64 6.64 0 0 0-6.64-2.63c-3.32.55-6.37.83-9.69 1.66l-1.8.55c-2.76.69-5.12 3.19-6.63 6.09a22.33 22.33 0 0 0-1.94 6.08l-3.05 16.89a12.45 12.45 0 0 0 0 5.53c.56 1.39 1.11 2.78 1.94 3.88l6.92 9.69 2.49 3.32s.55.69.42 2.34l-2.5 13.84a2.77 2.77 0 0 1-1.66 2.22c-.69.4-1.24 0-1.65-.42a3.29 3.29 0 0 1-.42-1.66c.7-4.7 1.66-9.55 2.22-14.11l-12.46 2.07-.42 2.35c-.82 5.54-2.2 11.07-2.49 16.33a9.69 9.69 0 0 0 3.88 8.86c1.38 1.38 3.73 1.38 5.8.96 2.78-.41 5.27-.54 7.76-1.38 2.77-.27 5.4-2.49 7.33-4.97a20.75 20.75 0 0 0 3.46-7.76l.28-1.38c1.38-6.78 2.2-12.87 3.6-19.79.4-2.49.14-4.98-1.11-6.5l-9.96-13.42" fill="#244ba6" fill-rule="evenodd"/><path d="M193.23 104.63c-.97-2.1-.66-3.26-.66-3.26l1.7-9.58c.24-1.15.66-2.42 1.72-3.15 0 0 .65-.42 1.4-.21.74.2.85.84.96 1.26 0 .42.21.84 0 1.68a333.77 333.77 0 0 0-1.49 8.1l12.18-2c.52-2.84 1.8-9.16 2.23-12.21a13.02 12.82 0 0 0-1.8-9.16 6.64 6.54 0 0 0-6.63-2.62c-3.32.53-6.3.84-9.61 1.58l-1.94.52c-2.66.74-5.02 3.27-6.61 6.1a24.54 24.18 0 0 0-1.92 6.1l-2.99 16.96c-.33 1.89-.65 4-.11 5.59.63 1.24 1.17 2.62 2.02 3.77l6.95 9.7 2.46 3.25s.54.73.42 2.44c-.85 4.63-1.6 9.15-2.45 13.79a2.85 2.85 0 0 1-1.7 2.3c-.66.31-1.2-.1-1.62-.42-.32-.42-.43-1.15-.43-1.8.64-4.61 1.62-9.46 2.25-13.99l-12.5 2.02-.42 2.4c-.85 5.38-2.25 10.95-2.56 16.31a9.9 9.77 0 0 0 3.94 8.85c1.48 1.28 3.75 1.47 5.76.95 2.67-.42 5.24-.53 7.8-1.28 2.79-.4 5.35-2.61 7.38-5.12a20.95 20.95 0 0 0 3.41-7.7l.32-1.37c1.3-6.74 2.14-12.95 3.54-19.77.43-2.56.2-5.08-1.08-6.55z" stroke-miterlimit="2.6" fill="none" stroke="#244ba6" stroke-width="2.15"/><path d="M296.94 62a6.92 6.92 0 0 0-6.78-2.78l-9.4 1.66-2.08.42c-2.63.83-4.85 3.32-6.51 6.22-.97 1.95-1.38 4.02-1.94 6.1l-3.04 17.01a12.45 12.45 0 0 0 0 5.54c.56 1.38 1.11 2.63 1.94 3.74l6.92 9.68 2.34 3.32s.7.7.56 2.35l-2.35 13.84a3.56 3.56 0 0 1-1.8 2.35c-.55.28-1.11-.14-1.52-.42-.41-.4-.41-1.24-.41-1.8.54-4.7 1.52-9.54 2.2-13.97l-12.44 1.94-.56 2.35c-.83 5.54-2.21 10.93-2.49 16.33a9.69 9.69 0 0 0 3.88 8.85c1.52 1.39 3.73 1.52 5.8.98 2.77-.56 5.27-.56 7.76-1.26 2.76-.4 5.53-2.63 7.47-5.12a22.63 22.63 0 0 0 3.32-7.74l.28-1.38c1.38-6.64 2.2-12.87 3.6-19.8.4-2.48.26-5.11-1.12-6.5l-9.82-13.41c-.97-2.08-.7-3.33-.7-3.33l1.67-9.54c.28-1.11.69-2.49 1.66-3.19 0 0 .7-.4 1.38-.14.7.14.97.83.97 1.25 0 .28.28.83 0 1.66 0 .83-1.38 8.16-1.38 8.16l12.17-2.07 2.22-12.18c.55-3.73-.28-6.92-1.8-9.13" fill="#244ba6" fill-rule="evenodd"/><path d="M296.94 61.9a6.82 6.72 0 0 0-6.73-2.63c-3.2.53-6.18.84-9.51 1.57l-2.03.43c-2.56.84-4.9 3.36-6.5 6.22a24.07 24.07 0 0 0-1.94 6.1l-2.97 16.94c-.33 1.89-.65 4-.13 5.59.65 1.26 1.2 2.61 2.04 3.66l6.94 9.8 2.36 3.26s.63.73.43 2.43c-.75 4.53-1.5 9.16-2.36 13.8a3.3 3.26 0 0 1-1.71 2.3c-.64.31-1.17-.1-1.6-.43-.32-.41-.43-1.14-.43-1.79.65-4.6 1.6-9.46 2.23-13.99l-12.49 2.01-.43 2.32c-.85 5.45-2.22 10.93-2.56 16.3a9.98 9.84 0 0 0 3.96 8.96c1.5 1.26 3.63 1.47 5.76.93 2.67-.52 5.24-.52 7.8-1.25 2.68-.43 5.34-2.63 7.38-5.17 1.6-2.2 2.78-5.05 3.42-7.78l.21-1.28c1.4-6.73 2.23-12.93 3.63-19.78.42-2.53.21-5.15-1.07-6.52l-9.94-13.48c-.95-2.1-.64-3.26-.64-3.26l1.71-9.58c.22-1.15.64-2.52 1.6-3.15 0 0 .75-.43 1.4-.21a1.3 1.28 0 0 1 .96 1.26c.1.3.32.83.1 1.68a458.01 458.01 0 0 0-1.5 8.1l12.18-2c.55-2.84 1.71-9.16 2.23-12.2a13.6 13.4 0 0 0-1.8-9.15z" stroke-miterlimit="2.6" fill="none" stroke="#244ba6" stroke-width="2.15"/><path d="M231.77 76.66l2.35-13.15-4.42.56 3.04-18.54-12.73 1.93-3.04 18.26-.15.29-4.42.82-2.49 13.42 4.43-.69-12.45 71.27v.69l12.72-2.22 12.45-71.81 4.57-.83" fill="#fff" fill-rule="evenodd"/><path d="M231.79 76.63c.74-4.41 1.6-8.73 2.34-13.15l-4.48.51c.96-6.2 2.13-12.42 3.1-18.51l-12.71 1.99-3.1 18.2-.12.34-4.48.73c-.64 4.53-1.48 9.05-2.24 13.48l4.38-.73-12.4 71.24c0 .33-.21.55-.1.75l12.71-2.2 12.6-71.8z" stroke-miterlimit="2.6" fill="none" stroke="#244ba6" stroke-width="5.37"/><path d="M89.11 89.94A6.78 6.78 0 0 0 84 87.45l-10.65 1.66c-3.46.28-6.92 3.32-9 7.33-1.93 4.16-2.07 9-3.03 13.56l-9 50.5-.28 3.47c.14 4.15 1.67 7.89 4.7 9.41 1.94 1.38 5.27.28 7.62 0 2.49-.42 5.12-.28 7.47-1.39 3.87-1.65 7.47-6.22 8.57-11.2l.84-2.9 9.68-56.87c.97-4.58.28-8.72-1.93-11.08zm-11.06 17.02l-8.59 49.26c-.13 1.1-.41 2.34-1.24 3.04-.56.42-1.38.56-1.94.42-.4-.14-.83-.83-.96-1.39l.14-1.8 8.85-50.92c.28-.96.97-2.07 1.8-2.2.7-.14 1.38-.29 1.8.27.55.83.28 1.94.14 3.32" fill="#fff" fill-rule="evenodd"/><path d="M89.17 89.9a6.73 6.63 0 0 0-5.22-2.54c-3.75.55-6.95 1.17-10.6 1.69-3.52.32-7.04 3.27-8.95 7.38-1.94 4.1-2.13 8.93-3.1 13.47l-8.98 50.73c-.21 1.16-.21 2.21-.32 3.38.2 4.2 1.71 7.9 4.7 9.46 2.05 1.38 5.25.22 7.7.12 2.45-.54 5.13-.43 7.47-1.47 3.84-1.68 7.38-6.23 8.55-11.26.32-.84.54-2.02.74-2.96l9.95-56.84c.94-4.53.2-8.74-1.94-11.17z" stroke-miterlimit="2.6" fill="none" stroke="#244ba6" stroke-width="5.37"/><path d="M78.06 106.83l-8.64 49.39c-.11 1.04-.32 2.31-1.17 2.94-.56.54-1.3.64-1.94.54-.42-.22-.85-.86-.97-1.48l.12-1.8 8.86-50.94c.34-.96.97-2.02 1.83-2.21.65-.1 1.4-.21 1.82.32.52.84.2 2 .1 3.26z" stroke-miterlimit="2.6" fill="none" stroke="#244ba6" stroke-width="5.37"/><path d="M260.41 62a6.78 6.78 0 0 0-5.4-2.36l-10.37 1.66c-3.6.28-7.2 3.32-9.13 7.33-1.94 4.16-2.08 9-2.91 13.42l-9.13 50.78-.28 3.33c.14 4.28 1.66 8.03 4.7 9.4 2.08 1.53 5.13.43 7.62.28 2.49-.55 5.12-.55 7.6-1.38 3.88-1.94 7.2-6.36 8.58-11.48l.56-2.78 10.1-57c.83-4.43.14-8.72-1.94-11.07zM249.21 79l-8.72 49.4c0 1.1-.28 2.35-.97 2.9a2.32 2.32 0 0 1-2.08.56c-.41 0-.83-.84-.96-1.4v-1.78l9.13-50.93c.14-1.1.83-2.07 1.65-2.2.7-.3 1.39-.3 1.95.14.55.82 0 2.2 0 3.31" fill="#fff" fill-rule="evenodd"/><path d="M260.42 62a6.67 6.57 0 0 0-5.35-2.42c-3.64.53-6.84 1.07-10.46 1.69-3.64.2-7.17 3.25-9.09 7.36-1.92 4.1-2.05 8.95-2.98 13.37l-9.08 50.85a31.65 31.65 0 0 0-.22 3.26c.1 4.3 1.6 8 4.59 9.47 2.13 1.46 5.24.31 7.7.22 2.45-.55 5.12-.55 7.57-1.46 3.84-1.82 7.26-6.33 8.55-11.4.32-.84.43-1.88.64-2.84l10.02-56.95c.89-4.4.23-8.73-1.9-11.15z" stroke-miterlimit="2.6" fill="none" stroke="#244ba6" stroke-width="5.37"/><path d="M249.2 78.95l-8.66 49.47c-.11 1.06-.32 2.33-1.06 2.84-.56.55-1.4.73-2.04.55-.43-.13-.86-.86-.95-1.4l.1-1.77 8.97-50.95c.22-1.06.85-2.02 1.7-2.21.75-.2 1.4-.32 1.94.2.52.86.1 2.1 0 3.28z" stroke-miterlimit="2.6" fill="none" stroke="#244ba6" stroke-width="5.37"/><path d="M60.89 64.2c-1.94-3.45-4.7-4.83-8.17-4.56l-20.34 3.18-1.1.15a55.35 55.35 0 0 0-5.54.96L3.33 193.16l20.2-3.46c3.04-.54 6.36-.69 9.4-2.2 5.96-2.63 10.8-9.97 12.18-17.72L62 75.28c.69-4.16.4-8.3-1.11-11.08zm-30.17 99.9c-1.1 5.68-4.15 5.82-4.15 5.82l-3.87.7.27-1.26L38.61 80.4l4.98-.82c.7.55 1.39 1.1 1.39 2.34l-14.26 82.2" fill="#fff" fill-rule="evenodd"/><path d="M60.87 64.21c-1.92-3.48-4.7-4.84-8.12-4.63l-20.41 3.17-1.05.2a53.4 53.4 0 0 0-5.57.95L3.3 193.05l20.19-3.35c3.1-.64 6.41-.73 9.51-2.22 5.88-2.63 10.78-10 12.18-17.8l16.78-94.52c.74-4.1.43-8.22-1.08-10.95z" stroke-miterlimit="2.6" fill="none" stroke="#244ba6" stroke-width="5.37"/><path d="M30.75 164c-1.07 5.8-4.06 5.91-4.06 5.91a98.31 96.88 0 0 1-3.95.62l.22-1.16L38.55 80.3a43.49 42.86 0 0 1 5.02-.73c.74.42 1.28 1.07 1.4 2.33z" stroke-miterlimit="2.6" fill="none" stroke="#244ba6" stroke-width="5.37"/><path d="M141.7 82.75c-1.12-2.77-3.19-4.43-5.54-4.15-1.66 0-3.19.69-4.57 1.38-2.77 1.38-4.7 3.87-6.92 6.23-.4-1.39-.96-2.5-1.8-3.19-1.8-1.8-5.12-1.66-7.46 0-1.8 1.39-3.6 2.91-5.12 4.98l.96-4.98-12.87 2.08-14.93 85.51 2.76-.42 9.96-1.65 11.9-68.22s.55-2.08 1.66-2.35c1.25-.42 1.8 0 1.94.14 0 .27.55.55.14 2.63l-.42 2.34-11.34 64.76 12.45-1.93 11.76-68.35s.28-1.67 1.1-2.09c.98-.69 1.25-.82 1.8-.82.42 0 1.11 0 1.25 1.93l-12.04 68.78 12.45-2.09 13.29-76.1c0-1.65-.27-3.17-.42-4.15" fill="#fff" fill-rule="evenodd"/><path d="M141.73 82.75c-1.17-2.75-3.2-4.44-5.65-4.21-1.62 0-3.1.73-4.5 1.35-2.65 1.38-4.7 3.9-6.84 6.23a7.34 7.23 0 0 0-1.91-3.17c-1.83-1.8-5.02-1.68-7.38 0-1.8 1.47-3.63 2.95-5.13 5.05.34-1.8.65-3.26.86-5.05l-12.83 2.1-14.93 85.48 2.67-.43 10.03-1.57 11.97-68.2s.53-2.11 1.7-2.44c1.18-.42 1.72 0 1.81.22.12.21.66.53.23 2.53-.43 2.1-.43 2.42-.43 2.42l-11.33 64.74c4.26-.54 8.34-1.27 12.39-1.9l11.86-68.43s.21-1.68 1.07-2.1c.97-.63 1.18-.74 1.7-.74.55 0 1.18 0 1.29 1.9l-11.99 68.72c4.28-.64 8.24-1.37 12.4-2.01l13.25-76.3c.1-1.6-.22-3.17-.33-4.2z" stroke-miterlimit="2.6" fill="none" stroke="#244ba6" stroke-width="5.37"/><path d="M174.9 83.86a11.07 11.07 0 0 0-.83-4.85c-1.1-2.49-2.9-4.15-5.12-4.7-3.46-.42-7.33.69-10.93 1.1l-2.77.56c-1.8.27-3.32 1.38-4.7 2.9-3.05 3.05-4.15 7.76-4.7 12.18l-8.86 49.81-1.38 7.9c-.15 2.06 0 3.86.4 5.52.98 4.15 4.03 6.92 7.62 6.65l9.27-1.39c1.25 0 2.35-.55 3.32-.97 3.05-1.8 5.68-5.4 7.2-9.13 0 0 .83-3.18 2.2-10.24l1.81-9.96.14-1.38-12.31 1.93v.42l-2.36 13.28s-.55 2.22-1.39 2.77c-.82.41-1.38.27-2.2 0-.7-.55-.56-2.77-.56-2.77l3.74-21.3 16.19-2.78.55-.14 5.26-30.3a31.93 31.93 0 0 0 .4-5.12zm-13.42 10.65l-2.21 13.28-4.43.56 3.18-17.3a3.36 3.36 0 0 1 1.8-2.07c.83-.28 1.52.14 1.94.83.55 1.38 0 3.04-.28 4.7" fill="#fff" fill-rule="evenodd"/><path d="M174.93 83.79a11.3 11.14 0 0 0-.83-4.84c-1.17-2.41-2.98-4.2-5.13-4.74-3.53-.42-7.38.73-10.9 1.15l-2.87.54a9.1 8.97 0 0 0-4.7 2.93c-2.99 3.08-4.07 7.7-4.7 12.23l-8.77 49.78c-.52 2.63-1.07 5.27-1.38 7.91a15.65 15.65 0 0 0 .32 5.57c1.06 4.01 4.05 6.74 7.7 6.54l9.28-1.38c1.17-.11 2.23-.53 3.2-.95 3.1-1.8 5.76-5.37 7.26-9.16v-.1s.86-3.04 2.24-10.1c1.07-5.9 1.72-10.01 1.72-10.01l.21-1.36-12.27 1.88v.43l-2.36 13.37s-.65 2.2-1.48 2.63c-.74.54-1.4.43-2.16 0-.63-.42-.52-2.63-.52-2.63l3.71-21.38 16.15-2.83c.21.1.43-.11.54-.11l5.22-30.23c.32-1.66.54-3.45.54-5.12z" stroke-miterlimit="2.6" fill="none" stroke="#244ba6" stroke-width="5.37"/><path d="M161.5 94.43c-.74 4.41-1.4 8.73-2.25 13.26l-4.39.6v-.08l3.22-17.17c.21-1.06.95-1.68 1.7-2.1.87-.31 1.61.1 2.04.84.43 1.35-.11 3.04-.32 4.64z" stroke-miterlimit="2.6" fill="none" stroke="#244ba6" stroke-width="5.37"/><path d="M190.54 99.9c-.7-2.07-.42-3.18-.42-3.18l1.66-9.68c.28-1.25.7-2.49 1.66-3.04 0 0 .7-.42 1.39-.29a1.44 1.44 0 0 1 .96 1.39v1.52c0 .83-1.38 8.03-1.38 8.03l12.04-1.94 2.21-12.18c.7-3.6-.14-6.92-1.8-9.13a6.5 6.5 0 0 0-6.63-2.63c-3.33.55-6.1.83-9.41 1.66l-2.08.42c-2.77.83-4.98 3.18-6.5 6.08a17.15 17.15 0 0 0-1.94 6.23l-3.05 16.75c-.27 2.07-.69 4.15 0 5.67a10.7 10.7 0 0 0 1.94 3.74l6.92 9.68 2.34 3.32s.7.83.57 2.5c-.97 4.56-1.53 9.12-2.36 13.82a3.63 3.63 0 0 1-1.8 2.22c-.55.42-1.1 0-1.65-.42-.29-.4-.29-1.1-.29-1.8.43-4.56 1.39-9.4 2.22-13.83l-12.45 1.94-.56 2.2c-.97 5.55-2.21 11.08-2.63 16.34a9.69 9.69 0 0 0 4.02 9c1.52 1.24 3.73 1.37 5.67.96 2.77-.55 5.26-.55 7.9-1.39 2.75-.27 5.25-2.49 7.32-5.12a24.47 24.47 0 0 0 3.46-7.74l.28-1.38c1.38-6.64 2.21-12.87 3.6-19.65.27-2.5.27-5.12-1.11-6.5l-9.96-13.56" fill="#fff" fill-rule="evenodd"/><path d="M190.66 99.9c-.85-2.1-.54-3.27-.54-3.27l1.6-9.58c.33-1.26.74-2.53 1.7-3.15 0 0 .66-.42 1.4-.22a1.3 1.28 0 0 1 .97 1.28c0 .32.2.83 0 1.67l-1.4 8 12.09-2.01c.52-2.73 1.8-9.04 2.22-12.1a12.51 12.32 0 0 0-1.82-9.15 6.45 6.36 0 0 0-6.61-2.63c-3.31.53-6.19.84-9.5 1.57l-2.05.42c-2.65.84-4.9 3.27-6.5 6.22a18.18 17.9 0 0 0-1.93 6.1l-2.97 16.86c-.34 2-.75 4.1-.12 5.67a19.01 19.01 0 0 0 1.92 3.69l6.95 9.8 2.45 3.25s.63.74.43 2.42c-.85 4.52-1.5 9.15-2.36 13.8a3.16 3.12 0 0 1-1.7 2.19c-.65.44-1.18 0-1.72-.31-.31-.4-.31-1.16-.31-1.78.53-4.63 1.48-9.49 2.24-14.01l-12.5 2.02-.53 2.3c-.85 5.48-2.13 10.95-2.56 16.3a9.98 9.84 0 0 0 3.94 8.98c1.62 1.24 3.75 1.35 5.76.93 2.68-.53 5.24-.53 7.8-1.27 2.8-.42 5.36-2.61 7.38-5.25 1.6-2.1 2.88-4.94 3.54-7.7l.2-1.26c1.4-6.73 2.23-12.94 3.64-19.77.32-2.53.2-5.17-1.08-6.55z" stroke-miterlimit="2.6" fill="none" stroke="#244ba6" stroke-width="5.37"/><path d="M294.31 57.15a6.78 6.78 0 0 0-6.5-2.77l-9.69 1.8-1.93.41a12.45 12.45 0 0 0-6.64 6.23c-.97 1.8-1.4 4.01-1.8 6.1l-2.91 16.87c-.41 1.94-.83 4.15-.14 5.54.56 1.38 1.1 2.76 1.94 3.73l6.92 9.82 2.49 3.33s.55.7.4 2.21l-2.48 13.84a2.77 2.77 0 0 1-1.66 2.34c-.69.43-1.24 0-1.66-.27a4.42 4.42 0 0 1-.41-1.94l2.34-13.83-12.59 1.93-.4 2.36c-.84 5.53-2.22 10.93-2.64 16.33a9.69 9.69 0 0 0 4.01 8.85c1.39 1.38 3.74 1.38 5.82.97 2.63-.56 5.12-.56 7.75-1.38 2.76-.29 5.4-2.49 7.33-5.12a20.9 20.9 0 0 0 3.6-7.75l.14-1.25c1.38-6.64 2.2-12.87 3.59-19.78.42-2.5.14-5.12-1.1-6.5l-9.97-13.44c-.83-2.2-.55-3.46-.55-3.46l1.66-9.4a4.24 4.24 0 0 1 1.66-3.18s.69-.56 1.39-.29c.82.29.82.98.96 1.39 0 .28.28.83 0 1.66l-1.38 8.03 12.04-2.08c.55-2.77 1.93-9 2.34-12.04.56-3.74-.27-6.92-1.79-9.27" fill="#fff" fill-rule="evenodd"/><path d="M294.37 57.16a6.7 6.61 0 0 0-6.61-2.74c-3.3.64-6.21.94-9.52 1.68l-2.04.42c-2.66.84-5.02 3.26-6.6 6.23-.96 1.88-1.48 4-1.93 6.1l-2.88 16.85c-.32 1.99-.74 4.1-.1 5.67a19.2 19.2 0 0 0 1.92 3.68l6.93 9.8 2.46 3.26s.56.74.42 2.3c-.85 4.64-1.6 9.27-2.45 13.8a2.7 2.7 0 0 1-1.7 2.32c-.64.43-1.18 0-1.6-.31a3.46 3.46 0 0 1-.44-1.9c.66-4.52 1.6-9.38 2.35-13.9l-12.6 2.01-.43 2.31c-.85 5.48-2.13 10.95-2.56 16.3a10 9.85 0 0 0 3.96 8.97c1.48 1.25 3.73 1.36 5.76.94 2.67-.53 5.23-.53 7.8-1.37 2.79-.32 5.33-2.51 7.37-5.15 1.6-2.1 2.88-4.95 3.54-7.69l.18-1.27c1.3-6.74 2.16-12.94 3.64-19.78.33-2.53.12-5.16-1.16-6.54l-9.94-13.48c-.84-2.08-.53-3.35-.53-3.35l1.6-9.48c.2-1.27.75-2.53 1.7-3.15 0 0 .65-.54 1.4-.22.75.22.86.84.95 1.28 0 .3.22.82 0 1.67a674.38 674.38 0 0 1-1.38 8l12.09-2.01c.52-2.73 1.8-9.04 2.22-12.1a12.51 12.32 0 0 0-1.82-9.15z" stroke-miterlimit="2.6" fill="none" stroke="#244ba6" stroke-width="5.37"/><path d="M231.77 76.66l2.35-13.15-4.42.56 3.04-18.54-12.73 1.93-3.04 18.26-.15.29-4.42.82-2.49 13.42 4.43-.69-12.45 71.27v.69l12.72-2.22 12.45-71.81 4.57-.83M89.11 89.94A6.78 6.78 0 0 0 84 87.45l-10.65 1.66c-3.46.28-6.92 3.32-9 7.33-1.93 4.16-2.07 9-3.03 13.56l-9 50.5-.28 3.47c.14 4.15 1.66 7.89 4.7 9.41 1.94 1.38 5.27.27 7.62 0 2.49-.42 5.12-.28 7.47-1.39 3.87-1.65 7.47-6.22 8.57-11.2l.84-2.9 9.68-56.87c.97-4.58.28-8.72-1.93-11.08zm-11.06 17.02l-8.59 49.26c-.14 1.1-.41 2.34-1.24 3.04-.56.42-1.38.56-1.94.42-.4-.14-.83-.83-.96-1.39l.14-1.8 8.85-50.92c.28-.96.97-2.07 1.8-2.2.7-.14 1.38-.29 1.8.27.55.83.28 1.94.14 3.32M260.4 61.99a6.78 6.78 0 0 0-5.4-2.35l-10.37 1.66c-3.6.28-7.2 3.32-9.13 7.33-1.94 4.16-2.08 9-2.91 13.42l-9.13 50.78-.28 3.32c.14 4.3 1.66 8.03 4.7 9.41 2.08 1.53 5.13.42 7.62.28 2.49-.55 5.12-.55 7.6-1.39 3.88-1.93 7.2-6.35 8.58-11.48l.56-2.77 10.1-57c.83-4.43.14-8.72-1.94-11.07zm-11.2 17.02l-8.73 49.4c0 1.1-.27 2.35-.96 2.9a2.32 2.32 0 0 1-2.08.56c-.41 0-.83-.84-.97-1.4v-1.78l9.14-50.93c.14-1.1.83-2.07 1.65-2.2.7-.3 1.39-.3 1.94.14.56.82 0 2.2 0 3.31M60.9 64.21c-1.94-3.46-4.7-4.84-8.17-4.57l-20.34 3.18-1.1.15a55.35 55.35 0 0 0-5.54.96L3.33 193.16l20.2-3.46c3.04-.54 6.36-.69 9.4-2.2 5.96-2.63 10.8-9.97 12.18-17.72L62 75.28c.69-4.16.4-8.3-1.11-11.07zm-30.17 99.9c-1.1 5.67-4.15 5.8-4.15 5.8l-3.87.7.27-1.25L38.61 80.4l4.98-.82c.7.55 1.39 1.1 1.39 2.34l-14.26 82.2M141.7 82.75c-1.1-2.77-3.18-4.42-5.53-4.15-1.67 0-3.19.7-4.57 1.38-2.77 1.4-4.7 3.88-6.92 6.23-.4-1.38-.96-2.48-1.8-3.18-1.8-1.8-5.12-1.66-7.46 0-1.8 1.39-3.6 2.9-5.12 4.98l.96-4.98-12.87 2.08-14.94 85.51 2.76-.42 9.97-1.66 11.9-68.22s.55-2.07 1.66-2.34c1.25-.42 1.8 0 1.94.13 0 .28.55.56.14 2.63l-.42 2.35-11.35 64.76 12.46-1.94 11.76-68.34s.28-1.67 1.1-2.09c.98-.69 1.25-.82 1.8-.82.42 0 1.11 0 1.25 1.93l-12.04 68.77 12.45-2.08 13.29-76.1c0-1.66-.27-3.18-.42-4.15m33.22.83a11.07 11.07 0 0 0-.84-4.84c-1.1-2.5-2.9-4.16-5.12-4.7-3.46-.42-7.33.69-10.93 1.1l-2.77.55c-1.8.28-3.32 1.4-4.7 2.91-3.05 3.05-4.15 7.75-4.7 12.18l-8.86 49.81-1.38 7.89c-.15 2.07 0 3.87.4 5.53.98 4.15 4.03 6.92 7.62 6.64l9.27-1.38c1.25 0 2.35-.56 3.32-.97 3.05-1.8 5.68-5.4 7.2-9.13 0 0 .83-3.19 2.2-10.24l1.81-9.96.14-1.39-12.31 1.94v.42l-2.36 13.28s-.55 2.21-1.39 2.77c-.82.41-1.38.27-2.2 0-.7-.56-.56-2.77-.56-2.77l3.74-21.31 16.19-2.77.55-.14 5.26-30.3a31.93 31.93 0 0 0 .4-5.12zm-13.43 10.65l-2.21 13.29-4.43.55 3.18-17.3a3.36 3.36 0 0 1 1.8-2.07c.83-.28 1.52.14 1.94.83.55 1.38 0 3.05-.28 4.7m29.06 5.4c-.7-2.07-.42-3.18-.42-3.18l1.66-9.68c.28-1.25.7-2.5 1.66-3.05 0 0 .7-.42 1.39-.28a1.44 1.44 0 0 1 .96 1.39v1.52c0 .83-1.38 8.03-1.38 8.03l12.04-1.94 2.21-12.18c.7-3.6-.14-6.92-1.8-9.13a6.5 6.5 0 0 0-6.63-2.63c-3.33.55-6.1.83-9.41 1.66l-2.08.41c-2.77.83-4.98 3.19-6.5 6.1a17.15 17.15 0 0 0-1.94 6.22l-3.05 16.74c-.27 2.08-.69 4.16 0 5.68a10.7 10.7 0 0 0 1.94 3.73l6.92 9.69 2.34 3.32s.7.82.57 2.49c-.97 4.56-1.53 9.13-2.36 13.83a3.63 3.63 0 0 1-1.8 2.22c-.55.41-1.1 0-1.65-.42-.29-.41-.29-1.1-.29-1.8.43-4.56 1.39-9.4 2.22-13.83l-12.45 1.93-.56 2.22c-.96 5.54-2.21 11.07-2.63 16.32a9.69 9.69 0 0 0 4.02 9c1.52 1.25 3.73 1.38 5.67.97 2.77-.56 5.26-.56 7.9-1.39 2.75-.27 5.25-2.49 7.32-5.12a24.46 24.46 0 0 0 3.46-7.74l.28-1.38c1.38-6.65 2.21-12.88 3.6-19.65.27-2.5.27-5.12-1.11-6.51l-9.96-13.56m103.63-42.76a6.78 6.78 0 0 0-6.5-2.76l-9.69 1.8-1.93.41a12.45 12.45 0 0 0-6.64 6.23c-.97 1.8-1.4 4.01-1.8 6.09l-2.91 16.88c-.42 1.94-.84 4.15-.15 5.54.57 1.38 1.11 2.76 1.95 3.73l6.92 9.82 2.49 3.32s.55.7.4 2.22l-2.48 13.83a2.77 2.77 0 0 1-1.66 2.34c-.69.43-1.24 0-1.66-.27a4.42 4.42 0 0 1-.42-1.94l2.35-13.83-12.59 1.93-.4 2.36c-.84 5.53-2.22 10.93-2.64 16.33a9.69 9.69 0 0 0 4.01 8.85c1.39 1.38 3.74 1.38 5.82.97 2.63-.56 5.12-.56 7.75-1.38 2.76-.29 5.4-2.49 7.33-5.12a20.9 20.9 0 0 0 3.6-7.75l.14-1.25c1.38-6.64 2.2-12.87 3.59-19.78.42-2.5.14-5.12-1.1-6.5l-9.97-13.44c-.83-2.2-.55-3.46-.55-3.46l1.66-9.4a4.24 4.24 0 0 1 1.66-3.18s.69-.56 1.39-.29c.82.29.82.98.96 1.39 0 .28.28.83 0 1.66l-1.38 8.03 12.04-2.08c.55-2.77 1.93-9 2.34-12.04.56-3.74-.27-6.92-1.79-9.27" fill="#fff" fill-rule="evenodd"/></svg>