<svg xmlns="http://www.w3.org/2000/svg" version="1.0" width="80" height="80"><path d="M57.64 6.3a38.02 38.02 0 0 1 0 67.35v-4.34a34 34 0 0 0 11.38-11.23l-11.38-4.62v-7.04l12.5 9.77a34.28 34.28 0 0 0-12.5-45.53V6.3zM40.04 2a37.86 37.86 0 0 1 17.6 4.3v4.36a34.34 34.34 0 0 0-16.57-4.87l4.35 31.1 12.22 9.53v7.04L39.96 46.3 22.4 53.5v-7l12.3-9.6 4.31-31.1a34.26 34.26 0 0 0-16.6 4.85V6.31A37.8 37.8 0 0 1 40.03 2zm17.6 71.65A37.9 37.9 0 0 1 40.04 78a38.27 38.27 0 0 1-17.64-4.3v-4.4a33.9 33.9 0 0 0 17.64 4.9 33.96 33.96 0 0 0 17.6-4.9v4.35zm-35.24.04A38.04 38.04 0 0 1 2 40C2 25.35 10.26 12.66 22.4 6.3v4.35A34.17 34.17 0 0 0 5.8 39.98a34.19 34.19 0 0 0 4.1 16.28l12.5-9.76v7l-11.34 4.66A33.98 33.98 0 0 0 22.4 69.31v4.38z" fill="#4d4d4d" fill-rule="evenodd"/></svg>