<svg xmlns="http://www.w3.org/2000/svg" version="1.0" width="300" height="299.96"><path d="M219.602 16.972a150.059 150.059 0 0 1 0 265.82v-17.13a134.192 134.192 0 0 0 44.915-44.323l-44.915-18.234v-27.786l49.336 38.56A135.298 135.298 0 0 0 219.602 34.18zM150.138 0a149.427 149.427 0 0 1 69.464 16.972V34.18a135.534 135.534 0 0 0-65.4-19.221l17.17 122.747 48.23 37.613v27.786l-69.78-28.26-69.307 28.418v-27.628l48.547-37.89 17.01-122.747a135.219 135.219 0 0 0-65.517 19.143V17.01A149.19 149.19 0 0 1 150.098.001zm69.464 282.791a149.585 149.585 0 0 1-69.464 17.17 151.045 151.045 0 0 1-69.623-16.972v-17.366a133.798 133.798 0 0 0 69.623 19.34 134.035 134.035 0 0 0 69.464-19.34zm-139.087.158A150.138 150.138 0 0 1 0 149.98C0 92.16 32.6 42.074 80.515 16.972V34.14A134.863 134.863 0 0 0 14.998 149.9a134.942 134.942 0 0 0 16.182 64.255l49.335-38.521v27.628l-44.757 18.392a134.114 134.114 0 0 0 44.757 44.007z" fill="#4d4d4d" fill-rule="evenodd" stroke-width="3.947"/></svg>