<svg xmlns="http://www.w3.org/2000/svg" xmlns:xlink="http://www.w3.org/1999/xlink" width="107.57" height="119" overflow="visible"><defs><path id="a" d="M0 0h107.57v119H0z"/></defs><clipPath id="b"><use xlink:href="#a"/></clipPath><path clip-path="url(#b)" fill="#1766A6" d="M13.85 104.62c-.17-.56-.69-1.82-.83-2.75-.3-2.06.77-3.42 1.76-3.73 1.11-.31 1.55.25 1.98 1.54.55 1.98.62 4.57.43 8.27-.24 5.06-2.78 11.18-9.07 11.05-5.43-.12-7.84-3.64-8.09-9-.12-2.54.07-5.07 1.11-8.65.56-1.91 1.06-2.6 2.78-2.96 1.36-.25 1.23 1.17.93 2.84-.68 3.7-1 5.49-.74 9.69.24 4.44 2.28 6.17 4.5 6.17 3.34.06 4.82-2.71 5.44-6.73.48-3.2.12-4.75-.2-5.74zm71.07 4.39c1.3 0 1.67 1.53 1.36 2.46-.31.93-1.42 1.98-3.15 2.29-.37-.93-.56-4.75 1.79-4.75zm-24.13 2.09c0-1.05-.56-1.91-1.23-1.91-.56 0-1.85.61-1.85 2.59 0 1.55.55 2.28.8 2.6 1.78-.56 2.28-2.05 2.28-3.28zM41.6 98.5c-.08-.99-.86-1.66-1.9-1.66-1.18 0-2.28 1.23-2.17 2.77.08 1.02.68 1.85 1.86 1.85 1.35 0 2.34-1.54 2.21-2.96zm10.04 3.63c-.1-1.73-.52-2.5-1.45-2.45-1.23.08-1.8 3.95-1.55 8.01.16 2.65.56 3.06.93 3.04.68-.05 2.3-4.78 2.07-8.6zm40.94 6.5c-.76 3.17-3.08 7.83-6.54 7.83-.8 0-2.22-.3-2.22-1.1 0-.87 5.43-1 5.43-5.13 0-1.54-1.42-3.7-3.52-3.7-2.77 0-5.48 3.02-5.48 7.22 0 3.76 2.33 5 4.68 5 4.07 0 6.54-3.34 7.84-6.12.62 1.86.98 6.11 2.53 6.11.62 0 1.05-.3 1.8-1.97 1.84-4.14 3.63-8.89 6.1-8.89.92 0 .37 1.67 2.6 1.67a1.8 1.8 0 0 0 1.78-1.85c0-1.42-1.3-2.53-3.27-2.53-5.8 0-7.03 8.7-7.96 8.7-1.54 0-1.05-6.97-2.16-6.97-1 0-1.48 1.17-1.6 1.72zm-49.37 7.4c.93 0 2.52-.3 3.77-2.3-.72-1.6-1.23-4.81-1.3-5.98-.37-5.98 1.94-11.61 4.46-11.77 1.85-.1 3.33 1.64 3.5 4.48.46 7.45-2.03 10.57-3.27 13.25.2 1.04 1.98 2.81 3.64 2.81.62 0 1.36-.3 1.55-.56a6.12 6.12 0 0 1-.25-1.78c0-4.32 2.78-7.97 5.18-7.97 1.92 0 3.03 2.53 3.03 4.2 0 1.98-1.67 3.58-4.14 5.13.44.43 1.23.74 1.92.74 3.52 0 5.36-4.26 6.72-8.15.25-.75.68-1.8 1.55-1.8 1.48 0 2.1 9.76 4.56 9.76 1.05 0 1.91-2.16 1.91-3.82 0-1.24-.43-1.36-.43-3.15 0-1.98 1.05-3.64 2.48-3.64.86 0 1.17.86 1.17 1.9 0 3.96-2.84 11.3-7.03 11.3-3.16 0-2.91-5.43-4.02-5.43-1.24 0-2.97 5.5-9.07 5.5-1 0-2.04-.5-2.9-1.49a7.1 7.1 0 0 1-4.14 1.42c-2.28 0-3.27-2.34-4.2-2.34-1.1 0-2.34 2.4-6.05 2.4-2.96 0-3.45-3.94-4.5-3.94-.93 0-2.35 3.94-3.89 3.94-2.6 0-3.14-6.85-5.43-6.85-1.8 0-7.45 6.96-8.98 6.8-.62-.06-.88-.52-.81-1.14.08-.86.82-3.14 1.12-4.22.5-1.88.95-3.94 1.21-4.6.25-.66.94-1.13 1.49-1.08.28.03.36.55.45.97.3 1.53.74 3.09 1.23 3.09.87 0 3.73-5.5 5.4-5.5 2.04 0 2.28 8.64 5.06 8.64.93 0 1.6-1.1 2.22-2.47.07-2.28.68-5.55 2.53-5.55 1.3 0 1.92 2.9.99 5.43 0 3.03 1.97 3.77 3.27 3.77"/><path fill="#1766A6" d="M86.19 19.25c-.46 0-1.12 0-1.48-.71-.3-.6-.2-1.55-.75-1.97.56.16 1.15.16 1.6.16 1.48 0 2.89-1.01 3.97-1.01.72 0 .95.46.95.91 0 1.45-2.91 2.62-4.3 2.62zm.72 3.7c3.4 0 6.52-2.71 6.52-5.1 0-1.12-.53-2.03-1.87-2.2.23.3.33.53.33 1.05 0 1.8-2.75 3.8-5.73 3.8-1.09 0-1.41.75-1.41 1.15 0 .91.88 1.3 2.16 1.3zm-.26 1.38c.42 3.11 5.14 7.3 6.41 7.2.86-.07 1.19-4.06 1.19-7.2 0-1.8.1-3.2-.86-3.54-1.5 3.05-5.46 3.67-6.74 3.54m-73.72 20.6c1.12 0 .89-6.81 2.69-6.81.42 0 .56.42.56.95 0 1.54-.76 3.8-.76 5.04 0 .62.17.82.46.82.79 0 2.16-7.5 3.5-7.5.43 0 .63.43.63.85 0 1.57-2 6.1-2 7.37 0 .2.06.36.23.36.82 0 2.46-3.54 2.98-5.3.3-.92.69-1.42 1.05-1.42.32 0 .62.37.62 1.12 0 1.77-1.64 5.93-3.08 8.71-1.11 2.16-2.85 5.27-2.85 7 0 .9.16 1.8 1.44 2.92-2.1-.13-2.95-.32-3.73-1.96-3.5 6.97 6.45 6.29 3.04 12.47-.62-1.1-5.53-2.25-5.53-8.74 0-5.6 4.91-8.87 4.91-11.2 0-.45-.16-.85-.59-1.2-1.08-.93-1.11-1.68-1.96-1.68-.62 0-1.38 1.44-.6 2.72.27.42.5.69.5 1.08 0 .92-1.44 3.37-2.46 3.37-1.01 0-1.8-2.52-1.8-6.58 0-3.6.82-7.24 1.84-7.24.29 0 .39.2.39.46 0 .43-.13 1.28-.13 2.72 0 1.54.36 1.67.65 1.67"/><path fill="#1766A6" d="M21.28 54.52c1.38 0 2.52-1.01 2.52-3.27v-3.34c0-1.28.1-2.72.95-3.73-.1.42-.1.88-.1 1.3 0 2.82 1.58 4.76 1.58 7.47 0 1.02-.3 1.57-1.08 1.57-.76 0-.69-.68-.85-.68-.14 0-.33.42-.33.88 0 .69.49 1.77 1.86 1.77 1.18 0 2.13-1.08 2.13-2.3 0-2.94-2.29-6.22-2.29-9.36 0-1.37.36-2.29.65-3.01 0 6.52 5.54 11.26 5.54 13.98a1.1 1.1 0 0 1-1.15 1.12 1.07 1.07 0 0 1-1.11-1.05c0-.23-.03-.3-.13-.3-.2 0-.79.66-.79 1.51 0 1.08.89 2.4 2.52 2.4 1.87 0 2.88-1.58 2.88-3 0-3.43-6.7-8.64-6.7-14.2 0-.95.15-2.5.84-3.67-4.32 2.78-5.66 6.48-5.66 9.73 0 2.81-.1 4.22-1.54 4.22-.75 0-.95-.69-1.21-.69-.2 0-.3.6-.3.76 0 1.2.89 1.9 1.77 1.9M70.9 17.64c.41-.28 2.26.16 4.65-1.02.29-.16.59-.22.85-.22 1.14 0 .85 1.3 1.9 1.3.82 0 1.87-.68 2.49-.68.98 0 2.38 3.08 2.38 4.52 0 1.67-2.51 2.68-5.5 2.68-4.35 0-6.97-3.8-6.97-6.25 0-.2.1-.27.2-.33zm7.14 4.16c1.44 0 2.52-.66 2.52-1.05 0-.13-.2-.23-.62-.23-.43 0-1.28-.03-2.89-.3-1.37-.22-2.42-.75-2.82-.75-.13 0-.2.07-.2.17 0 .85 1.58 2.16 4 2.16M21.98 66.87c-1.08.26-2.82 1.96-2.82 4.65 0 3.2 3.44 8.16 9.1 8.16 4.79 0 5.97-3.31 5.97-5.54 0-4.95-3.05-8.42-7-8.42-2.17 0-4.1 1.58-4.1 3.9 0 2.16 1.64 5.4 5.53 5.4a2.76 2.76 0 0 0 2.92-2.81c0-1.47-1.35-3.5-3.31-3.5-.6 0-1.02.39-1.02 1.01 0 .78 1.08 1.57 2.43 1.57.32 0 .59-.06.72-.13a.8.8 0 0 1 .1.4c0 .75-.73 1.2-1.84 1.2a3.2 3.2 0 0 1-3.27-3.2c0-1.18 1.01-2.03 2.49-2.03 2.9 0 4.64 2.58 4.64 5.17 0 2.32-1.27 3.67-3.9 3.67-5.23 0-7.78-4.72-6.64-9.5m37.38 19.19c1.57 0 1.5-.13 1.98-.13.5 0 .53.3.53.49 0 .72-1.6 1.6-4.46 1.6-1.67 0-2.68-.88-2.98-1.86a12.9 12.9 0 0 1-6.58 2c-6.71 0-8.41-2.92-10.51-3.87-1.6-.72-4.06.69-7.5-3.14.46.1 1.08.13 1.57.13 3.01 0 4.62-1.47 4.62-3.83 0-.3-.03-.62-.07-.92a6.5 6.5 0 0 1 3.5 4.72c.07.32 1.42.62 2.27.62 1.18 0 2.68-.5 2.91-2.42 3.93-.33 6.59-2.66 7.14-5.6a7.77 7.77 0 0 1 3.4 2.39c.56-.2 1.22-.3 1.97-.3 1.05 0 2.23.2 3.64.62.06-.42.13-.95.78-.95.99 0 .72 1.09 1.05 1.7.17.33.99.53.99 1.18 0 .63-.53.86-.86.86-.13 0-.3-.03-.4-.07-.65.23-.68 4.95-3.43 4.95-2.03 0-3.9-1.67-4.72-3.77-.23-.62-.72-1.01-1.18-1.01-.52 0-.81.1-1.43.78a11.39 11.39 0 0 1-8.36 3.6c-1.11 0-2-.1-2.22-.1-.14 0-.14.04-.14.07 0 .23 1.12 1.11 3.54 1.11 5.77 0 7.17-3.24 8.09-3.24.13 0 .52 0 .75.53 1.35 3.14 4.28 3.86 6.11 3.86zm-2.54-6.55c0 .72.6 1.31 1.31 1.31s1.32-.59 1.32-1.3c0-.73-.6-1.32-1.31-1.32s-1.32.6-1.32 1.31m25.94-16.34c-.46 0-.95.36-.95 1.25 0 .97.75 1.6 1.18 1.8.23.13.59.26.95.26.95 0 1.7-.27 1.7-1.05 0-1.01-1.47-2.26-2.88-2.26zm-3.53 2.03c-.7 0-4.5 5.07-6.95 5.07-.58 0-1.08-1.1-1.08-1.96 0-.46.3-.78 1.35-1.02 5.63-1.27 4.38-5.5 9.2-5.5 2.65 0 5.6 1.8 5.6 5.86 0 4.33-6.16 9.7-7.07 9.7-.76 0-1.58-1.08-1.58-1.8 0-.23.1-.53.76-.79 3.14-1.25 4.94-4.13 4.94-5.6 0-.33-.17-.65-.6-.65-.55 0-2.93 5.43-5.59 5.43-1.84 0-3.7-1.67-3.7-2.45 0-1.32 5.3-3.74 5.3-5.57 0-.7-.32-.72-.58-.72M14.4 22.27s-.95.72-2.13.72a2.46 2.46 0 0 1-2.52-2.52c0-1.02.52-2.07 1.73-2.6-.03.2-.03.37-.03.56 0 1.87 1.05 3.28 2.95 3.84zm7 6.29a6.22 6.22 0 0 0-1.47 3.76c0 1.77 1.08 3.24 2.75 3.24 1.6 0 2.36-1.37 2.36-2.78 0-2.2-2-3.73-3.64-4.22zm-10.87 1.3a.7.7 0 0 0-.1.37c0 .3.33.62.63.62.26 0 .42-.07.55-.07.79 0 1.67.56 2.95.56.75 0 1.64-.23 2.75-.79 2.36-1.18 3.28-4.09 3.28-4.58 0-.62-.5-.54-.92-1.12-.42-.57-.26-1.07-.53-1.34-.15-.15-.62-.16-1.2-.23a7.22 7.22 0 0 0-.73-.03c-1.08 0-2.36.13-3.8 1.05-2.84 1.81-2.42 4.81-2.88 5.57zm7.7-4.06c.23.31.85.7.85.92 0 .46-.26 1.05-.79 1.05-1.14 0-2.06-1.74-2.06-2.72 0-.62.36-.69.85-.69a.79.79 0 0 1 .5.14c.29.16.29.81.65 1.3zm-3.02 4c-1.08 0-2.26-1.34-2.26-2.56 0-.65.5-1.47.86-1.47.13 0 .2.1.22.33a3.72 3.72 0 0 0 2.23 2.98c.1.06.17.1.17.16 0 .23-.63.56-1.22.56zm2.79-8.25a6.45 6.45 0 0 0 .3-1.9c0-1.57-.73-3.96-2.95-3.96a2.18 2.18 0 0 0-2.2 2.22c0 2.59 2.59 3.64 4.85 3.64zm-8.48 13.1c0 2.48.75 3.66 2.1 3.66 1.04 0 2.45-.75 4.12-2.2-1.28.3-2.26.5-3.15.5-1.17 0-2.09-.46-3.07-1.96zm1.14-2.92c-.03.17-.03.33-.03.5 0 1.53.82 2.38 1.9 2.38.82 0 1.77-.49 2.62-1.57a6.9 6.9 0 0 1-1.18.1c-1.21 0-2.52-.33-3.3-1.4zm8.03-.46c-.76.2-2.33 1.12-2.33 2.75 0 1.18.92 1.94 2.06 1.94.6 0 1.02-.14 1.28-.33a3.82 3.82 0 0 1-1.24-2.85c0-.69.1-1.11.23-1.5zm1.17-8.97c0 .72.6 1.31 1.31 1.31.73 0 1.32-.59 1.32-1.31a1.31 1.31 0 1 0-2.62 0zm1.7 2.95a1.31 1.31 0 1 0 2.62 0 1.31 1.31 0 0 0-2.61 0m51.09 16.08c0-.66.59-1.21 1.24-1.21a1.25 1.25 0 1 1 0 2.48 1.25 1.25 0 0 1-1.24-1.27zm-11.5-10.09c0 .72.6 1.31 1.3 1.31.73 0 1.32-.59 1.32-1.31 0-.72-.59-1.3-1.31-1.3-.72 0-1.31.58-1.31 1.3zm-1.11 4.62c0 1.01.85 1.86 1.86 1.86 1.02 0 1.87-.85 1.87-1.86a1.89 1.89 0 0 0-1.87-1.87 1.89 1.89 0 0 0-1.86 1.87zm4.12-2.1c0 1.12.89 2 2 2a1.99 1.99 0 0 0 2-2 1.99 1.99 0 0 0-2-2 1.98 1.98 0 0 0-2 2zm.17-4.26c0 .7.56 1.25 1.24 1.25a1.25 1.25 0 0 0 0-2.49c-.68 0-1.24.56-1.24 1.24zm5.93-3.14c0 .69.55 1.24 1.24 1.24a1.25 1.25 0 1 0-1.24-1.24zm-2.46 4.03a2.11 2.11 0 0 0 2.1 2.1 2.11 2.11 0 0 0 2.1-2.1 2.11 2.11 0 0 0-2.1-2.1 2.11 2.11 0 0 0-2.1 2.1zm-3.37 7.66c0 .72.59 1.31 1.3 1.31.72 0 1.31-.59 1.31-1.3s-.59-1.32-1.3-1.32c-.72 0-1.31.6-1.31 1.31zm4.29-2.62c0 .72.58 1.31 1.3 1.31.73 0 1.32-.59 1.32-1.3a1.31 1.31 0 0 0-2.63 0zm-1.22 4.62a2.27 2.27 0 0 0 2.26 2.26 2.27 2.27 0 0 0 2.27-2.26 2.27 2.27 0 0 0-2.27-2.26 2.27 2.27 0 0 0-2.26 2.26zm4.72-2.79a1.54 1.54 0 1 0 3.08 0 1.54 1.54 0 1 0-3.08 0zm-.1-4.12c0 .75.63 1.37 1.37 1.37.76 0 1.38-.62 1.38-1.37 0-.75-.62-1.38-1.38-1.38-.74 0-1.37.63-1.37 1.38m3.34 42.97a9.65 9.65 0 0 1-6.16 2.12c-1.76 0-2.55-.55-2.81-.55-.33 0-.7.32-1.05.75a7.39 7.39 0 0 0-1.8 4.49c0 1.3 1.02 2.61 2.91 2.61 6.13 0 10.71-3.83 10.71-6.94 0-1.76-1.05-2.48-1.8-2.48zm-1.7-.36c.26-.23.32-.6.32-.96v-.75c0-.95-1.43-1.5-3.4-1.5-2.4 0-3.67 1.07-3.67 1.53v1.51c0 .63 1.44 1.25 3.21 1.25 1.41 0 2.69-.36 3.54-1.08zm-.27 3.24c.17 0 .36.1.36.69 0 .71-.32 1.66-1.5 2.42a6.29 6.29 0 0 1-3.57 1.04c.26-.78.46-1.6.46-2.38 0-.27-.03-.46-.07-.76h.43c2.59 0 3.7-1.01 3.9-1.01M61 38.97c.36 2.78 4.1 1.37 4.1 4.75 0 .49-.14 1.21-.14 1.83 0 .72.07 1.34.62 1.34s.69-.39.69-.91-.14-1.18-.14-1.54c0-1.15.82-1.41 1.32-1.41 1.24 0 2.2 1.28 4.06 1.28-.43 2.1-4.75 1.54-4.75 3.83 0 1.15 1.14 1.4 1.9 1.4.69 0 .92-.1.92-.68 0-.33-.07-.69-.07-.92a.26.26 0 0 1 .26-.26c.73 0 4.26 2.69 4.26 3.5 0 .76-3.73 1.51-4.81 1.51-.33 0-.4-.23-.4-.36 0-.23.56-.92.56-1.3 0-.3-.5-.5-1.8-.5-.63 0-1.09.07-1.09.56 0 .88 1.45 1.96 1.45 2.78 0 .65-.4 1.05-1.45 1.05-.88 0-2.22-.7-2.22-1.84 0-.91.95-1.83.95-2.39 0-.16-.13-.42-.52-.42-1.22 0-1.54 3.2-5.83 3.57a3.29 3.29 0 0 0 1.27-2.72c0-.69-.16-1.25-.16-2 0-.98.46-1.47 1.11-1.47 1.21 0 1.8 1.7 2.6 1.7.42 0 .88-.4.88-.98 0-2.5-4.79-2.13-4.79-5.63 0-.95.33-2.13 1.22-3.77zm15.62 9.6c0 .81.26 1.76 1.08 1.76.69 0 1.28-1.04 1.28-2.2 0-1.3-.23-2.32-.23-2.84 0-.23.1-.33.23-.33.49.04.95 1.38 1.47 1.38.6 0 1.47-1.09 1.83-1.09.1 0 .13.14.13.17 0 .5-.75 1.57-.75 2 0 .36 1.9.42 1.9.75 0 .5-2 .5-2.94.92-.92.4-1.48.88-1.48 1.54 0 .65.65.78 1.57.78 2.2 0 3.73-1.17 4.22-1.17.1 0 .16.06.16.16 0 .33-1.1 1.4-1.1 1.9 0 .55 2.02 1.2 2 1.54-.04.1-.17.13-.4.13-.36 0-.92-.1-1.35-.1-.26 0-.49.03-.59.16-.23.26.07 2-.39 2-.43 0-1.54-3.86-4.06-3.86-.36 0-.62.3-.62.78 0 1.31 1.28 2.82 2.5 3.54.54.36 1.46.72 1.46.92 0 .39-2.09.03-2.09.68 0 .6.26 1.48.26 2 0 .16-.03.36-.23.36-.39 0-1.34-1.8-1.8-1.8-.4 0-1.25 1.08-1.6 1.08-.1 0-.17-.1-.17-.2 0-.75 1.21-2.45 1.21-4.12 0-.79-.1-2.5-1.05-2.5-.78 0-1.67 1.25-2.06 2.5-.23.72-.07 3.5-.6 3.5-.48 0-.35-1.86-1-1.86-.5 0-1.54.88-1.9.88-.07 0-.13-.03-.13-.1 0-.4.95-1.67.95-1.93 0-.5-2.17-.56-2.17-.95 0-.23.86-.4 1.64-.53 1.67-.29 4.13-1.5 4.13-3.2 0-1.9-1.84-2.72-3.04-3.5-.63-.4-1.32-.73-1.32-.99s.79-.26 1.12-.26c.49 0 .98-.03.98-.43 0-.3-.07-.88-.07-1.34 0-.33.03-.59.16-.59.5 0 1.18 1.6 1.51 1.6.53 0 1.25-1.3 1.74-1.3.16 0 .23.1.23.39 0 1.2-.62 2.58-.62 3.76M61.96 57.63c1.5.2 1.87.72 1.87 1.15 0 .72-.66.95-1.28.95-.46 0-.99-.1-1.54-.1-.73 0-1.44.17-2.03.85.42.07 1.04.36 1.04 1.02 0 1.9-5.27.33-5.27 5.2 0 2.6 2.69 5.41 6.75 5.41 2.1 0 3.44-.69 3.44-1.47 0-.63-1.11-.2-1.11-.73 0-.22.39-.65.39-1.01 0-.16-.13-.46-.4-.46-.59 0-1.7.95-3.96.95-1.77 0-3.5-1.01-3.5-2.39 0-.3.13-.46.32-.46.2 0 .46.13.7.13.19 0 .22-.13.22-.49s0-1.38.62-1.38c.63 0 1.8 2.3 6.33 2.3 1.5 0 4.42-.3 5.5-1.28a8.51 8.51 0 0 1-8.75 8.35c-6.12 0-9.4-4.91-9.4-9.43 0-5.01 4.1-9.56 9.7-9.56 1.44 0 2.65.49 2.65 1.11 0 .86-2.13.33-2.3 1.34zM72 59.37c.23.36.33.72.33 1.05 0 .92-.62 1.77-.62 2.72 0 1.08.82 1.96 2.06 1.96 1.34 0 2.26-1.08 2.26-2.36 0-1.73-1.58-3.2-4.03-3.37zm-10.84 2.1c.33.32.43.65.43.98 0 .49-.23 1.01-.23 1.57 0 .78.59 1.47 1.44 1.47.92 0 1.54-.72 1.54-1.57 0-1.24-1.28-2.45-3.18-2.45zm4.35-5.57c3.44.65 5.31 3.24 5.31 5.67 0 1.67-1.05 3.2-2.88 3.2-1.67 0-2.88-1.14-2.88-2.98 0-1.37 1.07-2.81 1.07-4.22 0-.56-.16-1.11-.62-1.67zm1.7 4.36c0 .45.33.81.8.81.52 0 .85-.45.85-.98 0-.69-.63-1.64-1.22-1.64-.26 0-.16.4-.23.82-.03.33-.2.72-.2.99m-36.14-33.7c1.1 0 2.39-6.03 2.39-7.04 0-.27-.1-.46-.33-.46-1.02 0-2.42 5.73-2.42 7 0 .24.06.5.36.5zm8.02 1.8c.82 0 1.73-3.15 1.73-5.11 0-.43-.06-.88-.26-.88-.69 0-1.83 3.24-1.83 5 0 .7.16.99.36.99zm-5.34-2.92c.36 0 .82-.4 1.67-1.34.07-.42.07-.82.07-1.3 0-.66-.27-1.38-.66-1.38-.98 0-1.47 2.62-1.47 3.3 0 .4.2.72.39.72zm4.49-1.34c0-.56-.14-.69-.27-.69-.32 0-.68.4-1.2 1.28.06 1.18.26 1.7.58 1.7.36 0 .89-1.14.89-2.29zm2.52-3.86c2.16 0 3.14 1.86 3.14 3.96 0 .92-.26 2.26-.68 2.26s-.36-.75-.43-1.44c-.07-.89-.23-1.08-.53-1.08-.55 0-.91 1.3-.91 2.52 0 .75.13 1.6.72 1.6.33 0 .62-.16.82-.36-.13 1.5-1.25 2.82-2.82 2.82-2.88 0-3.96-3.37-4.29-5.34-1.73 1.84-3.34 3.18-6.22 3.18-2.69 0-3.9-1.97-3.9-3.83 0-.56.2-2 .89-2 .82 0 .1 2.68 1.7 2.68.4 0 1.11-.32 1.5-1.4.24-.66.37-1.34.37-1.94 0-.88-.2-1.44-.85-1.44-.56 0-1.25.43-1.48.66a4.93 4.93 0 0 1 4.78-3.57c2.59 0 3.96 2.3 3.96 4.85 0 .36-.03.75-.1 1.1 1.12-1.82 2.66-3.23 4.33-3.23"/><path fill="#1766A6" d="M34.64 29.05c-1.4 0-1.47 1.7-1.47 5.14-1.05-2.26-2.78-4.69-4.81-4.69-1.38 0-1.9.92-1.9 2.53 0 .32.03.82.1 1.1.16-.55.68-.78 1.34-.78 1.4 0 3.11 1.08 4.22 2.56-1.27-.23-2.52-.46-3.56-.46-.66 0-1.25.07-1.74.3-.95.42-2.23 1.83-2.23 3.96 0 .33.04.68.1 1.08 1.15-2.56 4.2-3.7 6.16-3.7.4 0 .68.03.91.06-1.01.92-1.24 2.52-1.3 3.6-.04.53-.24.56-.6.56 0 1.08.86 2.69.86 3.5 0 .3-.17.56-.33.63 0 1.44 1.44 2.49 1.44 3.4 0 .23-.07.43-.17.53.1.59 1.69 1.58 1.9 2.08.25.6.53.7.7.7.55 0 1.43-.65 1.43-1.24 0-.2-.16-.43-.3-.53-.61-.45-.94-1.44-1.2-2.1-.23 0-.53-.09-.63-.47-.18-.68-.2-1.95-.45-2.7-.43-.1-.63-.26-.63-1.15 0-.42.27-2.1.27-2.68-.2 0-.46-.13-.46-.53 0-1.04 1.05-1.86 1.34-3.2 1.87 1.37 2.32 2.78 2.32 4.02 0 .66-.1 1.28-.23 1.87 1.38-.69 3.44-1.7 3.44-3.77 0-1.21-.55-2.55-4.25-3.08 1.14-.42 2.58-.65 3.8-.65 2.1 0 3.3.65 3.56 2.13.43-.66.76-1.41.76-2.1 0-1.6-1.35-2.65-3.05-2.65-2 0-3.76 1.05-5.66 2.33.85-1.77 1.44-2.82 2.49-2.82.16 0 .32.03.49.07-.4-1.44-1.87-2.85-2.66-2.85m55.18 23.6c1.64 0 2.95 2.13 2.95 4.62a10.3 10.3 0 0 1-3.47 7.5c-.03-4.42-5.44-3-5.44-6.22 0-1.37.98-2.29 2.17-2.29 1.04 0 1.86.3 2.45.89a2.9 2.9 0 0 1-.88-2.1c0-1.25.79-2.4 2.22-2.4m-29.24-31.1c.85.82 1.6 1.17 2.52 1.17.36 0 .8-.1 1.02-.1.3 0 .5.14.5.37 0 .36-.34.95-.73 1.28.4.16.82.23 1.28.23 1.86 0 3.99-1.18 3.99-4.13.4.52.62 1.6.62 2.1 0 3.56-2.62 4.94-5.04 4.94-1.57 0-2.36-.53-2.56-.53-.62 0-.59 1.25-1.01 1.22-.76-.13-1.44-1.8-1.44-3.57 0-1.05.26-2.16.85-2.98zm4.94-2.4c-.26-.42-1.24-.65-1.7-.65a2.65 2.65 0 0 0-2.62 1.93 3.07 3.07 0 0 1-.23-1.11c0-1.44.99-3.2 3.38-3.2 2.1 0 2.91 1.1 3.2 1.1.33 0 .66-.32.92-.32.36 0 .36.55.36.95 0 1.3-.59 3.57-2.06 4.38a3.34 3.34 0 0 0-1.63-1.57.52.52 0 0 1-.33-.49c0-.36.33-.82.71-1.01m-27.7-7.14c0 1.14 4.1 6.74 4.88 6.74.66 0 1.15-1.14 1.15-2.13 0-.26-.07-.52-.2-.72-.59-.82-4.75-4.09-5.67-4.09-.1 0-.16.1-.16.2zM13.75 8.64c0 .66-2.49 2.85-3.37 2.85-.33 0-.43-.39-.43-.75 0-.65.3-1.57.66-1.87.42-.39 1.4-.58 2.16-.58.46 0 .98.1.98.35zm29.9 1.9c0-1.96-5.31-5.53-5.37-7.07 0-.14.07-.28.19-.4.9-.96 4.69-1.66 4.69-2.48 0-.43-.79-.43-1.18-.43-3.05 0-7.5 1.12-7.5 2.2 0 1.11 4 3.83 4 5.17 0 .36-.24.5-.6.5-1.1 0-3.53-1.35-4.68-1.35-.52 0-.72.36-.72.88 0 1.58 1.87 4.56 1.87 5.44 0 .1-.04.23-.17.23-.59 0-3.37-3.28-4.35-3.28-.36 0-.4.5-.4 1.22v1.1c0 .76-.03 1.22-.39 1.22-.85 0-1.24-2.39-2.06-2.39-.85 0-1.02 4.26-1.83 4.26-.95 0-.14-4.69-1.05-4.69-1.02 0-2.16 3.12-2.89 3.12-.26 0-.32-.27-.32-.5 0-.94.55-2.48.55-3.4 0-.46-.13-.72-.52-.72-1.02 0-3.24 1.64-4.1 1.64-.12 0-.29-.07-.29-.2 0-.78 3.57-3.27 3.57-4.39 0-1.08-4.91-.36-4.91-1.6 0-1.05 3.5-2.13 3.5-3.21 0-.95-4.16-1.38-5.76-1.38-1.93 0-2.98.23-2.98.79 0 .85 4.39 1.11 4.39 1.86 0 .73-4.55 2.66-4.55 3.77 0 .98 6.41.07 6.41 1.08 0 1.11-5.6 5.93-5.6 7.53 0 .36.27.53.63.53 1.7 0 6.12-3.24 7.33-3.24.43 0 .46.52.46.98 0 .85-.3 2.16-.3 3.1 0 .76.2 1.29.86 1.29 1.21 0 2.32-2.07 3.14-2.07 1.05 0 .43 6.06 2 6.06 1.34 0 1.9-6.55 2.75-6.55s1.54 1.9 2.33 1.9c.98 0 .52-3.3 1.57-3.3 1.14 0 4.42 3.92 5.9 3.92.45 0 .61-.36.61-.82 0-1.73-2.42-5.66-2.42-6.9 0-.33.1-.43.46-.43 1.28 0 5.01 1.77 6.78 1.77.6 0 .95-.33.95-.76zm-3.4-6.48c0 .59 2.06 1.87 3 1.87.56 0 .73-.76.73-1.54 0-.99-.43-1.02-1.28-1.02-1.08 0-2.46.3-2.46.69zM32.54.72c0-.2-.98-.4-2.33-.4-2.12 0-1.83 1.78-3.47 1.78-1.7 0-1.28-1.84-3.44-1.84-1.3 0-2.52.23-2.52.52 0 .4 1.54.23 1.54 1.32 0 1.14-3.3 1.47-3.3 2.16 0 .23.25.32.58.32.72 0 1.87-.32 2.69-.32.46 0 .88.1.88.52 0 .82-1.77 2.3-1.77 2.95 0 .2.17.26.33.26.66 0 1.77-1.67 2.82-1.67 1.73 0 .59 3.7 1.54 3.7.98 0 .55-3.64 1.96-3.64 1.15 0 2 2.53 2.79 2.53.2 0 .36-.17.36-.4 0-.68-.99-2.1-.99-3 0-.57.4-.83.92-.83.75 0 1.77.46 2.32.46.2 0 .4-.07.4-.3 0-.78-2.92-1.63-2.92-2.65 0-1.01 1.6-1.01 1.6-1.47m58.07 5.3c0 2.92-2.13 5.15-5.96 5.77.42.03.82.03 1.21.03 4.48 0 6.12-2.03 6.12-3.73 0-.95-.52-1.8-1.37-2.06zm-5.54 3.31c0-2.32-5.56-2.91-5.56-3.44 0-.42 3.1-1.14 4.71-1.18-2.45-3.14-5.95-2.81-5.95-3.37 0-.33 2.62-.98 5.04-.98 2.03 0 3.93.46 3.93 2 0 .85-.7 1.73-.7 3.04 0 .72.37 1.35 1.32 1.35 1.02 0 1.24-1.08 1.24-2.23 0-.95-.16-1.67-.16-2.13 0-1.38.94-2.3 2.29-2.3 1.11 0 1.38.5 3.01.5a2.5 2.5 0 0 0-1.2 1.93c0 1.38.88 2.33.88 5.14 0 5.18-4.85 7-10.78 7a33.97 33.97 0 0 1-5.07-.38c-.26-.04-.33-.1-.33-.26 0-.43 2.33-.66 2.33-2.75 0-.82-.26-1.61-.26-1.9a.26.26 0 0 1 .26-.27c.5 0 1.48 1.9 3.3 1.9.49 0 1.7-.16 1.7-1.67zm5.34-7.23c0 .45.36.81.82.81s.82-.36.82-.81c0-.46-.36-.82-.82-.82s-.82.36-.82.82M87.5 32.35c0-.68-1.74-.75-1.9-2.68-.03-.3-.13-.82-.5-.82-.58 0-.12 1.8-.78 1.8-1.5 0-2-2.95-2.55-2.95-.14 0-.3.1-.3.5 0 .36.07.59.07 1 0 .44-.1.73-.49.73-.88 0-1.67-2.06-2.42-2.06-.17 0-.33.1-.33.26 0 .4.65 1.11.65 1.47 0 .79-2.13.36-2.13 1.02 0 .3.3.4.7.4.68 0 1.76-.3 2.32-.3.33 0 .82.06.82.49 0 .46-1.18 1.04-1.18 1.47 0 .2.2.3.36.3.88 0 2.45-1.54 3.56-1.54.2 0 .69.1.69.39 0 .42-1.11 1.18-1.11 1.8 0 .16.1.36.3.36.58 0 1.37-1.54 2.48-1.54.43 0 1.05.17 1.38.17.26 0 .36-.17.36-.27zm.85 15.89a19.9 19.9 0 0 1 2.26-4.56c-1.08-.55-3.93-1.73-3.93-3.66 0-2.26 2.82-4.03 3.4-4.03.26 0 .33.23.33.65 0 1.18-.56 3.08-.56 4.1 0 .91.6 1.8 1.12 1.8.55 0 2.1-1.97 2.1-3.9a4.41 4.41 0 0 0-4-4.52c-.88 0-2.49 1.44-6.26 1.44-7.04 0-8.64-6.97-8.64-10.02 0-.13.03-.16.06-.16.17 0 .86.85 3.08.85 1.15 0 2.2-.3 3.87-.3 3.92 0 5.66 2.73 8.09 6.2 1.47.91 4.97 2.39 4.97 6.54 0 3.67-3.9 5.7-4.84 9.63 1.5-.16 2.38-2.85 3.92-2.85.8 0 1.15.63 1.15 1.6 0 1.45-.82 3.61-2.4 4.95.04-.13.04-.3.04-.49 0-.91-.36-2.22-1.4-2.22-1.64 0-2.16 1.76-3.08 3.24-.95-3.34-2.23-6.36-4.52-8.2-2.32-1.86-6.32-.84-6.32-4.25 0-.92.59-2.22.59-3.27 0-.36-.07-.7-.26-.95 3.14 1.18 2.03 3.27 3.96 5.43 1.2 1.38 4.55 2.69 6.48 8.35.04-.16.07-.58.07-.88 0-4.85-6.42-9.6-6.97-11.56 3.72.43 4.38 1.34 6.15 6.26.36 1.01 1.54 3.53 1.54 4.78"/><path fill="#1766A6" d="M70.44 13.59c-2.3 0-3.8-1.15-3.8-1.74 0-.3.2-.49.46-.49.72 0 2.29 1.12 2.81 1.12.14 0 .23-.07.23-.27 0-.59-.55-1.57-.55-2.06 0-.13.1-.23.3-.23.87 0 2.19.36 2.88.36.22 0 .29-.13.29-.26 0-.72-2.13-2.13-2.13-2.55 0-.4 2.65-.99 2.65-1.6 0-.66-3.6-.2-3.6-.83 0-.46.69-1.24.69-1.6 0-.17-.14-.23-.36-.23-.3 0-1.87.62-2.53.62-.33 0-.72-.06-.72-.52 0-.76 1.28-1.57 3.28-1.57 3.24 0 5.17 2.22 5.17 5.96 0 4.71-3.3 5.89-5.07 5.89zm-6.39-6.22c0-.36-1.28-1.05-1.28-1.44 0-.07.07-.1.17-.1.36 0 .98.13 1.48.13.42 0 .49-1.83.8-1.83.24 0 .63 1.73 1 1.73.42 0 1.2-.49 1.53-.49.07 0 .13.03.13.1 0 .23-.82 1.11-.82 1.37 0 .3 1.84.66 1.84.92 0 .33-1.87.3-1.87.6 0 .22.69 1.14.69 1.43 0 .07-.03.1-.1.1-.26 0-1.28-.46-1.57-.46-.36 0-.95 1.34-1.24 1.34-.1 0-.16-.13-.16-.3l-.07-1.3c0-.13-.06-.26-.23-.26-.4 0-1.15-.04-1.38-.04-.16 0-.23-.03-.23-.1 0-.26 1.31-1.17 1.31-1.4zm-.95 5.37c.53 0 .63 1.28.73 2.03.06.4.13.42.3.42.38 0 1-1.5 1.43-1.5.62 0 2.3 1.73 5.08 1.73 3.96 0 7.7-2.78 7.7-7.7 0-4.74-3.35-7.52-7.97-7.52-2.2 0-3.8 1.08-4.65 1.08-.52.03-1.3-1.28-1.7-1.28-.16 0-.33.33-.33.88 0 .36 0 1.5-.39 1.5-.79 0-3.83-2.25-3.83-1.43 0 .75 2.03 3.05 2.03 3.63s-2 1.15-2 1.54c0 .72 2.13.85 2.13 1.77s-2.23 1.64-2.23 2.33c0 .55 2.23.16 2.23.85s-1.64 2.98-1.64 3.63c0 .17.03.17.16.17.63 0 2.5-2.13 2.95-2.13m-14.83 57.5c0 .3-.1.63-.36.95-.36-.65-1.38-.98-1.84-.98-3.37 0-2.1 4.88-5.7 4.88-1.5 0-1.63-.2-2.19-.2-.23 0-.36.1-.36.3 0 .85 1.21 2.95 4.59 2.95s6.61-2.07 6.61-4.62c0-.43-.1-.88-.3-1.34.14-.2.47-.33.76-.33.52 0 .82.6 1.31.6a.9.9 0 0 0 .92-.93c0-.43-.23-.72-.62-.92.26-.2.45-.52.45-.88 0-.56-.39-1.08-1.05-1.08-.29 0-.49.1-.71.32-.07-.58-.4-1.14-1.02-1.14-.5 0-.85.36-.85.92 0 .52.36.95.36 1.5"/><path fill="#1766A6" d="M30.32 64.15c2.62.65 3.93 2.06 4.2 3.73.25 1.6.58 2.92 1.2 3.57a5.66 5.66 0 0 0 3.84 1.74c1.18 0 2.12-.4 2.12-1.47 0-1.18-1.6-3.84-3.96-3.84-.23 0-.52.04-.85.04-.3 0-.72-.07-.98-.3-.53-.46-.69-2.91-1.67-4.39a4.12 4.12 0 0 0-3.87-2.1c-1.14 0-2.42.63-2.42 1.55 0 .56.3.95 2.4 1.47zm9.14 7.34c-.98 0-2.46-1.05-2.46-1.64 0-.5.46-.76.82-.76.82 0 2.3 1.02 2.3 1.87 0 .23-.17.53-.66.53"/><path fill="#1766A6" d="M36.45 45.98c0-2.1 4.97-3.21 4.97-5.8 0-.43-.16-1.18-.46-1.74 1.74.95 3.02 2.56 3.02 3.87 0 2.26-2.36 3.3-2.36 4.72 0 1.63 2.52 1.9 2.52 3.92 0 1.67-2.39 3.6-2.39 5.77a3.27 3.27 0 0 0 2.98 3.27c-.59.13-1.11.23-1.67.23-3.3 0-6.71-2.72-6.71-5.96 0-1.6.68-3 1.73-4.03.92.8 1.84 1.31 2.43 1.31.52 0 .75-.26.75-.65 0-1.21-4.81-2.33-4.81-4.91zm10.44 16.54c-1.12.5-1.57.42-1.57 1.57 0 .42-.1.98-.1 1.27 0 .4.07.63.53.63 1.18 0 3.04-2 3.04-3.7 0-.46-.26-.66-.56-.66-.26 0-.55.52-1.34.89zm-.13-2.36c0-1.48-3.05-1.51-3.05-3.74 0-.55.36-1.5 1.09-2.52.3 1.7.98 2.59 2.45 3.15 2.92 1.08 3.31 2.71 3.31 4.45 0 2.95-2.06 6.62-7.37 6.62-4.26 0-7.3-3.8-7.3-7.01 0-.89.23-1.87.78-1.87.5 0 .66.4 1.05.78 1.48 1.48 3.08 1.87 5.4 1.87 2.1 0 3.64-.85 3.64-1.73m-23.19.7a1.25 1.25 0 1 1-2.47.3 1.25 1.25 0 1 1 2.47-.3zm-6.12 1.3a2.14 2.14 0 0 0 2.36 1.83 2.7 2.7 0 0 0 1.08-.33 2.02 2.02 0 0 0 2.33 1.57c1.2-.16 2.03-1.11 1.9-2.32a2.37 2.37 0 0 0-.2-.76l.28-.03c1.18-.23 1.98-1.18 1.88-2.32-.13-1.18-1.19-2.06-2.29-1.92-.43.05-.82.21-1.08.44-.3-.98-1.22-1.83-2.48-1.62a2.12 2.12 0 0 0-1.78 2.38c.02.2.07.42.16.65l-.32.05c-.96.14-2 1.1-1.84 2.37"/></svg>