<svg xmlns="http://www.w3.org/2000/svg" xmlns:xlink="http://www.w3.org/1999/xlink" width="300" height="331.877" overflow="visible"><defs><path id="a" d="M0 0h107.57v119H0z"/></defs><clipPath id="b"><use xlink:href="#a" width="100%" height="100%"/></clipPath><path clip-path="url(#b)" d="M13.85 104.62c-.17-.56-.69-1.82-.83-2.75-.3-2.06.77-3.42 1.76-3.73 1.11-.31 1.55.25 1.98 1.54.55 1.98.62 4.57.43 8.27-.24 5.06-2.78 11.18-9.07 11.05-5.43-.12-7.84-3.64-8.09-9-.12-2.54.07-5.07 1.11-8.65.56-1.91 1.06-2.6 2.78-2.96 1.36-.25 1.23 1.17.93 2.84-.68 3.7-1 5.49-.74 9.69.24 4.44 2.28 6.17 4.5 6.17 3.34.06 4.82-2.71 5.44-6.73.48-3.2.12-4.75-.2-5.74zm71.07 4.39c1.3 0 1.67 1.53 1.36 2.46-.31.93-1.42 1.98-3.15 2.29-.37-.93-.56-4.75 1.79-4.75zm-24.13 2.09c0-1.05-.56-1.91-1.23-1.91-.56 0-1.85.61-1.85 2.59 0 1.55.55 2.28.8 2.6 1.78-.56 2.28-2.05 2.28-3.28zM41.6 98.5c-.08-.99-.86-1.66-1.9-1.66-1.18 0-2.28 1.23-2.17 2.77.08 1.02.68 1.85 1.86 1.85 1.35 0 2.34-1.54 2.21-2.96zm10.04 3.63c-.1-1.73-.52-2.5-1.45-2.45-1.23.08-1.8 3.95-1.55 8.01.16 2.65.56 3.06.93 3.04.68-.05 2.3-4.78 2.07-8.6zm40.94 6.5c-.76 3.17-3.08 7.83-6.54 7.83-.8 0-2.22-.3-2.22-1.1 0-.87 5.43-1 5.43-5.13 0-1.54-1.42-3.7-3.52-3.7-2.77 0-5.48 3.02-5.48 7.22 0 3.76 2.33 5 4.68 5 4.07 0 6.54-3.34 7.84-6.12.62 1.86.98 6.11 2.53 6.11.62 0 1.05-.3 1.8-1.97 1.84-4.14 3.63-8.89 6.1-8.89.92 0 .37 1.67 2.6 1.67a1.8 1.8 0 0 0 1.78-1.85c0-1.42-1.3-2.53-3.27-2.53-5.8 0-7.03 8.7-7.96 8.7-1.54 0-1.05-6.97-2.16-6.97-1 0-1.48 1.17-1.6 1.72zm-49.37 7.4c.93 0 2.52-.3 3.77-2.3-.72-1.6-1.23-4.81-1.3-5.98-.37-5.98 1.94-11.61 4.46-11.77 1.85-.1 3.33 1.64 3.5 4.48.46 7.45-2.03 10.57-3.27 13.25.2 1.04 1.98 2.81 3.64 2.81.62 0 1.36-.3 1.55-.56a6.12 6.12 0 0 1-.25-1.78c0-4.32 2.78-7.97 5.18-7.97 1.92 0 3.03 2.53 3.03 4.2 0 1.98-1.67 3.58-4.14 5.13.44.43 1.23.74 1.92.74 3.52 0 5.36-4.26 6.72-8.15.25-.75.68-1.8 1.55-1.8 1.48 0 2.1 9.76 4.56 9.76 1.05 0 1.91-2.16 1.91-3.82 0-1.24-.43-1.36-.43-3.15 0-1.98 1.05-3.64 2.48-3.64.86 0 1.17.86 1.17 1.9 0 3.96-2.84 11.3-7.03 11.3-3.16 0-2.91-5.43-4.02-5.43-1.24 0-2.97 5.5-9.07 5.5-1 0-2.04-.5-2.9-1.49a7.1 7.1 0 0 1-4.14 1.42c-2.28 0-3.27-2.34-4.2-2.34-1.1 0-2.34 2.4-6.05 2.4-2.96 0-3.45-3.94-4.5-3.94-.93 0-2.35 3.94-3.89 3.94-2.6 0-3.14-6.85-5.43-6.85-1.8 0-7.45 6.96-8.98 6.8-.62-.06-.88-.52-.81-1.14.08-.86.82-3.14 1.12-4.22.5-1.88.95-3.94 1.21-4.6.25-.66.94-1.13 1.49-1.08.28.03.36.55.45.97.3 1.53.74 3.09 1.23 3.09.87 0 3.73-5.5 5.4-5.5 2.04 0 2.28 8.64 5.06 8.64.93 0 1.6-1.1 2.22-2.47.07-2.28.68-5.55 2.53-5.55 1.3 0 1.92 2.9.99 5.43 0 3.03 1.97 3.77 3.27 3.77" transform="scale(2.78888)" fill="#1766a6"/><path d="M240.374 53.686c-1.283 0-3.124 0-4.128-1.98-.837-1.673-.558-4.323-2.092-5.494 1.562.446 3.208.446 4.463.446 4.127 0 8.06-2.817 11.072-2.817 2.008 0 2.649 1.283 2.649 2.538 0 4.044-8.116 7.307-11.992 7.307zm2.008 10.319c9.482 0 18.183-7.558 18.183-14.223 0-3.124-1.478-5.662-5.215-6.136.641.837.92 1.478.92 2.928 0 5.02-7.67 10.598-15.98 10.598-3.04 0-3.932 2.092-3.932 3.207 0 2.538 2.454 3.626 6.024 3.626zm-.725 3.848c1.17 8.674 14.334 20.36 17.876 20.08 2.399-.195 3.32-11.322 3.32-20.08 0-5.02.278-8.924-2.4-9.872-4.183 8.506-15.227 10.235-18.796 9.872M36.06 125.304c3.124 0 2.482-18.992 7.502-18.992 1.172 0 1.562 1.172 1.562 2.65 0 4.294-2.12 10.597-2.12 14.056 0 1.729.475 2.286 1.283 2.286 2.204 0 6.024-20.916 9.762-20.916 1.199 0 1.757 1.2 1.757 2.37 0 4.379-5.578 17.013-5.578 20.554 0 .558.167 1.004.641 1.004 2.287 0 6.86-9.872 8.311-14.78.837-2.566 1.924-3.96 2.928-3.96.893 0 1.73 1.031 1.73 3.123 0 4.936-4.574 16.538-8.59 24.29-3.096 6.025-7.949 14.698-7.949 19.523 0 2.51.447 5.02 4.016 8.144-5.856-.363-8.227-.893-10.402-5.467-9.761 19.439 17.988 17.542 8.478 34.778-1.729-3.068-15.422-6.275-15.422-24.375 0-15.618 13.693-24.737 13.693-31.236 0-1.255-.446-2.37-1.645-3.346-3.012-2.594-3.096-4.686-5.467-4.686-1.729 0-3.848 4.016-1.673 7.586.753 1.172 1.394 1.925 1.394 3.012 0 2.566-4.016 9.399-6.86 9.399-2.817 0-5.02-7.028-5.02-18.351 0-10.04 2.287-20.192 5.131-20.192.81 0 1.088.558 1.088 1.283 0 1.2-.363 3.57-.363 7.586 0 4.295 1.004 4.657 1.813 4.657" fill="#1766a6" stroke-width="2.789"/><path d="M59.347 152.05c3.85 0 7.028-2.817 7.028-9.12v-9.315c0-3.57.28-7.585 2.65-10.402-.28 1.171-.28 2.454-.28 3.625 0 7.865 4.407 13.275 4.407 20.833 0 2.845-.836 4.379-3.012 4.379-2.12 0-1.924-1.897-2.37-1.897-.39 0-.92 1.172-.92 2.455 0 1.924 1.366 4.936 5.187 4.936 3.29 0 5.94-3.012 5.94-6.415 0-8.199-6.386-17.346-6.386-26.103 0-3.821 1.004-6.387 1.812-8.395 0 18.184 15.45 31.403 15.45 38.989a3.068 3.068 0 0 1-3.206 3.123 2.984 2.984 0 0 1-3.096-2.928c0-.642-.084-.837-.363-.837-.557 0-2.203 1.84-2.203 4.211 0 3.012 2.482 6.694 7.028 6.694 5.215 0 8.032-4.407 8.032-8.367 0-9.566-18.685-24.096-18.685-39.602 0-2.65.418-6.972 2.342-10.235-12.048 7.753-15.785 18.072-15.785 27.136 0 7.836-.279 11.769-4.295 11.769-2.091 0-2.65-1.925-3.374-1.925-.558 0-.837 1.674-.837 2.12 0 3.346 2.482 5.299 4.936 5.299M197.732 49.196c1.143-.781 6.303.446 12.968-2.845a4.923 4.923 0 0 1 2.37-.613c3.18 0 2.371 3.625 5.3 3.625 2.286 0 5.215-1.896 6.944-1.896 2.733 0 6.637 8.59 6.637 12.606 0 4.657-7 7.474-15.339 7.474-12.131 0-19.438-10.598-19.438-17.43 0-.559.279-.754.558-.921zm19.912 11.602c4.016 0 7.028-1.841 7.028-2.929 0-.362-.557-.641-1.729-.641-1.199 0-3.57-.084-8.06-.837-3.82-.613-6.749-2.091-7.864-2.091-.363 0-.558.195-.558.474 0 2.37 4.406 6.024 11.155 6.024M61.3 186.493c-3.012.725-7.865 5.466-7.865 12.968 0 8.924 9.594 22.757 25.379 22.757 13.359 0 16.65-9.231 16.65-15.45 0-13.805-8.507-23.483-19.523-23.483-6.052 0-11.434 4.407-11.434 10.877 0 6.024 4.574 15.06 15.422 15.06a7.697 7.697 0 0 0 8.144-7.837c0-4.1-3.765-9.76-9.231-9.76-1.674 0-2.845 1.087-2.845 2.816 0 2.175 3.012 4.378 6.777 4.378.892 0 1.645-.167 2.008-.362a2.231 2.231 0 0 1 .279 1.115c0 2.092-2.036 3.347-5.132 3.347a8.924 8.924 0 0 1-9.12-8.924c0-3.291 2.817-5.662 6.945-5.662 8.088 0 12.94 7.196 12.94 14.419 0 6.47-3.541 10.235-10.876 10.235-14.586 0-21.698-13.164-18.518-26.494m104.248 53.518c4.379 0 4.183-.362 5.522-.362 1.394 0 1.478.836 1.478 1.366 0 2.008-4.462 4.462-12.438 4.462-4.658 0-7.475-2.454-8.311-5.187a35.977 35.977 0 0 1-18.351 5.578c-18.713 0-23.455-8.144-29.311-10.793-4.462-2.008-11.323 1.924-20.917-8.757 1.283.279 3.012.362 4.379.362 8.394 0 12.884-4.1 12.884-10.681 0-.837-.083-1.73-.195-2.566a18.128 18.128 0 0 1 9.761 13.164c.195.892 3.96 1.729 6.331 1.729 3.29 0 7.474-1.395 8.116-6.75 10.96-.92 18.378-7.418 19.912-15.617a21.67 21.67 0 0 1 9.482 6.665c1.562-.557 3.403-.836 5.495-.836 2.928 0 6.219.557 10.151 1.729.167-1.172.363-2.65 2.175-2.65 2.761 0 2.008 3.04 2.929 4.741.474.92 2.76 1.479 2.76 3.291 0 1.757-1.477 2.399-2.398 2.399-.362 0-.836-.084-1.115-.195-1.813.641-1.897 13.805-9.566 13.805-5.662 0-10.877-4.658-13.164-10.515-.641-1.729-2.008-2.816-3.29-2.816-1.45 0-2.26.279-3.989 2.175a31.765 31.765 0 0 1-23.315 10.04c-3.095 0-5.577-.279-6.191-.279-.39 0-.39.112-.39.195 0 .642 3.123 3.096 9.872 3.096 16.092 0 19.997-9.036 22.562-9.036.363 0 1.45 0 2.092 1.478 3.765 8.757 11.936 10.765 17.04 10.765zm-7.084-18.267c0 2.008 1.674 3.653 3.654 3.653s3.681-1.645 3.681-3.625c0-2.036-1.673-3.681-3.653-3.681s-3.682 1.673-3.682 3.653m72.344-45.57c-1.283 0-2.65 1.004-2.65 3.486 0 2.705 2.092 4.462 3.291 5.02.642.362 1.646.725 2.65.725 2.65 0 4.74-.753 4.74-2.928 0-2.817-4.099-6.303-8.031-6.303zm-9.845 5.661c-1.952 0-12.55 14.14-19.383 14.14-1.617 0-3.012-3.068-3.012-5.466 0-1.283.837-2.176 3.765-2.845 15.702-3.542 12.216-15.339 25.658-15.339 7.39 0 15.618 5.02 15.618 16.343 0 12.076-17.18 27.052-19.718 27.052-2.12 0-4.406-3.012-4.406-5.02 0-.641.279-1.478 2.12-2.203 8.757-3.486 13.777-11.518 13.777-15.618 0-.92-.474-1.813-1.674-1.813-1.534 0-8.171 15.144-15.59 15.144-5.131 0-10.318-4.658-10.318-6.833 0-3.681 14.78-10.43 14.78-15.534 0-1.952-.892-2.008-1.617-2.008M40.16 62.108s-2.65 2.008-5.94 2.008a6.86 6.86 0 0 1-7.028-7.028c0-2.844 1.45-5.773 4.824-7.25-.083.557-.083 1.031-.083 1.561 0 5.215 2.928 9.148 8.227 10.71zM59.682 79.65a17.347 17.347 0 0 0-4.1 10.487c0 4.936 3.012 9.036 7.67 9.036 4.462 0 6.582-3.821 6.582-7.753 0-6.136-5.578-10.403-10.152-11.77zm-30.315 3.626a1.952 1.952 0 0 0-.279 1.032c0 .837.92 1.729 1.757 1.729.725 0 1.171-.195 1.534-.195 2.203 0 4.657 1.562 8.227 1.562 2.092 0 4.574-.642 7.67-2.204 6.581-3.29 9.147-11.406 9.147-12.773 0-1.729-1.394-1.506-2.566-3.123-1.171-1.59-.725-2.984-1.478-3.737-.418-.419-1.729-.447-3.346-.642a20.136 20.136 0 0 0-2.036-.084c-3.012 0-6.582.363-10.598 2.929-7.92 5.048-6.75 13.414-8.032 15.534zM50.84 71.953c.642.865 2.37 1.952 2.37 2.566 0 1.283-.724 2.928-2.202 2.928-3.18 0-5.745-4.852-5.745-7.586 0-1.729 1.004-1.924 2.37-1.924a2.203 2.203 0 0 1 1.395.39c.808.447.808 2.26 1.812 3.626zM42.42 83.11c-3.012 0-6.303-3.737-6.303-7.14 0-1.813 1.394-4.1 2.398-4.1.363 0 .558.28.614.92a10.375 10.375 0 0 0 6.22 8.312c.278.167.473.279.473.446 0 .641-1.757 1.562-3.402 1.562zm7.78-23.009a17.988 17.988 0 0 0 .838-5.298c0-4.379-2.036-11.044-8.228-11.044a6.08 6.08 0 0 0-6.135 6.19c0 7.224 7.223 10.152 13.526 10.152zM26.55 96.635c0 6.916 2.092 10.207 5.857 10.207 2.9 0 6.833-2.092 11.49-6.135-3.57.836-6.303 1.394-8.785 1.394-3.263 0-5.829-1.283-8.562-5.466zm3.18-8.144c-.084.474-.084.92-.084 1.395 0 4.267 2.287 6.637 5.299 6.637 2.287 0 4.936-1.366 7.307-4.378a19.243 19.243 0 0 1-3.291.279c-3.375 0-7.028-.92-9.204-3.905zm22.394-1.283c-2.12.558-6.498 3.124-6.498 7.67 0 3.29 2.566 5.41 5.745 5.41 1.674 0 2.845-.39 3.57-.92a10.654 10.654 0 0 1-3.458-7.948c0-1.925.279-3.096.641-4.184zm3.263-25.016c0 2.008 1.674 3.653 3.654 3.653 2.036 0 3.68-1.645 3.68-3.653a3.653 3.653 0 1 0-7.306 0zm4.741 8.227a3.653 3.653 0 1 0 7.307 0 3.653 3.653 0 0 0-7.279 0m142.484 44.845c0-1.84 1.646-3.374 3.458-3.374a3.486 3.486 0 1 1 0 6.916 3.486 3.486 0 0 1-3.458-3.542zm-32.072-28.14c0 2.009 1.673 3.654 3.626 3.654 2.035 0 3.68-1.645 3.68-3.653s-1.645-3.626-3.653-3.626-3.653 1.618-3.653 3.626zm-3.096 12.885c0 2.817 2.37 5.188 5.188 5.188 2.844 0 5.215-2.37 5.215-5.188a5.271 5.271 0 0 0-5.215-5.215 5.271 5.271 0 0 0-5.188 5.215zm11.49-5.856a5.54 5.54 0 0 0 5.578 5.577 5.55 5.55 0 0 0 5.578-5.577 5.55 5.55 0 0 0-5.578-5.578 5.522 5.522 0 0 0-5.577 5.578zm.475-11.881a3.464 3.464 0 0 0 3.458 3.486 3.486 3.486 0 0 0 0-6.944 3.476 3.476 0 0 0-3.458 3.458zm16.538-8.757a3.44 3.44 0 0 0 3.458 3.458 3.486 3.486 0 1 0-3.458-3.458zm-6.86 11.24a5.885 5.885 0 0 0 5.856 5.856 5.885 5.885 0 0 0 5.856-5.857 5.885 5.885 0 0 0-5.856-5.857 5.885 5.885 0 0 0-5.857 5.857zm-9.4 21.362c0 2.008 1.646 3.653 3.626 3.653 2.008 0 3.654-1.645 3.654-3.625s-1.646-3.681-3.626-3.681c-2.008 0-3.653 1.673-3.653 3.653zm11.965-7.307c0 2.008 1.617 3.654 3.625 3.654 2.036 0 3.682-1.646 3.682-3.626a3.667 3.667 0 0 0-7.335 0zm-3.403 12.885a6.33 6.33 0 0 0 6.303 6.303 6.33 6.33 0 0 0 6.331-6.303 6.33 6.33 0 0 0-6.33-6.303 6.33 6.33 0 0 0-6.304 6.303zm13.164-7.781a4.295 4.295 0 1 0 8.59 0 4.295 4.295 0 1 0-8.59 0zm-.279-11.49c0 2.091 1.757 3.82 3.82 3.82 2.12 0 3.85-1.729 3.85-3.82 0-2.092-1.73-3.85-3.85-3.85-2.063 0-3.82 1.758-3.82 3.85m9.315 119.838a26.913 26.913 0 0 1-17.18 5.912c-4.908 0-7.111-1.534-7.836-1.534-.92 0-1.953.893-2.929 2.092a20.61 20.61 0 0 0-5.02 12.522c0 3.626 2.845 7.279 8.116 7.279 17.096 0 29.869-10.681 29.869-19.355 0-4.908-2.928-6.916-5.02-6.916zm-4.741-1.004c.725-.642.892-1.674.892-2.678v-2.091c0-2.65-3.988-4.184-9.482-4.184-6.693 0-10.235 2.985-10.235 4.267v4.212c0 1.757 4.016 3.486 8.952 3.486 3.932 0 7.502-1.004 9.873-3.012zm-.753 9.036c.474 0 1.004.279 1.004 1.924 0 1.98-.893 4.63-4.184 6.75a17.542 17.542 0 0 1-9.956 2.9c.725-2.176 1.283-4.463 1.283-6.638 0-.753-.084-1.283-.195-2.12h1.2c7.222 0 10.318-2.816 10.876-2.816m-34.89-111.611c1.005 7.753 11.435 3.82 11.435 13.247 0 1.366-.39 3.374-.39 5.104 0 2.008.195 3.737 1.729 3.737s1.924-1.088 1.924-2.538c0-1.45-.39-3.291-.39-4.295 0-3.207 2.287-3.932 3.681-3.932 3.458 0 6.136 3.57 11.323 3.57-1.2 5.856-13.247 4.294-13.247 10.68 0 3.208 3.18 3.905 5.299 3.905 1.924 0 2.565-.279 2.565-1.896 0-.92-.195-1.925-.195-2.566a.725.725 0 0 1 .725-.725c2.036 0 11.88 7.502 11.88 9.761 0 2.12-10.402 4.211-13.414 4.211-.92 0-1.115-.641-1.115-1.004 0-.641 1.562-2.566 1.562-3.625 0-.837-1.395-1.395-5.02-1.395-1.757 0-3.04.195-3.04 1.562 0 2.454 4.044 5.466 4.044 7.753 0 1.813-1.116 2.928-4.044 2.928-2.454 0-6.192-1.952-6.192-5.131 0-2.538 2.65-5.104 2.65-6.666 0-.446-.363-1.17-1.45-1.17-3.403 0-4.295 8.924-16.26 9.955a9.175 9.175 0 0 0 3.542-7.585c0-1.925-.446-3.486-.446-5.578 0-2.733 1.283-4.1 3.096-4.1 3.374 0 5.02 4.741 7.25 4.741 1.172 0 2.455-1.115 2.455-2.733 0-6.972-13.359-5.94-13.359-15.701 0-2.65.92-5.94 3.403-10.514zm43.563 26.773c0 2.259.725 4.908 3.012 4.908 1.924 0 3.57-2.9 3.57-6.135 0-3.626-.642-6.47-.642-7.92 0-.642.28-.92.642-.92 1.366.11 2.65 3.848 4.1 3.848 1.673 0 4.1-3.04 5.103-3.04.28 0 .363.39.363.474 0 1.394-2.092 4.379-2.092 5.578 0 1.004 5.299 1.171 5.299 2.091 0 1.395-5.578 1.395-8.2 2.566-2.565 1.116-4.127 2.454-4.127 4.295 0 1.813 1.813 2.175 4.379 2.175 6.135 0 10.402-3.263 11.769-3.263.279 0 .446.168.446.447 0 .92-3.068 3.904-3.068 5.299 0 1.533 5.634 3.346 5.578 4.294-.112.28-.474.363-1.116.363-1.004 0-2.565-.279-3.765-.279-.725 0-1.366.084-1.645.446-.641.725.195 5.578-1.088 5.578-1.199 0-4.295-10.765-11.323-10.765-1.004 0-1.729.837-1.729 2.175 0 3.654 3.57 7.865 6.973 9.873 1.506 1.004 4.071 2.008 4.071 2.566 0 1.087-5.828.083-5.828 1.896 0 1.673.725 4.128.725 5.578 0 .446-.084 1.004-.642 1.004-1.087 0-3.737-5.02-5.02-5.02-1.115 0-3.486 3.012-4.462 3.012-.279 0-.474-.279-.474-.558 0-2.092 3.374-6.833 3.374-11.49 0-2.203-.278-6.972-2.928-6.972-2.175 0-4.657 3.486-5.745 6.972-.641 2.008-.195 9.761-1.673 9.761-1.339 0-.976-5.187-2.79-5.187-1.394 0-4.294 2.454-5.298 2.454-.195 0-.363-.084-.363-.279 0-1.116 2.65-4.657 2.65-5.383 0-1.394-6.052-1.561-6.052-2.649 0-.641 2.398-1.115 4.574-1.478 4.657-.809 11.518-4.183 11.518-8.924 0-5.3-5.132-7.586-8.478-9.762-1.757-1.115-3.682-2.035-3.682-2.76 0-.726 2.203-.726 3.124-.726 1.366 0 2.733-.083 2.733-1.199 0-.837-.195-2.454-.195-3.737 0-.92.083-1.645.446-1.645 1.394 0 3.29 4.462 4.211 4.462 1.478 0 3.486-3.626 4.853-3.626.446 0 .641.28.641 1.088 0 3.347-1.729 7.195-1.729 10.486M172.8 160.723c4.183.558 5.215 2.008 5.215 3.207 0 2.008-1.84 2.65-3.57 2.65-1.282 0-2.76-.279-4.294-.279-2.036 0-4.016.474-5.662 2.37 1.172.196 2.9 1.005 2.9 2.845 0 5.3-14.697.92-14.697 14.502 0 7.252 7.502 15.088 18.825 15.088 5.857 0 9.594-1.924 9.594-4.1 0-1.756-3.096-.557-3.096-2.035 0-.614 1.088-1.813 1.088-2.817 0-.446-.363-1.283-1.116-1.283-1.645 0-4.74 2.65-11.044 2.65-4.936 0-9.76-2.817-9.76-6.666 0-.837.362-1.283.892-1.283.558 0 1.283.363 1.952.363.53 0 .614-.363.614-1.367s0-3.848 1.729-3.848c1.757 0 5.02 6.414 17.653 6.414 4.184 0 12.327-.837 15.34-3.57a23.733 23.733 0 0 1-24.404 23.287c-17.068 0-26.215-13.693-26.215-26.299 0-13.972 11.434-26.662 27.052-26.662 4.016 0 7.39 1.367 7.39 3.096 0 2.399-5.94.92-6.414 3.737zm28 4.853c.642 1.004.92 2.008.92 2.928 0 2.566-1.728 4.937-1.728 7.586 0 3.012 2.287 5.466 5.745 5.466 3.737 0 6.303-3.012 6.303-6.582 0-4.824-4.407-8.924-11.24-9.398zm-30.231 5.857c.92.892 1.2 1.812 1.2 2.733 0 1.366-.642 2.816-.642 4.378 0 2.176 1.645 4.1 4.016 4.1 2.566 0 4.295-2.008 4.295-4.379 0-3.458-3.57-6.832-8.869-6.832zm12.132-15.535c9.593 1.813 14.809 9.036 14.809 15.813 0 4.658-2.929 8.925-8.032 8.925-4.658 0-8.032-3.18-8.032-8.311 0-3.82 2.984-7.837 2.984-11.77 0-1.56-.446-3.095-1.73-4.657zm4.74 12.16c0 1.255.921 2.259 2.232 2.259 1.45 0 2.37-1.255 2.37-2.733 0-1.924-1.757-4.574-3.402-4.574-.725 0-.446 1.116-.641 2.287-.084.92-.558 2.008-.558 2.761M86.65 74.073c3.067 0 6.665-16.817 6.665-19.634 0-.753-.279-1.283-.92-1.283-2.845 0-6.75 15.98-6.75 19.522 0 .67.168 1.395 1.005 1.395zm22.366 5.02c2.287 0 4.825-8.785 4.825-14.251 0-1.2-.167-2.455-.725-2.455-1.924 0-5.104 9.036-5.104 13.945 0 1.952.447 2.76 1.004 2.76zm-14.892-8.144c1.004 0 2.287-1.115 4.657-3.737.195-1.171.195-2.287.195-3.625 0-1.841-.753-3.85-1.84-3.85-2.733 0-4.1 7.308-4.1 9.204 0 1.116.558 2.008 1.088 2.008zm12.522-3.737c0-1.562-.39-1.924-.753-1.924-.893 0-1.897 1.115-3.347 3.57.168 3.29.725 4.74 1.618 4.74 1.004 0 2.482-3.179 2.482-6.386zm7.028-10.765c6.024 0 8.757 5.187 8.757 11.044 0 2.566-.725 6.303-1.897 6.303-1.17 0-1.004-2.092-1.199-4.016-.195-2.482-.641-3.012-1.478-3.012-1.534 0-2.538 3.625-2.538 7.028 0 2.091.363 4.462 2.008 4.462.92 0 1.73-.446 2.287-1.004-.362 4.183-3.486 7.865-7.865 7.865-8.031 0-11.043-9.399-11.964-14.893-4.825 5.132-9.315 8.869-17.347 8.869-7.502 0-10.876-5.494-10.876-10.682 0-1.561.557-5.577 2.482-5.577 2.287 0 .279 7.474 4.74 7.474 1.116 0 3.097-.893 4.184-3.905.67-1.84 1.032-3.737 1.032-5.41 0-2.454-.558-4.016-2.37-4.016-1.562 0-3.487 1.2-4.128 1.84a13.75 13.75 0 0 1 13.33-9.956c7.224 0 11.045 6.415 11.045 13.526 0 1.004-.084 2.092-.279 3.068 3.124-5.076 7.418-9.008 12.076-9.008" fill="#1766a6" stroke-width="2.789"/><path d="M96.607 81.017c-3.905 0-4.1 4.741-4.1 14.335-2.928-6.303-7.753-13.08-13.414-13.08-3.849 0-5.3 2.566-5.3 7.056 0 .892.084 2.287.28 3.068.446-1.534 1.896-2.176 3.737-2.176 3.904 0 8.673 3.012 11.769 7.14-3.542-.642-7.028-1.283-9.929-1.283-1.84 0-3.486.195-4.852.837-2.65 1.171-6.22 5.103-6.22 11.044 0 .92.112 1.896.28 3.012 3.207-7.14 11.713-10.32 17.179-10.32 1.116 0 1.896.084 2.538.168-2.817 2.566-3.458 7.028-3.626 10.04-.111 1.478-.669 1.562-1.673 1.562 0 3.012 2.398 7.502 2.398 9.76 0 .838-.474 1.563-.92 1.758 0 4.016 4.016 6.944 4.016 9.482 0 .642-.195 1.2-.474 1.478.279 1.646 4.713 4.407 5.299 5.801.697 1.673 1.478 1.952 1.952 1.952 1.534 0 3.988-1.812 3.988-3.458 0-.558-.446-1.2-.836-1.478-1.702-1.255-2.622-4.016-3.347-5.857-.642 0-1.478-.25-1.757-1.31-.502-1.897-.558-5.439-1.255-7.53-1.2-.28-1.757-.726-1.757-3.208 0-1.171.753-5.856.753-7.474-.558 0-1.283-.362-1.283-1.478 0-2.9 2.928-5.187 3.737-8.924 5.215 3.82 6.47 7.753 6.47 11.21 0 1.842-.279 3.57-.641 5.216 3.849-1.924 9.594-4.741 9.594-10.514 0-3.374-1.534-7.112-11.853-8.59 3.18-1.171 7.195-1.812 10.598-1.812 5.856 0 9.203 1.812 9.928 5.94 1.2-1.84 2.12-3.932 2.12-5.857 0-4.462-3.765-7.39-8.507-7.39-5.577 0-10.486 2.928-15.785 6.498 2.371-4.937 4.016-7.865 6.945-7.865.446 0 .892.084 1.366.195-1.115-4.016-5.215-7.948-7.418-7.948m153.89 65.818c4.574 0 8.228 5.94 8.228 12.884a28.725 28.725 0 0 1-9.678 20.917c-.084-12.327-15.171-8.367-15.171-17.347 0-3.82 2.733-6.387 6.051-6.387 2.9 0 5.188.837 6.833 2.483a8.088 8.088 0 0 1-2.454-5.857c0-3.486 2.203-6.693 6.191-6.693M168.95 60.1c2.371 2.287 4.463 3.263 7.028 3.263 1.004 0 2.232-.278 2.845-.278.837 0 1.395.39 1.395 1.031 0 1.004-.949 2.65-2.036 3.57 1.115.446 2.287.642 3.57.642 5.187 0 11.127-3.291 11.127-11.518 1.116 1.45 1.73 4.462 1.73 5.856 0 9.929-7.308 13.777-14.057 13.777-4.378 0-6.582-1.478-7.14-1.478-1.728 0-1.645 3.486-2.816 3.403-2.12-.363-4.016-5.02-4.016-9.957 0-2.928.725-6.024 2.37-8.31zm13.778-6.693c-.726-1.171-3.459-1.813-4.742-1.813a7.39 7.39 0 0 0-7.306 5.383 8.562 8.562 0 0 1-.642-3.096c0-4.016 2.761-8.924 9.427-8.924 5.856 0 8.115 3.068 8.924 3.068.92 0 1.84-.893 2.566-.893 1.004 0 1.004 1.534 1.004 2.65 0 3.625-1.646 9.956-5.745 12.215a9.315 9.315 0 0 0-4.546-4.379 1.45 1.45 0 0 1-.92-1.366c0-1.004.92-2.287 1.98-2.817m-77.253-19.913c0 3.18 11.435 18.797 13.61 18.797 1.84 0 3.207-3.179 3.207-5.94 0-.725-.195-1.45-.557-2.008-1.646-2.287-13.247-11.406-15.813-11.406-.28 0-.446.278-.446.557zm-67.128-9.426c0 1.84-6.944 7.948-9.398 7.948-.92 0-1.2-1.087-1.2-2.091 0-1.813.837-4.379 1.841-5.216 1.171-1.087 3.904-1.617 6.024-1.617 1.283 0 2.733.279 2.733.976zm83.388 5.299c0-5.466-14.81-15.423-14.977-19.718 0-.39.196-.78.53-1.115 2.51-2.677 13.08-4.63 13.08-6.917 0-1.199-2.203-1.199-3.29-1.199-8.507 0-20.917 3.124-20.917 6.136 0 3.095 11.155 10.681 11.155 14.418 0 1.004-.67 1.395-1.673 1.395-3.068 0-9.845-3.765-13.052-3.765-1.45 0-2.008 1.004-2.008 2.454 0 4.406 5.215 12.717 5.215 15.171 0 .28-.111.642-.474.642-1.645 0-9.399-9.148-12.132-9.148-1.004 0-1.115 1.395-1.115 3.403v3.068c0 2.12-.084 3.402-1.088 3.402-2.37 0-3.458-6.665-5.745-6.665-2.37 0-2.845 11.88-5.104 11.88-2.65 0-.39-13.08-2.928-13.08-2.845 0-6.024 8.702-8.06 8.702-.725 0-.892-.753-.892-1.395 0-2.621 1.534-6.916 1.534-9.482 0-1.283-.363-2.008-1.45-2.008-2.845 0-9.037 4.574-11.435 4.574-.335 0-.809-.195-.809-.558 0-2.175 9.957-9.12 9.957-12.243 0-3.012-13.694-1.004-13.694-4.462 0-2.929 9.761-5.94 9.761-8.953 0-2.65-11.602-3.848-16.064-3.848-5.382 0-8.31.641-8.31 2.203 0 2.37 12.243 3.096 12.243 5.187 0 2.036-12.69 7.419-12.69 10.514 0 2.733 17.877.196 17.877 3.012 0 3.096-15.618 16.538-15.618 21 0 1.005.753 1.479 1.757 1.479 4.741 0 17.068-9.036 20.443-9.036 1.199 0 1.283 1.45 1.283 2.733 0 2.37-.837 6.024-.837 8.645 0 2.12.558 3.598 2.398 3.598 3.375 0 6.47-5.773 8.757-5.773 2.929 0 1.2 16.9 5.578 16.9 3.737 0 5.299-18.267 7.67-18.267 2.37 0 4.294 5.3 6.498 5.3 2.733 0 1.45-9.204 4.378-9.204 3.18 0 12.327 10.932 16.455 10.932 1.255 0 1.7-1.004 1.7-2.286 0-4.825-6.748-15.786-6.748-19.244 0-.92.279-1.199 1.283-1.199 3.57 0 13.972 4.936 18.908 4.936 1.674 0 2.65-.92 2.65-2.12zm-9.483-18.072c0 1.645 5.746 5.215 8.367 5.215 1.562 0 2.036-2.12 2.036-4.295 0-2.76-1.2-2.844-3.57-2.844-3.012 0-6.86.836-6.86 1.924zM90.75 2.008c0-.558-2.733-1.116-6.498-1.116-5.912 0-5.104 4.965-9.677 4.965-4.741 0-3.57-5.132-9.594-5.132-3.626 0-7.028.642-7.028 1.45 0 1.116 4.295.642 4.295 3.682 0 3.179-9.203 4.1-9.203 6.024 0 .641.697.892 1.617.892 2.008 0 5.215-.892 7.502-.892 1.283 0 2.454.279 2.454 1.45 0 2.287-4.936 6.414-4.936 8.227 0 .558.474.725.92.725 1.841 0 4.937-4.657 7.865-4.657 4.825 0 1.645 10.319 4.295 10.319 2.733 0 1.534-10.152 5.466-10.152 3.207 0 5.578 7.056 7.781 7.056.558 0 1.004-.474 1.004-1.116 0-1.896-2.76-5.856-2.76-8.366 0-1.59 1.115-2.315 2.565-2.315 2.092 0 4.936 1.283 6.47 1.283.558 0 1.116-.195 1.116-.837 0-2.175-8.144-4.546-8.144-7.39 0-2.817 4.462-2.817 4.462-4.1m161.95 14.781c0 8.144-5.94 14.363-16.621 16.092 1.171.084 2.287.084 3.374.084 12.495 0 17.068-5.662 17.068-10.403 0-2.65-1.45-5.02-3.82-5.745zm-15.45 9.231c0-6.47-15.506-8.115-15.506-9.593 0-1.172 8.646-3.18 13.136-3.291-6.833-8.757-16.594-7.837-16.594-9.399 0-.92 7.307-2.733 14.056-2.733 5.661 0 10.96 1.283 10.96 5.578 0 2.37-1.952 4.825-1.952 8.478 0 2.008 1.032 3.765 3.681 3.765 2.845 0 3.458-3.012 3.458-6.22 0-2.649-.446-4.657-.446-5.94 0-3.848 2.622-6.414 6.387-6.414 3.095 0 3.848 1.394 8.394 1.394a6.972 6.972 0 0 0-3.346 5.383c0 3.849 2.454 6.498 2.454 14.335 0 14.446-13.526 19.522-30.064 19.522a94.738 94.738 0 0 1-14.14-1.06c-.725-.111-.92-.279-.92-.725 0-1.2 6.498-1.84 6.498-7.67 0-2.286-.725-4.49-.725-5.298a.725.725 0 0 1 .725-.753c1.394 0 4.127 5.299 9.203 5.299 1.367 0 4.741-.447 4.741-4.658zm14.893-20.163c0 1.255 1.004 2.259 2.287 2.259s2.287-1.004 2.287-2.26a2.262 2.262 0 0 0-2.287-2.286 2.262 2.262 0 0 0-2.287 2.287m-8.088 84.363c0-1.896-4.853-2.091-5.299-7.474-.083-.837-.362-2.287-1.394-2.287-1.618 0-.335 5.02-2.175 5.02-4.184 0-5.578-8.227-7.112-8.227-.39 0-.837.279-.837 1.394 0 1.004.195 1.646.195 2.79 0 1.226-.278 2.035-1.366 2.035-2.454 0-4.658-5.745-6.75-5.745-.473 0-.92.279-.92.725 0 1.116 1.813 3.096 1.813 4.1 0 2.203-5.94 1.004-5.94 2.845 0 .836.837 1.115 1.952 1.115 1.897 0 4.909-.837 6.47-.837.92 0 2.287.168 2.287 1.367 0 1.283-3.29 2.9-3.29 4.1 0 .557.557.836 1.003.836 2.455 0 6.833-4.295 9.929-4.295.558 0 1.924.28 1.924 1.088 0 1.171-3.096 3.291-3.096 5.02 0 .446.28 1.004.837 1.004 1.618 0 3.82-4.295 6.916-4.295 1.2 0 2.929.474 3.85.474.724 0 1.003-.474 1.003-.753zm2.37 44.316a55.499 55.499 0 0 1 6.304-12.718c-3.012-1.534-10.96-4.824-10.96-10.207 0-6.303 7.864-11.24 9.481-11.24.726 0 .92.642.92 1.814 0 3.29-1.561 8.59-1.561 11.434 0 2.538 1.673 5.02 3.124 5.02 1.533 0 5.856-5.494 5.856-10.877a12.299 12.299 0 0 0-11.155-12.605c-2.455 0-6.945 4.016-17.459 4.016-19.633 0-24.096-19.439-24.096-27.945 0-.363.084-.446.168-.446.474 0 2.398 2.37 8.59 2.37 3.207 0 6.135-.836 10.792-.836 10.933 0 15.785 7.613 22.562 17.29 4.1 2.539 13.861 6.666 13.861 18.24 0 10.235-10.876 15.897-13.498 26.857 4.183-.446 6.638-7.948 10.932-7.948 2.232 0 3.208 1.757 3.208 4.462 0 4.044-2.287 10.068-6.694 13.805.112-.363.112-.837.112-1.367 0-2.538-1.004-6.191-3.905-6.191-4.573 0-6.024 4.908-8.59 9.036-2.649-9.315-6.219-17.737-12.605-22.869-6.47-5.187-17.626-2.343-17.626-11.853 0-2.565 1.646-6.19 1.646-9.12 0-1.003-.196-1.951-.725-2.649 8.757 3.291 5.661 9.12 11.044 15.144 3.346 3.849 12.689 7.502 18.071 23.287.112-.446.196-1.617.196-2.454 0-13.526-17.905-26.773-19.439-32.24 10.375 1.2 12.216 3.738 17.152 17.459 1.004 2.817 4.295 9.845 4.295 13.33" fill="#1766a6" stroke-width="2.789"/><path d="M196.449 37.9c-6.415 0-10.598-3.206-10.598-4.852 0-.836.558-1.366 1.283-1.366 2.008 0 6.387 3.123 7.837 3.123.39 0 .641-.195.641-.753 0-1.645-1.534-4.378-1.534-5.745 0-.362.28-.641.837-.641 2.426 0 6.108 1.004 8.032 1.004.613 0 .809-.363.809-.725 0-2.008-5.94-5.94-5.94-7.112 0-1.116 7.39-2.761 7.39-4.462 0-1.84-10.04-.558-10.04-2.315 0-1.283 1.924-3.458 1.924-4.462 0-.474-.39-.642-1.004-.642-.836 0-5.215 1.73-7.056 1.73-.92 0-2.008-.168-2.008-1.45 0-2.12 3.57-4.38 9.148-4.38 9.036 0 14.418 6.192 14.418 16.622 0 13.136-9.203 16.427-14.14 16.427zm-17.821-17.346c0-1.004-3.57-2.928-3.57-4.016 0-.195.195-.279.474-.279 1.004 0 2.733.363 4.128.363 1.171 0 1.366-5.104 2.23-5.104.67 0 1.758 4.825 2.79 4.825 1.171 0 3.346-1.367 4.267-1.367.195 0 .362.084.362.28 0 .64-2.287 3.095-2.287 3.82 0 .837 5.132 1.84 5.132 2.566 0 .92-5.215.836-5.215 1.673 0 .614 1.924 3.18 1.924 3.988 0 .195-.084.279-.279.279-.725 0-3.57-1.283-4.378-1.283-1.004 0-2.65 3.737-3.459 3.737-.278 0-.446-.362-.446-.836l-.195-3.626c0-.363-.167-.725-.641-.725-1.116 0-3.208-.112-3.85-.112-.445 0-.64-.083-.64-.279 0-.725 3.653-3.263 3.653-3.904zm-2.65 14.976c1.479 0 1.757 3.57 2.036 5.662.168 1.115.363 1.171.837 1.171 1.06 0 2.789-4.183 3.988-4.183 1.73 0 6.415 4.825 14.168 4.825 11.044 0 21.474-7.754 21.474-21.475 0-13.22-9.343-20.972-22.227-20.972-6.136 0-10.598 3.012-12.969 3.012-1.45.083-3.625-3.57-4.74-3.57-.447 0-.921.92-.921 2.454 0 1.004 0 4.184-1.088 4.184-2.203 0-10.681-6.275-10.681-3.989 0 2.092 5.661 8.507 5.661 10.124 0 1.618-5.578 3.207-5.578 4.295 0 2.008 5.94 2.37 5.94 4.936s-6.218 4.574-6.218 6.498c0 1.534 6.219.447 6.219 2.37 0 1.925-4.574 8.312-4.574 10.125 0 .474.084.474.446.474 1.757 0 6.972-5.94 8.227-5.94M134.62 195.89c0 .837-.279 1.757-1.004 2.65-1.004-1.813-3.848-2.734-5.131-2.734-9.399 0-5.857 13.61-15.897 13.61-4.183 0-4.546-.558-6.108-.558-.64 0-1.004.28-1.004.837 0 2.37 3.375 8.227 12.801 8.227 9.427 0 18.435-5.773 18.435-12.884 0-1.2-.279-2.455-.837-3.738.39-.557 1.311-.92 2.12-.92 1.45 0 2.287 1.673 3.653 1.673a2.51 2.51 0 0 0 2.566-2.593c0-1.2-.641-2.008-1.729-2.566.725-.558 1.255-1.45 1.255-2.454 0-1.562-1.088-3.012-2.928-3.012-.81 0-1.367.279-1.98.892-.196-1.617-1.116-3.179-2.845-3.179-1.395 0-2.37 1.004-2.37 2.566 0 1.45 1.003 2.65 1.003 4.183" fill="#1766a6" stroke-width="2.789"/><path d="M84.559 178.907c7.307 1.813 10.96 5.745 11.713 10.402.697 4.463 1.618 8.144 3.347 9.957a15.785 15.785 0 0 0 10.71 4.852c3.29 0 5.912-1.115 5.912-4.1 0-3.29-4.463-10.709-11.044-10.709-.642 0-1.45.112-2.37.112-.838 0-2.009-.195-2.734-.837-1.478-1.283-1.924-8.115-4.657-12.243a11.49 11.49 0 0 0-10.793-5.857c-3.18 0-6.75 1.757-6.75 4.323 0 1.562.837 2.65 6.694 4.1zm25.49 20.47c-2.733 0-6.86-2.928-6.86-4.574 0-1.394 1.283-2.12 2.287-2.12 2.286 0 6.414 2.846 6.414 5.216 0 .641-.474 1.478-1.84 1.478" fill="#1766a6" stroke-width="2.789"/><path d="M101.655 128.233c0-5.857 13.86-8.953 13.86-16.176 0-1.199-.446-3.29-1.282-4.852 4.852 2.649 8.422 7.14 8.422 10.793 0 6.302-6.582 9.203-6.582 13.163 0 4.546 7.028 5.299 7.028 10.933 0 4.657-6.665 10.04-6.665 16.091a9.12 9.12 0 0 0 8.31 9.12c-1.645.363-3.095.641-4.657.641-9.203 0-18.713-7.585-18.713-16.621 0-4.462 1.896-8.367 4.825-11.24 2.565 2.232 5.131 3.654 6.777 3.654 1.45 0 2.091-.725 2.091-1.813 0-3.374-13.414-6.498-13.414-13.693zm29.116 46.128c-3.124 1.394-4.379 1.171-4.379 4.378 0 1.172-.279 2.734-.279 3.542 0 1.116.195 1.757 1.478 1.757 3.291 0 8.479-5.577 8.479-10.319 0-1.282-.726-1.84-1.562-1.84-.725 0-1.534 1.45-3.737 2.482zm-.363-6.582c0-4.127-8.506-4.211-8.506-10.43 0-1.534 1.004-4.184 3.04-7.028.837 4.74 2.733 7.223 6.833 8.785 8.143 3.012 9.23 7.558 9.23 12.41 0 8.227-5.744 18.463-20.553 18.463-11.88 0-20.359-10.598-20.359-19.55 0-2.483.641-5.216 2.175-5.216 1.395 0 1.84 1.116 2.929 2.176 4.127 4.127 8.59 5.215 15.06 5.215 5.856 0 10.151-2.37 10.151-4.825m-64.674 1.952a3.486 3.486 0 1 1-6.889.837 3.486 3.486 0 1 1 6.889-.837zm-17.068 3.626a5.968 5.968 0 0 0 6.582 5.104 7.53 7.53 0 0 0 3.012-.92 5.634 5.634 0 0 0 6.498 4.378c3.346-.446 5.661-3.096 5.299-6.47a6.61 6.61 0 0 0-.558-2.12l.78-.084c3.292-.641 5.523-3.29 5.244-6.47-.363-3.29-3.319-5.745-6.387-5.355-1.199.14-2.287.586-3.012 1.228-.836-2.734-3.402-5.104-6.916-4.518a5.912 5.912 0 0 0-4.964 6.637c.056.558.195 1.171.446 1.813l-.892.14c-2.678.39-5.578 3.067-5.132 6.609" fill="#1766a6" stroke-width="2.789"/></svg>