<svg xmlns="http://www.w3.org/2000/svg" viewBox="0 0 1135.9 1078.5">
    <style>
        .st1 {
            fill: #fff
        }

    </style>
    <path fill="#df141a"
        d="M462.6 715.2C375 778.9 287.3 842.6 199.7 906.3c-1.7 1.3-3.7 2.3-5.9 2.9-2.3.6-4.7.7-6.9.3-2.7-.6-5-2.1-6.8-4.6a9.56 9.56 0 0 1-1.9-4.8c-.2-2 .1-4 .4-5.7.6-2.8 1.4-5.6 2.2-8.2 4.1-13.3 97.5-291.3 101.5-303.1v-.1c0-.1 2.8-7.8 1.6-13.5-1.1-5-6.8-9.6-7.2-10 0 0-271.2-198.6-272.3-199.8-1.7-1.8-3-3.8-3.6-5.8a12.55 12.55 0 0 1 3.4-13.4c1.3-1.2 2.8-2.1 4.6-2.8 1.4-.5 2.9-.9 4.5-1.2 1.1-.2 4-.3 4.3-.3h324.6s3.9.3 8.3-1.2c5.6-1.9 9.5-5.6 11.4-11.2 34.4-104.7 68.8-209.3 103.1-314 .8-3.3 4.2-9.8 11.5-9.8s10.7 6.5 11.6 10.1c34.4 104.7 68.8 209.3 103.1 314 2 5.6 5.8 9.3 11.4 11.2 4.4 1.5 8.3 1.2 8.3 1.2h325.4c1.2 0 2.3.1 3.5.3 1.6.2 3.1.6 4.5 1.2 1.8.7 3.3 1.6 4.6 2.8 1.6 1.4 2.8 3.3 3.5 5.5.8 2.6.8 5.4-.1 7.9-.7 2.1-1.9 4-3.7 5.8a22.5 22.5 0 0 1-3.7 3.1L676.3 559.8c-.4.3-6.1 4.9-7.2 10-1.2 5.7 1.6 13.4 1.7 13.5v.1c4 11.8 97.4 289.8 101.5 303.1.8 2.6 1.7 5.3 2.2 8.2.4 1.7.7 3.6.5 5.7-.2 1.7-.9 3.4-1.9 4.8-1.8 2.4-4.1 4-6.8 4.6-2.3.5-4.7.4-7-.3-2.2-.6-4.2-1.6-5.9-2.9-87.6-63.7-175.3-127.4-262.9-191.1l-.1-.1c-.1-.1-7.6-6.1-13.9-6.1-6.2-.3-13.8 5.8-13.9 5.9" />
    <path
        d="M474.5 302.3c-.2-.1-.3-.1-.2-.3 0-.1.2-.2.2-.3.1-.2 0-.5 0-.8v-1.6c0-.3 0-.4-.1-.7-.1-.2-.2-.4-.2-.6 0-.2.1-.3.1-.4 0-.2-.1-.3-.1-.4-.1-.3-.1-.6-.1-.8 0-.3-.2-.5-.3-.8 0-.1-.1-.3-.1-.4-.1-.2-.2-.2-.2-.4s.1-.3 0-.5l-.3-.6c0-.2-.1-.3-.2-.4-.1-.2-.1-.3-.1-.5 0-.3-.3-.4-.4-.6 0-.1 0-.3-.1-.4-.1-.1-.2-.1-.3-.3 0-.1 0-.2-.1-.4-.2-.3-.4-.7-.5-1-.1-.1-.1-.3-.1-.4l-.3-.3c-.4-.4-.7-.8-1.1-1.3-.2-.2-.5-.3-.6-.5-.1 0-.1-.2-.2-.2-.1-.1-.1-.1-.2-.1-.1-.1-.1-.2-.2-.3 0-.1-.2-.1-.3-.2 0 0-.1-.1-.1-.2-.1 0-.1-.1-.2-.1l-.1-.1c-.1-.1-.3-.1-.4-.3 0-.1 0-.2-.1-.3-.1-.1-.4 0-.5-.1-.1 0-.1-.2-.3-.2-.1-.1-.4-.3-.5-.4-.1-.1-.2-.1-.4-.2-.1-.1-.1-.2-.2-.2-.2-.1-.5-.2-.8-.3-.3-.2-.6-.4-.9-.5-.3-.1-.5-.3-.8-.3-.3-.1-.6-.1-.8-.2-.2 0-.2-.1-.4-.1-.1 0-.1.1-.2 0-.1 0-.2-.1-.2-.1-.2-.2-.4-.4-.7-.4-.3-.1-.6 0-1-.1-.3-.1-.6-.2-1-.2-.3 0-.7-.1-1-.1-.3-.1-.6-.1-1-.1-.2 0-.3.1-.5.1-.1 0-.3-.1-.4-.1-.2 0-.4.2-.5.2-.2 0-.2-.2-.4-.2-.4 0-.8.2-1.2.2-.4.1-.8.1-1.2.2-.5.1-.6.3-1 .4-.4.2-.7.1-1.1.3-.3.1-.7.3-1 .4-1.7.7-2.9 1.9-4.4 2.9-.5.4-.7.7-1.1 1.1-.1.1-.1.2-.2.3h-.5c-.2.2-.3.5-.2.7-.3.1-.6.4-.7.7h-.3c-.1.3-.3.2-.4.4-.1.2-.2.5-.4.7-.4.4-.6.7-1 1.1-.3.4-.6.7-.9 1.1-.5.7-1.1 1.3-1.4 2.1-.2.5-.5.9-.5 1.4-.7.2-1.1 1.5-1.4 2.1-.4.7-.8 1.4-1.2 2.2-.7 1.4-1.2 2.8-1.8 4.3-.3.8-.6 1.6-1 2.5-.4.8-.9 1.4-1 2.3-.2 1.1-.5 1.9-.9 2.9-.4.9-.6 1.8-1 2.6-.7 1.6-1.5 3.2-2 4.8-.3.9-.6 1.7-1 2.6-.4.9-.6 1.8-.9 2.6-.7 1.6-1.1 3.3-1.8 4.9-.2.5-.6 1-.8 1.6-.2.6-.3 1.4-.6 2-.5 1.2-.9 2.5-1.4 3.8-.6 1.4-1.1 2.8-1.6 4.2-.6 1.8-1.3 3.6-1.9 5.4-.3.7-.7 1.4-.9 2.2-.2.8-.5 1.7-.8 2.5-.4.9-.7 1.9-1.1 2.8-.4 1.2-.7 2.4-1.1 3.6-.5 1.3-1.2 2.5-1.6 3.9-.5 1.7-1.1 3.3-1.7 5-1.6 4-2.9 8.1-4.2 12.2-.1.4-.3.7-.5 1.1-.2.4-.2.6-.4 1-.1.3-.5.7-.7 1-.3.5-.4.7-.6 1.2-.2.9-.5 1.8-.5 2.7-.1 1.3-.7 2.2-1.1 3.4-.2.6-.3 1.2-.5 1.8-.5 1.1-1.4 2.3-1.6 3.4-.2.8-.7 1.5-.9 2.3l-.6 2.5c-.2.6-.7 1.5-.4 2.1-.5.4-.6 1.6-.8 2.2-.3.9-.2 1.7-.6 2.6-.4.8-1.1 1.5-1.1 2.5 0 .9-.1 1.7 0 2.6.1.6-.5.8-.7 1.3-.3.4-.5 1.2-.5 1.6 0 .7 0 .9-.2 1.5-.3.6-.5 1.1-.6 1.7-.7 2.3-1.2 4.4-1.9 6.6-.4 1.1-.5 2.3-.8 3.4-.3 1.1-.9 2.2-1.2 3.3-.7 2.2-1.1 4.5-1.6 6.8-.1.8-.5 1.5-.5 2.3 0 .3.1.8.1 1.1-.1.5-.6.8-.7 1.4-.1.6-.1 1.2-.3 1.8-.4 1-.9 2-1.1 3.1-.5 2.4-1.4 4.5-1.9 6.9-.4 1.8-1.1 3.5-1.4 5.3-.2.8-.1 1.6-.3 2.4-.3.9-.6 1.8-.8 2.8-.2.6-.3 1.2-.5 1.9-.1.3-.1.7-.1.9-.1.3-.4.4-.5.7-.2.6 0 1-.3 1.5s-.2.9-.3 1.5c-.2 1.1-.5 2.3-.8 3.3-.4 1.7-.9 3.3-1.3 5-.2.9-.3 1.8-.5 2.7-.4 1.7-.7 3.3-.9 5-.1.9-.5 1.8-.6 2.6-.2.8-.4 1.7-.5 2.6-.2.6-.7 1.8-.4 2.4-.4.6-.5 1.6-.6 2.3-.1.9-.1 1.5-.3 2.3-.3 1.3-.7 2.5-.9 3.7-.2 1.1-.4 2-.7 3.1-.2.8-.3 1.5-.4 2.3-.2 1.3-.5 2.5-.6 3.8-.3 2.6-.9 5.1-1.3 7.6-.2 1.1-.5 2.2-.5 3.3-.1 1.7-.8 3.4-.9 5.1-.1.6-.3 1.2-.4 1.9-.2 1.3-.3 2.6-.5 3.9-.4 2.4-.6 5-1.3 7.2-.3.8-.3 1.8-.4 2.7-.3 3.2-.9 6.4-1.4 9.6-.3 1.5-.5 3.1-.6 4.7-.1.8-.1 1.6-.2 2.4-.1.6-.1 1-.1 1.6 0 .1-.3.4-.3.5-.1.3 0 .5 0 .8-.1 1-.4 1.9-.4 3-.1 0-.2.1-.4.1-.1.3-.1.6-.1.9-.3.2-.2.7-.5.9-.5.3-.5-.5-.4-.7-.5-.5-.4-.6-1.1-.3a3 3 0 0 0-.4-.8c-.1-.4-.1-.3 0-.7.2-.6.3-1.3.1-2.1-.1-.3-.3-.3-.3-.8 0-.3.3-.4.3-.7 0-1.1-.7-.8-1.4-1.1 0-.3.3-.4.3-.6.1-.4-.2-.6-.2-.9v-1.8c0-.4.1-1.2 0-1.6-.2-.6-.4-.9-.5-1.6-.1-.5-.4-1.1-.4-1.6 0-.2.3-.4.3-.6.1-.3-.1-.7-.1-1 .2-.8.6-.7.4-1.5-.5-1.6.1-1.2 0-1.8-.1-.4-.2-1.2-.4-1.5-.2-.2-.4-.3-.6-.4-.4-.2-.3-.3-.3-.7 0-.2-.1-.3-.1-.4.1 0 .5 0 .5-.2 0-.1-.2-.1-.3-.1-.2 0 0 .1-.2.2-.3.4-.5-.2-.5-.5.1-.2.2-.3.2-.5s-.3-.3-.1-.5c.2-.2.8-.4.8-.6-.1 0-.2-.1-.2-.1-.2 0-.1.1-.2.1-.2 0-.4.2-.6.2 0 .4-.5.2-.5-.1 0-.2.1-.3.1-.5s-.1-.3-.1-.4v-.9c0-.3-.1-.4.1-.7.1-.2.3-.3.4-.6 0-.3-.1-.4-.2-.5-.4-.3-.2-.2 0-.4.1-.2.1-.4.2-.6 0-.2.2-.4.2-.5 0-.2 0-.5.1-.7.1-.1.2-.1.3-.2.1-.1.1-.2.1-.3.1-.2.2-.4.2-.5.1-.4.1-.8-.1-1.1-.1-.3-.3-.5-.4-.8-.1-.3 0-.6-.2-.9-.1-.2-.3-.3-.4-.5-.1-.2 0-.5-.1-.7-.1-.1-.6-.3-.2-.4 0-.3-.2-.3-.3-.5-.1-.2 0-.5-.1-.7-.1-.2-.3-.3-.3-.5-.1-.2 0-.5-.1-.7 0-.5-.3-.9-.3-1.4v-1.6c0-.4.1-.9-.1-1.4 0-.2-.1-.3-.2-.5-.2-.3-.1-.4-.2-.6 0-.2-.2-.3-.3-.5-.1-.2-.3-.5-.3-.8-.1-.4 0-.9-.4-1.2.2-.2.2-.3.1-.5s-.2-.4-.2-.6c0-.2 0-.5-.1-.6-.1-.2-.4-.3-.1-.4.2-.1.5 0 .7-.2.1-.1.2-.4.2-.5 0-.3-.5-.8-.7-1-.3-.4-.5-.8-.6-1.3-.1-.3.1-.6.1-.9 0-.3-.1-.6-.2-1v-1c0-.4-.2-.4-.3-.7-.1-.3-.1-.6-.2-.8-.1-.2-.4-.4-.5-.5-.3-.4-.5-1.1-.5-1.6 0-.2 0-.3.1-.5-.2-.2-.5-.1-.5-.3 0-.4.3-.2-.1-.5-.2-.1-.2 0-.3-.2-.1-.1 0-.3 0-.5 0-.4-.1-.4.1-.7.2-.2.4-.4.2-.7-.2-.3-.4-.3-.6-.4-.5-.1-.4 0-.5-.4-.1-.3-.1-.6-.1-.9 0-.3.1-.5 0-.8-.1-.3-.2-.5-.3-.7-.1-.4.1-.7.3-1.1 0-.2.1-.4-.1-.6-.2-.2-.3-.1-.5-.2-.1-1-.3-2-.5-2.9-.1-.4.1-.2.2-.5s-.1-.4-.3-.6c-.4-.4-.4-.9-.4-1.4 0-.4-.1-.7-.2-1-.1-.3-.2-.7-.2-1 0-.2 0-.2.2-.4.1-.1.4-.2.3-.4 0-.1-.4-.1-.5-.1-.2-.1-.2-.1-.2-.4 0-.2.1-.2.2-.4s-.1-.2-.2-.4-.2-.7-.1-.9c.1-.2.2-.3.1-.5 0-.1-.1-.2-.1-.3-.1-.1-.2-.1-.2-.2-.1-.1 0-.4-.1-.5 0-.2-.1-.3-.1-.5v-.3l-.1-.2c0-.1.3-.5 0-.3-.2-.3 0-.2.2-.3 0-.2-.1-.2-.2-.3-.1-.1-.1-.3-.2-.5-.1-.5.1-.5.5-.6.2-.1.4-.1.3-.3 0-.2-.2-.2-.3-.4v-.5c0-.2-.1-.3-.1-.5v-.5c-.1-.2-.4-.3-.4-.5.1-.2.4-.1.4-.3.1-.2-.2-.2-.2-.4 0-.1.3-.2.3-.3 0-.2-.1-.2-.3-.3-.3-.1-.6 0-.7-.3-.2-.3-.3-.7-.1-.9.3-.3.4-.3.4-.7 0-.3 0-.2-.2-.3-.2-.1-.3-.2-.3-.4s-.2-.9 0-1c.1-.1.3-.1.5-.1 0-.3-.2-.3-.4-.2-.2.1-.4.2-.6.1-.1-.1-.2-.3-.2-.4 0-.2.2-.1.3-.2.1-.1.2-.3.1-.4-.1-.2-.2-.1-.3-.2-.1-.1-.4-.8-.2-.9.2-.1.2.2.3-.1.1-.2 0-.3-.1-.4-.1-.1-.1-.3-.3-.4-.2-.1-.2-.1-.3-.3l-.3-1.1c0-.2 0-.3.2-.4.1-.1.2-.2.2-.4 0-.3-.4-.7-.5-.9-.2-.3-.3-.5-.2-.9v-.5c-.1-.2-.1-.3-.1-.5s0-.4-.1-.5c0-.2-.1-.3-.1-.4 0-.2.1-.2.1-.4-.3-.4-.4-1-.3-1.5 0-.3-.1-.6-.2-.9-.1-.3-.1-.6-.2-1s-.2-.6-.2-1v-.6c0-.2-.1-.4-.1-.6V463v-.5c-.1-.2-.3-.2-.3-.4-.1-.4.1-.7 0-1 0-.1 0-.2-.1-.2 0-.1-.1-.1-.2-.2 0-.1.2-.2.1-.4-.1-.4-.2-.7-.2-1 0-.4-.2-.7-.3-1.1-.1-.2 0-.4 0-.5 0-.2 0-.3-.1-.5s0-.4-.1-.7c0-.1-.1-.3-.1-.3-.1-.1-.2-.2-.2-.3v-.3c0-.1 0-.2-.1-.3v-.8c-.1-.3-.2-.6-.2-.9v-.5c0-.2-.1-.3-.1-.5-.1-.3 0-.7-.1-1.1 0-.4-.2-.7-.3-1 0-.2-.1-.5-.1-.7 0-.2.1-.5-.2-.5-.1-.3-.1-.7-.2-1.1v-.5c0-.2-.1-.4-.1-.5-.2-.7-.3-1.5-.5-2.2-.1-.4 0-.7-.1-1-.1-.3-.2-.6-.3-1-.1-.7-.4-1.3-.6-2-.1-.3-.2-.4-.4-.6-.1-.1-.1-.3-.1-.5s-.1-.2-.2-.3c-.1-.2-.1-.3-.2-.5-.1-.3-.3-.6-.5-.9-.1-.2-.1-.2-.2-.3-.1-.1-.2-.3-.3-.4-.1-.2-.3-.4-.5-.5-.2-.2-.3-.4-.4-.5-.2-.2-.5-.3-.7-.5-.2-.2-.3-.4-.5-.5-.2-.2-.3-.4-.5-.5-.4-.3-.9-.4-1.3-.6-.2-.1-.3-.1-.5-.2-.4-.2-.7-.3-1.1-.4-.2-.1-.3-.1-.5-.1-.4-.1-.8-.2-1.3-.2-.3 0-.8 0-1.1-.1-.2-.1-.2-.2-.4-.1-.1 0-.2.1-.5 0s-.6 0-1 0c-.3 0-.7 0-1 .1-.4.1-.7.2-1 .3-.2 0-.4.1-.5.2-.1.1-.1.2-.3.3-.2.1-.4 0-.6.1-.3.1-.7.2-1 .4-.3.2-.5.4-.7.5-.5.3-1 .6-1.4 1l-1.1 1.1c-.5.5-.9 1.2-1.3 1.8-.5.8-1 1.5-1.3 2.4-.3.9-.7 1.9-.9 2.8-.1.2-.1.5-.2.7-.1.3-.3.4-.4.7-.2.4-.2 1-.4 1.5-.1.2-.2.3-.3.5-.1.2-.1.3-.2.5-.2.3-.3.6-.4.9-.1.1-.2.4-.2.5 0 .3.2.2 0 .4l-.2.1c-.1.1 0 .2-.1.3-.3 1.1-.7 2.1-1 3.2-.1.3-.2.4-.3.6-.1.2-.1.5-.2.7-.1.5-.3.9-.4 1.4-.2.4-.3.8-.5 1.3-.6 1.6-.8 3.3-1.4 4.9-.2.5-.5 1-.8 1.4-.4.6-.4.9-.5 1.6-.1.6-.3 1.2-.4 1.9-.1.6-.3 1-.6 1.4-.5.7-.5 1.3-.7 2.1-.2.5-.5 1.1-.7 1.7-.2.5 0 .9-.1 1.4-.1.6-.4 1.3-.5 1.8-.4 1.1-.7 2.2-1.1 3.3-.3.9-.8 1.9-1 2.9-.2.8-.2.9-.6 1.5-.3.5-.4.9-.6 1.4.3.4-.3 1-.4 1.4-.1.7 0 1.2-.3 1.8-.5 1.2-.8 2.1-1.1 3.3-.2 1.1-1.2 1.7-1.5 2.6-.2.6-.4 1.2-.4 1.8 0 .8.1 1.2-.2 1.8-.3.7-.4 1.7-.9 2.2-.2.2-1.6.9-.6 1.3-.4.5-1 .6-.4 1.4-.2-.2-.6.9-.6 1-.1.6 0 1-.2 1.6-.5 1.4-1.1 2.6-1.6 4-.5 1.6-1.4 3.1-1.9 4.7.1 0 .2.1.3 0-.1.4-.3.9-.4 1.4s-.5 1-.6 1.4c-.1.3 0 .6-.2.9-.1.2-.3.4-.4.7-.2.4-.2 1-.6 1.4.1.3-.2.8-.3 1.2-.1.4-.1.9-.3 1.4-.2.8-.7 1.8-1 2.6-.4.9-.6 1.7-.9 2.6-.5 1.8-1.3 3.8-1 5.7.2 1 .3 2 .9 2.8.9 1.3 2.1 2.9 3.5 3.6.6.3 1.4.7 2.1.8.4.1.6.3 1 .4.3.1.6-.1.9-.1h1.2c.4 0 .5-.2.9-.2.3-.1.8-.1 1.1-.1.2 0 .4.1.5 0 .2 0 .3-.3.5-.3.2-.1.3 0 .5-.1s.2-.2.3-.3c.3-.2.6-.2.9-.4.6-.3 1.3-.7 1.8-1.2.3-.3.5-.6.8-.9.1-.1.3-.2.4-.3.1-.2.1-.4.3-.6.3-.3.9.3 1 0 .1-.3-.1-.3-.2-.5-.3-.5 0-.9.2-1.4.2-.4.1-.4.5-.7.4-.2.3-.4.3-.8 0-.1-.1-.4-.1-.5.1-.2.4-.1.3-.4.2-.3.3 0 .4-.4 0-.3 0-.5.1-.8.1-.3.3-.3.4-.5.1-.2 0-.5.1-.8.1-.5.4-.7.7-1.1.2-.2.4-.4.3-.6-.1-.2-.4-.2-.2-.5.2-.4.7-.5.9-.9.1-.3 0-.5.2-.7.2-.2.4-.2.4-.5.1-.3-.1-.4 0-.7.1-.2.2-.4.2-.7.1-.5.3-.8.6-1.3.1-.2.3-.5.6-.6.2-.1.8 0 .7-.3 0-.3-.6-.1-.7-.2-.2-.2-.1-.6 0-.7.1-.2.2-.2.3-.3.1-.1.1-.3.2-.4v-.4c.1-.2.1-.1.3-.2.2 0 .1-.1 0-.3v-.2c.1-.1.2-.1.2-.1.1-.2 0-.2-.1-.3-.1-.1 0-.3 0-.4 0-.1.2-.2.3-.3v-.2c0-.1 0 0 .1-.1.1 0 .3 0 .3-.2-.3-.1.1-.4.1-.5.1-.2.4-.3.5-.5.1-.1.1-.3 0-.4-.1-.1-.2-.1-.2-.3v-.2-.2c0-.1 0-.2-.1-.3-.1-.3.3 0 .3-.3 0-.1 0-.2.1-.3.1-.1.2-.1.2-.1.1-.1.2-.2.1-.2s-.2.1-.3.1h-.3c-.1-.1 0-.4.1-.5.1-.2.1-.4.3-.2.1 0 .1.1.1.1.1 0 .1.1.2.1.1.1.1.2.3.1.1-.1.1-.2.1-.3-.1-.1-.3 0-.3-.2 0-.1.2-.2.3-.2.1-.1.1-.2.1-.4 0-.1 0-.2-.1-.4 0-.2.1-.2.1-.4 0-.1 0-.3.1-.4.1-.1.2-.2.3-.2.1-.1.2-.1.2-.3 0-.2-.1-.2-.3-.2-.5-.1-.1-.3-.1-.5s0-.6.2-.7c.2-.1.3.1.4 0 .1-.1-.1-.2-.1-.3-.1-.3.2-.5.3-.7 0-.1 0-.3.1-.4.1-.1.3 0 .4-.1.2-.1.3-.3.2-.4-.1-.1-.2-.1-.2-.2-.1-.1-.1-.3-.1-.4 0-.2-.1-.6.2-.8.1-.1.1 0 .2-.1.1 0 0-.2.1-.3 0-.2 0-.4.1-.5.2 0 .1-.2.2-.3 0 0 .2 0 .2-.1.1 0 .1-.1.2-.2.1 0 .1-.1.1-.1.1 0 .1.1.2 0 .1 0 .1-.3.1-.4-.1-.1-.3-.1-.4-.1-.2 0-.2 0-.1-.1s.1-.2.1-.3c0-.2 0-.2.2-.2.1 0 .3 0 .2-.2 0-.1-.2-.2-.2-.3.1-.2.5-.2.7-.3.2-.1.4-.4.3-.7-.1-.1-.2-.1-.3-.2-.1-.1-.1-.3-.1-.4 0-.4.2 0 .4 0 .4.1 0-.4 0-.5 0-.2.1-.1.2-.2s-.1-.2-.1-.3c-.1-.2.3-.5.1-.8-.1.1 0 .3-.2.3-.1 0 0-.2 0-.3-.1-.2-.2-.3-.2-.4 0-.1-.1-.4 0-.4.2-.3.4.2.5.3.2 0 .2 0 .2-.2s.1-.2.3-.2c.2 0 .5-.1.6 0 .1.1 0 .2.2.3.1.1.2 0 .2-.2 0-.3-.5-.1-.4-.4 0-.2.2-.1 0-.2 0 0-.2-.1-.3-.1 0 .1.1.2-.1.2-.2-.1 0-.3.1-.5v-.3c0-.1.1-.1.2-.1-.2-.1-.1-.4-.1-.5.3-.1.6.5.9.4.1-.1 0-.2.1-.3 0-.1.1-.1.2-.1.1-.2-.1-.4 0-.5h.2c.1 0 .1-.1.2-.2s.1-.3 0-.4c.1-.1.2-.3-.1-.4 0-.1.1-.1.1-.1.1-.1.1-.1.1-.2.1-.1.2-.2.3-.2 0-.2.1-.2.2-.3.1-.2 0-.2 0-.3 0-.1.1-.1.1-.1v-.2c0-.1 0-.3.1-.4.1-.2.3-.3.3-.5v-.4-.2-.2c.2-.1.3-.3.5-.4.2-.1.6-.1.7 0 .1.1.1.2.2.3.1.1.2 0 .3 0 .1 0 .3 0 .4.1.1.1.3 0 .4.1.1 0 .1.1.2.2s.1.1.1.3c0 .3.1.4.4.5.1 0 .2.1.4.1.1 0 .3-.2.3 0-.1.1-.2.1-.2.3V494.3c0 .1-.1.1-.1.2-.1.1 0 .2-.1.4s-.3.4-.2.6c0 .1.1.1.2.2s.1.2.2.3c.2.2.3-.3.4-.4.2-.3.4-.3.6-.3.3 0 .5.1.5.4.1.3 0 .4-.3.5-.1 0-.3 0-.3.1s.1.3.1.4v.4c0 .1.1.3 0 .4-.1.2-.6.2-.2.4.2.1.6.2.6.4.1.2-.1.1-.2.2v.2c-.1.1-.1.1-.2.1s-.2 0-.3.1c0 .1.1.3.1.4.1-.2.2.2.2.2 0 .1-.1.3-.2.4-.1.2-.2.5-.1.8.1.3.4.2.6.5.2.2 0 .4-.1.6-.4.6-.3 1 .1 1.6.1.2.3.5.6.6.1.1.2 0 .3.1.1.1 0 .3.1.4 0 .1.1.1.2.3 0 .1-.2.2 0 .4.1.1.2 0 .3 0 .2.1.1.1.2.4.1.5.1.9.2 1.4 0 .5-.2.7-.4 1.1.2.2.4-.3.5-.4.1.5.1 1 .1 1.6 0 .3.2.3.3.6.1.2 0 .5.1.7.1.5 0 1 .2 1.5.1.4.2.8.2 1.3.1.4 0 .7.1 1.1 0 .2.1.4.2.7l.3 1.5c.2.5.1 1 .2 1.5 0 .3 0 .5.1.8.1.2.2.3.2.5 0 .1-.1.1-.1.2s.1.2.1.3c0 .2.1.4.1.5 0 .4.1.8.2 1.2.1.4.2.8.2 1.2.1.4.1.7.2 1.1.1.3.2.6.2.9 0 .3.1.4.2.7.1.4 0 1 .1 1.5 0 .1.1.2.1.3 0 .2-.1.2-.2.3v.8c0 .5.1 1.1 0 1.6 0 .2-.2.4.1.4.1.2-.2.2-.2.4.4 0 .1 1.3.6 1 .1.2 0 .4.1.5.1.2.3.2.4.4.1.2 0 .6 0 .8 0 .6.1 1.2.2 1.8.1.5.1.9.2 1.3.1.2.2.4.2.7 0 .3-.2.4-.2.6.3.1.1.4.2.7 0 .2.1.4.2.6.1.4.2 1 .2 1.4.2 1 .4 2 .5 3.1v.7c.1.2.3.4.3.6 0 .3-.1.5 0 .8.1.3.1.4.2.7 0 .4.1.9.2 1.3 0 .3 0 .4.1.6.2.5.2 1 .2 1.4 0 .3.1.5.1.8v.4c0 .1.1.2.1.3.1.3.1.5.1.7.1.5.1 1 .2 1.5 0 .3 0 .5.2.7.1.3.2.4.1.7 0 .5 0 1 .1 1.4.1.2.2.4.2.5 0 .2-.2.3-.1.5l.1.2v.4c0 .2.1.4.1.6l.3 1.5c.1.5.1 1 .2 1.4.1.4 0 .8.1 1.2.1.2.1.4.1.7 0 .3.1.5.2.9.1.3.1.6.1.8.1.4 0 .8.1 1.1.1.4.2.8.4 1.2.1.2.1.4.1.6 0 .2-.2.4-.2.6 0 .3.4.4.4.7v.6c0 .3.1.4.2.7 0 .1.1.3.1.4 0 .1 0 .2-.1.3-.1.3.1.4.2.6 0 .2-.1.2-.2.4s.1.2.2.3c.2.2.1.7.1 1v.5c0 .2.2.2.2.3.2.3 0 .6 0 1 0 .3.2.6.3.9v.5c0 .1-.1.1 0 .2 0 .1.1 0 .2.1.1.2 0 .3 0 .4 0 .2.1.3.2.5.1.3.1.7 0 .9h.2v.1c-.3 0-.1.2 0 .3.1.2 0 .3 0 .5s0 .4.1.6c.1.2.1.3.1.5s0 .6.1.7c0 .1.1.1.2.2v.4c0 .3.1.6.1 1 .1.3 0 .7.1 1 0 .2.2.1.2.3.1.2 0 .3-.1.4-.1.2 0 .4 0 .5 0 .2.1.3.1.4.1.3 0 .6.1.9 0 .1.1.1.1.2s-.1.1-.1.2.2.1.3.3c.1.2 0 .3.1.5 0 .2.1.4.1.5v.5c0 .2 0 .3.2.3 0 .2-.1.4-.1.6 0 .2.1.4.2.6 0 .1.2.3.2.3 0 .1-.1.2-.2.2-.1.3.2.4.2.6 0 .2-.1.3-.1.5 0 .1.1.2.1.3v.4c.1.3-.1 1.2.3 1.2.1.2 0 .5.1.7 0 0 .1 0 .1.1.1.2 0 .3 0 .4-.1.2 0 .3.1.5.2.3.2.5.3.8v.5c0 .1.2.2.2.4 0 .1-.1.2-.1.4 0 .1 0 .3.1.4.3.1.2.5.2.6 0 .3 0 .5-.2.7-.3.2-.3.3-.2.6.1.2.2.4 0 .6 0 .1-.1.2-.1.4s0 .4-.1.5c-.1.3-.2.5 0 .7.1.1.3.1.4.2.1 0 .3.1.4.2.2.2.4.4.5.7.1.2.1.3.1.5 0 .1.1.2.1.4s.1.3.1.4c0 .2-.1.2-.2.3-.2.3-.1.5-.4.7-.1.1-.2.2-.3.2-.1 0-.4.1-.4.2 0 .2.3.1.1.2-.1.1-.3.1-.2.3.2 0 .3-.1.3-.3.1 0 .2.1.3.1s.2-.1.3-.1c.2-.1.4 0 .5.1.1 0 .2 0 .3.2.1.1.1.3.2.4.1.3.1.5.2.8.1.3 0 .6.1.9 0 .3.2.5.2.9 0 .3 0 .6.2.9.1.1.1.3.2.4.1.1.1.3.1.4l-.1.2c0 .1 0 .1.1.1 0 .1 0 .2.1.4V613.1c-.1.1-.4-.1-.4.2 0 .1.3.3.3.4.1.1.1.2.2.4.1.1.2.3.2.4v.4c0 .1.2.2.2.4.1.2 0 .2 0 .4 0 .1.2.2.2.3v.5c0 .4.1.7.1 1.1v.5c0 .2-.1.1-.2.3-.2.2-.2.7.1.8.1.1.2.1.3.2.1.1.1.3.2.4.1.3.3.4.3.8 0 .3-.1.6 0 .9 0 .1.1.2.1.4s-.1.3 0 .5c0 .1.2.3.2.2 0 .4.1.8.2 1.2.1.4.2.6.3 1 0 .3 0 .6.1.9v.9c0 .1 0 .2.1.2h.2c.1.1-.1.3 0 .4v.4c0 .2.1.2-.1.4-.1.1-.2 0 0 .3 0 .1.2.2.2.3.1.1.1.3.1.5s.1.2.2.4c.2.4.2.9.2 1.3 0 .5.3.9.3 1.4 0 .3.1.5.1.7 0 .3-.1.4.1.6.2.2.1.4.1.6v.4c.1.2.1.2.1.4v.5c.1.1.1.2.2.4.1.3.2.6.2.9 0 .3 0 .6.2.9-.3.2 0 .2.1.3.1.2-.1.5 0 .6 0 .2.2.4.2.6 0 .1-.1.3 0 .4 0 .1.1.1.2.2 0 0-.1.1-.2.1 0 .2.1.1.1.2s.1.1.1.2v.2c0 .2 0 .2-.1.4-.2.3.2.3.3.5.1.1 0 .3.1.4 0 .1.1 0 .2.1V642.4c0 .3 0 .6.2.8.1.1.2.2.1.4 0 .1-.2.1-.1.3.2.1.2.4.2.6 0 .2.2.4.2.6v.2c0 .1-.1.1-.2.2 0 .1.2.2.3.3.1.3.1.5.1.8 0 .2 0 .3.1.4.1.2.2.2.2.4s.1.3.1.5v.5c0 .1.1.1.1.2s-.1.1-.1.2c0 .2.1.2.2.3.1.3.2.6.2.9v.4c0 .2.1.3.1.4 0 .2 0 .3.1.5.1.3.1.5.3.8.1.2 0 .1 0 .3-.1.1 0 .1.1.3.2.1.1 0 .1.3s.2.5.3.8c0 .2-.1.2-.1.4s.1.4.2.6c.1.2.1.2.3.3.1.1.1.3.2.4.1.3.3.5.3.8.1.1.2.1.3.2.2.2.3.4.5.7l.3.3c0 .1 0 .1.1.2s.1.1.2.1c.1.1.1.3.2.4l.3.3c.2.2.4.3.5.4.1.1.4.1.5.2.1 0 0 .1.1.2.1.2.2.2.3.4.3.1.5.1.7.2.3.2.5.3.9.4.2 0 .3.1.5.1.2.1.5.1.7.1.3.1.6.2.9.2.2 0 .3-.1.5-.2.1-.1.3 0 .5 0 .4-.1.6 0 1 0 .2 0 .3-.1.5-.1.2-.1.4 0 .5 0 .4 0 .6-.2 1-.3.1-.1 1.6-.5 1.6-.4v-.1c-.2 0-.2-.2 0-.3.2 0 .3.1.5 0 .1-.1.1-.3.3-.3.2-.1.3-.1.4-.2.1-.1.3-.1.4-.2.1 0 .2-.1.3-.2.3-.1.5-.4.7-.5.2-.1.4-.4.5-.5l.3-.3.3-.3c.1-.1.1-.4.2-.5.1-.1.2-.1.2-.2.1 0 .1-.1.1-.2.1-.2.2-.3.3-.4 0-.1 0-.3.2-.4 0-.2 0-.2.1-.4.1-.1.2-.1.3-.3 0-.2.1-.4.2-.6.1-.3.2-.5.3-.8.1-.3.1-.6.2-.9 0-.1.2-.2.2-.3 0-.1 0-.3.1-.4.1-.3 0-.6.1-.9.1-.1.2-.2.2-.4 0-.1 0-.3.1-.4.1-.3.2-.5.3-.9 0-.1.1-.2.1-.4v-.5c.1-.5.2-1 .4-1.4.1-.3.1-.2.3-.3-.1-.2-.3-.1-.3-.3 0-.1 0-.3.1-.4.1-.3 0-.6.2-.9.2-.3.2-.5.2-.9v-.5-.5c.1-.1.2-.1.3-.2.2-.1 0-.2 0-.4-.1-.3 0-.6.1-.9 0-.3.1-.6.2-.9.1-.4.2-.6.1-.9 0-.3.1-.6.1-.9 0-.3 0-.5.1-.7.1-.3.2-.6.2-.9v-.5c0-.2 0-.3.1-.5v-.4-.4c.1-.3.2-.5.3-.9.1-.3.1-.6.1-.9.1-.2.2-.2.1-.4 0-.1-.1-.2-.1-.2 0-.1 0-.1.1-.2 0-.2-.1-.2-.1-.4-.1-.2.1-.2.2-.4.1-.1 0-.3 0-.5.1-.3.1-.6.1-.9 0-.2.1-.2.1-.4v-.5c0-.2.1-.3.1-.5s-.1-.3 0-.4c0-.1.1-.2.2-.3v-.4c0-.2.1-.2.2-.3-.1-.1-.2-.1-.2-.2s.1-.2.1-.3v-.7-.5c0-.2.1-.3.1-.4 0-.1 0-.3.1-.4.1-.2.2-.1.2-.4 0-.3-.1-.6.1-1 .1-.3.1-.6.1-1s.2-.5 0-.8c-.2-.3.1-.5.2-.8v-.2c0-.1.1-.1.1-.1 0-.2 0-.3-.1-.4v-.5c.1-.3.1-.5.2-.8.1-.1.1-.3.1-.4 0-.3.1-.6.1-.9 0-.4.2-.7.1-1 0-.1-.1-.2-.1-.4 0-.1.1-.3.2-.3 0-.1.1-.3.1-.4v-.4c0-.1.1-.2.1-.3v-.4c-.3.1 0-.4 0-.4.1-.3 0-.7.1-1 0-.1.2-.2.1-.3 0-.1-.1-.1-.1-.2s.1-.1.1-.1c.1-.1 0-.4 0-.5v-.5c0-.3.1-.5.1-.9 0-.2-.1-.3-.1-.4 0-.1.1-.2.2-.4.1-.3.1-.6.1-.9 0-.3.1-.5.1-.8 0-.3 0-.6.2-.9v.1c.2-.2 0-.5 0-.7 0-.2.1-.3.1-.4 0-.4.1-.7.1-1 0-.1 0-.3.1-.4 0-.2 0-.3.1-.5.1-.1.1 0 .2-.2v-.2-.5-.9c0-.2 0-.3.1-.4 0-.1.2-.3 0-.3-.1-.3.1-.5.2-.8.2-.2.1-.6.1-.9 0-.3.1-.6 0-.9 0-.2 0-.3.1-.5 0 0 0-.2.1-.2 0-.1.2-.1.2-.1.1-.1-.2-.1-.2-.3 0-.1.2-.2.2-.3.1-.3 0-.6 0-.9 0-.3.1-.6.1-.9 0-.3 0-.6.1-.8.1-.3.2-.7.2-1 0-.2-.1-.3 0-.5.1-.1.1-.3.1-.4 0-.3 0-.6.1-.9.1-.2.1-.2.1-.4v-.5c0-.3 0-.6.2-.9.1-.3.1-.6.1-.9v-.3c0-.1.1 0 .1-.1s-.1-.1-.1-.1v-.3c0-.3.3-.4.2-.7 0-.2-.1-.2 0-.4 0-.1.1-.3.1-.4 0-.3.2-.5.1-.9 0-.2 0-.2.1-.4.1-.1 0-.3.1-.5 0-.2.1-.3.1-.4 0-.2.1-.4.1-.5 0-.1-.2-.3-.1-.4.1 0 .2 0 .2-.1-.3-.1-.1-.6 0-.8.1-.1 0-.3.1-.4 0-.2.1-.4.1-.5v-1c0-.3.3-.5.3-.8 0-.4 0-.6.1-1v-.4c0-.1.1-.3.1-.4.1-.1.2-.3.2-.4 0-.2 0-.3.1-.4.1-.1.2-.1.3-.3v-.2c0-.1.1-.1.1-.2s0-.2.1-.2c0-.1.1-.1.1-.1.1-.1 0-.2 0-.4 0-.1.1-.2.1-.3.1-.1 0-.2.1-.3.1-.1.2-.1.2-.3v-.3-.8c0-.2 0-.4-.1-.6-.1 0-.2-.1-.1-.1.1-.1.2-.1.2-.1v-.3c0-.1.1-.1.1-.2-.2-.1.2-.4.4-.3 0 .1-.2.1-.1.2 0 .1.2 0 .2 0 .2 0 .5-.1.4 0 .1.1.3-.1.4-.2 0-.1.1-.2.1-.2 0-.1-.1-.1 0-.2.1-.2.4-.3.4-.5 0-.1-.1-.3-.1-.4-.1-.2-.1-.2-.2-.3-.1-.1.1-.2 0-.3-.2-.1-.2 0-.2-.2s0-.2-.2-.3c-.2 0-.3-.1-.4-.1-.4-.2-.4-.4-.4-.7v-.5c.1-.1.2-.2.2-.4.1-.2 0-.2 0-.3-.1-.1-.2-.2-.1-.4.1-.1.1-.2.2-.4 0-.2-.1-.2-.1-.4s.2-.5.3-.6c.1-.2.2-.6.2-.9-.1-.3-.1-.6 0-1 .1-.3.1-.5.1-.8.1-.3.2-.5.2-.8 0-.3 0-.5.1-.8 0-.3 0-.6.1-.9 0-.2.1-.1.1-.3v-.4c0-.3-.2-.4-.1-.7v-.2-.1-.2-.2c0-.1.2-.2.2-.3v-.4c.1-.4.6-.2.5-.7h.1c-.1-.1-.1-.2.1-.3.1 0 .1 0 .2-.2 0-.2 0-.5.1-.6h.2v-.1c.1-.1.1-.1.2-.1.2-.1.4-.1.5-.3.1-.2 0-.5.2-.8.1-.2.4-.3.3-.5 0-.2-.1-.4-.1-.7 0-.2.1-.4.1-.5 0-.1-.1-.2 0-.2h.2c.1-.1 0-.1 0-.2h.2c.1 0 .2-.1.3-.2.1-.2 0-.5 0-.8 0-.3-.1-.5 0-.8.1-.2 0-.4.2-.6.1-.1.2-.2.2-.4v-.4c0-.2 0-.3-.1-.4-.1-.1-.3-.2-.3-.3 0-.1.1-.4.2-.5 0-.1-.1-.3 0-.4 0-.1.1-.1.1-.1v-.2c0-.1-.1-.1 0-.2 0-.1.1-.1.1-.1 0-.1-.1-.1-.1-.1-.1 0-.1-.1-.1-.2s-.1-.2-.1-.4c-.3-.2-.2.1-.5.2-.2.1-.5-.2-.6-.3-.2-.2-.2-.4-.2-.6v-.4c0-.2-.1-.2-.1-.3 0-.1-.1-.2 0-.3 0-.1.1 0 .2 0 0-.1 0-.1-.1-.2 0-.3.3-.5.1-.7-.1-.2-.1-.1-.1-.3v-.4-.5c0-.2.1-.2 0-.4v-.3c0-.2.1-.2.2-.3v-.3-.4-.3c0-.1.1-.1.1-.2v-.2c0-.1 0-.1.2-.2.1-.1.1-.1.2-.3 0-.2.1-.3.1-.4.1-.2 0-.2-.1-.3v-.4c0-.2.1-.2.2-.4.2-.2.1-.4 0-.7 0-.2-.1-.5.1-.7.1-.1.2 0 .3-.1.1 0 .1-.2.2-.3.1-.2 0-.6 0-.8 0-.4 0-.6.1-.9.1-.2 0-.1 0-.3v-.2-.1c0-.2.1-.3.2-.4 0-.1 0-.2.1-.3 0-.2.1-.2.2-.2h.4c.3-.1-.4-.3-.5-.4 0-.1 0-.3.1-.4 0 0 .1 0 .1-.1v-.2c.1-.1.2-.2.1-.3 0-.1 0-.3-.1-.4l-.3-.3c-.1-.1 0-.2.1-.4 0-.1 0-.2.1-.4.1-.1.1 0 .1-.2v-.2c0-.3.2-.5.5-.5 0-.1.1-.2.2-.3h.2l.1-.1c.4-.4.3-1 .2-1.5-.1-.2.1-.6 0-.8-.1-.1-.2 0-.2-.2s.1-.4.2-.6c.1-.1.1-.2.1-.3 0-.2 0-.4.1-.6.1-.1.3-.3.3-.5s-.2-.4-.3-.5c-.1-.2 0-.5.1-.7.2-.3-.1-.4-.1-.7-.1-.4.2-1 .5-1.4.2-.3.3-.4.4-.7 0-.1 0-.1.1-.2 0 0 .1 0 .1-.1.1-.1.1-.3.1-.4-.1-.3-.1-.5.1-.7.1-.1.1-.2.1-.3 0-.3.1-.3.2-.5.1-.1.1-.2.1-.3.1-.1.1-.3.1-.4 0-.1.1-.2.1-.3 0-.1-.1-.3-.1-.4 0-.1.1-.2 0-.2 0-.1 0 0-.1-.1s-.1 0-.1-.1v-.2-.3c0-.1-.1-.2-.1-.4s.1-.2.1-.3v-.4c0-.1 0-.3.1-.4 0-.1.1-.1.1-.1s0-.1.1-.1c0 0 .1 0 .2-.1 0-.1-.1-.1-.1-.1 0-.2.2-.1.3-.1l.2-.1v-.1c0-.2.1-.1.2-.2s.1-.2.2-.3c.1-.1.2-.1.3-.2.2-.1.1-.4.2-.7 0-.1 0-.2.1-.3.1-.1.1-.2.1-.3.1-.3 0-.7 0-1 0-.3.3-.5.3-.9 0-.3-.1-.5-.1-.8v-.4c0-.1.1-.2.1-.3 0-.1-.1-.2-.2-.3v-.4c-.1-.2-.2-.2-.3-.4-.1-.2-.1-.4-.1-.5-.1-1.2.5-2.2.7-3.3.1-.3 0-.5.1-.8.1-.1.1-.3.2-.3.1-.1.3 0 .4 0 .4 0 .4-.3.6-.6.2-.3.3-.5.3-.8 0-.2.2-.5 0-.7-.1-.1-.2-.1-.3-.1h-.2v-.4c0-.3.2-.3.5-.5.2-.1.3-.5.3-.7 0-.2-.2-.2-.3-.4-.1-.1-.1-.3-.2-.4-.1-.3-.1-.4.1-.6.2-.2.3-.3.4-.6 0-.1.1-.2.1-.3 0-.1 0-.3-.1-.4-.1-.2-.3-.2-.3-.5s.1-.5.2-.8c.1-.3.1-.5.2-.8.1-.2.1-.4.1-.7 0-.3.2-.6.3-.9.1-.1.1-.3.2-.4 0-.1 0-.3.1-.4.1-.2.2-.2.1-.4-.1-.4.1-.7.1-1.1 0-.2 0-.3.1-.4v-.2l-.1-.1c0-.2.1-.2.2-.3.1-.1.1-.4.1-.5 0-.2.1-.5.2-.8s.3-.4.3-.7c0-.3 0-.5.1-.8.1-.3.1-.5.1-.7 0-.3.1-.5.1-.8l.3-.6c.1-.2.2-.4.2-.7v-.8c0-.1 0-.3.1-.4.1-.1.2-.1.2-.2 0-.2-.1-.4 0-.6 0-.1.1-.2.1-.3v-.4c0-.2.2-.4.2-.7.1-.5.2-1.1.4-1.6.1-.3.2-.5.3-.8.1-.2 0-.7.3-.6.1-.3-.3-.1-.3-.4 0-.2.2-.3.3-.3 0-.1-.2-.1-.2-.1 0-.1.1-.2.1-.2 0-.4-.1-.8.1-1.2.1-.1.2-.2.2-.4 0-.1-.1-.3 0-.4 0-.2.2-.2.3-.3v-.4c0-.3.1-.6.1-.8.1-.1.2-.2.2-.3 0-.1.1-.3.1-.4 0-.1 0-.4.1-.4.1-.1.1 0 .2-.1v-.2c.1-.3.1-.6.1-.8v-.4c.1-.1.3.1.3-.2 0-.2-.1-.4-.1-.6 0-.1.1-.1.1-.2v-.4c0-.2.1-.2.2-.3.1-.1.1-.3.1-.4 0-.1.2-.3.1-.4-.1-.1 0-.2.1-.3v-.3c0-.3.1-.5.2-.7.1-.3.1-.4.2-.6.1-.2 0-.5.2-.7.1-.1.2-.1.2-.2v-.5c0-.1.1-.2.1-.4v-.4c0-.2 0-.2.1-.3.1-.1.1-.3.1-.4 0-.1 0-.3.2-.4.1-.1.2-.1.2-.3 0 0-.1-.1-.1-.2 0-.2.1-.4.2-.5.1-.2.1-.2.3-.2.1-.1.1-.2.2-.3.1 0 .1 0 .2-.1v-.2c0-.2 0-.3.1-.4 0-.3.1-.4.4-.5-.1-.1.1-.4.2-.5.1-.1.1-.1.1-.3v-.3c.2-.4 0-.9.2-1.3.1-.2.4-.3.5-.5.1-.2.2-.6.1-.8 0-.3 0-.6.2-.8.3-.4.7-.5 1-.9.1-.1.1-.2.1-.3 0-.2.1-.2.1-.3v-.3-.3c0-.3 0-.5.1-.7.1-.3.4-.4.4-.7 0-.2 0-.3.1-.4 0-.1 0-.2.1-.2 0-.1 0-.1.1-.1.2-.2.2-.5.2-.8 0-.3.1-.5.2-.8.1-.3.1-.6.2-.9.1-.3.3-.5.4-.7.1-.3.3-.4.6-.5.1 0 .3-.1.4-.1.1-.1.1-.2.3-.2.2-.1.3-.4.4-.6 0-.2.1-.2.1-.4s0-.3.1-.4c0-.2.1-.2.2-.4l.2-.4c.1-.1.2-.3.2-.5.1-.2.2-.3.3-.4v-.3c.1-.3.2-.4.1-.6 0-.3-.2-.6-.1-.8.1-.3.3-.4.3-.7 0-.3-.1-.2-.2-.3-.1-.1-.2-.3-.2-.4 0-.3.1-.5.2-.8.1-.3 0-.6.1-.9 0-.2.1-.1.2-.3v-.4c.1-.3.2-.5.2-.9 0-.3 0-.6.1-.9v-.4c0-.2.1-.2.1-.4 0-.1 0-.3-.1-.4 0-.2-.1-.2-.1-.3l.3-.3c0-.1.1-.3.2-.4.1-.2.1-.5.1-.7 0-.3-.2-.5 0-.8.1-.2.4-.2.4-.4.1-.3-.1-.4-.2-.6-.1-.2 0-.5 0-.7.1-.6.5-1.1.8-1.6.3-.6.5-1.1.8-1.7.4-.6.6-1.1.9-1.8v-.4c0-.1-.1-.2-.1-.4-.1-.4.2-.7.4-1.1.2-.5.3-1.1.5-1.6.1-.3.2-.5.2-.8.1-.3 0-.6.1-.9.1-.3.3-.5.3-.9 0-.2 0-.3.1-.5s.3-.2.4-.3c.3-.2.4-.4.5-.7.1-.5.2-1.1.5-1.4.2-.2.4-.1.5-.2.2-.2.2-.4.2-.5 0-.2.1-.3.2-.5-.2-.3-.5-.5-.6-.8-.1-.3-.2-.8-.1-1.1.1-.2.2-.2.2-.3.1-.1.2-.3.2-.4.2-.3.4-.5.5-.8.1-.3.1-.7.1-1 0-.2 0-.4.1-.5 0-.1.2-.3.3-.4.1-.2.3-.3.4-.4.1-.2.2-.4.2-.6 0-.1.1-.4.1-.5 0-.2-.2-.2-.3-.4-.1-.3 0-.6.2-.8.2-.3.4-.5.5-.8.1-.2.4-.8 0-.8 0-.2.1-.5.2-.6.1-.2.2-.3.2-.5.1-.3.1-.1.3-.2.3-.1 0-.1-.1-.2s-.2-.2-.2-.4c0-.4.1-.7.2-1.1.1-.4.3-.8.4-1.1 0-.1.1-.1.1-.2.1-.1.1-.1.1-.2s.1-.3.2-.4c0-.3.1-.6.2-.9.1-.3.1-.6.3-.9.2-.3.2-.5.5-.7.3-.2.4-.4.3-.8 0-.2 0-.3.1-.5l.3-.3c0-.2-.1-.3-.1-.4 0-.2 0-.3.1-.5.1-.1.3-.2.4-.3.1-.1.1-.4.1-.5 0-.2-.2-.2-.2-.3 0-.1.2-.3.3-.4.1-.1 0-.3.2-.4.1-.1.3-.1.4-.2.1-.2 0-.3 0-.5s0-.2.1-.4l.3-.3c.1-.1.1-.4.1-.5 0-.3 0-.6.1-1 0-.2 0-.4.1-.6 0-.2.2-.2.3-.4v-.5c0-.2.2-.2.2-.4.1-.2 0-.5.1-.6.1-.2.2-.4.3-.5.1-.1.1-.3.1-.4.1-.3.2-.6.4-.8.1-.1.1-.3.2-.3.1-.1.3 0 .4-.1 0-.1.1-.1.1-.2.1 0 .1-.1.1-.1v-.1s.1-.2.1-.3v-.2c0-.1.1-.1.1-.2v-.2c0-.1 0-.1-.1-.1-.1-.1 0-.3.1-.4.1-.1.1 0 .1-.1s-.1-.1.1-.1.2 0 .3-.2c0-.1.1-.3.1-.4v-.9s0-.3.1-.4c.1-.1.2-.1.2-.2.1-.2.1-.4.1-.6 0-.2 0-.3.1-.5 0-.1.3-.6.4-.7l.1-.1c.1-.1 0-.1 0-.1v-.4c0-.1 0-.3.1-.4 0-.2.1-.5.3-.6.1-.1.2-.2.2-.3 0-.1.3-.5.4-.6.1-.1 0-.3 0-.4.1-.3.1-.5.3-.8.1-.2.5-.6.3-.7.2-.7.9-1 1.1-1.7.1-.4.3-.7.5-1 .1-.1.3-.4.2-.5 0-.2-.3-.2-.2-.4.2 0 .5-.6.6-.8.3-.4.1-.7.3-1.1.1-.2.3-.3.4-.5.1-.1.1-.2.2-.2s.1-.1.2-.2.1-.2.1-.3c0-.1.2-.1.2-.2.1-.2.1-.5.1-.7 0-.2.2-.4.1-.5 0-.3-.3-.3-.2-.6 0-.2 0-.6.1-.8 0-.1.4-.3 0-.5 0-.3.3-.7.4-1 .2-.4.3-.7.5-1.1.2-.4.3-.9.5-1.3.1-.2.2-.3.3-.5.1-.2.1-.5.2-.7.2-.4.5-.7.6-1.2 0-.1 0-.3.1-.3 0-.1.2-.1.2-.2.1-.2 0-.5.1-.7.5.1.1-.5.4-.6v-.4c0-.1.1-.1.2-.2.2-.4.4-.7.5-1.1.1-.2.2-.1.2-.3 0 0-.1-.2-.1-.3.1-.2.2 0 .3-.2.1-.1.1-.2.1-.3 0-.3 0-.6.3-.7v-.3c.4 0 .7-1.4.8-1.7l1.5-3.3c.3-.6.5-1.3 1-1.9-.1-.1-.1-.1-.2-.1 0-.2.2-.4.3-.5.2-.3.2-.3.3-.6.1-.3.3-.8.5-1.1.1-.1.1-.1.1-.2.1-.1.1 0 .2-.2s0-.4.1-.6c.2-.4.2-.7.5-1.1.3-.5.4-.9.7-1.4.1-.1.1-.2.2-.3v-.3c.1-.2.3-.4.3-.6.1-.1.1-.3.1-.4 0-.1.2-.1.2-.2l.3-.6c.1-.2.1-.5.2-.7.2-.3.4-.6.5-.9.1-.2.1-.2.1-.4.1-.4.3-.6.5-.9.2-.4.4-.7.6-1 .1-.2.4-.3.5-.4.2-.2.2-.3.5-.3.1-.3-.1-1.7.5-1.4 0-.2 0-.5.2-.7.1-.1.4-.3.5-.4-.5-.4.1-.7.5-1l-.1-.1c.1-.1.3-.1.4-.3.1-.2 0-.4.1-.5.1-.4.4-.5.6-.8.2-.3.3-.7.6-.9.3-.1.2-.2.3-.4.1-.4.4-.7.5-1 .5-.6 1-1.2 1.4-1.8.1-.1.1-.3.3-.4.1-.1.3 0 .3-.1.1-.1.2-.4.3-.5.1-.3.1-.4.3-.6l.5-.5c.1-.2.3-.3.4-.4.2-.2.3-.5.5-.7.1-.2.2-.3.4-.4.2-.1.4-.2.5-.4.1-.2 0-.3.3-.3 0-.2-.1-.2 0-.4l.3-.3c.1-.1.2-.2.3-.4.1-.1.1-.2.3-.3.1 0 .3-.1.3-.2.1-.2 0-.2.1-.3.1-.1.3-.1.4-.2.1-.1.1-.2.2-.4.1-.1.3-.1.3-.2v-.2l.1-.1c.2-.2.5-.5.5-.8h.9c.4 0 .1-.4.3-.6.1-.1.2-.1.3-.2l.3-.3c.1-.1.1-.2 0-.3-.1-.2-.1-.1 0-.3.1-.1.2-.2.3-.2s.2.2.2.3c0 .2-.1.2-.2.3-.1.1-.1.1-.1.2s.1.1.2.1c0 .2.5-.1.5-.2.1-.1.1-.2.2-.3l.3-.3c.2-.3.1-.4-.1-.6-.1-.1-.1-.3 0-.5.1-.1.4 0 .5-.2 0-.1-.1-.3 0-.4.1-.1.3.1.2.2-.1.1-.3.2-.1.3.1.1.3 0 .4 0 .1-.1.1 0 .1-.1v-.2s-.1-.2 0-.2c.1-.1.1.1.1.1.2-.1.1-.3.1-.4.1-.1.2-.1.4-.1h.2s.1-.1.2-.1c0 0 .2.1.3.2.1 0 0 .1.1.1 0 .1.1 0 .2 0 0 0 0-.1.1-.2l.1-.1c.2-.1.1-.1.2-.3.1-.1.2-.2.2-.3v-.5c0-.1.1-.2.2-.3.2 0 .3.3.3-.1 0-.2 0-.5.2-.4v-.3c.1-.3.2-.5.1-.8-.1-.3-.2-.5 0-.8.1-.2.3-.4.5-.5h.2l.1-.1c.2 0 .2.1.3.1 0-.3-.3-.4-.2-.6 0-.1.1-.2.2-.3.1-.1.2-.2.3-.2.1-.1 0-.3.1-.4 0-.1 0-.1.1-.2s.1 0 .2-.1.1-.3.2-.3c.1-.1.2-.2.2-.3v-.2c0-.1.1-.1.1-.2.1-.1.2-.2.2-.3.2-.2.4-.3.5-.5.1-.3.3-.5.4-.8 0-.2 0-.2.1-.3.1-.1.2-.3.3-.4 0 0 .1 0 .1-.1.1-.1.1-.2.1-.3.1-.2.3-.4.3-.6.1-.3.1-.5.2-.7.1-.1.2-.1.2-.3 0-.1.1-.2.1-.3v-.4c0-.1.1-.2.1-.4.1-.2.1-.5.2-.7 0-.3.1-.6.1-.9 0-.1.1-.3.1-.4 0-.1 0-.3.1-.4-2.3 2.1-2.3 2.1-2.4 2.1M411 576.7c.4.4 0 .8.1 1.3 0 .4.3.9.5 1.2.1.4.3.7.4 1.2.1.4.5.7.5 1 .4.2.2.4.4.5.2.2.2.1.5.3.5.1.8.3 1.2.5.8.4 1.8.4 2.7.5.2 0 .6.1.7.1.4 0 .4-.2.7-.3.4-.1 1 0 1.4-.1.2-.1.2-.4.4-.5l.6-.3c.4-.2.8-.4 1.1-.6.7-.4 1.3-.7 1.9-1.1.4-.3.9-.5 1.2-.8.4-.4.5-.6.9-.9.4-.2.8-.4 1.1-.6.6-.4 1.2-1.1 1.7-1.6.4-.4.2-.9.8-.6.3.1.9.3 1.2-.1.3-.4 0-1.1.5-1.5.1.4.4.6.7.6.1-.1.4 0 .5-.1.1-.1.2-.3.2-.4 0-.6.3-.9.3-1 .1-1.1-.7-.5-1.3-.4-.5 0-.3.1-.3-.4v-1c.2-.5.6-.9.8-1.4.2-.5-.1-1.1.1-1.6.1-.2.3-.3.3-.6s.1-.5.1-.8c0-.5 0-1.1.2-1.6.1-.2.2-.4.1-.7-.1-.3-.3-.3-.2-.6v-.1c.2 0 .2-.6.3-.7.2-.4.2-.6.3-1 0-.3.1-.6.1-.9 0-.2.4-.8 0-.8-.2-.6.2-1.6-.4-2.2.2-.6.5-.9.3-1.5-.1-.3-.1-.6-.2-.9 0-.1-.1-.1-.1-.3 0-.3.3-.6.3-.9 0-.1.1-.3.2-.4 0-.2-.1-.4-.1-.5 0-.2.1-.3 0-.4h-.2c0-.5-.1-1.1-.1-1.6 0-.3.1-.4.2-.6.1-.2.1-.4.1-.7.1-.5.1-1.1.1-1.5 0-.3.1-.4.2-.7.1-.2 0-.5.1-.7.1-.5.1-1 .2-1.6 0-.5.3-.8.4-1.3 0-.5-.1-1 0-1.5.1-.4.5-.7.4-1.2-.1-.4-.2-1.2 0-1.5h.2c.1-.2 0-.5 0-.8 0-.2.2-.5.3-.6.2-.4.2-.8.3-1.3.1-.5.2-1 .1-1.5s0-1 0-1.5-.2-1.1.1-1.5c0-.1.2-.2.3-.3.4-.6.3-1.3.3-2 .1-.3-.1-.4.1-.7.1-.2.4-.3.5-.4.2-.3 0-.8 0-1.3v-1.4c0-.6-.1-.9.1-1.4l.3-1.4c.1-.9-.2-1.9-.2-2.8 0-.4-.1-1 0-1.4.1-.4.5-.7.6-1 .2-.4.2-1 .3-1.4.1-.4.4-.9.4-1.4 0-.5-.3-.9-.1-1.4.1-.2.3-.2.4-.5 0-.3-.1-.4-.2-.7-.1-.6.1-.6.3-1.2.1-.5.1-1 .1-1.5 0-.2.1-.3.1-.5 0-.1-.2-.2-.3-.4 0-.3.1-.6.2-1 .2-.6.5-1 .7-1.6.1-.2.4-.8.4-1 0-.4-.5-.5-.5-1 0-.2.1-.9.2-1.2.2-.3.5-.5.5-.7 0-.2-.2-.2-.3-.2-.3-.2-.4-.8-.6-1.1-.3-.5-.5-1.1-.6-1.7-.1-.4-.1-1.6.2-1.9.4-.4 1.6 0 1.5-.6-.8 0-.8-.7-1.4-1.2-.3-.2-.4-1.4.2-1.5v-.1c-.1-.2-.2-.2-.3-.6-.1-.4-.3-.7-.4-1.1-.2-.7-.2-1.3-.6-1.9-.3-.4-.5-.7-.9-1-.8-.6-.8-.9-1-.9-.4 0-.8-.3-1.2-.3-.5 0-1.1-.1-1.6-.2-.9-.1-1.8.3-2.8.5-1.6.4-3.3 1.2-4.7 2.2-.5.3-.9.7-1.4 1-.5.2-1 .4-1.3.8l.2.2c-.3.1-.5.1-.8.3-.2.1-.4.3-.5.5-.3.3-.9.8-1 1.2-.6.2-1.2 1.1-1.6 1.7-.5.7-1.1 1.4-1.4 2.2-.7 1.6-1.3 3.2-2 4.8-.3.6-.5 1.2-.7 1.8-.2.4-.1 2-.5 2 0 .1 0 .1-.1.2.5.9 0 1.6-.2 2.6-.2 1.1-.3 2.1-.3 3.2.1 1.2-.2 2.2-.2 3.3 0 1-.4 1.9-.4 2.8-.1.6-.5 3.2 0 3.4.1.6-.3.6-.4 1-.1.3.2.9.2 1.2 0 .7-.1 1.7-.2 2.4 0 .4-.1.8-.1 1.2-.1.3 0 .7 0 .9-.1 1.6.1 3.8-.5 5.3.2.2 0 1.4 0 1.8-.1.7-.2 1.4.1 1.9-.2.7 0 1.5-.2 2.2-1.2-.9-.3 1.6-.2 1.9 0 .4-.2.9-.3 1.3 0 .4.3.9.2 1.4-.1.9-.3 1.8-.5 2.7-.2.9-.3 1.9-.4 2.8 0 .2-.1.4-.1.6.1 0 .2.1.3.1.1.7-.1 1.5-.1 2.3 0 1.7-.4 3.3-.3 5.1 0 .5-.1.9-.2 1.4-.1.4 0 .9.1 1.4 0 .5 0 .8-.1 1.3-.1.4-.1.7-.1 1.3 0 1-.3 1.9-.3 2.8V574.9c.2.4.4 1.4.2 1.8m32.6-120.1c-.2-.2 0-.3.2-.2-.1-.2.2-.4.3-.6.2-.2.2-.2.5-.3.4-.1.7-.4.9-.7.1-.1.1-.2.2-.3 0-.1.2-.1.2-.2.1-.3-.2-.4-.1-.6.1-.3.3-.3.5-.4.4-.1.4-.1.6-.4.1-.1.3-.5.5-.5.1-.2.2-.4.3-.7.1-.1.1-.1.2-.3v-.4c.1-.2.1 0 .3-.1.2-.1.1-.1.2-.3.1-.4.5-.5.7-.8.2-.3.2-.5.2-.9s.1-.3.2-.5c.1-.1 0-.2.1-.3h.3c0-.2-.3-.2-.3-.4s.1-.4.2-.5c0-.1-.1-.2-.2-.2v-.6c.1-.1.2-.2.3-.4.3-.6.1-1.1-.1-1.6v-.6c-.3 0-.4-.5-.4-.7 0-.5-.1-.7-.5-.9 0-.2 0-.3-.1-.5s-.1-.3-.2-.5c0-.1-.1-.2-.1-.3v-.3c-.1-.2-.3-.2-.3-.4-.1-.2 0-.3-.1-.5s-.2-.3-.2-.5c-.2-.4-.2-.8-.6-.5 0-.1 0-.2-.1-.2-.2 0-.4-.1-.6-.2-.1 0-.1-.1-.2-.2 0 0-.2 0-.3-.1-.2 0-.4-.2-.6-.2-.1 0 0 .2-.2.2-.1 0-.1-.2-.1-.2-.5-.2-.8.1-1.2.1-.2 0-.4-.1-.6 0-.2 0-.5.1-.7.2h-.4c-.1.1 0 .2-.1.3-.1.1-.5 0-.7 0-.5.1-.8.3-1.3.5-.2.1-.4.3-.6.4-.3.1-.5.1-.7.2-.4.2-.7.5-1.1.6-.3.2-.5.2-.8.4-.2.2-.5.4-.7.5l-1.9 1.6a7 7 0 0 1-1 .8c-.4.3-.8.2-1 .6-.2.5-.4.5-.8.8-.2.3-.5.4-.8.6a5 5 0 0 0-1.1 1.7c-.1.2-.2.3-.4.4-.1.1-.5.3-.5.4-.1.2 0 .5 0 .7 0 .3 0 .4-.2.7-.1.2-.2.4-.4.6-.1.2-.3.3-.4.5 0 .1 0 .2-.1.4-.1.1-.2.1-.2.2-.1.2 0 .5-.1.7-.1.3-.3.5-.4.8-.1.1-.1.3-.1.4-.1.2-.2.2-.2.3-.2.3-.1.6-.1.9 0 .4-.1.6-.1.9-.3.1-.2.2-.1.4 0 .1.1.1.1.2s-.1.2-.1.2c0 .2.2.3.1.5 0 .2-.2.2-.2.4.1.1.3.1.3.3.1.2 0 .4 0 .6.1.4.3.6.3 1v.4s.2.2.2.1.1-.1.1-.2c.2.1.1.4.3.5 0 .1.4.3.5.2.1.4-.1.6.3.9.2.2.4.3.5.5.2.1 0 .2.3.2h.5c.3 0 .6 0 .7.2-.1.1-.2.2-.2.3.1 0 .2.2.2.3.3 0 .4-.3.7-.2.1 0 .1.1.1.1.2 0 .3 0 .5.1.2 0 .3.1.5 0 .2 0 .2-.2.4-.2v.2c.4 0 .5.3.8.3.2 0 .3-.2.6-.2.2 0 .3.1.5 0 .1-.1.1-.3.2-.4.1-.1.5-.3.7-.3 0 0-.1.1-.1.2.2.1.4.1.5 0-.1-.3.3-.2.3-.4.2-.1.4-.3.7-.3-.3-.5.9-.2.9-.6.2-.1.2-.3.4-.4.2-.1.3-.1.5-.2.1 0 .1-.1.2-.2.1 0 .2-.1.3-.1.1-.1.2-.3.4-.4.2-.1.3-.2.5-.3.1-.1.1 0 .2-.2.1 0 .1-.1.2-.2.2-.2.4 0 .6-.1.1-.1.2-.3.4-.3 0-.1 0-.1.1-.1.2 0 .4 0 .5-.2.1-.1.1-.4.4-.4 0-.2.9-.6.9-.7-.4.3.2.2.4.1m60.2 14.7c-.2-.1-.3-.4-.3-.6 0-.2.2-.3.2-.5h-.1l-.3-.6-.2-.2c-.1-.1.1-.1 0-.2l-.2-.1c0-.1-.1-.2-.1-.2l.1-.1c-.1-.2-.1-.1-.2-.2s-.3-.4-.3-.5c-.1-.1 0-.3 0-.4 0-.1-.2-.1-.2-.3 0-.3.1-.4-.1-.6-.1-.2-.3-.3-.4-.4-.2-.2-.2-.3-.3-.5-.1-.1-.1-.2-.2-.3-.1-.1 0-.2-.1-.4s-.3-.3-.4-.5c-.3-.4-.5-.6-.9-.8-.2-.1-.4-.3-.6-.4-.2-.1-.5-.1-.7-.2-.5-.2-1-.4-1.5-.4 0 0-.1.1-.2.1h-.4c-.3 0-.4.1-.6.1-.3 0-.5 0-.7.1-.2.1-.5.1-.7.2-.3 0-.4 0-.6.2-.1.1-.3.1-.3.1 0 .1-.1.1-.1.1-.1.1 0 .2-.1.2-.2.1-.5.2-.7.2-.2 0-.4-.3-.5-.1-.1.1-.1.2 0 .3v.2c-.1 0-.3.2-.4.2-.1 0-.1-.3-.2-.4 0 .1-.1.1-.1.2-.2.1-.3.2-.5.2 0 .2.2.2.3.3-.1.1-.5.3-.6.3-.1.1-.1-.2-.2-.1-.1 0-.2.1-.2.1-.1 0-.2.1-.4.1-.2.1-.4.2-.5.2-.2 0-.4 0-.5.3-.5-.1-.4.4-.6.6-.3.2-.8-.1-1 0 0 .1-.2.2-.3.1v.2c-.4 0-.9-.1-.8.4.2.1.4-.2.5-.2.1 0 .1.2.1.3-.4.1-.7.2-1.2.2s-.9.3-1.1.3c-.3 0-.3.4-.6.6-.5.3-1 .3-1.4.4-.5.1-1 .5-1.5.6-.2 0-.3.1-.5.2-.3.1-.4.1-.7.1-.3 0-.8 0-1 .3-.8.1-1.6.1-2.4.2-.4.1-.7.1-1.1.2-.4.1-.6.2-1.1.2 0 .2-.1.3-.3.3.2-.3-.2-.3-.3-.2v-.1c-.6.2-1.2.4-1.8.5-.6.2-1.1.5-1.7.6-.2.1-.4.2-.5.4-.2.1-.4.2-.6.2-.3.1-.4.2-.6.3-.3.1-.5.1-.7.3-.2.1-.4.3-.5.4-.2.1-.4.3-.5.4-.1.1-.2.1-.3.1-.1.1-.2.2-.3.2-.7.5-1.3 1-2 1.7l-.9.9c-.3.3-.5.7-.7 1l-.2.2c-.1.1-.2.1-.2.2-.2.2-.2.3-.3.5-.2.4-.4.7-.5 1.1-.2.4-.3 1-.5 1.4-.2.4-.4.8-.5 1.3-.1.3-.1.5 0 .8-.4.3-.4.8-.5 1.4-.1.6-.3 1.2-.4 1.8-.3.9-.4 1.9-.4 2.9 0 .9-.1 1.7-.2 2.7 0 .5 0 .9-.1 1.4 0 .2 0 .5-.1.7 0 .2-.2.4-.2.6.4 0 .2.6.2.8v1c.1.8-.1 1.6-.1 2.4 0 1-.3 1.9-.2 2.8 0 .3.1.5.1.8 0 .2-.1.4-.1.6 0 .5-.1.9-.2 1.5 0 .5-.1 1.1-.1 1.6s.1 1.1 0 1.6c0 .5-.1 1-.1 1.6 0 .5-.1.9-.2 1.4-.1.5-.2 1.1-.2 1.7v.8c0 .3-.3.4 0 .6-.3.1-.2.8-.2 1.1v.9c0 .1.1.3.1.4 0 .2-.1.2-.1.3 0 .1 0 .3-.1.4-.1.2-.3.4-.4.6-.1.5-.2 1-.5 1.5-.5 0-.5 1.3-.1 1.4 0 .2.2.5 0 .6.2.2-.4.7.1.7.1.2-.5 2 0 1.9.1 0 0 .7-.1.7-.2.3-.4.4-.5.6-.1.3.2.5.3.8.2.5-.3.9.1 1.3.2.2.2.2.2.5 0 .1.1.3 0 .4 0 .1-.1.2-.2.3-.1.2-.1.5-.2.7l-.3.6c-.1.2 0 .5 0 .7 0 .3-.1.5-.1.8 0 .3.1.5 0 .8 0 .2-.2.4-.3.6-.1.4.1.4.2.6.1.2.1.4.2.6.3.5.2 1 .1 1.6v.1c.1.4.2.8-.1 1.3-.2.3-.1.2 0 .5s.2.7.2.9c0 .5-.1 1-.2 1.5 0 .5 0 1-.1 1.5-.1.4-.5.7-.5 1.2 0 .3 0 .5-.1.7-.1.3-.2.4-.1.6.2.4.4.4.3.9 0 .3-.1.5-.1.7-.1.5.1 1 .1 1.5s.1 1 0 1.5-.1 1-.1 1.6c0 .5 0 1.1.1 1.6s0 1.1.1 1.5c.1.2.2.4.2.5.1.2.1.4.1.6 0 .2.2.4.2.6 0 .1 0 .3.1.4.1.1.2.1.3.2.1.1.1.3.1.5s.1.3.2.4c.2.3.3.3.5.6l.3.3c.1.1.2.2.3.4 0 0 .1.2 0 .2.1.1.1.1.2.1.1.1.3.2.4.2.1-.1.1 0 .2 0v.4c.3 0 .5.3.7.4.3.1.5.2.7.3.1-.4.8.1 1.1.1.5 0 1 0 1.4-.1.1 0 .1 0 .3-.1.1 0 .1-.1.2-.2.2-.1.5 0 .7 0 .4 0 .8-.3 1.2-.5.2-.1.8 0 .9-.3.2 0 .4 0 .6-.1 0-.4 1-.3 1.3-.5.4-.3.7-.4 1.1-.6.2-.1.3-.3.5-.4.1-.1.2-.1.3-.1.1 0 .2-.2.2-.2.1-.1.2 0 .3-.1.1-.1.1-.2.2-.3.1-.1.4-.1.5-.3.2-.1.3-.2.5-.3.3-.1.3-.2.5-.4.1-.2.3-.2.4-.3.2-.1.3-.4.5-.4.2-.1.5.1.6.1.2-.1.1-.4.2-.6.1-.1.2-.3.3-.4.5-.4 1-.8 1.4-1.3.2-.2.2-.3.4-.5l.4-.4c.3-.3.5-.8.6-1.2.2-.4.5-.7.6-1.1.2-.4.3-.8.5-1.2.1-.2.3-1.1.6-1.1v-.4c0-.1.1-.3.2-.4l.3-.9c.1-.5.2-1.1.2-1.7 0-.5.1-1.1.1-1.6s.1-1 .1-1.4c-.1-.2-.1-.4-.1-.7 0-.2.1-.4.1-.6.1-.4-.1-.9.1-1.4.3 0 .4-.5.5-.7.1-.4 0-.7-.1-1-.1-.3-.3-.7-.2-1 .1-.3.2-.2.3-.4.1-.2 0-.2-.2-.2-.1-.4 0-1 0-1.4V531v-1.8-.9c0-.2.2-.5.2-.7-.1-.1-.5-.5-.1-.5.1-.2 0-.5 0-.7 0-.3.1-.5.1-.8v-.8-.7c0-.5.1-1 .1-1.5s.1-1.1.1-1.6c0-.4 0-.4.2-.7-.2-.1-.2-.5-.2-.8.5 0 .2-.8.2-1.1 0-.5 0-1 .1-1.5.1-.4.4-.7.5-1.1 0-.2-.2-.3-.3-.5-.1-.2-.1-.4-.1-.6 0-.5 0-1 .1-1.5.1-.4.3-.9.2-1.3-.1 0-.2-.1-.2-.2.1-.1.1-.2.1-.3-.2 0-.3-.2-.1-.3 0 0 .1 0 .1.1.2-.1.1-.5.1-.7 0-.3.2-.5.2-.8-.3-.1-.2-.4-.1-.7l.2-.4c.1-.1.2-.2.2-.4.5-.2.1-.7-.2-.8-.1-.2.4-.2.5-.3.3-.3.1-.4.4-.3.1 0 .1.1.3 0 .1-.1.2-.2.2-.3 0-.2-.2-.4-.2-.6-.1-.3-.1-.5-.1-.7-.1-.3-.1-.4-.1-.7 0-.2.2-.4.3-.6.1-.2 0-.5.1-.7.1-.3.5-.5.7-.7.3-.3.1-.4 0-.7 0-.2 0-.6-.1-.8 0-.2.1-.6.1-.7.2-.4.4 0 .5-.3-.1-.2-.4-.1-.5-.3 0-.2.1-.5.2-.6.2-.4.7-.3.9-.7-.3-.3-.3-.4-.3-.8s.1-.6.3-.9c.1-.3.3-.5.4-.8.1-.2.2-.7.5-.7.1-.2.1-.4.2-.6.1-.2.3-.4.4-.6.3-.4.6-.8.8-1.2.3-.3.5-.7.8-1l.8-1.1c.3-.4.5-.8.8-1.2.2-.2.5-.3.5-.6.2-.1.1-.2.3-.3.1 0 .3 0 .5-.1l-.1-.1c.2-.1.4-.2.5-.4l.5-.5.2-.2c.1-.2.1-.3.3-.4.1 0 .2.1.4 0 .1 0 .2-.2.2-.3.2.1.2-.2.3-.3.1-.1.3-.1.4-.3v-.1c.3-.2.5-.4.7-.5.2-.1.6-.4.6-.6.3 0 .7-.3.9-.5.3-.3.7-.6.9-.8.2-.2.3-.3.5-.4.1 0 .1-.1.2-.2s.2-.1.3-.1c.2-.1.3-.3.5-.4.2-.2.4-.2.6-.3l1.1-.7c.3-.3.4-.5.7-.8.1-.1.2 0 .3-.1 0 0 .1-.2.2-.3.2-.1.3-.1.5-.2.5-.4.8-1.4 1.5-1.5.2-.4.3-.7.5-1.1.1-.2.2-.4.3-.5.2-.2.3-.2.5-.3.2-.2.2-.4.2-.6 0-.2.2-.3.3-.5.2-.4.3-.8.3-1.3-.5.1-.1-1.3-.1-1.5 0-.3 0-.4.1-.8-.4-.1-.3-.3-.3-.6m103.8-61.1c-.1 0-.9.8-1 .9-.1.1-.2.1-.4.2-.1.1 0 .2-.2.3-.1.1-.4.3-.4.3-.1 0-.1.1-.1.2 0 .2-.2.1-.3.2l-.7.8c-.1.1-.5.6-.7.8-.1.1-.2.5-.3.6 0 0-.1 0-.1.1-.1 0-.4.4-.3.5 0 .1-.2 0-.2.1-.1.2 0 .4-.1.5-.1.1-.6.8-.6.9 0 .1.1.2.1.4 0 .1-.4.6-.3.6 0 0 .1 0 .1.1s-.2.2-.3.2c-.1 0-.1 0-.1.1s.1.1 0 .1v.2c0 .2-.2-.1-.2.1 0 0 .1 0 0 .1 0 .1-.1.1-.1.2s0 .4-.1.5c0 .1-.1.2-.1.2-.1.1-.3.4-.3.4v.4s-.1 0-.1.1c-.1 0-.1.2-.2.6 0 .1-.3 1.2-.3 1.2h.1c.1.2-.2.4-.1.5 0 .1 0 .8-.1.9-.1 0-.1 0-.1.1s0 .1.1.1.2.2.1.4c0 0-.1 0-.2.1s.2.1.2.2-.1 0-.2.1 0 .3 0 .4c0 .2 0 .8-.1 1 0 0-.3.5-.3.6 0 .1.2.3.2.4v.6c0 .1-.1.1-.1.1-.1.2-.1.6-.1.6-.1.1-.2.6-.2.7v.7c-.1 0-.1-.1-.1-.1-.1 0 0 .1 0 .1l.1.1c0 .1-.1 0-.1 0-.1 0 0 .3 0 .4 0 .1-.1.2 0 .3h.2c.1.1 0 .1 0 .2-.1 0-.1 0-.2.1s-.1.3-.1.5c0 .1-.1.3-.1.4v.4c0 .1.1.1.1.2s0 .3-.1.3-.1 0-.1.1v.5c0 .2-.1 1.2-.1 1.3 0 .1-.1.6-.1.8 0 .1-.2.3-.1.4 0 .1 0 .1.1.2v.4c-.1 0-.1-.1-.2 0-.1 0 0 .1 0 .2 0 .2.1.3 0 .5 0 .2-.1.8-.1.9 0 .1-.1.6-.1.7v.9c0 .1-.3.2-.1.3h.2c0 .1 0 .1-.1.1s-.1 0-.1.1-.1.3-.1.4c0 0 .1 0 .2.1.1 0 .2.1 0 .1-.1 0-.1-.1-.2-.1 0 0-.2-.1-.2 0s.1.1.1.2c.1.1.1.1.1.3v.3c-.1.1-.1.2-.1.3 0 .1.2.2.2.4-.1.1-.2 0-.3 0-.1 0-.1.1-.1.2.2 0 .1.1.1.3 0 .1.1.2.1.3.1.4-.1.7-.1.9 0 .1-.2.4-.2.5-.1.1-.1.8-.1.9 0 .1.1.1 0 .2 0 .1-.1.1-.1.2v1c-.1.1-.1.5-.1.5s-.1 0-.1.1c-.1.1.2.3.3.4 0 .1 0 .2-.1.2h-.2c-.1.1-.1.3-.1.4.1.4 0 .6 0 .7 0 .3-.2.6-.2.7 0 .1 0 1 .1 1 0 .1.1.3.1.4-.1.1-.2 0-.3.2 0 0 .2.1.2.2s-.1.1-.2.2v.2h.1c0 .1.2.3.2.3 0 .2-.2.1-.3.1-.1 0 0 .1 0 .1v1.4c0 .1-.1.7-.2.7-.1.1-.1.3-.1.4 0 .1.2.2.2.3 0 .1-.2.2-.2.2v.2s.1 0 .1.1c.1.1.1.1 0 .2 0 .1 0 .1-.1.1h-.1c-.1.4 0 .7 0 .8-.1.2-.1 1.3-.1 1.4 0 .1-.2.2-.1.3 0 .1.1.3.1.4 0 .2 0 .3-.1.4-.1.3-.1 1-.2 1.1 0 .2-.1 1.4-.2 1.6-.1.2 0 .7 0 .8.1.2-.2.7-.2.9 0 .1-.2 1.4-.2 1.5.1.2-.1.4-.2.5-.1.2 0 .2.1.3s0 .3 0 .4c0 .1-.1 1.4-.2 1.5v.5c0 .1-.2.2-.2.3 0 .1.1.1.1.1 0 .2-.1.5-.1.6-.1.1-.4.3-.1.4.1 0 .2.2.1.3h-.1c0 .1.1.1.1.1.1.1-.1.5-.1.6v.8c0 .6-.3 2.3-.3 2.5-.1.5-.3 1.1-.2 1.6 0 .6 0 1.1-.1 1.7-.1.4-.1 1.2-.1 1.5 0 .6 0 1.2-.1 1.7-.1.3-.2.5-.3.8v.6c-.1.2-.1 2.4-.2 2.6-.1.5 0 1.2 0 1.7 0 .3-.1.5-.1.8 0 .5.1 1 .3 1.4l.5 1.4c.2.4.3.7.5 1 .3.4.7.6 1.1.9.2.2.6.3.7.6.6.1 1.3.3 1.4.3.5.2 1.3.2 1.6.2.5 0 1.3.1 1.7-.1.3-.1 2.2-.6 2.3-.7.4-.3 2.1-1.1 2.3-1.3.5-.4.9-.5 1.4-.8.1-.1.2 0 .4-.1.1-.1 0-.2.1-.3.2-.1.5 0 .7-.2 0 0 .9-.8 1.1-.8.3-.1.5 0 .7-.2.1-.1.1-.2.2-.3s.3-.1.4-.2c.4-.3.6-.6.8-1 .3-.5.8-.7 1.2-1.1.3-.3 1.2-1 1.4-1.6.2-.4.4-.7.6-1.1.2-.3.2-.6.2-.9 0-.4.3-.2.6-.4.4-.2.4-.6.4-1s.2-.8.2-1.2c-.3.2-.4-.2-.1-.2 0 0 .2 0 .2-.1 0-.3.1-.5-.1-.6-.2-.1-.1-.4-.1-.5 0-.2.2-.4.4-.5 0-.1.2-.1.1-.3 0-.1-.3 0-.3-.1 0-.2-.1-.4.1-.5.2-.2.2-.5 0-.7-.2-.3-.3-.3-.4-.4-.2-.2-.2-.5-.2-.8.1-.5.1-1.1.1-1.6.1-.5 0-1.1 0-1.6v-.7s.2-.1.2-.2 0-.2-.1-.2-.1-.2-.1-.3c0-.1.2-.2.2-.3 0-.2-.4-.2 0-.4-.3-.3.1-1 .1-1.4v-.8c-.1-1 .1-2.3.1-2.6 0-.6-.1-1.1.1-1.7 0-.1.1-.3.1-.4-.1-.1-.2-.1-.2-.3 0 0 .2-.1.2-.2.1-.1 0-.2 0-.4s.2-.5.2-.7c0-.1-.1-.3-.1-.3 0-.1 0-.3.1-.4.1-.1.1 0 .1.1s.1 0 .2 0 .9.4.9.6c.1.1.2.2.3.1.1-.1 0-.3 0-.4 0-.1-.1-.2 0-.4 0-.1 0-.4-.1-.3-.1 0-.1.2-.3.2-.1 0-.5-.2-.5-.2-.1-.1 0-.3 0-.3.2-.1.1-.4 0-.4 0 0-.1 0-.1-.1s.1-.1.1-.1c.1-.2-.1-.1-.2-.2h-.4c-.2-.1-.1-.3 0-.4 0-.1-.1-.4-.1-.4 0-.1.2-.2.4-.2.1 0 .2.2.2.2.1.1-.1.2-.1.3-.1.2.2-.1.2-.1.1 0 0 .1.2.1.1 0 .4.1.3.2l-.1.1s.1.1.2.1h.2c.1 0 0-.1 0-.2s.1-.3.1-.4c.1-.1.2-.1.2-.3 0-.2-.1-.2-.2-.3-.1-.1-.1-.3-.2-.4 0-.1-.2-.2-.3-.2-.1-.1-.6-.3-.7-.4-.1-.1-.2-.2-.2-.4v-.4c0-.1-.1-.2 0-.3.1-.1.1-.3 0-.4-.1-.3-.2-.6-.2-.8 0-.1.1-.3.2-.3.1-.2.3-.1.3-.2.2-.1-.1-.2-.1-.3-.2-.4-.3-.8-.3-1 0-.3.3-.3.5-.3.1 0 .3.1.3.1.2 0 0-.2 0-.3 0-.1.2-.1.1-.3 0-.1-.1-.2-.2-.3-.1-.2.3-.4.5-.4.1 0 .2.1.3 0 .1-.1.1-.2 0-.3-.1-.2-.3-.2-.4-.4-.1-.3 0-.6.2-.8.1-.1.2-.2.2-.3v-.5c-.2.1-.2-.1-.3-.3-.1-.1-.1-.3-.1-.4 0-.2.1-.4.2-.4s.4.1.3-.2c-.1-.2-.4-.3-.5-.5 0-.1.1-.2 0-.3 0-.1-.2-.1-.2-.2l-.1-1c0-.1.2-.1.2-.2s-.1-.1-.1-.2.1-.2.1-.2c.1-.1.4-.2.4-.4 0-.1 0-.3-.1-.4-.1 0-.2.1-.3.2 0 .1-.2.3-.3.2-.1-.1.1-.2.1-.3.1-.2-.1-.2-.1-.3 0-.1 0-.3.1-.4 0 0 .2-.3.2-.4.1-.1.2-.1.3-.2 0-.1-.1-.2-.2-.2h-.1c-.1 0 0-.1-.1-.1-.1-.1-.2 0-.2-.2-.1-.2 0-.5 0-.7v-.4c0-.1.2 0 .2-.2 0-.1 0-.2.1-.4l.1-.1c0-.2-.2-.2-.4-.2-.1 0-.1-.4.2-.5.1 0 .3-.2.4-.3.1-.1-.1-.1-.1-.2s.1-.1.1-.2h-.1s-.1 0-.2-.1l-.3-.3c-.1-.1-.1-.2-.1-.4 0-.1.1-.6.1-.7 0-.3.2-.4.3-.6.1-.2.1-.6.2-.7v-.1s0 .1.1 0v-.2c0-.1-.1-.2-.2-.3l-.2-.2c0-.1.1 0 .1-.1s-.1-.1-.1-.1c0-.1.1-.2.1-.2s-.1-.1 0-.1c0-.1.2 0 .1-.1 0-.1-.1-.1-.2-.1 0 0-.1 0-.1-.1l-.1.1c-.1 0 0-.1 0-.2 0 0 .2 0 .1-.1-.1 0-.2.1-.2 0l.1-.1.2-.3c0-.1.1-.1.2-.1.1-.1 0-.2-.1-.1 0 0 0 .1-.1.1-.1.1-.2 0-.2 0-.1 0-.1 0-.1-.1 0-.3.1-.5 0-.8v-1.1-.5s.1-.1 0-.1c0-.1 0-.3-.1-.3-.1-.1-.1-.1-.1-.2s0-.1.1-.1c0-.1.1-.1.1-.1v-.3c-.1-.1.1-.4.1-.5 0-.3-.1-.5 0-.7l.1-.1h.1c.1 0 .1.1.1.1.1 0 .1 0 .2-.1.1 0 .1-.1.1-.2.1 0 .1-.1.1-.1 0-.1-.1-.1-.1-.1-.1-.1 0-.1 0-.2s-.2-.2-.3-.2c-.1-.1-.2-.2-.2-.3 0-.1 0-.3.1-.3h.2c.1 0 0 .1.1.1.1.1.2-.1.2-.2s.1-.3 0-.4l-.1-.3c0-.2-.2 0-.2-.1s0-.3-.1-.3c0 0-.1-.1 0-.1.1.1.1.1.2.1s.1-.1.2-.1c0 .1.1 0 .2 0 0 .1 0 .1.1.1h.1l-.1-.1c-.1-.1-.1-.2-.1-.2.1-.1.2 0 .2-.2v-.3c.1-.1.3-.1.3-.3-.1 0-.1 0-.2.1-.1 0-.1 0-.1-.1-.1-.1-.2 0-.2 0-.1 0-.6 0-.6-.1v-.1-.1c-.1-.1 0-.3.1-.3 0-.1.1 0 .2-.1.1 0 .1 0 .1-.1 0 0 .2-.2.2-.3 0-.1.2-.2.3-.2 0 0 0-.1.1-.1s.3-.1.2-.2h-.2v-.4c0-.1-.1-.1-.1-.2s0-.1.1-.1c0-.1.1-.1.1-.1.1 0 .1.1.2 0 .1 0 .2-.3.1-.3h-.3v-.2l-.1-.1c-.1-.1 0-.1.1-.2s0-.1 0-.2.2 0 .4-.1c.1-.1.3-.1.3-.2 0-.2-.1-.1-.2-.2 0-.1 0-.3.1-.4v-.1c0-.1.1-.1.1-.1 0-.1.1-.3 0-.4 0-.1-.1 0-.2-.1v-.1c0-.1 0 0-.1-.1l-.1-.1s.1-.4.2-.4c.1-.1.1-.1.2-.1s.1 0 .1-.1h-.3s0-.1-.1-.1c0 0 0 .1-.1.1-.1-.1-.1-.1 0-.2l-.1-.2s0-.1-.1-.2c0-.1-.1 0-.1-.2 0-.1.2-.2.3-.2l.5-.5c0-.1.1-.2 0-.3 0-.1-.1-.2-.2-.3-.1 0-.1 0-.2-.1v-.2c0-.1 0-.3.1-.3h.1c.1-.1.2 0 .2-.1s-.1-.1-.1-.1c0-.1.1 0 .1 0 .1 0 .1-.2 0-.2 0 0-.1.1-.1 0v-.1c-.1 0-.2-.2-.2-.3 0-.2.2-.1.3-.2.1 0 .2-.2.2-.2.1-.2 0-.3 0-.4.1-.1.2-.1.2-.2s.1-.2.1-.3c0-.1 0-.3-.1-.3 0 0-.1 0-.1-.1v-.5-.3c0-.1.1-.3.2-.3v-.4s0-.3-.1-.3-.1 0-.2-.1c0 0-.1 0-.1-.1l.1-.1c0-.1-.1-.3-.1-.4l-.1-.1-.1.2s-.1.1-.1 0 .1-.1.1-.1c0-.2-.2-.3-.2-.3v-.2c0-.1.1-.4.1-.5 0 0 .1-.1 0-.1l-.1.1c-.1-.1.2-.2.2-.3 0-.1-.1-.1-.1-.1 0-.1.1-.1.1-.2s-.1 0-.2 0c0 0-.2-.1-.3-.1-.1 0-.1.1-.1.1l-.1.2v-.2c0-.1-.2-.2-.1-.2 0 0 .1-.1 0-.1 0 .1-.1.1-.1 0s0-.3.1-.3c0-.1.1-.1.1-.1v-.1l.1-.1v-.2c0-.1-.1-.1-.1-.1s-.1 0-.1-.1.1-.1.1-.1c.1-.1 0-.3.1-.4v-.2c0-.1 0-.3-.1-.2-.1 0-.1.1-.1 0-.1-.1 0-.3 0-.4 0-.1-.1-.2-.1-.3v-.2c0-.1-.2-.1-.2-.1 0-.1.1-.1 0-.2 0 0-.1 0-.1-.1-.1 0-.2-.1-.2-.2l-.3-.3c-.1 0-.2-.1-.3-.2-.1-.2-.2-.1-.3-.2-.1 0-.4-.1-.4-.1-.1-.1-.1-.2-.2-.2s-.4-.2-.5-.1c-.1 0-.4 0-.8-.1-.1 0-.2-.1-.2-.1-.1 0-.1.1-.2.2s-.3 0-.4 0c-.2 0-.3.1-.5.1l-1.1.1c-.1 0-.1.3-.3.2-.1-.1 0-.2-.2-.3h-.1-.2s-.2.1-.3.2c-.1.1-.2.1-.4.2h-.5c-.2 0-.3.1-.5.1s-.3.1-.4.2c-.1.1-.3.1-.4.1-.2 0-.4.1-.5.2 0 .1 0 .1-.1.1h-.2c-.1 0-.2.2-.2.2-.1.1-.3.1-.4.2-.1.1-.6.3-.7.3-.1 0-.7.6-.7.6.8 2.3.6 2.4.5 2.5m23.2-38.6l.1-.3c0-.2-.1-.1-.1-.2-.1-.1 0-.2-.1-.4 0-.2-.1-.3-.2-.5-.1-.1-.1-.1-.1-.3 0-.1.2-.1.1-.2-.4-.1-.3-.7-.3-1v-.6c0-.3-.2-.3-.4-.4-.1-.1-.2-.3-.3-.4-.1-.2-.1-.3-.2-.4l-.3-.3c-.1-.2-.2-.4-.3-.5-.1-.2-.1-.3-.2-.4l-.3-.3c-.2-.1-.2 0-.4.1-.3.1-.6.2-.9.1-.2 0-.4-.1-.5-.2-.2-.1-.3-.1-.5-.1s-.3-.1-.4-.2c-.2-.1-.3-.1-.5-.1h-.8c-.3-.1-.5 0-.8 0h-1.6c-.1 0-.1.1-.2.1s-.2-.1-.2-.1c-.2 0-.3 0-.5.1-.3.2-.6.2-.9.3-.3.1-.5.3-.8.3-.2 0-.3 0-.5.1-.1 0-.2.1-.4.2-.3.1-.6.1-.9.3-.1.1-.2.2-.3.2-.2.1-.5.3-.8.4-.1 0-.3 0-.4.2-.1.1-.1.2-.3.3-.2.1-.2 0-.4.2 0 .1 0 .1-.1.2s-.2 0-.3.1c-.1.1-.2.2-.4.3-.1.1-.2.1-.3.2l-.1.1c-.1.1-.2 0-.2.1-.1.1-.1.2-.2.2-.2.2-.3.1-.5.2s-.2.2-.3.4c-.2.2-.5.4-.7.6-.1.1-.2.3-.3.3-.1.1-.3.1-.5.2-.1.1-.2.2-.2.3-.1.2 0 .3-.2.4-.1 0-.4 0-.4.2v.3s-.1.1-.1.2c-.2.2-.3.4-.5.6-.1.1-.1.3-.3.4-.1.1-.3.2-.4.3-.1.1-.2.2-.2.4-.1.2-.1.3-.2.4-.3.3-.4.7-.6 1-.1.2-.2.3-.2.5 0 .1-.1 1.2-.4 1-.1.1-.1.4-.1.5v.3c-.1.1-.2.1-.2.2-.1.1-.1.4-.1.5 0 .2-.1.6-.1.7.1.2-.2.4-.2.5-.1.2-.1.3-.1.5.1.4-.1.6-.1 1 .1.4.3.4.4.7.2.3.1.7.2 1.1l.3.9c0 .2 0 .4.1.5.1.1.2.2.3.4.3.6.8.9 1.3 1.4.3.2.5.4.8.4.4 0 .6.1 1 .4.5.4 1.2.3 1.8.5.5.1 1 .1 1.5.2.4.1.6-.1 1-.2h.5c.2 0 .2 0 .3.2.2.1.7.1.9-.1.1-.1.2-.2.4-.3.4-.2 1.1-.3 1.4-.7l.6-.6c.3-.1.7-.1.9-.2.2-.1.2-.3.3-.4.1-.1.3-.2.4-.3.3-.2.6-.4 1-.6.6-.4 1.1-.9 1.6-1.4.3-.3.4-.5.6-.9.2-.3.3-.5.5-.8.2-.2.4-.5.5-.8.3-.4.6-.7 1-1 .3-.3.5-.7.8-1.1.2-.4.5-.3.8-.6.2-.1.1-.3.1-.5s.1-.3.2-.4c.1-.1.3-.2.4-.4.1-.2.1-.3.2-.4.1-.2.2-.2.3-.4.1-.2 0-.3.1-.5 0-.1.2-.2.2-.3.1-.1 0-.3.1-.4 0-.2.1-.5.1-.8l.3-.9c.6-.4.8-.5.9-.8M759 442.5c-.1-.2 0-.5 0-.7-.2 0-.5.4-.7.1-.2-.3.5-.4.5-.6.1-.2 0-.2 0-.3 0-.4 0-.4.4-.5.2-.1-.1-.1 0-.3.1-.1.2-.2.2-.3 0-.3-.1-.1-.3-.2-.1-.1-.5-.3-.5-.4 0-.2.4-.3.3-.5-.1-.3-.3-.2-.4-.4 0-.1.1-.2 0-.3 0-.2-.1-.1-.2-.3-.1-.2-.1-.4-.1-.6-.4 0-.2-.4-.4-.6-.1-.2-.3-.2-.5-.4-.2-.3-.4-.2-.3-.5 0-.4-.1-.3-.3-.5-.1-.2-.3-.4-.3-.5-.1-.3-.2-.4-.4-.5l-.3-.3c-.1-.1-.1-.1-.3-.2-.3-.1.1-.3-.1-.3-.3-.1-.2-.4-.5-.4-.2-.1-.4-.3-.6-.3 0 .2.3.2.2.4-.3.1-.7-.1-.8-.4-.1-.2 0-.5-.4-.6-.2.3-.3 0-.6 0-.1.3.1.3.3.4-.3.1-.5 0-.9-.1-.3-.1-.6 0-.9-.1-.3 0-.6-.2-.9-.2-.3 0-.5-.2-.9-.1-.3 0-.5-.3-.8-.2-.4 0-.6-.2-1-.2-.7 0-1.5.2-2.3.2-.2 0-.3-.1-.4-.1-.3 0-.4.1-.6 0-.1 0-.2-.1-.3-.1-.1 0-.2.1-.3.2-.2.1-.5.1-.7.2l-1.4.3c-.4.1-.9.3-1.4.4-.2.1-.3 0-.4.2-.8.3-1.6.6-2.5 1-.4.2-.9.4-1.2.7-.1.1-.2.3-.4.4-.1.1-.1.2-.3.2 0 0-.1-.1-.3-.1-.3 0-.6.4-.8.5-.1-.1-.1-.1-.2-.1-.1.3-.7.5-1 .6-.4.2-.7.4-1.1.6-.3.2-.7.4-1 .6-.5.3-1 .5-1.4.8-.2.1-.3.1-.5.1-.2.1-.1.2-.3.4-.1.1-.4.1-.5.1-.1.3-.7.3-.6.5-.1.1-.2.1-.3 0-.3.3-.5.3-.9.5-.1.1-.2.3-.4.4-.1.1-.3.1-.5.2-.3.1-.7.3-.9.4 0 0 .1.2 0 .2-.1.1-.1-.1-.2-.1-.2 0-.5.1-.5.3 0 .1-.3.3-.5.3h-.4c-.1 0 0 .1 0 .2 0 0-.2 0-.2.1-.3.1-.5.2-.7.4l-.6.3c-.4.2-.8.3-1.2.5l-1.2.6c-.2.1-.4.1-.6.1 0 .4-.9.4-1.2.5-.4.2-.9.3-1.3.4-.8.4-1.8.7-2.7.8-.3 0-.6-.1-1-.1-.3 0-.6-.3-.8-.2 0-.1 0-.1.1-.2-.4-.1-.7-.3-.9-.5-.5-.4-.2-.8-.5-1-.2-.1-.6-.3-.9-.1-.2.1-.4 0-.4-.3l.1-.2c0-.1.1-.2.1-.3-.1-.4-.3-.1-.5-.1-.2-.1-.2-.5-.1-.7l.1-.1v-.2c.1-.2.1-.3.1-.5-.4 0-.1-.5-.5-.4-.1.3-.3.4-.5.3-.4-.1-.2-.2-.3-.4 0 0 .2 0 .3-.1.1-.2-.1-.1-.2-.2-.2-.2-.3-.3 0-.4.5 0 .8-.4.9-.8.1-.2.1-.5-.1-.6-.1 0-.3 0-.4-.1-.1-.1 0-.2-.2-.2-.2-.1-.5.2-.6-.1-.1-.2.1-.5 0-.7-.6.1.3-.8.3-1-.2-.1-.4-.1-.7-.1-.3 0-.6.1-.5-.2 0-.1.2-.2.2-.2.1-.2 0-.2-.1-.3-.1-.3-.2-.2 0-.5.1-.2.2-.4.2-.6 0-.4-.1-.3-.3-.6-.1-.2 0-.5.2-.6.3-.2.3.2.5.1.2 0 .3-.5.2-.6-.1-.4-.3-.1-.5-.2-.4-.1-.8-.7-.5-1.1.2-.2.5 0 .7-.2.3-.3-.3-.2-.5-.3-.3-.1-.2-.3.1-.4.2-.1.5.1.7-.1.1-.1 0-.2 0-.3v-.3c0-.2.1-.5-.3-.4-.4.1 0 .3-.2.5-.1.2-.5.2-.5-.1 0-.1.1-.2.2-.3.1-.1-.1-.2-.1-.3-.1-.3 0-.4 0-.7-.1-.2-.2-.5.2-.3.3.1.3.5.5.2s.1-.9.1-1.2v-.5c0-.2-.2-.3-.3-.5-.1-.3.1-.3.1-.4.1-.2.2-.3.2-.5 0-.1 0-.6.3-.3.1.1 0 .4 0 .6.1-.1.2-.3.3-.4.1-.2.1-.1 0-.3-.1-.1-.2-.1-.2-.3-.1-.3-.1-.3-.2-.4-.1-.2-.1-.1-.1-.3 0-.2-.1-.4-.2-.5 0-.6.5-.2.5-.5s.4-.4-.1-.6c-.2-.1-.6-.1-.9-.3-.2-.2-.1-.2-.1-.4 0-.1-.1-.4-.1-.5 0-.2.2-.3.2-.4 0-.2-.3-.2-.2-.4.2-.2.5 0 .6-.3.1-.3-.2-.3-.4-.4-.2-.2-.3-.4-.3-.6v-.4c0-.1.2-.3.2-.3 0-.2-.1-.1-.1-.2s-.2-.2 0-.3c.1-.1.5.1.7 0 .4-.2.2-.3.1-.5-.1-.3 0-.4-.4-.6-.3-.1-.4 0-.5-.4-.1-.3 0-.6 0-1 0-.6-.1-1.2-.1-1.7 0-.6.1-1.2.1-1.7v-1.8c0-.6-.1-1.3 0-1.9 0-.2.2-.5.2-.7 0-.1-.2-.2-.2-.3 0-.2 0-1 .2-1.1.1-.2.5-.1.7 0 .3.1.7.2.4-.2-.2-.2-.5-.2-.6-.4-.1-.1.1-.2-.1-.3-.1-.1-.3.2-.4 0-.1-.1 0-.7 0-.8 0-.4 0-.3.4-.4.3 0 .5-.1.6-.4.2-.4-.1-.4-.4-.4-.3 0-.6-.2-.6-.5-.2-.4 0-1.2.1-1.6.2 0 .4.1.6.1.3-.1.2-.2.5-.1.2.1.2.3.4.1 0 0 0-.3.1-.3l.2-.2c-.5-.2-.5-.2-.5-.7 0-.3-.1-.5-.3-.8-.2-.3-.4-.3-.2-.6.1-.2.2-.1.2-.3 0-.1-.1-.4-.2-.5.1-.1.5 0 .3-.3-.1-.1-.5 0-.5-.2-.1-.3.3-.1.5-.3.1-.2 0-.4-.1-.6-.1-.2-.3-.2-.3-.5 0-.2.1-.4.4-.4.2 0 .3.3.5.3s.2-.3.2-.5c-.5.4-.2-.3-.6-.3-.3-.4-.1-1.1 0-1.5.1-.3.1-.4.1-.6 0-.1.1-.2.1-.3 0-.1.2-.2.1-.3-.2-.3-.7.5-.8.7-.1.1-.3.4-.5.3-.2-.1-.1-.6-.1-.7.1-.2.2-.2.3-.3.1-.1.1-.4 0-.5-.3-.2-.3-.3-.3-.6v-1c0-.5 0-1 .2-1.5 0-.1.2-.4.3-.5.2-.1.2.1.4.1h.3c.1 0 .1-.1.2-.2.1 0 .3.1.4 0 .1-.1.2-.2.1-.3-.1-.2-.2 0-.3 0-.3-.1-.2 0-.3-.3-.1-.2-.2-.3-.2-.5-.1-.4-.2-.6 0-.9.1-.2.4-.1.3-.5 0-.2.4-.2.2-.3-.2-.1-.5.1-.7 0-.3-.1-.3-.6-.5-.9-.2-.2-.4-.3-.5-.5-.1-.5-.1-1.2.1-1.6.2 0 .8.2.9-.1-.2-.4-.2-.9-.6-1-.2-.1-.6-.1-.7-.2-.1-.1 0-.5 0-.7-.1-.5-.4-.8-.3-1.3 0-.1.3-.5.2-.6-.2-.2-.2.4-.5.2-.1-.4-.2-.7-.2-1.1 0-.4-.1-.4-.2-.6l-.5-.5c-.1-.3-.2-.3-.2-.5s.2-.4.2-.5c0-.7-.5 0-.6.3-.4 0-.6-.7-.8-1-.2-.2-.4-.4-.6-.5-.2-.1-.5-.4-.5-.5-.9-.4-1.8-.7-2.8-1.1-.5-.2-1-.2-1.5-.3-.5 0-1.2-.2-1.7-.2h-1.6c-.5 0-1.1.2-1.6.3-.2.1-.4.2-.6.2h-.3c-.2.1-.3.1-.5.2-.3 0-.6 0-.8.1-.3.1-.5.2-.8.3-.5.2-.9.2-1.3.4-.2.1-.4.3-.6.5-.3.2-.7.3-1 .4-.5.3-.9.4-1.4.7-.8.5-1.7 1-2.5 1.5-.4.2-.8.4-1.3.7-.3.2-.9.4-1.1.7-.1.2-.1.4-.3.6-.2.3-.5.4-.7.6-.5.3-.8.6-1.1 1.1-.2.4-.5.7-.8 1-.2.2-.3.4-.5.5-.3.2-.4.2-.7.4-.6.6-1.4 1.1-1.8 2 .1 0 0 .1.1.2-.3 0-.2.3-.4.4-.2.1-.3 0-.5.2-.2.3-.3.7-.5 1-.3.3-.6.5-1 .8-.2.1-.3.2-.5.3-.3.1-.3.2-.4.5-.2.3-.8.7-1.1.8-.5.1-.8.4-1.2.6-.2.1-.5.1-.7.2-.2.1-.4.3-.6.4-.2.1-.5.2-.7.2-.3.1-.5 0-.8 0-.5.1-.8.3-1.4.1-.2-.1-.4-.1-.6-.2-.2-.1-.4-.2-.7-.2-.4 0-.7.2-1.1.1-.3-.1-.3-.3-.4-.5-.1-.3-.2-.5-.5-.4-.3.1-.3.2-.6 0-.5-.2-1.1-.1-1.5.1l-.6.3c-.2.2-.3.3-.5.4-.4.3-1.2.1-1.6 0-.5-.2-1-.1-1.6-.1-1.1 0-2.3.2-3.3.4-.5.1-1 .3-1.5.5-.3.1-.5.2-.7.2-.2.1-.3.1-.5.2-.5.1-.9.6-1.4.8-.5.2-.9.4-1.4.7-.2.2-.5.4-.7.5 0 .1-.1.2-.1.2-.1.1-.3 0-.4.1-.1.1-.1.2-.2.3-.1.1-.3.1-.4.2-.2.1-.2.5-.7.6-.5.1-.8.9-1.2 1.3-.3.4-.5.7-.8 1.2l-.8 1.1c-.3.4-.4.7-.6 1.2-.2.4-.5.8-.6 1.3-.1.4-.3.9-.5 1.4-.4.9-.8 1.8-1 2.8-.1.6-.2 1.2-.2 1.7s0 1.1-.1 1.6c-.2 1.1-.2 2.2-.3 3.3 0 .9.1 1.8-.1 2.7-.2.6-.1 1.4-.1 2.1-.1.7-.1 1.4-.1 2 0 .6 0 1.4-.1 2 0 .2-.1.2-.1.4 0 .1.1.2.1.4s-.1.3-.1.5 0 .3.1.5c0 .7-.1 1.4-.1 2.1-.1.6-.1 1.3-.1 2.1 0 .7-.1 1.4-.1 2.1v.4c.1.1.1 0 0 .2.1.5-.2.5-.3 1 0 .3.1.7.1 1 0 .4-.1.8-.1 1.1 0 .3-.1.9.1 1.2-.3.2 0 .4.1.6-.3.3-.2.9-.2 1.3 0 .2 0 .4-.1.6-.1.3-.3.5-.2.8 0 .1.2.2.2.3 0 .2-.2.2-.2.4-.1.4 0 .9 0 1.3 0 .3-.1.6-.1 1-.1.7 0 1.4-.1 2.1-.1.7.1 1.5 0 2.2 0 .2 0 .4-.1.6-.1.3-.1.3-.1.5 0 .5-.1 1 0 1.5 0 .4-.1.9-.1 1.4 0 .2 0 .4-.1.7 0 .3-.2.5-.1.8.1 0 .1.1.1.1 0 .1-.1.1-.1.1.2.3 0 .9-.1 1.3 0 .4.2 1-.2 1.1.1 0 .1.1.2.1v1.2c0 .2-.2.5-.1.7.5.1.1.5 0 .7-.1.3-.1.6-.1 1 0 .7-.1 1.5-.1 2.3 0 .4-.1.6-.1 1s-.2.7-.2 1c0 0 .1.3.1.4.1.1.1.4.1.5 0 .4-.1.7-.1 1-.1.4-.1.8-.1 1.2 0 .3-.1.5-.1.7 0 .3.1.4.2.7 0 .2-.1.2-.1.4-.1.3-.1.7-.1 1.1 0 .3.1.5.1.8 0 .3-.1.6 0 .9.1.5.1 1.4.4 1.9 0 .1.2.1.2.2v.2c.1.2.2.3.3.5l.3.9c.3.7.7.9 1.3 1.3.5.4 1 .8 1.7.9.3 0 .6.1.9.2.2 0 .4.1.5.1.1 0 .3-.1.4-.1.7 0 1.3.3 1.9.1.7-.2 1.4-.1 2.1-.3.6-.3 1.3-.6 1.9-.8.3-.1.5-.2.7-.5.2-.2.5-.3.8-.3.3 0 .4-.4.6-.5.1-.1.3 0 .4-.1.2-.1.3-.3.5-.3.4-.2.9-.3 1.3-.5.2-.1.3-.2.5-.4s.4-.3.6-.4c.1-.1.2-.2.3-.2.2-.1.3 0 .4-.1.1-.1.1-.2.2-.4l.3-.3c.2-.2.5-.5.5-.7 0 0 .1 0 .1-.1.1.3.9.1.6-.1h-.2c-.5-.5.8-.4 1-.8.1-.2.1-.8.1-1 0-.1-.1-.2-.1-.4 0-.1.1-.2 0-.4.1 0 .1-.1.2-.1 0-.1.1-.2.2-.3.1-.2.2-.1.4-.1.5-.2-.1-.2-.2-.5 0-.1.1-.3.2-.4 0-.2 0-.3.1-.4 0-.1.2-.1.2-.3.1-.1 0-.3.1-.4.9.1.2-.3.4-.6.1-.1.4-.3.5-.5.1-.1.3-.2.4-.3.2-.3-.2-.2-.1-.4.1-.4.3-.2.6-.3 0-.4.2-.7.1-1.1-.1-.4-.3-.4-.5-.7-.3-.3-.2-.6-.2-1s-.4-.7-.3-1.1c.4-.2.3.9.7 1 .4.1.2-.3.1-.5-.2-.2-.2-.4-.2-.7 0-.2 0-.2-.1-.4s-.2.1-.2-.2c0-.3.3-.4.4-.6 0-.1.2-.6.2-.7 0-.1-.1-.2-.1-.3-.1-.2 0-.2.1-.3.2-.4.7-.5.6-.9 0-.2-.1-.6-.3-.7-.1-.1-.5.1-.3-.3-.2-.1-1.1.1-.9-.4.2-.4.8-.1 1-.2v-.4c-.2-.2-.2-.1-.3-.1-.4-.2-.3-.4-.4-.6-.1-.3-.4-.4 0-.6.1-.1.3 0 .4-.3.1-.3-.3-.4-.3-.5-.1-.4.4-.4.7-.5.4-.2.4-.7.4-1.1-.1-.1-.2-.1-.3 0 0 0 0 .1-.1.1 0-.1 0-.1-.1-.1-.3-.1-.3.3-.5.4-.2.2-.5.1-.4-.2 0-.2.4-.4.4-.5 0-.3-.5-.1-.5-.4 0-.2.2-.5.2-.7v-.8c0-.5 0-1.1.1-1.6v-1.3c0-.4-.1-.8 0-1.2 0-.2.1-.2.1-.4s-.1-.4 0-.5c0-.3 0-.3.3-.3.2 0 .4.1.5 0 .1-.3-.3-.3-.2-.6-.2-.1-.2-.2-.4-.4-.1-.1-.2 0-.3-.2-.2-.5.3-.5.2-.8-.6-.1.4-.6.5-.7.2-.3-.2-.2-.2-.4-.1-.2.1-.3.1-.5 0-.1-.4-.9.1-.5.2.2.1.8.1 1.1.3.1.5 0 .6-.1.3-.2.4-.2.6-.3.5-.2.3-.3 0-.4-.1 0-.4-.1-.4-.2-.1-.2.1-.4.2-.5 0-.1-.1-.5-.1-.6-.1-.2-.3-.2-.3-.5.1-.2.3-.2.4-.3-.1-.1-.3-.4-.2-.6 0-.1.2-.1.1-.3 0 0-.2-.1-.3-.2-.4-.2-.7-.4-.9-.8-.2-.1-.4 0-.3-.4 0-.2.2-.4.2-.5 0 0-.1 0-.1-.1 0-.2-.1-.5 0-.6.2 0 .4.2.6.2.3 0 .5-.2.2-.2 0-.4-.3-.4-.5-.7.3-.3 1.4 0 .9-.6-.2.1-.4-.1-.2-.2.1-.1.4 0 .5 0 .7 0 .3-.6.6-.9.3-.3.1-.6-.1-.9-.1-.2-.1-.3-.2-.5s-.4-.3-.5-.5c.2-.2.2-.4.2-.6 0-.4-.2-.3-.3-.5-.1-.2.1-.5 0-.7-.1-.2-.3-.4-.3-.6 0-.3.5-.8.7-.8.3 0 1 .3 1.2-.2-.2-.1-.2-.4-.5-.4-.2-.1-.6 0-.8-.1.3-.2.9 0 1-.5 0-.3-.3-.2-.3-.5 0-.2.3-.2.3-.5.1-.1.5-.2.5-.4 0-.3-.4-.2-.5-.1-.5 0-1-.2-.7-.7.1-.1 0-.2.2-.3.1-.1.2 0 .3-.1.1-.3-.3-.3-.2-.6.1-.3 1.1-.1.5.5.1.1.3.1.4 0 .3 0 .1 0 .3-.2.2-.2.6-.4.4-.7-.2-.3-.6 0-.8-.3-.2-.3.2-.6.4-.8.2-.1.4-.3.4-.5 0-.3-.2-.4-.2-.7 0-.1.2-.2.2-.2.1-.1.1-.3.1-.5v-.8c0-.2.1-.6 0-.7-.1-.3-.3-.2-.1-.6 0-.1.1-.3.2-.3.1-.1.4.1.4.1.1-.1 0-.3.1-.4v-.2c0-.1.2 0 .2-.1.2-.2.1-.4.1-.7l.3-.6c.1-.5.3-1 .1-1.5-.1-.3-.2-.4.1-.5.2-.1.5-.2.6-.3.4-.2.8-.4 1.1-.7.4-.3.4-.9.3-1.4-.1-.2-.5-.4-.5-.6 0-.1.3-.1.4-.1.2.1.1.2.1.3.2.3.3.1.5-.1.2-.3.4-.5.6-.7.4-.4.8-.8 1.2-1.1.2-.1.4-.3.6-.4.1-.1.4-.2.5-.4.4-.3.3-1 .4-1.4.4-.1.8-.4 1-.6.2-.2 0-.2.1-.5 0-.3.1-.3.2-.5s.2-.3.4-.5.4-.3.5-.4c.3-.2.3-.2.6-.3.6-.1.6-.8 1.1-1l.4-.4c.3-.1.6 0 .8-.2.2-.2.3-.4.5-.5.3-.2.5 0 .8-.3.3-.4.7-.5 1.2-.7.4-.1.9.1 1.2-.1.3-.2.4-.3.7-.3.3 0 .3 0 .5.1.1.1 0 .2.3.2.1 0 .2-.2.3-.1.1 0 .2.2.3.2.5.2 1.1 0 1.5 0 1 0 1.9.8 2.3 1.6.2.2.3.4.4.6.1.2.1.5.3.6.1.1.3.1.3.2.1.2 0 .1-.1.3v.7c.1 1.1.1 2.2.1 3.3 0 1.2-.1 2.5 0 3.7.1.5-.1 1.1 0 1.6 0 .2.1.5-.1.7 0 .1-.2 0-.2.1-.1.2.1.1.2.2 0 0 .1 0 .1.1.1.4-.1 1.1-.1 1.5-.1.5.1 1 0 1.6-.1 1.1-.2 2.2-.2 3.4v.5c0 .5-.1.9-.1 1.3-.1.2 0 .6-.1.7-.1.1-.2 0-.3.1-.1.1-.1.2-.1.4s-.1.5 0 .7c.1 0 .2.1.3.1 0 .2.1.5.1.7-.1.3-.3.3-.5.5-.1.2-.3.6-.2.8 0 .1.2.1.2.2.1.1.1.2.1.4 0 .3-.1.7.1.9.1.1.2.1.2.2.1.1 0 .3 0 .4 0 .6-.2.9-.4 1.4-.1.2-.2.4-.3.7 0 .3.1.5.1.8-.1.7-.1 1.3-.4 1.9-.2.5.2.7.3 1.2.1.5.3 1 .3 1.5 0 .6 0 1.3-.3 1.8-.2.4-.1 1.1 0 1.5 0 .6.1 1.2 0 1.8 0 .3 0 .5-.1.8v.4c0 .2-.1.2-.2.3-.2.4-.1.6-.1 1-.1.4-.5.6-.3 1.1.1.3.3.4.3.7 0 .3 0 .5-.1.8-.1.3-.1.5-.1.8 0 .3.2.4.2.7 0 .5 0 1.1-.1 1.6-.1 1-.1 2.2 0 3.2.1.5.1 1.1.1 1.6s.1.9.3 1.4c.1.3.1.5.1.8 0 .3.2.4.3.6.1.2.3.3.4.4.1.2.2.5.2.6.1.3.2.5.3.8.1.2.4.4.5.6.2.4.5.7.9 1 .2.2.4.3.6.4.2.2.3.4.5.5.5.4.9.5 1.4.7.3.1.5 0 .5.7 0 .4-.2.6-.4.6-.2.1-.4.3-.6.4l-.9.6c-.2.1-.4.1-.5.2-.5.3-1 .7-1.6 1-.4.2-.6.4-1 .7-.4.2-.7.4-1.1.6-.2.2-.4.2-.6.3-.3.1-.3.3-.5.4l-.6.3c-.2.1-.4.3-.6.4-.5.3-1.1.6-1.6.9-.9.5-1.7.8-2.5 1.3-1.9 1.1-3.6 2.3-5.5 3.2-.5.2-1 .4-1.4.7-.3.2-.4.4-.7.5l-.6.3c-.9.6-1.7 1-2.7 1.5-.3.1-.8.4-1.1.6 0 .1.1.1.1.1-.1.1-.5.2-.6.2-.3.1-.4.2-.6.3-.5.4-1.2.7-1.8 1-.1.1-.2.1-.3.1-.3.2-.6.4-.9.5-.2.1-.4.4-.7.5-.2.1-.7.1-.7.4-1 .4-1.7 1.1-2.6 1.5-.8.4-1.8.8-2.5 1.4-.1.1-.3.4-.5.5-.1 0-.2-.1-.3-.1-.1 0-.2.2-.3.2-.2.2-.4.1-.6.3-.2.1-.4.2-.5.3l-2.7 1.5c-.9.5-1.9.9-2.7 1.5-.4.3-.9.6-1.3.9-.4.2-.8.6-1.2.7-.8.3-1.5.8-2.3 1.2-.5.2-.8.4-1.3.6-.5.1-.6.6-1 .8-.2.1-.4.3-.5.4-.3.1-.4-.1-.6.1-.4.3-.8.6-1.3.9-.9.5-1.8 1.1-2.7 1.7l-.9.6c-.3.2-.6.2-.8.3-.2.1-.4.3-.5.4-.2.2-.4.3-.6.4-.3.1-.4.2-.6.4-.2.2-.3.1-.6.3-.2.1-.4.3-.6.4-.3.1-.4-.1-.6.2-.2.1-.2.4-.4.5-.1 0-.2-.1-.3 0-.1 0-.2.1-.3.2l-.2.2c-.1.1-.2 0-.3.1-.1.1-.1.2-.2.3-.1.1-.2 0-.3.1-.4.1-.8.4-1 .7-.2.3-.3.2-.6.3l-.6.3c-.1.1-.5.3-.6.3-.2 0-.3-.3-.5-.3s-.7.3-.8.4c0 .1.1.2 0 .3 0 .1-.3.2-.3.2-.3.3-.6.8-1.1.8-.2 0-.3-.2-.6.1-.2.1-.2.3-.4.5-.3.3-.7.6-1.1.7-.5.1-.9.4-1.4.6-.4.2-.9.3-1.3.5-.5.2-.9.4-1.3.7-.4.3-.8.3-1.1.6-.2.2-.5.4-.7.6-.1.1-.2.2-.4.3-.3.3-.7.4-1.1.6-.4.3-.7.6-1.2.8-.4.2-.7.3-1.1.4-.3.1-.7.2-.9.5l-1.2.9c-.4.3-.8.4-1.2.6-.5.2-.8.5-1.2.8-.2.2-.5.4-.8.5-.3.1-.5.1-.6.2-.3.2-.5.4-.7.5-.2.1-.9.4-.9.6.1 0 .1.1.2.1-1.2.4-2.2 1.4-3.3 1.9-1.2.5-2.2 1.4-3.3 2.1-2 1.3-4.1 2.5-6.1 3.8-1.3.8-2.6 1.5-3.7 2.4-.2.2-.4.4-.6.5-.2.2-.5.1-.7.2-.4.1-.4.2-.6.5-.2.3-.5.3-.8.4-.5.2-.8.4-1.2.7-.5.3-.9.4-1.3.7-.2.2-.4.4-.6.4-.2.1-.3.2-.5.3-.3.3-.8.5-1.2.7l-.6.3c-.3.1-.2.1-.4.4-.1.1-.4.2-.5.3-.2.1-.4.2-.5.4l-.3.3c-.1.1-.3.1-.4.1-.2.1-.2.3-.4.4-.1 0-.2.1-.3.1-.1.1-.2.2-.2.3-.2.2-.3.3-.5.4-.2.1-1.1.5-1.3.5.1-.4-.1-.8-.2-1.2.3-.2.3-.2.2-.5-.1-.3-.2-.4 0-.6.1-.2.2-.4.1-.6-.1-.3-.2-.2-.1-.5.1-.4.3-1 .1-1.4-.2-.5-.3-.8-.1-1.3.2-.5-.1-.8-.1-1.3-.1-.5.1-.9.2-1.4.1-.5-.1-1 .2-1.4.1-.2.2-.4.2-.7v-.3c0-.1-.2-.1-.2-.2 0-.3.2-.2.3-.4.1-.1-.1-.4 0-.5.1-.2.2-.3.1-.5 0-.1-.1-.1-.1-.2s.1-.2.1-.3c0-.4-.6-.4-.4-.9.2-.4.3-.6.3-1.2-.6.2 0-.5 0-.6-.5 0-.3-1.1-.2-1.4.2 0 .3.1.4 0 0-.2-.3-.3-.4-.5-.2-.3 0-.4.2-.5.2-.3.5-.7.5-1.2 0-.3-.2-.4-.3-.6-.1-.3 0-.3.2-.5l.1-.3c0-.2-.1-.1-.1-.3-.1-.3.1-.3 0-.5 0-.3-.5-.3-.5-.7v-1-1-.5c.1-.1.3-.2.3-.4s-.2 0-.3-.2c-.1-.2 0-.4 0-.5.1-.3.2-.6.2-.9.1-.7.2-1.3.1-2 0-.2-.1-.5 0-.8.1-.3.2-.4.3-.6.2 0 .4-.2.4-.4-.2-.1-.4.1-.5-.1-.1-.2.1-.6.1-.7.1-.5-.1-1 0-1.5.1-.4 0-1 .1-1.4.2-.4.5-.7.4-1.3-.5 0-.2-.4-.1-.6.1-.3.1-.7 0-1 0-.7.1-1.4.2-2.2 0-.7.1-1.4.2-2.1 0-.3.1-.7.1-1v-.5c0-.1.3-.4.3-.4-.4-.1-.1-.7 0-1.1.1-.5.1-.9.1-1.4v-1.5c0-.3-.2-1.2.2-1.2 0-1.5.3-3.1.4-4.7.1-1.4.1-2.8.2-4.2 0-.4.1-.8.2-1.2v-1.1c.1-.7.1-1.4.1-2.2 0-.3 0-.7.1-1 0-.1.2-.2.1-.4 0-.2-.3-.2-.3-.3-.1-.3.4-.4.4-.7.1-.4-.2-.5-.2-.8.1-.3.2-.5.2-.9s0-.7.1-1c.1-.6 0-1.3.1-1.9.2-.1 1.3-.4.6-.8-.1.4-.2.6-.5.2-.2-.3.1-.5.1-.8 0-.2-.2-.7.1-.9.1.1.2.2.3.2.3-.4-.2-.6-.3-.9 0-.2 0-.4.2-.4.3-.1.1.2.4.2.1-.2.1-.5 0-.7-.1-.2-.3-.2-.1-.5.1-.1.2-.1.3-.2.1-.2 0-.2 0-.3 0-.3.2-.4.2-.7 0-.2-.2-.5-.2-.7-.1-.3-.1-.4 0-.7 0-.3 0-.4-.2-.6-.2-.2-.4-.3-.2-.5.2-.4.8-.5.6-1.1-.1-.2-.4-.4-.4-.6-.1-.3.2-.4.3-.5.1-.2-.1-.3-.2-.5-.1-.3 0-.5 0-.8 0-.5-.2-1.3.3-1.4.3-.1.6-.2.4-.7-.1-.2-.2-.4-.1-.6 0-.3.1-.6-.2-.6 0-.3-.2-.6 0-.8.1-.1.4 0 .5-.2.2-.2.3-.3.2-.5-.1-.2-.4-.3-.5-.4-.2-.3-.2-.8-.2-1.1 0-.2-.1-.5 0-.6 0-.2.2-.2.3-.4-.3 0-.3-.3-.3-.5 0-.3-.1-.4-.1-.6 0-.2.1-.5.1-.7.1-.3.1-.5 0-.8 0-.2-.1-.5 0-.7.1-.2.4-.3.3-.6-.1-.2-.5-.2-.4-.5s.4-.1.6-.2c.1 0 .1-.1.2-.2-.2-.2-.5 0-.7-.1-.3-.1-.1-.2-.1-.5.2-.5 0-.9-.5-1.1-.3-.1-.3-.2-.5-.5-.1-.2-.3-.4-.4-.5-.3-.4-.6-.6-.9-1-.6-1-1.7-1.1-2.6-1.4-.5-.2-1.2-.5-1.8-.5-.6 0-1.3.1-1.9 0-1.1-.2-2.3 0-3.4.3-.4.1-.7.4-1.2.5-.2.1-.4.1-.6.3-.2.1-.6 0-.8.1-.1.1-.1.2-.1.4-.2 0-.7.4-.8.1-.1 0-.2.1-.2.2-.4 0-.6.4-.9.6-.4.2-.6.4-.9.7-.3.2-.5.5-.8.8-.3.3-.7.7-.8 1h-.2c0 .1-.1.1 0 .2l-.5.5c-.1.1 0 .3 0 .4-.1.2-.2.1-.2.2-.3.4-.6 1-.7 1.4-.1.3-.1.5-.2.7-.1.3-.2.5-.2.7-.1.5 0 1-.1 1.5s-.3 1-.3 1.5c0 .4.1.7 0 1.1 0 .2-.1.4-.2.7-.1.5-.1 1.1-.1 1.6-.1.6-.2 1.3-.2 1.9v2.1c0 .5-.1 1-.2 1.4 0 .1-.1.2-.2.3 0 .1.1.2.1.3.1.3 0 .4-.1.6-.1.5.1 1.1 0 1.6 0 .3 0 .5-.1.8 0 .2-.3.5-.2.7 0 .1.2.2.2.3 0 .1-.1.2-.1.4v.8c-.1.6-.1 1.2-.1 1.8 0 .5 0 1-.1 1.6-.1.4-.2 1-.2 1.5 0 .3.1.5.1.8-.1.3-.1.5-.1.7 0 .6-.2 1.3-.1 1.9 0 .3 0 .5-.1.7-.1.3 0 .5-.1.8 0 .3-.1.5-.1.8 0 .3-.1.5-.1.8 0 .5-.1.9-.1 1.4 0 .5-.1.9-.1 1.4 0 .4-.2.7-.3 1.2 0 .3.2.9 0 1.1-.2.3-.5-.3-.6.3 0 .1-.2.5-.2.6 0 .3.2.1.5.2.1.4 0 1.1 0 1.5 0 .1.1.2 0 .3 0 .1-.2.1-.2.2-.1.2 0 .5.1.7.1.5.2 1.3 0 1.8s-.1 1.1-.2 1.7c-.1.6-.2 1.2-.2 1.8 0 .3.1.7 0 .9 0 .1-.1.2-.1.3v.4c0 .5-.1 1-.2 1.5 0 .5-.2 1-.3 1.4 0 .4-.2.8-.2 1.3 0 .4.2 1 0 1.4h-.2c.1 0-.1 1.2-.1 1.3 0 .4-.1.9-.2 1.4-.1.8-.3 1.5-.2 2.3 0 .3.1.5 0 .8-.1.2-.2.3-.3.5-.2.6-.2 1.2-.2 1.8-.1.5-.2 1-.3 1.6 0 1.1-.2 2.1-.5 3.1-.1.2-.1.5-.1.7 0 .3-.1.4-.2.6-.2.4-.2 1.1-.4 1.5-.5 1.9-1 3.6-2.2 5.2-.3.3-.5.6-.8.9-.5.6-1 1.1-1.4 1.7-.2.3-.5.4-.7.6 0-.1-.1-.1-.2-.1-.1.2-.2.3-.4.4-.1.1-.1.2-.2.3-.1.1-.2.1-.4.2s-.4.3-.6.4c-.2.1-.3.3-.5.4-.2.1-.4.1-.6.3-.3.1-.5.2-.7.4-.3.1-.5.2-.8.3-.2.1-.5.3-.7.4-.7.3-1.7.4-2.5.5-.5.1-1 .1-1.5.1-.2 0-.5.1-.7.1-.3 0-.5-.2-.7-.3-.3-.1-.6-.1-.9-.3-.3-.1-.5-.3-.7-.5-.4-.3-.8-.7-1.2-1.2-.3-.4-.6-.8-.7-1.3 0-.3 0-.6-.2-.9-.1-.2-.3-.3-.4-.5-.4-1-.6-2-.7-3.1-.1-1-.3-1.9 0-2.9.1-.2.2-.4.2-.5 0-.3-.4-.3-.4-.5 0-.1.2-.4.2-.5.1-.6-.1-.8-.3-1.3-.1-.2-.1-.5-.1-.8 0-.2-.1-.6 0-.8.1-.2.3-.3.4-.5.2-.5.3-.8.3-1.4 0-.5-.1-1-.1-1.6.1-1 0-2.2.3-3.1.2-.5.3-1 .3-1.5 0-.3-.1-.6-.1-.9 0-.3.1-.5.1-.7 0-.4-.1-.7 0-1.1.1-.2.2-.2.2-.4.1-.2.1-.4.1-.6.3-.1.5-1 .5-1.4 0-.5-.2-1.1-.4-1.6-.5.1-.3-.3-.4-.6 0-.1-.2-.2-.2-.3-.1-.2 0-.1.1-.3.1-.3 0-.5-.1-.8 0-.5-.1-.7.2-.9.5 0 0-2 .1-2.2 0-.3.2-.5.3-.8.2-.4.5-.7.6-1.2.1-.3.1-.5.1-.8 0-.3.1-.4.2-.6.1-.3 0-.5.1-.7.1-.3.3-.4.4-.7.2-.5.4-1 .4-1.6 0-.7.2-1.2.4-1.8.2-.5.4-1 .6-1.4.3-.5 1.1-.8 1.1-1.4 0-.6.4-1.1.4-1.8 0-.5.1-1.5.7-1.7 0-.2.2-.7.4-.7.2-.2.1-.4.1-.7.5.1.3-.6.4-.9 0-.4.4-.8.6-.3.2-.2.3-.6.5-.8h-.1c-.1-.4.1-.7.2-.9-.5-.3.1-.5.2-.7.3-.2.3-.6.5-.7.1 0 0 0 .1.1.5-.4.8-.3.9-1h.3c0-.6.1-1.1.5-1.5.2-.3.9-1.3 1-1.1.1 0 .1-.1.1-.2h.1v-.2c.2-.2.5-.2.7-.3.2-.2.2-.5.5-.5.1-.3.5-.1.6-.4.2 0 .5-.7.6-.9.1-.2.1-.4.2-.5.1-.2.2-.4.2-.5.2 0 .5.1.6-.2-.2-.1-.1-.3 0-.5.2-.1 0-.3.1-.4 0-.1.3-.3.4-.4.2-.2.6-.4.6-.6-.2-.1 0-.9.1-1.1.1-.2.3-.3.3-.5.1-.2 0-.4 0-.5 0-.3.5-1 .6-1.5.1-.3-.1-.6-.4-.6 0-.1.2-.1.2-.3 0-.3 0-1 .3-1.1.2-.4.2-1 .1-1.4 0-.2-.2-.4-.2-.6 0-.3-.1-.4-.1-.7 0 0-.1 0-.1.1-.2-.1.1-.4.1-.6 0-.2-.2-.4-.3-.5l-.4-.4c-.1-.2-.2-.4-.4-.5-.2-.2-.4-.2-.7-.2-.3 0-.4-.1-.6-.2-.2-.1-.4-.1-.6-.2-.3-.1-.3 0-.6-.1-.2 0-.4-.2-.6-.2h-.7c-.3 0-.4.1-.7.1-.3.1-.5 0-.8.1-.2 0-.5.1-.7.1-.3.1-.2.3-.5.3-.5.1-.9.3-1.4.3-.5 0-.8.2-1.2.4-.2.1-.4.2-.6.2-.3.1-.4.2-.5.3-.2.1-.5.1-.7.2l-.6.3c-.4.1-.8.2-1.1.4 0 .2-.3.4-.5.4-.1.2-.4.3-.5.4l-.5.5c-.1.1-.1.2-.3.2-.1 0-.2 0-.3.2-.1.1-.3.7-.4.2-.3-.2-.1.1-.3.2-.1.1-.3.1-.4.1-.2.1-.7.4-.7.6-.8.3-1.5 1-2.1 1.5-.6.6-1.4 1-2 1.7-.3.3-.6.5-.9.8-.2.2-.3.4-.4.5-.1.2-.2.5-.3.6 0 .1-.2 0-.3.1-.1.1-.1.2-.2.3-.2.2-.3.3-.4.5-.2.3-.5.5-.7.9-.1.1-.1.3-.2.4-.1.1-.2.1-.3.2-.2.2-.3.5-.4.8-.3.4-.8.8-.9 1.4-.1-.1-.7.8-.8.9-.1.2-.2.4-.3.5-.3 0-.1.2-.2.3 0 .1-.2.2-.3.3-.2.2-.3.5-.5.7-.2.3-.5.4-.6.7-.1.3-.3.6-.3.8h-.2c-.1.1-.1.4-.2.5-.1.2-.3.4-.5.6-.1.2-.3.4-.3.5-.1.1 0 .3 0 .4 0 .1-.2.1-.2.2s0 .2-.1.3c-.1.1-.2.1-.2.2-.1.2-.2.4-.3.5-.1.2-.2.4-.3.5-.1.2-.2.4-.3.5-.1.2-.1.4-.2.6-.1.2-.2.3-.3.5-.2.5-.4.9-.5 1.4-.1.2-.1.4-.2.6-.1.2-.2.4-.3.5-.1.2 0 .5-.1.7-.1.2-.3.3-.4.5 0 .2.1.5-.2.4 0 .3-.1.6-.3.9l-.3 1c-.1.4-.3.8-.4 1.2-.1.5-.2.9-.4 1.3s-.2.9-.3 1.4c-.2.4-.3.9-.4 1.4-.2.9-.3 1.7-.4 2.5l-.3 1.2c0 .2-.2.4-.2.6.1.2.4.4.1.4 0 .4-.2 1-.3 1.4-.1.2-.1.5-.2.8 0 .4.1.7.1 1.1 0 .4-.3.6-.5.9-.1.2 0 .5 0 .7v.4c0 .1-.2.1-.1.3.2.1.1.5 0 .6 0 .1-.2.1-.2.2-.1.1 0 .2 0 .3 0 .5 0 1-.1 1.5-.1 1 0 2-.2 3-.2 1.1-.1 2.1-.1 3.1v1c0 .4-.2.5-.3.8l-.3.9c-.1.3-.2.5-.2.8v1c0 .3-.1.6-.1.9.4.2-.2 1.4 0 1.9.1.3.3.5.4.7.2.3.1.6.1 1 0 1.3-.1 2.6 0 4 0 1.1 0 2.1-.1 3.2 0 .3-.1.6-.1.9-.1.6.1 1.3 0 2-.2 1.2.1 2.4 0 3.8 0 .5 0 .9.1 1.4-.1 0-.1.1-.2 0 .2.3.1.7.1 1.1 0 .4.2.8.2 1.2 0 .4-.1.7 0 1.2.3.8.4 1.6.5 2.4v.7l.3.6.3 1.3c.1.3.6.9.4 1.2.2.3.2.5.3.8.1.4.3.4.5.6.2.3 0 .6.2.8.2.3.4.3.6.6.4.5.9 1 1.3 1.4.4.4.9.6 1.2 1.1.1.1.1.3.2.4 0-.1.1-.1.1-.2.5.6 1.4 1 2 1.3.5.3.9.4 1.4.6.2.1.3.2.5.4.1.2.1.5.4.4 0-.1.1-.2 0-.3.4 0 .5.1.8.2.3.1.4.2.7.2.3 0 .6 0 .9.1.3.1.4.3.8.3.3 0 .6.1.8.1.3.1.5-.1.8 0 .3 0 .5.1.7.1.4 0 .5-.1.9-.1v.2h.3v-.2c.5-.3 1.1.1 1.6-.1v-.1c0-.1.9 0 1 0 .4 0 .5-.1.8-.2.6-.2 1.3-.1 1.9-.2.6-.2 1.2-.3 1.8-.4.1-.2.4-.1.7-.2l.2-.1c.1-.1.1-.3.1-.3.3-.2.3 0 .5.1 0 0 .1.2.2.2h.4c.2.1.4.2.6.2.2 0 .4-.2.6-.1.2 0 .9.4 1-.1-.3-.1-.9.2-.8-.3.1-.4.6-.2.9-.3.3-.1.6-.4 1-.4.2 0 .6.4.8-.1-.2-.1-.2-.2-.2-.4.2-.1.4 0 .5-.1.2-.1.1-.3.3-.4.3-.1 1 .1 1.3 0l1.1-.3c.4-.1.9 0 .9-.6.1-.1.4 0 .5-.1.2-.1.1-.3.2-.4.3-.3.5-.1.9-.2.2-.1.1-.2.2-.3.1-.1.3-.1.4-.2.2-.2.3-.4.5-.6.3-.2.8 0 1-.2.2-.2 0-.5.3-.7.3-.2.6-.3.8-.4.2-.2.4-.4.6-.5.3-.2.6-.2.8-.4 0-.2.3-.5.5-.6.2-.2.4-.3.7-.2h.3c.7.1.5 1.2.5 1.6 0 .7.1 1.2.2 1.8 0 .1 0 .2-.1.4 0 .1 0 .2-.1.3-.1.3-.2.6-.1.9.1.1.2.1.2.3 0 .1-.1.3-.1.4 0 .3-.1.7.1.9l.3.6c.1.3-.2.2-.4.4-.1.1-.1.5 0 .7.2.2 0 .2.3.3-.1.2 0 .4 0 .5-.1.2-.1.3-.1.4 0 .3.3.1 0 .4-.1.1 0 .2-.2.2v.4c0 .3 0 .5-.1.7.2.2 0 .4 0 .6 0 .2.3.3 0 .5v.3h.1v.2c-.4.2-.7.2-1 .4-.2.2-.4.3-.7.5-.2.1-.5.3-.7.4-.2.1-.5.2-.7.4-.4.3-.7.7-1.2 1.1s-.9.6-1.4.9c-.4.2-.7.5-1.1.8-.3.3-1 .4-1.1.9-.2 0-.2.1-.3.1h.1c-1.3.4-2.3 1.5-3.4 2.3-.5.3-.8.7-1.3 1-.3.1-.5.3-.7.5-.2.2-.5.3-.7.5l-.3.3c-.1.1-.3.2-.4.2-.3.2-.5.4-.7.5-.9.6-1.7 1.3-2.6 1.9-1 .7-1.8 1.7-2.8 2.3-1.2.6-2.2 1.9-3.4 2.3 0 .3-.2.4-.4.5-.2.1-.4.3-.6.5-.4.3-.8.5-1.2.7-.2.1-.5.2-.6.4-.2.3-.2.4-.5.6-.3.2-.5.1-.7.4-.2.2-.3.4-.5.5-.2.1-.4.3-.5.4-.2.2-.4.2-.7.2.1.4-.5.4-.7.6-.3.2-.5.5-.8.7-.3.2-.7.3-1 .5-.3.2-.4.5-.8.5 0 .3-.4.4-.6.5-.2.2-.3.4-.5.6-.2.2-.5.2-.7.3-.2.1-.4.4-.6.5-.3.2-.3.4-.7.5a3 3 0 0 0-.8.4c-.4.4-.9.6-1.3 1a7 7 0 0 1-1.7 1.3c-.6.3-1.1.9-1.8 1.2v.1c-.2.2-.3.1-.5.3l-.4.4c-.1.1-.3.2-.4.3-.2.1-.2.3-.4.4-.3.3-.8.4-1.1.5l-1 .7c0 .3-.3.2-.5.4-.2.1-.2.4-.4.5-.3.1-.5.1-.7.3-.1 0-.1.2-.2.3h-.3c-.3.1-.7.5-1 .8-.2.1-.3.3-.5.4-.2.1-.5.2-.4.5-.4 0-1 .4-1.3.7-.2.1-.2.2-.4.4-.2.1-.5.2-.5.3-.2.1-.2.4-.4.4 0-.1-.1-.2-.1-.2-.3 0-.3.4-.4.5-.2.2-.4.2-.6.4-.4.2-.7.5-1.1.8l-1.1.8c-.3.1-.5.2-.8.3-.2.1-.3.3-.6.4v.3c-.5.2-.8.7-1.3 1-.2.1-.5.3-.7.5-.3.3-.3.4-.5.7-.2.3-.4.4-.6.6l-.6.6c-.2.2-.5.2-.8.4-.3.2-.3.5-.6.6-.4.3-.9.5-1.3.9-.3.4-.7.6-1.1 1-.3.4-.9.5-1.3.9l-1.2.9c-.4.4-.6.9-1 1.1-.5.3-.8.7-1.3 1-1 .6-1.8 1.5-2.7 2.2-1 .6-1.8 1.5-2.7 2.2-.5.4-1.1.7-1.4 1.2-.3.3-.3.5-.6.6-.3.2-.4.2-.6.4-.7.7-1.5 1.3-2.2 1.9-.7.6-1.4 1.1-2.1 1.7-.5.4-1 1-1.6 1.1.3.7-1.4.7-1.2 1.4-.3 0-.2-.3-.5-.2 0 .7-1.3 1.3-1.7 1.6-.4.3-.7.4-.9.8-.3.5-.7.4-1.3.6.1.2-.3.5-.4.6-.2.2-.4.4-.5.6-.4.5-.8.8-1.3 1.2-1 .7-1.8 1.6-2.8 2.3-.3.2-.6.4-.8.5-.3.2-.4.7-.6.9-.3-.3-.4.2-.6.4-.2.2-.5.2-.7.4-.4.4-.8.7-1.2 1-.9.7-1.7 1.6-2.6 2.2-1.1.7-1.9 2-3.1 2.7l-.8.4c-.2.2-.2.5-.5.7-.3.2-.4.2-.7.5-.2.2-.4.3-.6.5-.5.4-1 .7-1.4 1.2-.1.1-.3.2-.3.4-.5.2-1 .7-1.4 1.1-.2.2-1.2.8-1.2 1-.5.2-1.1.9-1.5 1.2-.3.2-.6.3-.8.5-.2.2-.3.5-.5.6-.4.4-.9.7-1.4 1.1-.5.4-.8.8-1.3 1.2-.9.7-1.8 1.4-2.6 2.2-.4.4-.7.6-1.1 1-.3.3-.7.5-1 .8-.3.3-.7.5-.9.8-.1.1 0 .4-.1.4-.1.1-.3.1-.4.2-.4.2-1 .7-1.3 1.1-.2.3-.3.4-.6.6-.2.2-.4.4-.6.5-.3.2-.5.5-.7.7-.2.2-.5.3-.7.4-.2.2-.2.4-.5.6-.1 0-.3.2-.3.2l-.3.3c-.4.3-.8.7-1.2 1-.9.8-1.7 1.7-2.4 2.5-.4.4-.9.7-1.3 1.1-.4.4-.8.9-1.3 1.3-.8.7-1.7 1.4-2.4 2.2-.8.9-1.8 1.5-2.6 2.4-.2.2-.5.4-.6.6-.2.3-.3.5-.5.8-.4.3-.9.6-1.3 1-.4.3-.7.7-1 1.1-.4.4-.8.6-1.2 1-.7.7-1.5 1.4-2.3 2.1-.8.7-1.4 1.5-2.3 2.3-1 .9-1.8 1.9-2.7 2.8-.5.4-.9.9-1.3 1.3s-.9.8-1.2 1.3c-.5 1-1.5 1.9-2.3 2.7-.6.7-1.1 1.4-1.7 2.2-.4.4-.7.9-1.1 1.4-.3.4-.5.9-.9 1.4-.3.4-.6 1-.7 1.5.3.2 0 .5-.1.7.2.3-.3 1.4-.4 1.7-.2.8.4 1.1.4 1.9 0 .4-.1.7-.1 1 0 .4.1.6.2.9.2.4.3.9.4 1.3.1.2.2.5.3.7.2.5.4 1 .6 1.4.1.2.3.3.5.6.1.3.2.7.4 1 .2.3.6.4.8.6.4.3.5.8 1 1 .9.4 1.6 1 2.5 1.4.2.1.5.1.7.2.2.1.4.3.6.3.3.1.5 0 .8.2.3.1.4.2.7.3.5.1 1.1.2 1.5.2.1 0 .2-.1.4-.1.1 0 .2.1.3.1.3 0 .5-.2.8-.1.3.1.5.2.7.1.2 0 .4-.2.7-.2.2 0 .5.2.7.2.3 0 .5-.2.7-.2.5-.1 1.1.1 1.6 0 .3-.1.3-.2.5-.4.1-.1.2-.1.3-.2.1-.1 0-.2.2-.3.2-.1.5 0 .6-.1.4-.1.3-.1.5-.4.2-.2.4-.2.5-.3.2-.1.2-.4.4-.4-.1-.5.4-.4.7-.6.3-.1.4-.4.6-.5.2-.2.5-.2.7-.4.1-.2.2-.4.4-.5.3-.4.5-.6.8-1 .1-.2.2-.4.4-.5.2-.3.3-.2.6-.3.2-.1.2-.3.4-.4.1-.2.3-.3.5-.4.4-.3.7-.7 1.1-1 .6-.5 1.2-1 1.7-1.5.1-.1.2-.1.2-.2.1-.1.1-.2.2-.3.2-.4.5-.6.8-1 .4-.4.4-.6.8-.8.4-.2.5-.7.9-.8.7-.3.8-.6 1.2-1 .2-.2.3-.1.4-.4.1-.2.3-.4.4-.6.1-.2.1-.4.3-.5.1-.1.2-.3.4-.4.2-.1.3-.2.5-.4.1-.2.2-.4.4-.5.2-.1.4-.1.6-.2.2-.1.3-.4.4-.5.2-.2.5-.3.6-.5.1-.2 0-.4.1-.6.1-.2.4-.3.5-.4.2-.2.4-.4.6-.5.3-.3.6-.7.9-1.2.2-.3.3-.5.5-.8.2-.3.2-.7.5-.9.2-.1.3-.2.5-.3.1-.1.2-.1.2-.2h.2c0-.1 0-.2.1-.2.1-.1 0-.1.2-.2.1-.1.3 0 .4-.1.2-.1.2-.4.3-.5.2-.2.4-.2.5-.4.2-.2.2-.3.4-.5.4-.3.7-.6 1-.9.2-.3.7-.4.8-.7-.1-.2.7-.7.9-.9.1-.2.3-.3.4-.5.1-.1.2-.4.4-.5.3-.3.6-.4.9-.7.3-.3.6-.7.8-1 .2-.3.4-.4.7-.7.2-.1.3-.3.4-.4.1-.1.3-.2.5-.3.3-.2.4-.7.6-1 0 0 .1 0 .2.1.1-.2.2-.4.4-.5.2-.2.3-.2.5-.4.3-.4.5-.6.9-1 .4-.3.4-.7.8-1 .2-.1.3-.2.5-.4.1-.2.1-.4.3-.5.3-.3.5-.7.8-.9.4-.3.8-.5 1.2-.8.9-.6 1.1-1.4 1.6-2.2.4-.7 1.1-1.5 1.8-1.8.3-.1.3-.2.5-.4.3-.3.6-.5.8-.9.2-.3.3-.5.5-.7.2-.1.5-.3.7-.4.3-.4.3-.7.6-1.1.2-.1.6-.3.7-.4v-.3c.1-.2.1-.1.2-.2.2-.2.4-.2.5-.3.2-.2.4-.4.5-.6.1-.2.3-.5.4-.6.2-.2.5-.3.7-.5.5-.3.7-.8 1.1-1.2.5-.5 1.1-.6 1.7-1.4.3-.4.6-.4 1-.6l.9-.6c.3-.2.5-.5.9-.7 0-.3.2-.3.4-.4.3-.1.3-.2.5-.5.2-.4.5-.6.8-.9.2-.2.3-.2.5-.3.2-.1.3-.3.4-.4.3-.3.6-.5.9-.8.2-.2.5-.4.6-.5.1-.2 0-.3.2-.5.3-.3.5-.6.8-1 .3-.3.6-.5.8-.9.2-.3.1-.3.5-.4.3-.1.4-.2.6-.4.3-.3.6-.6.8-1 .2-.2.4-.3.5-.5.2-.2.2-.4.3-.5.2-.4.6-.6 1-.8.2-.1.3-.3.5-.4.2-.1.5-.1.6-.3.2-.2.2-.4.3-.5.1-.2.3-.3.5-.4.2-.1.5-.2.6-.4.1-.1.3-.4.4-.5.3-.3.8-.4 1.1-.7.2-.2.2-.3.4-.5.1-.1.3-.3.5-.4.2-.2.5-.4.7-.5.2-.2.4-.5.6-.6v.1c.2-.2.6-.4.8-.6.5-.6 1.3-.9 1.8-1.4.3-.3.6-.6 1-.9.4-.2.8-.6 1.1-.9.1-.2.3-.4.4-.5l.6-.3c.4-.4.7-.7 1.1-1 .4-.3.8-.6 1.1-.9.6-.6 1.4-1.2 2.2-1.8.3-.2.3-.5.6-.6.5-.3 1-.5 1.4-.9.5-.4.8-.9 1.4-1.3.7-.5 1.4-1.2 2-1.6.4-.3.7-.7 1.2-1 .1 0 .3 0 .3-.1.1-.1.1-.2.2-.3.2-.2.5-.2.7-.4.4-.3.7-.6 1.1-.9l1.1-.8c.4-.3.8-.7 1.2-1.1.2-.3.6-.4.9-.6.3-.2.5-.4.8-.7.2-.2.4-.3.5-.4.1-.1.1-.2.2-.3.1-.1.2-.1.3-.2.2-.1.3-.3.5-.4.4-.3.7-.7 1.2-1 .2-.1.4-.2.6-.4 0-.1.1-.2.2-.2.1-.1.3 0 .4-.1.1-.1.2-.3.4-.5s.4-.4.7-.6c.4-.3.7-.5 1.1-.9.3-.3.7-.7 1.1-.9.3-.1.3-.1.5-.4.2-.3.3-.2.5-.4.2-.1.3-.4.5-.5.2-.1.3-.3.5-.4l.3-.3c.1 0 .4 0 .4-.1.2-.2.1-.4.3-.6.1-.1.2 0 .3-.1l.3-.3c.1-.2.2-.3.4-.4.4-.3.8-.7 1.2-1 .8-.6 1.5-1.2 2.2-1.8.2-.2.4-.3.5-.4.3-.1.4-.3.5-.4.3-.3.6-.4 1-.7.4-.3.6-.5 1-.8.4-.3.8-.4 1.1-.8v.1c.2-.2.4-.4.5-.4.2-.1.4-.1.6-.2 0-.2 0-.3.2-.3s.4-.4.5-.5c.4-.3.8-.6 1.2-1 .1-.1.1-.2.2-.3.1 0 .3-.1.4-.1.3-.1.3-.2.4-.4.2-.2.3-.2.5-.4.4-.2.7-.4 1-.7.3-.3.7-.5 1-.8.1-.1.3-.4.5-.5.1-.1.2 0 .4-.1s.1-.1.3-.2c.2-.1.4-.2.5-.4.1-.1 0-.2.2-.3.1 0 .2.1.3 0 0-.3.4-.3.5-.4.2-.2.3-.2.5-.4.3-.1.2-.2.4-.4.1-.2.4-.3.5-.4.2-.1.4-.2.6-.4.2-.1.2-.4.4-.5.1-.1.5-.2.7-.4.2-.2.4-.3.6-.5.3-.1.5-.4.6-.5.3-.3.6-.5.9-.8.2-.2.6-.3.8-.5.1-.1.3-.9.4-.5.3 0 .8-.5 1.1-.6.4-.2.9-.6 1.1-.9.4-.4.9-.5 1.3-1 .2-.1.3-.4.5-.5.2-.2.4-.1.6-.3.2-.1.3-.3.5-.5.2-.3.2-.3.5-.4.4-.2.8-.4 1-.7.3-.4.6-.5 1-.8.4-.3.7-.5 1.1-.7.3-.1.5-.4.6-.5.3-.3.6-.4.9-.6.4-.3.8-.4 1.2-.8.3-.3.7-.5 1.1-.7.2-.1.4-.3.6-.4l.6-.3c.4-.2.6-.4.9-.6.3-.2.6-.3.9-.5l.6-.3c.1 0 .2 0 .2-.1.1-.1.1-.2.2-.2.3-.2.7-.3 1-.4l.1.1c-.1.2-.1.5 0 .7.1.3.1.3 0 .6-.1.2-.1.5-.1.7 0 .2-.1.3-.1.4v.7c0 .5.2.9.1 1.4 0 .3-.2.5-.3.7 0 .2.1.4.1.6.1 1-.1 2-.1 3.1 0 .5-.1 1 0 1.5 0 .5.2 1.1.1 1.5l-.1.1c-.1.4.1.8.1 1.2 0 .2-.1.4-.1.6 0 .5.2.9.1 1.4-.1.3-.2.4-.1.6.1.5-.1 1 0 1.5s.1 1.1.1 1.6v.8c0 .1-.1.2-.1.3 0 .1.1.2.1.3.1.5 0 1.1 0 1.6v3c0 .5-.1 1 0 1.5 0 .3-.1.5-.1.7 0 .2.1.5.1.7v3.2c.1.4.2 1 .1 1.4 0 0-.1 0-.1.1-.2.7-.1 1.7 0 2.4 0 .3.1.6 0 .8-.1.2-.2.3-.2.6s.1.4.2.7c.1.2-.1.5 0 .7 0 .2.2.5.1.7 0 .1-.2.1-.2.2 0 .2.1.2.1.3 0 .5-.1 1.1-.1 1.6 0 .3.1.4.1.6v1.5c0 .3-.2.4-.1.7 0 .3.1.5.2.7.2.3.1.4 0 .6-.1.3 0 .8-.1 1.1v2.8c0 .5-.2.8 0 1.2.1.4-.1.8-.1 1.2h.1v.1c-.2.1-.2.2-.2.4.3.1.1.5.2.8 0 .1.1.3 0 .4 0 .1-.2.2-.1.4 0 .1.2.1.2.3 0 0-.1.3-.1.4-.1.5.1 1.2-.1 1.6-.3.1-.4-.1-.6.1-.1.2-.1.6 0 .7.1.2.3.4.3.6.1.2.1.5.1.7 0 .3.1.5 0 .8-.1.2-.2.4-.2.6.1.5.3.9.2 1.4-.1.4-.2.6-.2 1.1 0 .4-.1.8-.1 1.2 0 .5-.3.8-.2 1.4 0 .5 0 1.1-.1 1.5 0 .3-.1.5-.1.8 0 .2.1.4.2.6l.3 2.4v1.2c0 .4-.2.6-.3 1-.1.2-.1.5-.1.7 0 .5 0 1 .1 1.5 0 .5.1 1 .1 1.5-.1.5.1 1 .1 1.5 0 .3.1.6 0 .8 0 .2-.2.4-.2.6-.1.4.1.4.2.6.1.2 0 .5 0 .8 0 .5-.1 1-.3 1.4-.1.3-.2.7-.1 1 0 .2.1.4.1.7 0 .5-.2 1-.2 1.5v3.2c0 .4-.1 1-.1 1.4 0 .2-.1.4 0 .7 0 .2.1.3.2.5.1.4-.1.8-.1 1.2v.8c0 .3-.2.4-.2.6-.1.2 0 .6 0 .8 0 .3.1.5.1.8 0 .5-.1 1-.1 1.5-.1.4-.1.9 0 1.4 0 .4-.1.8-.1 1.3v1.4c0 .3 0 .6-.1.8 0 .2-.1.4-.2.6.3.2.1 1.2.1 1.5 0 .5 0 1-.1 1.5 0 .3.1.5.1.7 0 .3-.2.4-.2.7 0 .3.1.4.1.7 0 .1-.1.2-.1.3 0 .1.1.3.1.4 0 .6-.2 1.4-.2 2-.1.5.1 1 .1 1.5 0 .2-.1.4-.1.6 0 .3.1.5.1.8-.1.3-.3.5-.3.8 0 .6 0 1.4-.1 2.2.3.1.4.5.3.7-.1.1-.2.2-.2.3 0 .2.1.4.2.5v1c0 .4.1.8-.1 1.1-.1.1.1 1.2.1 1.4v.8c0 .1.1.3.1.4 0 0 .1 0 .1.1s-.1.1-.1.2-.1.2 0 .4c0 .1.1.2.2.3.1.3 0 .6 0 .8 0 .2.1.5.1.7 0 .2 0 .6.1.8 0 0 .2 0 .2.1.1.1 0 .3 0 .4l.3.6c.1.4.2.9.2 1.3h.2c.1.2 0 .5.1.8 0 .2.1.4.2.5.1.5.3.9.5 1.4.1.3.2.5.3.8 0 .1 0 .3.1.3 0 .1.2.2.2.3.2.4.3.8.6 1.3.2.3.4.5.6.8.2.2.5.3.6.5.2.2.3.4.5.6.4.4.8.7 1.3 1 .4.2.7.5 1.1.7.4.3.9.4 1.3.6 1 .4 2 .7 2.9.9.5.1 1.1.3 1.6.3h2.5c.9 0 1.8.1 2.7-.2.3-.1.5-.2.7-.3.2-.1.5 0 .7-.1.2-.1.3-.3.5-.4.3-.1.5-.2.7-.3 1.2-.7 2.3-1.5 3.3-2.3.2-.2.4-.3.5-.4.2-.2.4-.3.5-.5l.9-1.2c.1-.2.2-.3.3-.5.1-.3.1-.4.2-.6.2-.4.3-.6.4-1 .1-.1.2-.3.3-.5l.1-.2c.1-.1 0-.2.1-.3.1-.1.5 0 .6-.1.1 0 .1-.2.1-.2h.3c.1-.1.2-.3.3-.3.2-.1.5 0 .5-.2-.3-.2-.8-.3-1.2-.4 0 0-.1-.1-.2-.1-.1-.1-.3-.1-.4-.1-.1-.1-.1-.5-.1-.7 0-.2.1-.3.2-.5.1-.1.1-.5.2-.5.2-.1 1.2.2.9-.4-.3.1-.2-.2-.3-.3-.2-.1-.4-.1-.4-.2.2-.1.3 0 .5-.1.1-.1.1-.4.1-.4-.1-.4-.5-.4.2-.8.1 0 .4-.5.8-.5.2-.3.3-.6.1-.7-.1.1-.1.4-.3.4-.4.1-.1-.3-.1-.4-.1-.2-.5 0-.6 0-.2 0-.2-.3-.4-.3 0 .1-.1.2-.1.3-.2 0-.4-.1-.4-.3 0-.1.2-.2.3-.3 0-.1-.4-.2-.3-.5.1-.3.5-.5.2-.7 0 .2-.3.5-.4.3.1-.1.2-.2.2-.3 0 0-.1 0-.1-.1-.3.4-.2-.2-.3-.3-.2-.2-.5.1-.7-.1.1-.1.2-.1.2-.2-.3 0-.2-.3-.3-.4-.1-.3-.2-.3.1-.5h.2c.1-.1.1-.2.2-.2.2-.1.5.2.5-.2-.5 0-.1-.4-.2-.6 0-.1-.2-.2-.3-.2-.2-.1-.1 0-.3.1-.2.1-.5.2-.7-.1-.1-.2.1-.3.1-.4s-.2-.2-.3-.2c.1 0 .1-.1.2-.1-.1-.1-.1-.2-.1-.3.4-.1.2.2.2.3.1.2.2.3.4.3.2.1.6.2.7.1.1-.1.1-.5.1-.6.2 0 .7.1.5-.3 0-.2-.5-.2-.3-.5-.1 0-.3-.1-.3-.2.2-.2.3.1.5 0 .2 0 .2-.2.3-.3-.6-.1-.2-.5.2-.4.5.1.1.4 0 .7.3 0 .6-.5.5-.8-.1-.2-.4-.1-.5-.2-.3-.1-.4-.1-.5-.3-.3 0-.5-.4-.6-.7-.4-.5-.6.4-.9-.1.3-.1.5-.8.9-.5.1 0 .1.4.3.5.2 0 .4-.3.5-.4-.3-.1-.2-.3-.3-.4-.2-.1-.5.1-.3-.3-.3-.1-.3-.3-.4-.4-.4-.2-.2.2-.3.4-.2-.3-.2-.8-.1-1.1.1-.2.2 0 .1-.3-.1-.2-.2-.3-.4-.3-.2.4.4 1-.3 1.2-.3.1-1.1-.3-1.2-.6-.1-.1-.2-.6-.2-.7.1-.3.4-.2.1-.5l-.3-.3v-.4c0-.1-.1-.2-.1-.3.1-.2.2-.1.3-.2.1-.1.3-.2.1-.4-.2-.2-.3.2-.3-.2 0 0 .2 0 .2-.1 0-.2-.1-.1-.2-.1-.1-.2-.3-.2-.1-.4.2-.3.6.1 1 0 .3-.1.5-.3.7-.5-.1 0-.1 0-.2.1-.1-.1-.5-.5-.7-.5-.4-.1-.3.4-.5.5-.1 0-.2-.1-.3-.2-.8-.1-.1-.5.2-.6.3-.1.6-.1.9-.1.3 0 .5.1.7-.2-.2-.2-.5-.3-.4-.5.1-.2.4-.4.5-.5.1-.1.2-.1.3-.3.1-.1-.1-.2 0-.3 0-.2.4-.4.5-.5-.1-.1-.5-.2-.4-.4 0-.1.5-.1.2-.4-.1.1-.2.3-.3.3-.3 0 0-.3.1-.3-.2-.2-.3.1-.5 0v-.4c-.1.1-.2.1-.3.1-.1-.2.2-.3.3-.4.2-.4-.2-.1-.2-.4v-.2c-.1 0-.2 0-.2-.1-.1-.1-.1-.4-.1-.5s-.1-.4-.1-.5c0-.2-.1-.4-.1-.6h-.2v-.1c0-.1-.1-.1-.2-.2 0-.1 0-.2.1-.2s0 .2.1.2.1-.1.1-.2-.1-.1-.2-.2-.1-.3 0-.5c0-.1.1-.1.2-.2s0-.2 0-.3c0-.1.1-.2.1-.3 0-.1-.2-.1-.2-.1-.1-.1-.1-.2-.2-.2s-.3.1-.3 0c-.1-.1 0-.2.1-.2.1-.1.1-.1.1-.2s.1-.5-.2-.4c0 0-.2.1-.3.2-.1 0-.2.1-.3.2 0 .2.2.4 0 .5-.1.1-.3.1-.4 0-.1-.1-.1-.2-.2-.3-.1-.1-.2-.3-.4-.4-.1 0-.2 0-.3-.1-.1-.1 0-.1.1-.2v-.3s-.1 0-.1-.1v-.2c-.1-.1-.4-.1-.5-.2-.1-.2.1-.2.2-.3.1-.1 0-.1.1-.2 0 0 .1-.1.1-.2s.1-.2.1-.3v-.2c0-.2.3-.3.4-.4.1-.3.1-.5-.1-.7-.3-.2-.5-.2-.5-.6.1-.7 1.1-.7 1.1 0-.5.1-.1.7.1.2v-.3c0-.1.1-.1.2-.1.1-.3 0-.2-.1-.5 0-.1 0-.4-.1-.5-.1-.2-.1-.3.1-.4.1-.1.3-.3.2-.4 0-.1-.5 0-.6-.1-.2-.6.9-.4.5-.9-.2-.3-1.3-.2-.6-.7.2-.2.4-.2.5-.5 0 0 .1-.3 0-.4-.2-.2-.2.1-.3.1-.1 0-.5-.1-.6-.2-.2-.2-.1-.4-.1-.6 0-.3-.1-.4 0-.5l.2-.2c.1-.1.1-.1.2-.1s.2.1.2 0c.5-.3-.3-.5-.9-.4-.2 0-.4.3-.5 0-.2-.3 0-.5.2-.5.7-.3-.1-1.1.2-1.3.1-.1.2-.1.3-.1.1 0 0-.2.1-.2 0 0 .1 0 .1-.1.2-.1.2-.1.3-.2l.2-.3c0-.6-.7-.3-.9-.1 0 0-.2 0-.2-.1.2-.3.3-.4 0-.6-.2.2-.4.2-.6 0 0-.2.2-.4.2-.7-.2-.1-.8-.4-.8-.6 0-.2.4-.5.5-.6.2-.3.3-1 .2-1.3-.2-.2-.3-.1-.4-.5v-.3c0-.1-.2-.2-.2-.3-.3-.6.6-.4.9-.5.2-.1.5-.3.5-.4-.1-.2-.3-.2-.5-.2-.1 0-.3-.1-.3-.1-.1-.2 0-.2 0-.3 0-.3-.1-.4-.1-.6v-.4c0-.1.2-.1.2-.2.1-.2-.2-.4-.5-.3-.3.1.1.3.1.4 0 .1-.3.4-.4.4-.2.1-.4-.2-.5-.1-.2-.1 0-.2-.1-.4-.1-.1-.3-.2-.3-.3 0-.4.5-.2.5-.5s-.4-.4-.5-.7c-.2-.4.3-.4.2-.7 0-.4 1.3 0 1.5-.2.2-.2 0-.4-.2-.6-.2-.1-.5 0-.5-.4 0-.2.2-.5.1-.6-.2-.2-.5 0-.7-.3-.1-.2.2-.4.1-.6 0-.1-.1-.3-.1-.3-.1-.2-.2-.1-.3-.2-.5-.1 0-.3.2-.4.1-.1 0-.2.1-.3.1-.1.2-.1.3-.2.1-.2.1-.5.3-.7.2-.2.5 0 .7-.1.4 0 .5-.5.6-.8-.3-.2-.3.4-.3.5-.1.2-.4.2-.5-.1-.1-.4.2-.3.3-.5.1-.2 0-.5.2-.7.1-.1.2-.1.2-.2-.2-.1-.2.2-.3.3 0 .1-.2.3-.4.2-.1-.1.1-.3 0-.5s-.3-.2-.4-.3c-.1-.3.3-.1.5-.3.1-.2-.1-.5-.1-.7 0-.1.1-.2.2-.3.1-.2-.1-.2-.2-.1 0 .1 0 .3-.1.4-.1 0-.2.1-.3.1-.1.1-.3.1-.4 0 0-.1.1-.3 0-.4-.1-.1-.1-.1 0-.3 0-.1.1-.1.1-.2.1-.3-.2-.3-.4-.3 0-.2 0-.3-.1-.4-.1-.1-.1-.2-.3-.3-.3-.2-.1-.4.1-.6l.3-.3c.1-.1.2-.2.3-.2.2-.2.3-.4.4-.6 0-.2 0-.5-.2-.6-.2 0-.3.1-.2-.2 0-.1.1-.2.2-.2s.3.1.4 0c.1-.1.1-.2 0-.3-.2-.1-.6-.1-.8 0-.2 0-.5.1-.5-.2.1-.2.5 0 .7.1.1 0 .3.1.4 0 .2 0 .1-.1.3-.2.2-.1.5-.1.5-.3 0-.1.1-.3 0-.4s-.3 0-.3-.2c-.1-.2.3-.4.2-.6 0-.1-.1-.1-.1-.1v-.2c-.1-.1-.3-.1-.4-.1-.1-.1-.5-.3-.4-.5.1-.2.5-.1.7-.1.3-.1.4-.3.2-.4-.2-.2-.4-.2-.6-.3l-.3-.3c0-.1 0-.2-.1-.3-.1-.2-.3-.2-.4-.4-.1-.3.1-.3.3-.3.1-.1.1-.2.2-.2.2 0 .5.1.6.2.1 0 .2.2.3.2.1 0 0-.3.1-.4 0-.1.1-.2.1-.3 0-.1-.1-.2-.1-.3-.1-.1 0-.3-.1-.4-.1-.1-.2-.3-.3-.3-.3-.1-.5.5-.8.4 0-.2.5-.2.4-.4-.1-.2-.4-.3-.5-.1-.1.1 0 .3-.1.3-.2 0-.1-.2-.1-.3-.1-.1-.2 0-.2-.2 0-.1.1-.1.2-.2-.2-.2.4-.3.4-.4.1-.1.2-.2.1-.3-.1-.1-.2 0-.4 0-.3-.1.1-.4-.1-.6-.1-.1-.2 0-.2-.2s.1-.2.2-.2c.1-.1.2-.2.2-.3v-.2c0-.1.1-.2.1-.2 0-.2-.1-.2 0-.4l.3-.3c.2-.2.4-.2.6-.2.2 0 .6 0 .7-.2.1-.1.1-.2-.1-.3-.1-.1-.2 0-.3 0-.2 0-.2-.1-.2-.2s-.1-.2-.1-.3c-.1-.4.2-.3.4-.5.2-.1 0-.2-.1-.2-.2 0-.2-.1-.3-.1-.1-.1-.2-.1-.2-.2s.1-.1.2-.2.3-.3.3-.5c-.1-.1-.1.2-.2.2-.1.1-.3.1-.3-.1 0-.1.1-.2.2-.3.1-.1 0-.3.1-.4 0-.2.2-.4.3-.5.1-.1.2-.3.1-.3s-.2.2-.3.2c-.1.1-.2.7-.4.5-.2-.1 0-.5.1-.7.1-.3.3-.4.4-.7.1-.2.4-.4 0-.5-.1-.1-.2 0-.3-.1-.1-.1.1-.1.2-.2s0-.2-.1-.2-.1.1-.2 0c-.1 0-.1-.1-.2-.2 0-.2.1-.3.2-.3.2-.1.2-.3.2-.5v-.2c0-.1.1-.1.1-.2.1-.1.1-.2.1-.3v-.2c0-.1 0-.1.1-.2 0-.1.1-.1.1-.2s.1-.4 0-.5c0-.1-.1-.1-.2-.1s-.1-.1-.2-.2-.3-.1-.4-.4v-.3-.3c0-.1.1-.1.2-.1s.2-.1.2-.2c.1-.2.1-.4-.2-.5 0 0-.1-.1-.2-.1s-.1.1-.2.2c-.1 0-.1.1-.2 0v-.2c.1-.1.3.1.4-.2v-.3-.2c0-.1.1 0 .1-.1.3-.1.2-.5.2-.8v-.7c0-.2.1-.4-.1-.5-.1-.1-.3 0-.3-.1s0-.2.1-.2c.1-.1.2 0 .3-.1.1-.1.1-.1.1-.2v-.6-.3c-.1-.1-.1-.2-.1-.3v-.6-.3c0-.1.1-.2.1-.3v-.2-.3-.5c0-.1-.1-.2 0-.3 0-.1.2 0 .2-.1v-.2s-.1 0-.1-.1c0 0 0-.1-.1-.1 0-.2-.1-.3-.3-.3-.1.1-.3.1-.2-.1 0-.1.1 0 .2-.1.1 0 .1-.1.2-.2.1 0 .1-.1.1-.2.1-.1.1-.1 0-.1h-.1v-.1c0-.1 0-.2-.1-.2-.1-.2-.1-.4-.1-.6 0-.2 0-.4.1-.6 0-.1.1-.1.2-.2v-.2-.1c0-.1 0 0-.1-.1s-.1-.1-.1-.2v-.4c0-.1 0-.2.1-.2s.3 0 .4-.1c.1-.2-.2-.1-.2-.1 0-.1 0-.2-.1-.2s-.2 0-.2-.1.1-.1.1-.1c.1-.1.1-.2.1-.2 0-.1.1-.3.1-.4 0-.1-.1-.2-.1-.3v-.5h-.2c-.1-.2 0-.4.1-.5.1-.1.3-.3 0-.4h-.3c-.1.1-.2.1-.2.2-.1.1-.1.1-.2.1s-.2-.1-.2-.2c.1 0 .2 0 .2-.1v-.3c0-.1 0-.2.1-.3 0-.1.1-.1.2-.1.1-.1.1-.2.1-.3 0-.2-.1-.2-.2-.2-.1-.2.3-.3.4-.3.2 0 .4.1.5-.1 0 0 .1-.1.1-.2s0-.1-.2-.2h-.2c-.1-.1 0-.1 0-.2s0-.3.1-.4c0-.1.1-.1.1-.1 0-.1.1-.1.1-.2v-.2c-.1-.1-.1 0-.2 0s-.2-.3-.2-.4c-.1 0-.1-.1-.2-.1s-.1.1-.1.2c-.1.1-.5 0-.3-.2.1 0 .2 0 .2-.1.1-.1 0-.2.1-.3 0-.2.1-.2.2-.4.1-.1.1-.3.1-.4v-.3c0-.1-.1-.1-.2-.1-.2 0-.2-.2-.2-.4v-.3c0-.1.1-.1.1-.2.1-.3 0-.5 0-.7 0-.2-.1-.5 0-.6 0-.1.1-.2.1-.3 0-.1-.1-.1-.1-.2-.1-.2-.1-.4 0-.6.1-.2.1-.4.1-.5 0-.2-.2-.3-.1-.4 0-.1 0-.2.1-.3 0-.1.1-.1.2-.2 0-.1.1-.2.1-.3 0-.1-.1-.1-.2-.2 0-.1-.1-.1-.1-.2s0-.2-.1-.3c-.1-.3.3-.2.3-.4.1-.1 0-.4-.1-.4-.1-.1-.2 0-.2-.1v-.3-.2c.1-.1.2-.1.2-.2.1-.1.1-.3.1-.5.1-.1.1-.2.2-.3.1-.1.2-.3.1-.4-.1-.1-.2-.1-.2-.3v-.5c.1-.2.2-.2.2-.4 0-.3-.4-.2-.6-.4-.2-.2-.1-.6 0-.8 0-.1 0-.3.1-.3.1-.1.2-.1.2-.3.1-.1.1-.3.1-.4v-.2c0-.1.1-.1.1-.1.1-.2.2-.5.1-.7 0-.1-.2-.2-.3-.3-.1-.1-.1-.2-.2-.3-.2-.2-.3-.4-.3-.6 0-.2.1-.2 0-.3l-.3-.3c-.1-.2-.1-.5.2-.6.1 0 .3-.1.4 0 .1.1 0 .3.1.4.2.2.5 0 .5-.3 0-.2-.2-.2-.2-.4.1-.2.2-.2.3-.4 0-.1.1-.2 0-.3h-.1l-.1-.1c-.1-.1-.4-.1-.5-.2.1-.2.3-.4.2-.6 0-.1-.2-.1-.2-.3v-.4c.1-.1.2 0 .3-.2.1-.1 0-.3 0-.4.1-.1.2-.2.2-.3 0-.1-.2-.2-.3-.3 0-.2.2-.2.2-.4.1-.1.1-.3.1-.4 0-.2 0-.2.1-.4s.2-.2.2-.4v-.7c0-.3.1-.6 0-.8-.1-.2-.2-.1-.3-.1-.1-.1 0-.2-.1-.3 0-.2-.1-.2-.2-.1-.2 0-.2 0-.3-.1-.1-.1-.2-.1-.2-.3 0-.1.1-.1.2-.2.2-.1.2-.5.2-.7 0-.2.1-.2.2-.3.1-.1.1-.3.1-.4 0-.3 0-.6.1-.8.1-.2.3-.3.3-.5 0-.1 0-.3-.1-.3-.2 0-.1.2-.2.2-.1.1-.6-.2-.6-.3l.1-.1v-.2-.4c0-.1.1-.2.2-.3.1-.1.1-.1.2-.3.1-.1.2-.2.3-.2.1-.1.1-.3.2-.4 0-.2.2-.2.2-.3.1-.1.1-.2.1-.3 0-.2 0-.3-.2-.3-.1 0-.2.1-.3.2-.3.1-.2-.3-.3-.5 0-.1 0-.2.1-.3 0-.1.1-.2.2-.3v-.3-.2c.1-.1.1-.2.1-.4s-.1-.2-.2-.4c-.1-.1-.1-.3 0-.5 0-.2.2-.4.2-.6.1-.2.1-.5 0-.5-.1-.1-.2 0-.3-.2-.1-.1-.1-.3 0-.3.1-.1.2 0 .3 0 .1 0 .2 0 .3-.1 0-.1 0-.2.1-.4 0-.1.1-.2-.1-.3-.3-.1-.6.1-.6-.4 0-.3.3-.3.4-.5v-.5c0-.2.1-.3.2-.4.1-.1.2-.3.1-.4-.1-.1-.2 0-.2-.2 0-.1.1-.1 0-.2l-.1-.1c-.1-.1-.1-.2-.1-.4.1-.3.3-.3.5-.4.2-.1.5-.5.5-.7 0 0 0-.1-.1-.1.1-.2.2-.3.3-.5.2.1.2.3.4.2.1-.1.1-.3.3-.4.2-.1.5 0 .6-.2.1-.1 0-.4.2-.5.3-.2.6 0 .9-.1.1 0 .1-.2.2-.3.1-.1.2-.1.3-.2.2-.2.2-.4.4-.5.1-.2.3-.3.2-.5 0 0-.1 0-.1-.1s.1 0 .1-.1c.1-.1.2-.1.3-.2l.3-.3c.1-.1.2-.1.3-.2.1-.1.2-.2.3-.2h.3c-.3-.2.1-.4.3-.4.1 0 .3 0 .3-.1s0-.2.1-.3c0 0 .1 0 .1-.1 0 0 0-.1.1-.1.1-.1.1-.1.2-.1s.1-.1.2-.1h.2s0-.1.1-.2c.1 0 .1-.1.2-.1.1-.1.3-.3.5-.3v.1c.1 0 .3-.2.3-.3.1-.1.3-.2.4-.3.1-.1.4-.4.6-.4 0 .2.2.1.3-.1.1-.1 0-.1.1-.2.1-.2.4-.4.6-.4h.2c.1 0 .1-.1.2-.2l.2-.2c.1-.1.2-.1.3-.2.1-.1.2-.2.3-.2.1-.1.2-.2.3-.2.1 0 .2 0 .3-.1.3-.1 1-1.1 1.3-.8.2-.4.6-.5 1-.8-.1-.2.3-.2.5-.2.2-.1.4-.3.5-.4a3 3 0 0 1 1.1-.6c.3-.1.3-.2.5-.4s.3-.3.5-.4c.4-.2.7-.5 1.1-.7.5-.4.8-.5 1.3-.8.2-.2.4-.2.6-.2.2 0 .6 0 .7-.2 0-.1-.1-.2-.1-.3 0-.1.1-.2.2-.3l.6-.3c.3-.2.4-.1.6-.1.2 0 .7.1.6-.2 0-.1-.1-.2-.3-.3 0-.3.3-.3.4-.4.3-.1.3-.2.5-.3.2-.2.4-.3.5-.4.1-.1.2-.1.3-.1l.3-.3c.2-.1.5-.1.6-.2.2-.2.2-.4.4-.5.4-.2 1-.3 1.3-.5.1-.1.1-.1.1-.2.5-.3.9-.5 1.3-.8.1-.1.3-.1.4-.2.1-.1.1-.3.3-.4.2-.2.6-.1.6-.5.3-.1.9-.7 1-.6.3-.4.6-.5 1.1-.7.4-.2.7-.5 1.1-.7.2-.1.4-.2.5-.4.2-.1.3-.2.5-.4.4-.3.7-.5 1.1-.7.5-.2.8-.5 1.3-.7.4-.2.8-.3 1.1-.5.2-.1.3-.3.5-.4.2-.2.3-.3.5-.4.1-.1.1 0 .3-.1.1-.1.1-.2.2-.3.1-.1.3 0 .5-.1 0 0 .2-.2.3-.2.2-.1.3-.3.5-.4.5-.3.9-.5 1.3-.8.8-.5 1.7-.9 2.5-1.4.4-.2.5-.5.9-.7.5-.2.9-.5 1.3-.7.9-.4 1.7-1.1 2.5-1.6.5-.3.9-.5 1.4-.8.4-.3.9-.4 1.3-.6.5-.3.9-.6 1.3-.8.5-.2.9-.4 1.2-.7.3-.2.6-.4 1-.6.4-.2.8-.3 1.2-.6.1-.1.3-.4.5-.4.2-.1.4-.1.6-.3.3-.1.4-.3.6-.5.2-.1.5-.1.7-.2.2-.1.3-.3.5-.4l.6-.3c.4-.2.8-.5 1.1-.7.2-.1.4-.3.6-.4.3-.1.5-.2.8-.3.2-.1.4-.3.6-.3.1 0 .2 0 .3-.1.1 0 .1-.2.2-.3.2-.1.5-.1.7-.2.2-.1.4-.2.5-.3.4-.4.5-.5 1-.6.4-.1 1-.4 1.3-.7.2-.1.2-.3.5-.4.3-.1.5-.2.7-.3.5-.2.8-.5 1.3-.8.8-.4 1.6-.9 2.4-1.3.2-.1.3-.2.5-.4l1.1-.6c.2-.1.3-.3.5-.4.4-.2.8-.4 1.2-.7.4-.2.9-.6 1.3-.7.2-.1.3 0 .5-.2.2-.1.3-.3.5-.4.3-.1 1-.3 1-.6.2-.1.3-.1.5-.2.1-.1.2-.2.4-.3.1-.1.6-.4.8-.4.2-.1.4 0 .5-.1.1-.1.5-.4.5-.4.1-.1.3-.2.4-.3.2-.1.3-.3.5-.2.2-.1.3-.3.5-.4.2-.1.5-.2.6-.3l1.2-.6c.2-.1.3-.4.5-.5.2-.2 1.1-.4 1.3-.6.2-.2.2-.3.5-.4.6-.2 1-.4 1.5-.7.2-.1.4-.3.7-.4.1-.3.1-.4.5-.5.3-.1.7-.2 1.1-.2.1-.3.8-.5 1-.7.2-.1.3-.3.5-.4.2-.1.3-.1.5-.3.3-.3.7-.4 1.1-.6.2-.1.5-.2.6-.3.2-.1.1-.4.3-.5.2.1.7 0 .8-.1.1-.1.1-.2.2-.3.1 0 .2-.1.4-.1.5-.2.8-.6 1.3-.7.5-.1.7-.4 1.2-.6.3-.1.3-.2.5-.4.1-.1.3-.1.4-.1l.3-.3c.5-.3 1.1-.4 1.5-.7.3-.1 1.1-.6 1.4-.7l1.2-.6c.4-.2.9-.3 1.3-.6.5-.4 1.1-.6 1.7-.8.1-.3.6-.5.9-.6.2 0 .4 0 .5-.1l.1-.2c.2-.2.5-.3.7-.3 0-.2.3-.2.4-.2.2-.1 1.2-.6 1.5-.7.2-.1.3-.2.5-.3.3-.1.3-.1.4-.4.3 0 .4 0 .6-.1.1 0 .1-.1.1-.2.1 0 .2-.1.3-.1.4-.2.7-.5 1-.6.2-.1.4 0 .5-.1.2-.1.3-.3.5-.4.4-.2.7-.4 1.1-.6v.1c.1 0 .3-.3.5-.4.2-.2.4-.1.6-.2.2-.1.9-.5 1.1-.7.2-.1.4-.3.6-.4.3-.2.8-.2 1.1-.4.2-.2.4-.5.6-.5.2-.1.5-.2.7-.2.4-.2.8-.4 1.3-.6.5-.3 1.1-.7 1.7-.9.5-.1.9-.4 1.3-.6.2-.1.5-.3.7-.4.2-.1.3-.1.4-.2h.2v-.2c.4-.2.9-.3 1.3-.5.2-.2.3-.3.5-.4.3-.1.3-.2.5-.4.4-.2 1-.3 1.4-.5.4-.2.8-.5 1.3-.6.4-.2.8-.4 1.2-.5.4-.1.8-.2 1.2-.5.4-.3.8-.4 1.2-.5.2-.1.3-.4.5-.4s.5.2.6 0c-.3-.3.3-.3.4-.4.3-.1.4-.2.6-.3.4-.2.8-.4 1.2-.5.5-.2.9-.3 1.4-.6.2-.1.4-.3.6-.4.2-.1.5-.1.7-.2.3-.2.6-.3.9-.5.3-.1.6-.1 1-.3s.6-.3 1-.4c.3-.1.7-.1 1-.2 0 0 .7-.4 1.1-.5.3-.1.7-.3 1-.4 1.1-.3 2.1-.7 3.2-1.2.5-.2 1-.3 1.4-.5.4-.2 2.7-.8 3.3-1.1 1-.4 2.1-.7 3.1-1 .5-.2 1.1-.4 1.5-.5.5-.2 1.2-.3 1.7-.4 1-.4 2.1-.6 3.1-1 .5-.2 1.1-.2 1.6-.4.7-.3 1.4-.5 2.2-.9.8-.4 1.7-.6 2.5-.9.4-.1.7-.3 1.1-.5.3-.2 1.9-1.1 2.3-1.3.4-.2.9-.5 1.3-.7.8-.5 1.5-1.4 2.3-1.7.1 0 .4-.1.5-.3-.1-.2.3-.6.5-.7.3-.1.8-.2.6-.6.4-.2.4-.1.6-.4.2-.2.5-.2.7-.4.3-.5.6-.9.9-1.4.3-.4.5-.5.7-.9.1-.2.3-.5.4-.7.1-.2.2-.4.2-.6 0-.1 0-.2.1-.3.2-.1.2-.1.3 0 .1.1.2.6.5.3.2-.2-.3-.5-.2-.8.1-.2.2-.2.2-.3.1-.1-.1-.3 0-.5.3 0 .5-.2.5-.4h-.1c-.2-.3.3-1.2.6-.8.1.1-.1.3.1.3s.2-.2.2-.3c.1-.2-.1-.4 0-.6 0-.2.2-.3.3-.5.1-.2.1-.4.1-.7 0-.2.6-.2.7-.2.1 0 .5-.3.5-.4.5 2.3.1 2.3 0 2.1"
        class="st1" />
    <path
        d="M582.3 1073.1c0 2.4 1.2 3.7 3.7 3.7h24.4c2.7 0 4.1-1.2 4.1-3.7V956.9c0-1.1-.5-2-1.4-2.7-.9-.7-1.8-1-2.6-1h-24.4c-1.2 0-2.2.4-2.8 1.1-.6.7-.9 1.6-.9 2.6v116.2zM638.9 1015.1c0 5.9.7 11.5 2.2 16.9 1.5 5.4 3.6 10.5 6.4 15.1a65.3 65.3 0 0 0 22.8 22.7c4.7 2.8 9.8 4.9 15.2 6.4 5.4 1.5 11.1 2.2 16.9 2.2 5.8 0 11.4-.7 16.9-2.2 5.5-1.5 10.5-3.6 15.2-6.4 4.7-2.8 9-6.1 12.9-9.9 3.9-3.9 7.2-8.1 9.9-12.8 2.7-4.7 4.9-9.7 6.4-15.1s2.3-11 2.3-16.9c0-5.9-.8-11.5-2.3-16.9-1.5-5.4-3.7-10.5-6.4-15.2-2.7-4.8-6-9.1-9.9-12.9-3.9-3.9-8.2-7.2-12.9-9.9-4.7-2.8-9.8-4.9-15.2-6.4-5.4-1.5-11-2.3-16.9-2.3-5.9 0-11.5.7-16.9 2.3-5.4 1.5-10.5 3.6-15.2 6.4-4.7 2.7-9 6-12.8 9.9-3.9 3.9-7.2 8.2-10 12.9a62.66 62.66 0 0 0-8.6 32.1m34.5-12.9a31.46 31.46 0 0 1 16.4-17.6c3.8-1.7 8-2.6 12.6-2.6a30.53 30.53 0 0 1 22.6 9.7c2.8 3 5 6.5 6.5 10.5s2.3 8.3 2.3 12.8c0 4.6-.8 8.9-2.3 12.9-1.5 4-3.7 7.5-6.5 10.4-2.8 3-6.1 5.3-10 7-3.8 1.7-8.1 2.5-12.6 2.5-4.6 0-8.8-.8-12.6-2.5a31.02 31.02 0 0 1-16.4-17.4c-1.5-4-2.3-8.3-2.3-12.9-.1-4.5.7-8.8 2.3-12.8M261 994c0 1.8-.3 3.5-.8 5.2-.5 1.7-1.4 3.2-2.4 4.6-1 1.4-2.3 2.5-3.9 3.4-1.5.9-3.3 1.5-5.2 1.7-.9.1-1.8.2-2.6.2-.8.1-1.7.1-2.7.1h-13.2c-1.8 0-2-1.4-2.1-1.9v-26.7c0-.5.3-1.7 1.8-1.9h9.7c1.6 0 3.1.1 4.4.1l4.4.3a14.07 14.07 0 0 1 9.1 5.3c1.1 1.4 2 2.9 2.6 4.6.6 1.7.9 3.3.9 5m36.5 80c0-.8-.3-1.7-.9-2.8-.6-1-1.1-1.9-1.5-2.7l-21.4-40.2c3-1.7 5.8-3.8 8.3-6.2 2.5-2.4 4.7-5.1 6.5-8.1 1.8-2.9 3.2-6.1 4.3-9.6a39.7 39.7 0 0 0-1.7-26.4 41.14 41.14 0 0 0-21.9-21.5c-5-2.2-10.4-3.2-16-3.2h-53.7c-1.2 0-2.2.4-2.8 1.1-.6.7-.9 1.6-.9 2.8v116.1c0 1.2.3 2.1 1 2.7.7.6 1.5.9 2.7.9h24.7c2.5 0 3.8-1.2 3.8-3.6v-37.5h13.5s20.6 38.8 21.7 40.2c.5.8 1.6.8 2.5.8h28.5c1 0 1.8-.2 2.4-.7.6-.5.9-1.3.9-2.1M528.2 1015c0 4.4-.8 8.4-2.3 12.1-1.5 3.7-3.6 6.9-6.3 9.7-2.7 2.7-5.8 5-9.4 6.7a32.6 32.6 0 0 1-11.6 3l-3.7.3c-1.2.1-2.4.1-3.7.1h-4.9c-1.6 0-2-1.2-2.1-1.8v-60.3c.1-.6.4-1.7 1.9-1.8h9c4.5 0 8.8.8 12.8 2.4 4 1.6 7.5 3.8 10.5 6.6 3 2.9 5.4 6.3 7.1 10.2 1.8 3.9 2.7 8.2 2.7 12.8m32 .1c0-5.8-.7-11.4-2.3-16.7-1.5-5.3-3.7-10.3-6.4-14.9s-6-8.8-9.9-12.5c-3.9-3.7-8.2-6.9-12.8-9.6a64.8 64.8 0 0 0-15.1-6.2c-5.4-1.4-11-2.2-16.8-2.2h-41c-1.3 0-2.2.4-2.9 1.1-.6.7-1 1.7-1 2.8V1073c0 1.4.4 2.4 1.2 2.8.8.5 1.6.6 2.6.6h41c5.8 0 11.4-.7 16.9-2.1 5.4-1.4 10.5-3.4 15.2-6 4.7-2.6 9-5.8 12.8-9.5 3.9-3.7 7.2-7.9 9.9-12.4 2.8-4.6 4.9-9.5 6.4-14.8 1.5-5 2.2-10.6 2.2-16.5M434.7 1072.9c-.3-1.2-16.5-35.6-21.4-46.2-.5-1.1-1.1-2.3-1.6-3.4-.5-.9-.9-1.8-1.3-2.7l-3.6-7.7c-.5-1.1-1.1-2.3-1.6-3.4l-.3-.6c-.5-1-.9-1.9-1.4-2.8-.3-.7-.6-1.4-1-2.1l-1.3-2.7c-.4-.7-.6-1.4-.9-1.9l-4.4-9.5c-.4-.9-.9-1.9-1.4-2.9-.4-.9-.9-1.9-1.3-2.8l-6-12.8c-.1-.1-1.3-2.7-1.4-3l-3.8-7.8c-.4-.7-.7-1.4-1-2.1-.2-.4-.4-.7-.5-1-.4-.7-.9-1.4-1.4-2-.5-.5-1-.9-1.6-1.3-1-.5-2.2-1-3.4-1.1-.4 0-.8-.1-1.2-.1-.9 0-1.8.1-2.7.4-.4.2-.8.3-1.2.5-1.6.9-2.5 2.3-3.1 3.5-.1.3-.2.5-.4.7l-.9 1.9c-.1.2-.5 1.1-.8 1.7l-3.4 7s-1.1 2.2-1.2 2.5l-2.4 5.2c-.4.8-.7 1.6-1.1 2.3l-1.2 2.5c-.4.9-.8 1.8-1.3 2.7-.5.9-.9 1.9-1.3 2.8-.3.6-.6 1.3-1 2.1l-2.2 4.6c-.4.8-.7 1.6-1.2 2.4l-6.3 13.4-.9 1.8-9.4 20c-.3.6-.7 1.4-1.1 2.3l-1.6 3.3-16.3 35.7c-.8 1.9.1 2.9.6 3.3.8.6 1.9.9 3.1.9h23.8c2.4 0 4.1-1.2 4.9-3.4.3-.8.6-1.7 1-2.5.6-1.7 2.6-6.3 3.5-8.4h47.5c2.2 5 4.9 11.2 5.6 12.3 1.3 1.9 4.3 2.1 5.2 2.1h22.7c.1 0 1.9-.1 2.6-.3.7-.2 1.2-.5 1.6-.9 1.2-.8.8-2.1.7-2.5m-46.1-37.4c-.1.2-.4.3-.7.3h-28.5c-.3 0-.5-.2-.7-.3-.1-.2-.1-.4-.1-.5l14.1-32c.1-.2.3-.3.5-.3s.4.2.6.4l15.1 31.9c-.1.1-.2.3-.3.5" />
</svg>
