<svg xmlns="http://www.w3.org/2000/svg" width="73.379" height="65.083"><path d="M72.452 14.445a2.771 2.771 0 0 0-2.769-2.768h-21.84V5.154c0-2.319-1.96-4.278-4.278-4.278H29.913a4.284 4.284 0 0 0-4.278 4.278v6.523H3.797a2.771 2.771 0 0 0-2.77 2.768L.987 33.29c0 .153.088.292.224.36a61.45 61.45 0 0 0 3.275 1.464.375.375 0 0 0-.025.123v26.29a2.771 2.771 0 0 0 2.768 2.769h59.02c1.5 0 2.768-1.267 2.768-2.768V34.845c0-.037-.012-.07-.02-.104a54.807 54.807 0 0 0 3.281-1.589.4.4 0 0 0 .214-.352zM26.43 5.155a3.485 3.485 0 0 1 3.483-3.483h13.652c1.888 0 3.482 1.595 3.482 3.482v6.523H26.43zm16.424 34.58a.411.411 0 0 0-.146.037v-1.715c0-.946-.768-1.713-1.712-1.713H32.48c-.944 0-1.71.768-1.71 1.713v5.84c0 .944.766 1.712 1.71 1.712h8.516c.946 0 1.71-.77 1.71-1.711V40.49a.44.44 0 0 0 .187.039c9.505-.484 17.991-2.333 25.326-5.47v26.47c0 1.067-.903 1.97-1.972 1.97H7.23a1.973 1.973 0 0 1-1.973-1.97V35.41c7.368 2.933 16.698 4.664 25.901 5.123h.02a.4.4 0 0 0 .02-.795c-10.722-.534-21.263-2.788-29.415-6.697l.04-18.596c0-1.087.884-1.972 1.973-1.972h65.886c1.087 0 1.973.884 1.973 1.973l.037 18.115c-8.044 4.194-17.746 6.607-28.837 7.172zm-.944-1.678v5.84a.916.916 0 0 1-.914.916H32.48a.916.916 0 0 1-.914-.916v-5.84a.916.916 0 0 1 .915-.916h8.515a.916.916 0 0 1 .914.916z" stroke="#000" stroke-width=".974"/></svg>