<svg xmlns="http://www.w3.org/2000/svg" width="73.379" height="65.083"><path d="M73.338 13.924a2.844 2.844 0 0 0-2.841-2.84H48.084V4.39c0-2.38-2.011-4.39-4.39-4.39h-14.01c-2.42 0-4.39 1.97-4.39 4.39v6.694H2.883a2.844 2.844 0 0 0-2.842 2.84L0 33.263c0 .157.09.3.23.369 1.095.53 2.217 1.03 3.36 1.503a.385.385 0 0 0-.025.126v26.98a2.844 2.844 0 0 0 2.84 2.841h60.568c1.539 0 2.84-1.3 2.84-2.84V34.859c0-.038-.012-.072-.02-.107a56.244 56.244 0 0 0 3.367-1.63.41.41 0 0 0 .219-.361zM26.11 4.39A3.576 3.576 0 0 1 29.684.817h14.01c1.937 0 3.573 1.636 3.573 3.573v6.694H26.11zm16.854 35.487a.422.422 0 0 0-.15.038v-1.76c0-.97-.788-1.758-1.756-1.758h-8.74c-.968 0-1.755.789-1.755 1.758v5.994c0 .968.787 1.756 1.756 1.756h8.739c.97 0 1.755-.789 1.755-1.756v-3.496c.056.024.12.042.191.04 9.755-.497 18.463-2.394 25.99-5.613v27.163c0 1.096-.926 2.023-2.023 2.023H6.406a2.025 2.025 0 0 1-2.024-2.023V35.44c7.561 3.01 17.135 4.786 26.58 5.257h.02a.41.41 0 0 0 .02-.816C20 39.333 9.182 37.02.817 33.009l.04-19.084c0-1.115.908-2.023 2.025-2.023h67.614c1.115 0 2.024.907 2.024 2.024l.038 18.59c-8.255 4.304-18.211 6.781-29.593 7.36zm-.968-1.722v5.994a.94.94 0 0 1-.938.939h-8.74a.94.94 0 0 1-.938-.94v-5.993a.94.94 0 0 1 .939-.94h8.739a.94.94 0 0 1 .938.94z"/></svg>