<svg width="50" height="50"><path fill="%231D1D1B" d="M25 0C11.2 0 0 11.2 0 25s11.2 25 25 25 25-11.2 25-25S38.8 0 25 0zm0 45.9C13.5 45.9 4.1 36.5 4.1 25S13.5 4.1 25 4.1c11.5 0 20.9 9.4 20.9 20.9S36.5 45.9 25 45.9z"/><path fill="%231D1D1B" d="M40.4 20.1v-.7s0-.1-.1-.1v-.1l-.1-.1-.1-.1-.1-.1h-.1L25.7 9.8c-.4-.3-1-.3-1.5 0l-14.1 9.4H10s-.1 0-.1.1l-.1.1-.1.1v.1s0 .1-.1.1v11.2s0 .1.1.1v.1l.1.1.1.1.1.1h.1l14.1 9.4c.2.1.5.2.7.2.3 0 .5-.1.7-.2l14.1-9.4h.1s.1 0 .1-.1l.1-.1.1-.1V31s0-.1.1-.1V20.6c.3-.4.3-.4.2-.5zm-14.1-6.7l10.4 6.9-4.6 3.1-5.8-3.9v-6.1zm-2.6 0v6.2l-5.8 3.9-4.6-3.1 10.4-7zm-11.5 9.4l3.3 2.2-3.3 2.2v-4.4zm11.5 13.8l-10.4-6.9 4.6-3.1 5.8 3.9v6.1zm1.3-8.5L20.3 25l4.7-3.1 4.7 3.1-4.7 3.1zm1.3 8.5v-6.2l5.8-3.9 4.6 3.1-10.4 7zm11.5-9.4L34.5 25l3.3-2.2v4.4z"/></svg>