<svg id="icon-codepen" x="0px" y="0px" width="50px" height="50px" viewBox="0 0 50 50">
    <path id="circle" fill="%231D1D1B" d="M25,0C11.2,0,0,11.2,0,25s11.2,25,25,25c13.8,0,25-11.2,25-25S38.8,0,25,0z M25,45.9 C13.5,45.9,4.1,36.5,4.1,25S13.5,4.1,25,4.1c11.5,0,20.9,9.4,20.9,20.9S36.5,45.9,25,45.9z"></path>
    <path id="box" fill="%231D1D1B" d="M40.4,20.1C40.4,20.1,40.4,20.1,40.4,20.1c0-0.1,0-0.1,0-0.2c0,0,0,0,0-0.1c0,0,0-0.1,0-0.1 c0,0,0,0,0-0.1c0,0,0-0.1,0-0.1c0,0,0,0,0-0.1c0,0,0-0.1-0.1-0.1c0,0,0,0,0-0.1c0,0,0,0-0.1-0.1c0,0,0,0-0.1-0.1c0,0,0,0-0.1-0.1 c0,0,0,0-0.1,0c0,0,0,0,0,0L25.7,9.8c-0.4-0.3-1-0.3-1.5,0l-14.1,9.4c0,0,0,0,0,0c0,0,0,0-0.1,0c0,0-0.1,0-0.1,0.1c0,0,0,0-0.1,0.1 c0,0,0,0-0.1,0.1c0,0,0,0,0,0.1c0,0,0,0.1-0.1,0.1c0,0,0,0,0,0.1c0,0,0,0.1,0,0.1c0,0,0,0,0,0.1c0,0,0,0.1,0,0.1c0,0,0,0,0,0.1 c0,0,0,0.1,0,0.1c0,0,0,0,0,0.1c0,0.1,0,0.1,0,0.2v9.4c0,0.1,0,0.1,0,0.2c0,0,0,0,0,0.1c0,0,0,0.1,0,0.1c0,0,0,0,0,0.1 c0,0,0,0.1,0,0.1c0,0,0,0,0,0.1c0,0,0,0.1,0,0.1c0,0,0,0,0,0.1c0,0,0,0.1,0.1,0.1c0,0,0,0,0,0.1c0,0,0,0,0.1,0.1c0,0,0,0,0.1,0.1 c0,0,0,0,0.1,0.1c0,0,0,0,0.1,0c0,0,0,0,0,0l14.1,9.4c0.2,0.1,0.5,0.2,0.7,0.2c0.3,0,0.5-0.1,0.7-0.2l14.1-9.4c0,0,0,0,0,0 c0,0,0,0,0.1,0c0,0,0.1,0,0.1-0.1c0,0,0,0,0.1-0.1c0,0,0,0,0.1-0.1c0,0,0,0,0-0.1c0,0,0-0.1,0.1-0.1c0,0,0,0,0-0.1c0,0,0-0.1,0-0.1 c0,0,0,0,0-0.1c0,0,0-0.1,0-0.1c0,0,0,0,0-0.1c0,0,0-0.1,0-0.1c0,0,0,0,0-0.1c0-0.1,0-0.1,0-0.2v-9.4 C40.5,20.2,40.5,20.2,40.4,20.1z M26.3,13.4l10.4,6.9l-4.6,3.1l-5.8-3.9V13.4z M23.7,13.4v6.2l-5.8,3.9l-4.6-3.1L23.7,13.4z M12.2,22.8l3.3,2.2l-3.3,2.2V22.8z M23.7,36.6l-10.4-6.9l4.6-3.1l5.8,3.9V36.6z M25,28.1L20.3,25l4.7-3.1l4.7,3.1L25,28.1z M26.3,36.6v-6.2l5.8-3.9l4.6,3.1L26.3,36.6z M37.8,27.2L34.5,25l3.3-2.2V27.2z"></path>
</svg>
