<svg viewBox="42.8 191 526.3 257.1"><path d="M249.8 190.938c-.9.2-1.8.6-2.5 1.1l-23.5 17.8-71.7 17.8c-60.3.5-109.2 49.7-109.2 110.2 0 60.8 49.4 110.2 110.2 110.2 25 0 47.9-8.5 66.4-22.6 11-9.2 26.1-16.3 37.9-19.7 14.7-4.2 32-6.7 48.8-6.7s34.1 2.5 48.8 6.7c11.7 3.4 26.8 10.5 37.9 19.7 18.5 14.1 41.4 22.6 66.4 22.6 60.8 0 110.2-49.4 110.2-110.2 0-60.4-48.9-109.6-109.2-110.2l-71.7-17.8-23.5-17.8c-.7-.6-1.6-1-2.5-1.1H249.8zm3 12.3h106.4l22.8 17c.6.5 1.3.9 2.1 1.1l43.6 10.9c-45.5 13.5-78.8 55.7-78.8 105.6 0 21.5 6.3 41.6 17 58.5-2.5-.9-5-1.7-7.6-2.5-15.9-4.5-34.3-7.1-52.2-7.1-18 0-36.4 2.6-52.2 7.1-2.7.8-5.1 1.6-7.6 2.5 10.7-17 17-37 17-58.5 0-49.9-33.3-92-78.8-105.6l43.6-10.9c.8-.2 1.5-.6 2.1-1.1l22.6-17zm-99.8 36.7c54.2 0 97.9 43.8 97.9 97.9 0 54.2-43.8 97.9-97.9 97.9s-97.9-43.8-97.9-97.9c0-54.1 43.7-97.9 97.9-97.9zm116.3 0c-3.4 0-6.1 2.7-6.1 6.1 0 3.4 2.7 6.1 6.1 6.1h73.4c3.4 0 6.1-2.7 6.1-6.1 0-3.4-2.7-6.1-6.1-6.1h-73.4zm189.7 0c54.2 0 97.9 43.8 97.9 97.9 0 54.2-43.8 97.9-97.9 97.9s-97.9-43.8-97.9-97.9c0-54.1 43.7-97.9 97.9-97.9zm-306 30.6c-37.1 0-67.3 30.2-67.3 67.3s30.2 67.3 67.3 67.3 67.3-30.2 67.3-67.3-30.2-67.3-67.3-67.3zm306 0c-37.1 0-67.3 30.2-67.3 67.3 0 37.1 30.2 67.3 67.3 67.3s67.3-30.2 67.3-67.3c0-37.1-30.2-67.3-67.3-67.3zm-306 12.2c30.5 0 55.1 24.6 55.1 55.1s-24.6 55.1-55.1 55.1-55.1-24.6-55.1-55.1 24.6-55.1 55.1-55.1zm306 0c30.5 0 55.1 24.6 55.1 55.1s-24.6 55.1-55.1 55.1-55.1-24.6-55.1-55.1 24.6-55.1 55.1-55.1z"/></svg>