<svg xmlns="http://www.w3.org/2000/svg" xmlns:xlink="http://www.w3.org/1999/xlink" version="1.1" x="0px" y="0px" viewBox="0 0 100 125" enable-background="new 0 0 100 100" xml:space="preserve"><g><g><g><path d="M35.344,74.126c-16.173,0-29.33-13.158-29.33-29.33s13.158-29.33,29.33-29.33c16.173,0,29.33,13.158,29.33,29.33     S51.517,74.126,35.344,74.126z M35.344,15.942c-15.909,0-28.853,12.943-28.853,28.853s12.943,28.853,28.853,28.853     s28.853-12.943,28.853-28.853S51.253,15.942,35.344,15.942z"/></g><g><path d="M64.003,74.126c-16.173,0-29.33-13.158-29.33-29.33s13.158-29.33,29.33-29.33s29.33,13.158,29.33,29.33     S80.176,74.126,64.003,74.126z M64.003,15.942c-15.909,0-28.853,12.943-28.853,28.853s12.943,28.853,28.853,28.853     s28.853-12.943,28.853-28.853S79.912,15.942,64.003,15.942z"/></g></g></g><text x="0" y="115" fill="#000000" font-size="5px" font-weight="bold" font-family="'Helvetica Neue', Helvetica, Arial-Unicode, Arial, Sans-serif">Created by Cecilia Morales</text><text x="0" y="120" fill="#000000" font-size="5px" font-weight="bold" font-family="'Helvetica Neue', Helvetica, Arial-Unicode, Arial, Sans-serif">from the Noun Project</text></svg>