<svg xmlns="http://www.w3.org/2000/svg" xmlns:xlink="http://www.w3.org/1999/xlink" version="1.1" x="0px" y="0px" viewBox="0 0 100 125" enable-background="new 0 0 100 100" xml:space="preserve"><g><g><g><path d="M50.367,6.228c-0.075,0-0.149-0.032-0.204-0.083c-0.052-0.055-0.083-0.129-0.083-0.204c0-0.078,0.032-0.15,0.086-0.204     c0.103-0.106,0.296-0.106,0.405,0c0.055,0.055,0.083,0.126,0.083,0.204c0,0.075-0.029,0.15-0.083,0.204     C50.516,6.196,50.442,6.228,50.367,6.228z"/></g><g><path d="M50.079,48.772c0-0.158,0.129-0.288,0.288-0.288l0,0c0.158,0,0.288,0.129,0.288,0.288l0,0     c0,0.158-0.129,0.288-0.288,0.288l0,0C50.209,49.06,50.079,48.93,50.079,48.772z M50.079,47.617c0-0.161,0.129-0.288,0.288-0.288     l0,0c0.158,0,0.288,0.126,0.288,0.288l0,0c0,0.158-0.129,0.288-0.288,0.288l0,0C50.209,47.904,50.079,47.775,50.079,47.617z      M50.079,46.458c0-0.158,0.129-0.288,0.288-0.288l0,0c0.158,0,0.288,0.129,0.288,0.288l0,0c0,0.158-0.129,0.288-0.288,0.288l0,0     C50.209,46.745,50.079,46.616,50.079,46.458z M50.079,45.299c0-0.158,0.129-0.285,0.288-0.285l0,0     c0.158,0,0.288,0.126,0.288,0.285l0,0c0,0.161-0.129,0.288-0.288,0.288l0,0C50.209,45.587,50.079,45.46,50.079,45.299z      M50.079,44.143c0-0.158,0.129-0.288,0.288-0.288l0,0c0.158,0,0.288,0.129,0.288,0.288l0,0c0,0.158-0.129,0.288-0.288,0.288l0,0     C50.209,44.431,50.079,44.301,50.079,44.143z M50.079,42.985c0-0.158,0.129-0.288,0.288-0.288l0,0     c0.158,0,0.288,0.129,0.288,0.288l0,0c0,0.158-0.129,0.288-0.288,0.288l0,0C50.209,43.272,50.079,43.143,50.079,42.985z      M50.079,41.829c0-0.161,0.129-0.288,0.288-0.288l0,0c0.158,0,0.288,0.126,0.288,0.288l0,0c0,0.158-0.129,0.285-0.288,0.285l0,0     C50.209,42.113,50.079,41.987,50.079,41.829z M50.079,40.67c0-0.158,0.129-0.288,0.288-0.288l0,0     c0.158,0,0.288,0.129,0.288,0.288l0,0c0,0.158-0.129,0.288-0.288,0.288l0,0C50.209,40.958,50.079,40.828,50.079,40.67z      M50.079,39.511c0-0.158,0.129-0.288,0.288-0.288l0,0c0.158,0,0.288,0.129,0.288,0.288l0,0c0,0.161-0.129,0.288-0.288,0.288l0,0     C50.209,39.799,50.079,39.672,50.079,39.511z M50.079,38.355c0-0.161,0.129-0.288,0.288-0.288l0,0     c0.158,0,0.288,0.126,0.288,0.288l0,0c0,0.158-0.129,0.288-0.288,0.288l0,0C50.209,38.643,50.079,38.514,50.079,38.355z      M50.079,37.197c0-0.158,0.129-0.288,0.288-0.288l0,0c0.158,0,0.288,0.129,0.288,0.288l0,0c0,0.158-0.129,0.288-0.288,0.288l0,0     C50.209,37.484,50.079,37.355,50.079,37.197z M50.079,36.041c0-0.161,0.129-0.29,0.288-0.29l0,0c0.158,0,0.288,0.129,0.288,0.29     l0,0c0,0.158-0.129,0.285-0.288,0.285l0,0C50.209,36.325,50.079,36.199,50.079,36.041z M50.079,34.882     c0-0.158,0.129-0.288,0.288-0.288l0,0c0.158,0,0.288,0.129,0.288,0.288l0,0c0,0.158-0.129,0.288-0.288,0.288l0,0     C50.209,35.17,50.079,35.04,50.079,34.882z M50.079,33.723c0-0.158,0.129-0.288,0.288-0.288l0,0c0.158,0,0.288,0.129,0.288,0.288     l0,0c0,0.158-0.129,0.288-0.288,0.288l0,0C50.209,34.011,50.079,33.882,50.079,33.723z M50.079,32.568     c0-0.161,0.129-0.29,0.288-0.29l0,0c0.158,0,0.288,0.129,0.288,0.29l0,0c0,0.158-0.129,0.288-0.288,0.288l0,0     C50.209,32.855,50.079,32.726,50.079,32.568z M50.079,31.409c0-0.158,0.129-0.288,0.288-0.288l0,0     c0.158,0,0.288,0.129,0.288,0.288l0,0c0,0.158-0.129,0.288-0.288,0.288l0,0C50.209,31.696,50.079,31.567,50.079,31.409z      M50.079,30.25c0-0.158,0.129-0.288,0.288-0.288l0,0c0.158,0,0.288,0.129,0.288,0.288l0,0c0,0.161-0.129,0.288-0.288,0.288l0,0     C50.209,30.538,50.079,30.411,50.079,30.25z M50.079,29.094c0-0.161,0.129-0.288,0.288-0.288l0,0     c0.158,0,0.288,0.126,0.288,0.288l0,0c0,0.158-0.129,0.288-0.288,0.288l0,0C50.209,29.382,50.079,29.252,50.079,29.094z      M50.079,27.936c0-0.158,0.129-0.288,0.288-0.288l0,0c0.158,0,0.288,0.129,0.288,0.288l0,0c0,0.158-0.129,0.288-0.288,0.288l0,0     C50.209,28.223,50.079,28.094,50.079,27.936z M50.079,26.777c0-0.158,0.129-0.288,0.288-0.288l0,0     c0.158,0,0.288,0.129,0.288,0.288l0,0c0,0.161-0.129,0.288-0.288,0.288l0,0C50.209,27.064,50.079,26.938,50.079,26.777z      M50.079,25.621c0-0.161,0.129-0.288,0.288-0.288l0,0c0.158,0,0.288,0.126,0.288,0.288l0,0c0,0.158-0.129,0.288-0.288,0.288l0,0     C50.209,25.909,50.079,25.779,50.079,25.621z M50.079,24.462c0-0.158,0.129-0.288,0.288-0.288l0,0     c0.158,0,0.288,0.129,0.288,0.288l0,0c0,0.158-0.129,0.288-0.288,0.288l0,0C50.209,24.75,50.079,24.62,50.079,24.462z      M50.079,23.306c0-0.161,0.129-0.29,0.288-0.29l0,0c0.158,0,0.288,0.129,0.288,0.29l0,0c0,0.158-0.129,0.288-0.288,0.288l0,0     C50.209,23.594,50.079,23.465,50.079,23.306z M50.079,22.148c0-0.161,0.129-0.288,0.288-0.288l0,0     c0.158,0,0.288,0.127,0.288,0.288l0,0c0,0.158-0.129,0.288-0.288,0.288l0,0C50.209,22.435,50.079,22.306,50.079,22.148z      M50.079,20.989c0-0.158,0.129-0.288,0.288-0.288l0,0c0.158,0,0.288,0.129,0.288,0.288l0,0c0,0.161-0.129,0.288-0.288,0.288l0,0     C50.209,21.277,50.079,21.15,50.079,20.989z M50.079,19.83c0-0.158,0.129-0.285,0.288-0.285l0,0c0.158,0,0.288,0.126,0.288,0.285     l0,0c0,0.161-0.129,0.29-0.288,0.29l0,0C50.209,20.121,50.079,19.991,50.079,19.83z M50.079,18.675     c0-0.158,0.129-0.288,0.288-0.288l0,0c0.158,0,0.288,0.129,0.288,0.288l0,0c0,0.158-0.129,0.288-0.288,0.288l0,0     C50.209,18.962,50.079,18.833,50.079,18.675z M50.079,17.516c0-0.158,0.129-0.288,0.288-0.288l0,0     c0.158,0,0.288,0.129,0.288,0.288l0,0c0,0.158-0.129,0.288-0.288,0.288l0,0C50.209,17.803,50.079,17.674,50.079,17.516z      M50.079,16.36c0-0.161,0.129-0.288,0.288-0.288l0,0c0.158,0,0.288,0.126,0.288,0.288l0,0c0,0.158-0.129,0.288-0.288,0.288l0,0     C50.209,16.647,50.079,16.518,50.079,16.36z M50.079,15.201c0-0.158,0.129-0.288,0.288-0.288l0,0     c0.158,0,0.288,0.129,0.288,0.288l0,0c0,0.158-0.129,0.288-0.288,0.288l0,0C50.209,15.489,50.079,15.359,50.079,15.201z      M50.079,14.042c0-0.158,0.129-0.288,0.288-0.288l0,0c0.158,0,0.288,0.129,0.288,0.288l0,0c0,0.161-0.129,0.288-0.288,0.288l0,0     C50.209,14.33,50.079,14.203,50.079,14.042z M50.079,12.887c0-0.161,0.129-0.288,0.288-0.288l0,0     c0.158,0,0.288,0.126,0.288,0.288l0,0c0,0.158-0.129,0.288-0.288,0.288l0,0C50.209,13.174,50.079,13.045,50.079,12.887z      M50.079,11.728c0-0.158,0.129-0.288,0.288-0.288l0,0c0.158,0,0.288,0.129,0.288,0.288l0,0c0,0.158-0.129,0.288-0.288,0.288l0,0     C50.209,12.015,50.079,11.886,50.079,11.728z M50.079,10.569c0-0.158,0.129-0.285,0.288-0.285l0,0     c0.158,0,0.288,0.126,0.288,0.285l0,0c0,0.161-0.129,0.288-0.288,0.288l0,0C50.209,10.857,50.079,10.73,50.079,10.569z      M50.079,9.413c0-0.158,0.129-0.288,0.288-0.288l0,0c0.158,0,0.288,0.129,0.288,0.288l0,0c0,0.158-0.129,0.288-0.288,0.288l0,0     C50.209,9.701,50.079,9.572,50.079,9.413z M50.079,8.255c0-0.158,0.129-0.288,0.288-0.288l0,0c0.158,0,0.288,0.129,0.288,0.288     l0,0c0,0.158-0.129,0.288-0.288,0.288l0,0C50.209,8.542,50.079,8.413,50.079,8.255z M50.079,7.099     c0-0.161,0.129-0.288,0.288-0.288l0,0c0.158,0,0.288,0.126,0.288,0.288l0,0c0,0.158-0.129,0.288-0.288,0.288l0,0     C50.209,7.386,50.079,7.257,50.079,7.099z"/></g><g><path d="M50.367,50.219c-0.075,0-0.149-0.032-0.201-0.083c-0.055-0.055-0.086-0.129-0.086-0.204c0-0.078,0.032-0.15,0.086-0.204     c0.103-0.106,0.296-0.106,0.405,0c0.055,0.054,0.083,0.129,0.083,0.204s-0.029,0.149-0.083,0.204     C50.516,50.187,50.442,50.219,50.367,50.219z"/></g></g><g><g><path d="M12.147,72.07c-0.075,0-0.149-0.029-0.204-0.083c-0.054-0.055-0.083-0.129-0.083-0.204c0-0.075,0.029-0.15,0.083-0.204     c0.106-0.106,0.302-0.106,0.408,0c0.052,0.054,0.083,0.126,0.083,0.204c0,0.075-0.032,0.149-0.086,0.204     C12.296,72.039,12.221,72.07,12.147,72.07z"/></g><g><path d="M12.903,71.352c-0.08-0.138-0.031-0.313,0.106-0.394l0,0c0.138-0.078,0.313-0.032,0.391,0.106l0,0     c0.08,0.138,0.031,0.313-0.106,0.394l0,0c-0.046,0.026-0.095,0.037-0.144,0.037l0,0C13.052,71.495,12.955,71.443,12.903,71.352z      M13.909,70.776c-0.08-0.138-0.031-0.316,0.106-0.394l0,0c0.138-0.078,0.313-0.032,0.391,0.106l0,0     c0.077,0.138,0.031,0.313-0.106,0.394l0,0c-0.046,0.026-0.095,0.037-0.144,0.037l0,0C14.059,70.92,13.961,70.868,13.909,70.776z      M14.913,70.201c-0.077-0.138-0.029-0.316,0.109-0.394l0,0c0.135-0.078,0.313-0.032,0.391,0.106l0,0     c0.077,0.138,0.031,0.313-0.106,0.394l0,0c-0.046,0.026-0.095,0.037-0.144,0.037l0,0C15.065,70.345,14.967,70.293,14.913,70.201z      M15.919,69.624c-0.077-0.135-0.032-0.311,0.106-0.391l0,0c0.138-0.078,0.313-0.032,0.394,0.106l0,0     c0.077,0.138,0.031,0.313-0.106,0.394l0,0c-0.046,0.026-0.095,0.037-0.144,0.037l0,0C16.068,69.77,15.974,69.718,15.919,69.624z      M16.925,69.051c-0.081-0.138-0.032-0.313,0.106-0.394l0,0c0.138-0.078,0.313-0.032,0.394,0.106l0,0     c0.077,0.138,0.029,0.313-0.109,0.394l0,0c-0.043,0.026-0.092,0.037-0.141,0.037l0,0C17.075,69.195,16.977,69.143,16.925,69.051z      M17.932,68.476c-0.081-0.138-0.032-0.316,0.106-0.394l0,0c0.138-0.078,0.313-0.032,0.391,0.106l0,0     c0.08,0.138,0.031,0.313-0.106,0.394l0,0c-0.043,0.026-0.092,0.037-0.141,0.037l0,0C18.081,68.62,17.983,68.568,17.932,68.476z      M18.938,67.901c-0.081-0.138-0.032-0.316,0.106-0.394l0,0c0.138-0.078,0.313-0.032,0.391,0.106l0,0     c0.08,0.138,0.031,0.313-0.106,0.394l0,0c-0.046,0.026-0.095,0.037-0.144,0.037l0,0C19.087,68.045,18.99,67.993,18.938,67.901z      M19.944,67.326c-0.081-0.138-0.032-0.313,0.106-0.394l0,0c0.138-0.078,0.313-0.032,0.391,0.106l0,0     c0.077,0.138,0.031,0.313-0.106,0.394l0,0c-0.046,0.026-0.095,0.037-0.144,0.037l0,0C20.094,67.47,19.996,67.418,19.944,67.326z      M20.948,66.751c-0.078-0.138-0.029-0.316,0.106-0.394l0,0c0.138-0.078,0.316-0.032,0.394,0.106l0,0     c0.077,0.138,0.031,0.313-0.106,0.394l0,0c-0.046,0.026-0.095,0.037-0.144,0.037l0,0C21.097,66.895,21.002,66.843,20.948,66.751z      M21.954,66.176c-0.078-0.138-0.032-0.316,0.106-0.394l0,0c0.138-0.078,0.313-0.032,0.394,0.106l0,0     c0.077,0.138,0.031,0.313-0.106,0.394l0,0c-0.046,0.026-0.095,0.037-0.144,0.037l0,0C22.103,66.32,22.009,66.268,21.954,66.176z      M22.96,65.601c-0.078-0.138-0.032-0.313,0.106-0.394l0,0c0.138-0.078,0.313-0.032,0.394,0.106l0,0     c0.077,0.138,0.029,0.313-0.11,0.394l0,0c-0.043,0.026-0.092,0.037-0.141,0.037l0,0C23.11,65.745,23.012,65.693,22.96,65.601z      M23.967,65.026c-0.081-0.138-0.032-0.313,0.106-0.394l0,0c0.138-0.078,0.313-0.032,0.391,0.106l0,0     c0.081,0.138,0.032,0.313-0.106,0.394l0,0c-0.043,0.026-0.095,0.037-0.141,0.037l0,0C24.116,65.17,24.018,65.118,23.967,65.026z      M24.973,64.451c-0.081-0.138-0.032-0.316,0.106-0.394l0,0c0.138-0.078,0.313-0.032,0.391,0.106l0,0     c0.081,0.138,0.032,0.313-0.106,0.394l0,0c-0.046,0.026-0.095,0.037-0.144,0.037l0,0C25.122,64.595,25.025,64.543,24.973,64.451z      M25.977,63.876c-0.078-0.138-0.029-0.313,0.109-0.394l0,0c0.138-0.078,0.313-0.032,0.391,0.106l0,0     c0.081,0.138,0.032,0.313-0.106,0.394l0,0c-0.046,0.026-0.095,0.037-0.144,0.037l0,0C26.129,64.02,26.031,63.968,25.977,63.876z      M26.983,63.301c-0.078-0.138-0.032-0.313,0.106-0.394l0,0c0.138-0.078,0.314-0.032,0.394,0.106l0,0     c0.078,0.138,0.032,0.313-0.106,0.394l0,0c-0.046,0.026-0.095,0.037-0.144,0.037l0,0C27.132,63.445,27.037,63.393,26.983,63.301z      M27.989,62.726c-0.078-0.138-0.032-0.316,0.106-0.394l0,0c0.138-0.078,0.314-0.032,0.394,0.106l0,0     c0.078,0.138,0.032,0.313-0.106,0.394l0,0c-0.046,0.026-0.095,0.037-0.144,0.037l0,0C28.139,62.87,28.044,62.818,27.989,62.726z      M28.996,62.151c-0.078-0.138-0.032-0.316,0.106-0.394l0,0c0.138-0.078,0.314-0.032,0.394,0.106l0,0     c0.078,0.138,0.029,0.316-0.109,0.394l0,0c-0.043,0.026-0.092,0.037-0.141,0.037l0,0C29.145,62.295,29.047,62.243,28.996,62.151z      M30.002,61.576c-0.081-0.138-0.032-0.313,0.106-0.394l0,0c0.138-0.078,0.314-0.032,0.391,0.106l0,0     c0.081,0.138,0.032,0.313-0.106,0.394l0,0c-0.043,0.026-0.095,0.037-0.141,0.037l0,0C30.151,61.72,30.054,61.668,30.002,61.576z      M31.008,61.001c-0.081-0.138-0.032-0.316,0.106-0.394l0,0c0.138-0.078,0.314-0.032,0.391,0.106l0,0     c0.078,0.138,0.032,0.313-0.106,0.394l0,0c-0.046,0.026-0.095,0.037-0.141,0.037l0,0C31.158,61.144,31.06,61.093,31.008,61.001z      M32.011,60.426c-0.077-0.138-0.029-0.316,0.109-0.394l0,0c0.135-0.078,0.314-0.032,0.391,0.106l0,0     c0.081,0.138,0.032,0.313-0.106,0.394l0,0c-0.046,0.026-0.095,0.037-0.144,0.037l0,0C32.164,60.569,32.066,60.517,32.011,60.426z      M33.018,59.848c-0.077-0.135-0.031-0.311,0.106-0.391l0,0c0.138-0.078,0.313-0.032,0.394,0.106l0,0     c0.078,0.138,0.032,0.313-0.106,0.394l0,0c-0.046,0.026-0.095,0.037-0.144,0.037l0,0C33.167,59.994,33.073,59.942,33.018,59.848z      M34.024,59.276c-0.077-0.138-0.031-0.313,0.106-0.394l0,0c0.138-0.078,0.313-0.032,0.394,0.106l0,0     c0.078,0.138,0.029,0.313-0.106,0.394l0,0c-0.046,0.026-0.095,0.037-0.144,0.037l0,0C34.174,59.419,34.076,59.367,34.024,59.276z      M35.03,58.701c-0.077-0.138-0.031-0.316,0.106-0.394l0,0c0.138-0.078,0.313-0.032,0.391,0.106l0,0     c0.081,0.138,0.031,0.313-0.106,0.394l0,0c-0.043,0.026-0.092,0.037-0.141,0.037l0,0C35.18,58.844,35.082,58.792,35.03,58.701z      M36.037,58.126c-0.08-0.138-0.031-0.316,0.106-0.394l0,0c0.138-0.078,0.313-0.032,0.391,0.106l0,0     c0.081,0.138,0.031,0.313-0.106,0.394l0,0c-0.043,0.026-0.092,0.037-0.141,0.037l0,0C36.186,58.269,36.089,58.217,36.037,58.126z      M37.043,57.55c-0.08-0.138-0.031-0.313,0.106-0.394l0,0c0.138-0.078,0.313-0.032,0.391,0.106l0,0     c0.077,0.138,0.031,0.313-0.106,0.394l0,0c-0.046,0.026-0.095,0.037-0.144,0.037l0,0C37.193,57.694,37.095,57.642,37.043,57.55z      M38.049,56.975c-0.08-0.138-0.031-0.316,0.104-0.394l0,0c0.138-0.078,0.316-0.032,0.394,0.106l0,0     c0.077,0.138,0.031,0.313-0.106,0.394l0,0c-0.046,0.026-0.095,0.037-0.144,0.037l0,0C38.199,57.119,38.101,57.067,38.049,56.975z      M39.053,56.4c-0.077-0.138-0.032-0.316,0.106-0.394l0,0c0.138-0.078,0.313-0.032,0.394,0.106l0,0     c0.077,0.138,0.031,0.313-0.106,0.394l0,0c-0.046,0.026-0.095,0.037-0.144,0.037l0,0C39.203,56.544,39.108,56.492,39.053,56.4z      M40.059,55.825c-0.077-0.138-0.032-0.313,0.106-0.394l0,0c0.138-0.078,0.313-0.032,0.394,0.106l0,0     c0.077,0.138,0.029,0.313-0.109,0.394l0,0c-0.043,0.026-0.092,0.037-0.141,0.037l0,0C40.209,55.969,40.111,55.917,40.059,55.825z      M41.066,55.25c-0.081-0.138-0.032-0.313,0.106-0.394l0,0c0.138-0.078,0.313-0.032,0.391,0.106l0,0     c0.08,0.138,0.031,0.313-0.106,0.394l0,0c-0.043,0.026-0.092,0.037-0.141,0.037l0,0C41.215,55.394,41.117,55.342,41.066,55.25z      M42.072,54.675c-0.081-0.138-0.032-0.316,0.106-0.394l0,0c0.138-0.078,0.313-0.032,0.391,0.106l0,0     c0.08,0.138,0.031,0.313-0.106,0.394l0,0c-0.043,0.026-0.095,0.037-0.141,0.037l0,0C42.222,54.819,42.124,54.767,42.072,54.675z      M43.078,54.1c-0.081-0.138-0.032-0.313,0.106-0.394l0,0c0.138-0.078,0.313-0.032,0.391,0.106l0,0     c0.08,0.138,0.031,0.313-0.106,0.394l0,0c-0.046,0.026-0.095,0.037-0.144,0.037l0,0C43.228,54.244,43.13,54.192,43.078,54.1z      M44.082,53.525c-0.078-0.138-0.032-0.313,0.106-0.394l0,0c0.138-0.078,0.316-0.032,0.394,0.106l0,0     c0.077,0.138,0.031,0.313-0.106,0.394l0,0c-0.046,0.026-0.095,0.037-0.144,0.037l0,0C44.231,53.669,44.136,53.617,44.082,53.525z      M45.088,52.95c-0.078-0.138-0.032-0.316,0.106-0.394l0,0c0.138-0.078,0.313-0.032,0.394,0.106l0,0     c0.077,0.138,0.031,0.313-0.106,0.394l0,0c-0.046,0.026-0.095,0.037-0.144,0.037l0,0C45.237,53.094,45.143,53.042,45.088,52.95z      M46.094,52.375c-0.078-0.138-0.032-0.316,0.106-0.394l0,0c0.138-0.078,0.313-0.032,0.391,0.106l0,0     c0.081,0.138,0.035,0.316-0.103,0.394l0,0c-0.046,0.026-0.095,0.037-0.144,0.037l0,0C46.244,52.519,46.149,52.467,46.094,52.375z      M47.101,51.8c-0.081-0.138-0.032-0.313,0.106-0.394l0,0c0.138-0.078,0.313-0.032,0.391,0.106l0,0     c0.081,0.138,0.032,0.313-0.106,0.394l0,0c-0.043,0.026-0.095,0.037-0.141,0.037l0,0C47.25,51.944,47.152,51.892,47.101,51.8z      M48.107,51.225c-0.081-0.138-0.032-0.316,0.106-0.394l0,0c0.138-0.078,0.313-0.032,0.391,0.106l0,0     c0.081,0.138,0.032,0.313-0.106,0.394l0,0c-0.046,0.026-0.095,0.037-0.141,0.037l0,0C48.256,51.369,48.159,51.317,48.107,51.225z      M49.113,50.65c-0.081-0.138-0.032-0.316,0.106-0.394l0,0c0.138-0.078,0.313-0.032,0.391,0.106l0,0     c0.081,0.138,0.032,0.313-0.106,0.394l0,0c-0.046,0.026-0.095,0.037-0.144,0.037l0,0C49.263,50.794,49.165,50.742,49.113,50.65z"/></g><g><path d="M50.367,50.219c-0.075,0-0.149-0.032-0.201-0.083c-0.055-0.055-0.086-0.129-0.086-0.204c0-0.078,0.032-0.15,0.086-0.204     c0.103-0.106,0.296-0.106,0.405,0c0.055,0.054,0.083,0.129,0.083,0.204s-0.029,0.149-0.083,0.204     C50.516,50.187,50.442,50.219,50.367,50.219z"/></g></g><g><g><path d="M88.435,71.783c-0.077,0-0.149-0.032-0.204-0.083c-0.055-0.055-0.083-0.129-0.083-0.204c0-0.075,0.029-0.15,0.083-0.204     c0.106-0.106,0.302-0.106,0.405,0c0.054,0.054,0.086,0.129,0.086,0.204c0,0.075-0.032,0.149-0.086,0.204     C88.585,71.751,88.51,71.783,88.435,71.783z"/></g><g><path d="M87.288,71.17c-0.138-0.081-0.184-0.256-0.106-0.394l0,0c0.081-0.138,0.256-0.184,0.394-0.106l0,0     c0.138,0.081,0.184,0.256,0.106,0.394l0,0c-0.054,0.092-0.149,0.144-0.25,0.144l0,0C87.383,71.208,87.334,71.196,87.288,71.17z      M86.287,70.595c-0.138-0.081-0.184-0.256-0.106-0.394l0,0c0.077-0.138,0.256-0.184,0.391-0.106l0,0     c0.141,0.081,0.187,0.256,0.109,0.394l0,0c-0.055,0.092-0.152,0.144-0.25,0.144l0,0C86.382,70.633,86.333,70.621,86.287,70.595z      M85.287,70.02c-0.138-0.081-0.187-0.256-0.106-0.394l0,0c0.078-0.138,0.253-0.184,0.391-0.106l0,0     c0.138,0.081,0.187,0.256,0.106,0.394l0,0c-0.052,0.092-0.15,0.144-0.25,0.144l0,0C85.379,70.058,85.33,70.046,85.287,70.02z      M84.283,69.445c-0.138-0.081-0.184-0.256-0.106-0.394l0,0c0.08-0.138,0.256-0.184,0.394-0.106l0,0     c0.138,0.081,0.184,0.256,0.106,0.394l0,0c-0.054,0.092-0.152,0.144-0.25,0.144l0,0C84.378,69.483,84.329,69.471,84.283,69.445z      M83.283,68.87c-0.138-0.081-0.187-0.256-0.106-0.394l0,0c0.078-0.138,0.253-0.184,0.391-0.106l0,0     c0.138,0.081,0.187,0.256,0.106,0.394l0,0c-0.052,0.092-0.15,0.144-0.25,0.144l0,0C83.377,68.908,83.326,68.896,83.283,68.87z      M82.279,68.295c-0.138-0.081-0.184-0.256-0.106-0.394l0,0c0.081-0.138,0.256-0.184,0.394-0.106l0,0     c0.138,0.081,0.184,0.256,0.106,0.394l0,0c-0.054,0.092-0.149,0.144-0.25,0.144l0,0C82.374,68.333,82.325,68.321,82.279,68.295z      M81.279,67.72c-0.138-0.081-0.184-0.256-0.106-0.394l0,0c0.077-0.138,0.256-0.184,0.391-0.106l0,0     c0.138,0.081,0.187,0.256,0.106,0.394l0,0c-0.052,0.092-0.149,0.144-0.247,0.144l0,0C81.374,67.758,81.325,67.746,81.279,67.72z      M80.278,67.145c-0.138-0.081-0.187-0.256-0.106-0.394l0,0c0.078-0.138,0.253-0.184,0.391-0.106l0,0     c0.138,0.081,0.184,0.256,0.106,0.394l0,0c-0.055,0.092-0.15,0.144-0.25,0.144l0,0C80.37,67.182,80.321,67.171,80.278,67.145z      M79.274,66.57c-0.138-0.081-0.184-0.256-0.106-0.394l0,0c0.08-0.138,0.256-0.184,0.394-0.106l0,0     c0.135,0.081,0.184,0.256,0.106,0.394l0,0c-0.054,0.092-0.152,0.144-0.25,0.144l0,0C79.369,66.607,79.32,66.596,79.274,66.57z      M78.274,65.995c-0.138-0.081-0.187-0.256-0.106-0.394l0,0c0.077-0.138,0.253-0.184,0.391-0.106l0,0     c0.138,0.081,0.187,0.256,0.106,0.394l0,0c-0.052,0.092-0.15,0.144-0.25,0.144l0,0C78.366,66.032,78.317,66.021,78.274,65.995z      M77.27,65.42c-0.135-0.081-0.184-0.256-0.106-0.394l0,0c0.081-0.138,0.256-0.184,0.394-0.106l0,0     c0.138,0.081,0.184,0.256,0.106,0.394l0,0c-0.055,0.092-0.149,0.144-0.25,0.144l0,0C77.365,65.457,77.316,65.446,77.27,65.42z      M76.27,64.845c-0.138-0.081-0.184-0.256-0.106-0.394l0,0c0.077-0.138,0.256-0.184,0.391-0.106l0,0     c0.138,0.081,0.187,0.256,0.106,0.394l0,0c-0.052,0.092-0.149,0.144-0.247,0.144l0,0C76.365,64.882,76.316,64.871,76.27,64.845z      M75.266,64.27c-0.135-0.081-0.184-0.256-0.104-0.394l0,0c0.078-0.138,0.253-0.184,0.391-0.106l0,0     c0.138,0.081,0.184,0.256,0.106,0.394l0,0c-0.052,0.092-0.15,0.144-0.25,0.144l0,0C75.361,64.307,75.313,64.296,75.266,64.27z      M74.266,63.695c-0.138-0.081-0.184-0.256-0.106-0.394l0,0c0.081-0.138,0.256-0.184,0.394-0.106l0,0     c0.138,0.081,0.184,0.256,0.106,0.394l0,0c-0.054,0.092-0.152,0.144-0.25,0.144l0,0C74.361,63.732,74.312,63.721,74.266,63.695z      M73.265,63.12c-0.138-0.081-0.187-0.256-0.106-0.394l0,0c0.077-0.138,0.253-0.184,0.391-0.106l0,0     c0.138,0.081,0.187,0.256,0.106,0.394l0,0c-0.052,0.092-0.149,0.144-0.25,0.144l0,0C73.357,63.157,73.308,63.146,73.265,63.12z      M72.262,62.545c-0.138-0.081-0.184-0.256-0.106-0.394l0,0c0.081-0.138,0.256-0.184,0.394-0.106l0,0     c0.138,0.081,0.184,0.256,0.106,0.394l0,0c-0.055,0.092-0.15,0.144-0.25,0.144l0,0C72.357,62.582,72.308,62.571,72.262,62.545z      M71.261,61.97c-0.138-0.081-0.187-0.256-0.106-0.394l0,0c0.08-0.138,0.256-0.184,0.391-0.106l0,0     c0.138,0.081,0.187,0.256,0.106,0.394l0,0c-0.052,0.092-0.149,0.144-0.247,0.144l0,0C71.356,62.007,71.307,61.996,71.261,61.97z      M70.261,61.395c-0.141-0.081-0.187-0.256-0.106-0.394l0,0c0.078-0.138,0.253-0.184,0.391-0.106l0,0     c0.138,0.081,0.184,0.256,0.106,0.394l0,0c-0.052,0.092-0.15,0.144-0.25,0.144l0,0C70.353,61.432,70.304,61.421,70.261,61.395z      M69.257,60.82c-0.138-0.081-0.184-0.256-0.106-0.394l0,0c0.081-0.138,0.256-0.184,0.394-0.106l0,0     c0.138,0.081,0.184,0.256,0.106,0.394l0,0c-0.054,0.092-0.152,0.144-0.25,0.144l0,0C69.352,60.857,69.303,60.845,69.257,60.82z      M68.257,60.245c-0.138-0.081-0.187-0.256-0.106-0.394l0,0c0.077-0.138,0.253-0.184,0.391-0.106l0,0     c0.138,0.081,0.187,0.256,0.106,0.394l0,0c-0.052,0.092-0.149,0.144-0.25,0.144l0,0C68.352,60.282,68.3,60.27,68.257,60.245z      M67.253,59.67c-0.138-0.081-0.184-0.256-0.106-0.394l0,0c0.081-0.138,0.256-0.184,0.394-0.106l0,0     c0.138,0.081,0.184,0.256,0.106,0.394l0,0c-0.055,0.092-0.15,0.144-0.25,0.144l0,0C67.348,59.707,67.299,59.695,67.253,59.67z      M66.252,59.094c-0.138-0.081-0.187-0.256-0.106-0.394l0,0c0.077-0.138,0.253-0.184,0.391-0.106l0,0     c0.138,0.081,0.187,0.256,0.106,0.394l0,0c-0.052,0.092-0.149,0.144-0.25,0.144l0,0C66.347,59.132,66.299,59.12,66.252,59.094z      M65.252,58.519c-0.138-0.081-0.187-0.256-0.109-0.394l0,0c0.081-0.138,0.256-0.184,0.394-0.106l0,0     c0.138,0.081,0.184,0.256,0.106,0.394l0,0c-0.052,0.092-0.15,0.144-0.25,0.144l0,0C65.344,58.557,65.295,58.545,65.252,58.519z      M64.249,57.944c-0.138-0.081-0.184-0.256-0.106-0.394l0,0c0.078-0.138,0.256-0.184,0.394-0.106l0,0     c0.138,0.081,0.184,0.256,0.106,0.394l0,0c-0.055,0.092-0.152,0.144-0.25,0.144l0,0C64.343,57.982,64.295,57.97,64.249,57.944z      M63.248,57.369c-0.138-0.081-0.187-0.256-0.106-0.394l0,0c0.077-0.138,0.253-0.184,0.391-0.106l0,0     c0.138,0.081,0.187,0.256,0.106,0.394l0,0c-0.052,0.092-0.149,0.144-0.25,0.144l0,0C63.34,57.407,63.291,57.395,63.248,57.369z      M62.245,56.794c-0.138-0.081-0.184-0.256-0.106-0.394l0,0c0.081-0.138,0.256-0.184,0.394-0.106l0,0     c0.138,0.081,0.184,0.256,0.106,0.394l0,0c-0.055,0.092-0.15,0.144-0.25,0.144l0,0C62.339,56.832,62.291,56.82,62.245,56.794z      M61.244,56.219c-0.138-0.081-0.187-0.256-0.106-0.394l0,0c0.078-0.138,0.256-0.184,0.391-0.106l0,0     c0.138,0.081,0.187,0.256,0.106,0.394l0,0c-0.052,0.092-0.149,0.144-0.247,0.144l0,0C61.339,56.257,61.29,56.245,61.244,56.219z      M60.241,55.644c-0.138-0.081-0.184-0.256-0.106-0.394l0,0c0.08-0.138,0.256-0.184,0.394-0.106l0,0     c0.138,0.081,0.184,0.256,0.106,0.394l0,0c-0.054,0.092-0.149,0.144-0.25,0.144l0,0C60.336,55.682,60.286,55.67,60.241,55.644z      M59.24,55.069c-0.138-0.081-0.184-0.256-0.106-0.394l0,0c0.081-0.138,0.256-0.184,0.394-0.106l0,0     c0.135,0.081,0.184,0.256,0.106,0.394l0,0c-0.055,0.092-0.152,0.144-0.25,0.144l0,0C59.335,55.107,59.286,55.095,59.24,55.069z      M58.239,54.494c-0.138-0.081-0.187-0.256-0.106-0.394l0,0c0.077-0.138,0.253-0.184,0.391-0.106l0,0     c0.138,0.081,0.187,0.256,0.106,0.394l0,0c-0.052,0.092-0.149,0.144-0.25,0.144l0,0C58.331,54.531,58.282,54.52,58.239,54.494z      M57.236,53.919c-0.138-0.081-0.184-0.256-0.106-0.394l0,0c0.081-0.138,0.256-0.184,0.394-0.106l0,0     c0.138,0.081,0.184,0.256,0.106,0.394l0,0c-0.055,0.092-0.15,0.144-0.25,0.144l0,0C57.331,53.956,57.282,53.945,57.236,53.919z      M56.235,53.344c-0.138-0.081-0.187-0.256-0.106-0.394l0,0c0.078-0.138,0.256-0.184,0.391-0.106l0,0     c0.138,0.081,0.187,0.256,0.106,0.394l0,0c-0.052,0.092-0.15,0.144-0.247,0.144l0,0C56.33,53.381,56.281,53.37,56.235,53.344z      M55.232,52.769c-0.135-0.081-0.184-0.256-0.106-0.394l0,0c0.08-0.138,0.256-0.184,0.394-0.106l0,0     c0.138,0.081,0.184,0.256,0.106,0.394l0,0c-0.054,0.092-0.149,0.144-0.25,0.144l0,0C55.327,52.806,55.278,52.795,55.232,52.769z      M54.231,52.194c-0.138-0.081-0.184-0.256-0.106-0.394l0,0c0.081-0.138,0.256-0.184,0.391-0.106l0,0     c0.138,0.081,0.187,0.256,0.106,0.394l0,0c-0.052,0.092-0.15,0.144-0.247,0.144l0,0C54.326,52.231,54.277,52.22,54.231,52.194z      M53.231,51.619c-0.138-0.081-0.187-0.256-0.106-0.394l0,0c0.077-0.138,0.253-0.184,0.391-0.106l0,0     c0.138,0.081,0.187,0.256,0.106,0.394l0,0c-0.052,0.092-0.149,0.144-0.25,0.144l0,0C53.323,51.656,53.274,51.645,53.231,51.619z      M52.227,51.044c-0.138-0.081-0.184-0.256-0.106-0.394l0,0c0.081-0.138,0.256-0.184,0.394-0.106l0,0     c0.138,0.081,0.184,0.256,0.106,0.394l0,0c-0.055,0.092-0.15,0.144-0.25,0.144l0,0C52.322,51.081,52.273,51.07,52.227,51.044z      M51.227,50.469c-0.138-0.081-0.187-0.256-0.106-0.394l0,0c0.078-0.138,0.253-0.184,0.391-0.106l0,0     c0.138,0.081,0.187,0.256,0.106,0.394l0,0c-0.052,0.092-0.15,0.144-0.25,0.144l0,0C51.322,50.506,51.27,50.495,51.227,50.469z"/></g><g><path d="M50.367,49.931c-0.075,0-0.149-0.029-0.201-0.083c-0.055-0.055-0.086-0.129-0.086-0.204c0-0.078,0.032-0.15,0.086-0.204     c0.103-0.106,0.296-0.106,0.405,0c0.055,0.054,0.083,0.129,0.083,0.204c0,0.075-0.029,0.149-0.083,0.204     C50.516,49.902,50.442,49.931,50.367,49.931z"/></g></g><g><rect x="50.212" y="49.644" width="0.575" height="43.991"/></g><g><rect x="47.578" y="38.43" transform="matrix(0.8665 -0.4992 0.4992 0.8665 -10.0532 39.846)" width="43.778" height="0.575"/></g><g><rect x="31.047" y="16.772" transform="matrix(0.4978 -0.8673 0.8673 0.4978 -17.8438 46.6175)" width="0.575" height="43.892"/></g><g><path d="M50.368,93.966l-0.144-0.083l-38.365-22.15V27.267l0.144-0.083l38.365-22.15l38.509,22.233v44.467l-0.144,0.083    L50.368,93.966z M12.434,71.401l37.934,21.901l37.934-21.901V27.598L50.368,5.697L12.434,27.598V71.401z"/></g></g><text x="0" y="115" fill="#000000" font-size="5px" font-weight="bold" font-family="'Helvetica Neue', Helvetica, Arial-Unicode, Arial, Sans-serif">Created by Cecilia Morales</text><text x="0" y="120" fill="#000000" font-size="5px" font-weight="bold" font-family="'Helvetica Neue', Helvetica, Arial-Unicode, Arial, Sans-serif">from the Noun Project</text></svg>